<svg width="30" height="30" viewBox="0 0 30 30" fill="none" xmlns="http://www.w3.org/2000/svg">
<g id="ic:round-add">
<path id="Vector" d="M22.5 16.2499H16.25V22.4999C16.25 23.1874 15.6875 23.7499 15 23.7499C14.3125 23.7499 13.75 23.1874 13.75 22.4999V16.2499H7.5C6.8125 16.2499 6.25 15.6874 6.25 14.9999C6.25 14.3124 6.8125 13.7499 7.5 13.7499H13.75V7.49994C13.75 6.81244 14.3125 6.24994 15 6.24994C15.6875 6.24994 16.25 6.81244 16.25 7.49994V13.7499H22.5C23.1875 13.7499 23.75 14.3124 23.75 14.9999C23.75 15.6874 23.1875 16.2499 22.5 16.2499Z" fill="url(#paint0_linear_1915_1094)"/>
</g>
<defs>
<linearGradient id="paint0_linear_1915_1094" x1="6.25" y1="14.9995" x2="23.75" y2="14.9995" gradientUnits="userSpaceOnUse">
<stop stop-color="#C26259"/>
<stop offset="0.2" stop-color="#FFCDC3"/>
<stop offset="0.36" stop-color="#EA8B81"/>
<stop offset="0.5" stop-color="#FFB3A9"/>
<stop offset="0.64" stop-color="#FFDDD3"/>
<stop offset="0.8" stop-color="#EC8C83"/>
<stop offset="1" stop-color="#DF817B"/>
</linearGradient>
</defs>
</svg>
