<svg width="17" height="17" viewBox="0 0 37 37" fill="none" xmlns="http://www.w3.org/2000/svg">
<g filter="url(#filter0_i_1915_3568)">
<rect x="1" y="1" width="35" height="35" rx="17.5" fill="#2D2D2D"/>
</g>
<rect x="1" y="1" width="35" height="35" rx="17.5" stroke="url(#paint0_linear_1915_3568)" stroke-width="2"/>
<path d="M15.0001 23.2L11.5001 19.7C11.4085 19.6074 11.2995 19.5338 11.1794 19.4836C11.0592 19.4334 10.9303 19.4076 10.8001 19.4076C10.6698 19.4076 10.5409 19.4334 10.4207 19.4836C10.3006 19.5338 10.1916 19.6074 10.1001 19.7C10.0074 19.7915 9.93387 19.9005 9.88367 20.0207C9.83347 20.1409 9.80762 20.2698 9.80762 20.4C9.80762 20.5302 9.83347 20.6592 9.88367 20.7793C9.93387 20.8995 10.0074 21.0085 10.1001 21.1L14.2901 25.29C14.6801 25.68 15.3101 25.68 15.7001 25.29L26.3001 14.7C26.3927 14.6085 26.4662 14.4995 26.5164 14.3793C26.5666 14.2592 26.5925 14.1302 26.5925 14C26.5925 13.8698 26.5666 13.7409 26.5164 13.6207C26.4662 13.5005 26.3927 13.3915 26.3001 13.3C26.2085 13.2074 26.0995 13.1338 25.9794 13.0836C25.8592 13.0334 25.7303 13.0076 25.6001 13.0076C25.4698 13.0076 25.3409 13.0334 25.2207 13.0836C25.1006 13.1338 24.9916 13.2074 24.9001 13.3L15.0001 23.2Z" fill="url(#paint1_linear_1915_3568)"/>
<defs>
<filter id="filter0_i_1915_3568" x="0" y="-4" width="37" height="41" filterUnits="userSpaceOnUse" color-interpolation-filters="sRGB">
<feFlood flood-opacity="0" result="BackgroundImageFix"/>
<feBlend mode="normal" in="SourceGraphic" in2="BackgroundImageFix" result="shape"/>
<feColorMatrix in="SourceAlpha" type="matrix" values="0 0 0 0 0 0 0 0 0 0 0 0 0 0 0 0 0 0 127 0" result="hardAlpha"/>
<feOffset dy="-15"/>
<feGaussianBlur stdDeviation="2"/>
<feComposite in2="hardAlpha" operator="arithmetic" k2="-1" k3="1"/>
<feColorMatrix type="matrix" values="0 0 0 0 0 0 0 0 0 0 0 0 0 0 0 0 0 0 1 0"/>
<feBlend mode="normal" in2="shape" result="effect1_innerShadow_1915_3568"/>
</filter>
<linearGradient id="paint0_linear_1915_3568" x1="1" y1="18.4992" x2="36" y2="18.4992" gradientUnits="userSpaceOnUse">
<stop stop-color="#C26259"/>
<stop offset="0.2" stop-color="#FFCDC3"/>
<stop offset="0.36" stop-color="#EA8B81"/>
<stop offset="0.5" stop-color="#FFB3A9"/>
<stop offset="0.64" stop-color="#FFDDD3"/>
<stop offset="0.8" stop-color="#EC8C83"/>
<stop offset="1" stop-color="#DF817B"/>
</linearGradient>
<linearGradient id="paint1_linear_1915_3568" x1="9.80762" y1="19.2947" x2="26.5925" y2="19.2947" gradientUnits="userSpaceOnUse">
<stop stop-color="#C26259"/>
<stop offset="0.2" stop-color="#FFCDC3"/>
<stop offset="0.36" stop-color="#EA8B81"/>
<stop offset="0.5" stop-color="#FFB3A9"/>
<stop offset="0.64" stop-color="#FFDDD3"/>
<stop offset="0.8" stop-color="#EC8C83"/>
<stop offset="1" stop-color="#DF817B"/>
</linearGradient>
</defs>
</svg>
