<svg width="25" height="24" viewBox="0 0 25 24" fill="none" xmlns="http://www.w3.org/2000/svg">
<g id="solar:inbox-bold">
<g id="Group">
<path id="Vector" d="M3.81245 20.4667C5.27357 21.9268 7.62171 21.9268 12.32 21.9268C17.0183 21.9268 19.3674 21.9268 20.8265 20.4667C22.0933 19.201 22.2617 17.2644 22.2837 13.7043H19.1372C18.1664 13.7043 17.9123 13.7203 17.7 13.818C17.4867 13.9166 17.3093 14.099 16.6774 14.8346L16.0744 15.5392L15.9867 15.6409C15.4864 16.2259 15.0897 16.6894 14.5416 16.9415C13.9934 17.1937 13.3834 17.1937 12.614 17.1927H12.027C11.2566 17.1927 10.6466 17.1947 10.0984 16.9415C9.55026 16.6894 9.15359 16.2259 8.65326 15.6409L8.56556 15.5392L7.96257 14.8356C7.33069 14.098 7.15328 13.9166 6.93999 13.819C6.7277 13.7203 6.47355 13.7043 5.5028 13.7043H2.35632C2.37925 17.2644 2.54569 19.201 3.81245 20.4667Z" fill="url(#paint0_linear_1915_4194)"/>
<path id="Vector_2" d="M20.8266 3.45253C19.3685 1.99341 17.0183 1.99341 12.3201 1.99341C7.62177 1.99341 5.27263 1.99341 3.81251 3.45253C2.35339 4.91364 2.35339 7.26179 2.35339 11.9601V12.2092H5.63741C6.40684 12.2092 7.0168 12.2072 7.56496 12.4604C8.11313 12.7126 8.5098 13.176 9.01013 13.7611L9.09784 13.8627L9.70082 14.5664C10.3327 15.3039 10.5101 15.4853 10.7234 15.583C10.9357 15.6816 11.1898 15.6976 12.1606 15.6976H12.4795C13.4503 15.6976 13.7044 15.6816 13.9167 15.584C14.13 15.4853 14.3074 15.3029 14.9393 14.5674L15.5423 13.8627L15.63 13.7611C16.1303 13.176 16.527 12.7126 17.0752 12.4604C17.6233 12.2072 18.2333 12.2082 19.0027 12.2092H22.2867V11.9601C22.2867 7.26179 22.2867 4.91264 20.8266 3.45253Z" fill="url(#paint1_linear_1915_4194)"/>
</g>
</g>
<defs>
<linearGradient id="paint0_linear_1915_4194" x1="2.35632" y1="17.8154" x2="22.2837" y2="17.8154" gradientUnits="userSpaceOnUse">
<stop stop-color="#C26259"/>
<stop offset="0.2" stop-color="#FFCDC3"/>
<stop offset="0.36" stop-color="#EA8B81"/>
<stop offset="0.5" stop-color="#FFB3A9"/>
<stop offset="0.64" stop-color="#FFDDD3"/>
<stop offset="0.8" stop-color="#EC8C83"/>
<stop offset="1" stop-color="#DF817B"/>
</linearGradient>
<linearGradient id="paint1_linear_1915_4194" x1="2.35339" y1="8.84516" x2="22.2867" y2="8.84516" gradientUnits="userSpaceOnUse">
<stop stop-color="#C26259"/>
<stop offset="0.2" stop-color="#FFCDC3"/>
<stop offset="0.36" stop-color="#EA8B81"/>
<stop offset="0.5" stop-color="#FFB3A9"/>
<stop offset="0.64" stop-color="#FFDDD3"/>
<stop offset="0.8" stop-color="#EC8C83"/>
<stop offset="1" stop-color="#DF817B"/>
</linearGradient>
</defs>
</svg>
