<svg width="24" height="24" viewBox="0 0 24 24" fill="none" xmlns="http://www.w3.org/2000/svg">
<g id="Iconly/Bold/Profile">
<g id="Profile">
<path id="Profile_2" fill-rule="evenodd" clip-rule="evenodd" d="M17.9964 7.37576C17.9964 10.3484 15.6532 12.7581 12.7626 12.7581C9.87205 12.7581 7.5288 10.3484 7.5288 7.37576C7.5288 4.40317 9.87205 1.99341 12.7626 1.99341C15.6532 1.99341 17.9964 4.40317 17.9964 7.37576ZM17.2549 15.7907C18.919 16.1276 20.0054 16.6774 20.471 17.5641C20.8207 18.2562 20.8207 19.08 20.471 19.772C20.0054 20.6587 18.9621 21.244 17.2376 21.5455C16.4692 21.7004 15.6914 21.8011 14.9096 21.8469C14.1853 21.9267 13.461 21.9267 12.7281 21.9267H11.4089C11.133 21.8913 10.8657 21.8735 10.607 21.8735C9.82518 21.8333 9.04717 21.7355 8.27895 21.5809C6.61482 21.2617 5.5284 20.6942 5.06279 19.8075C4.88304 19.464 4.78828 19.0803 4.78687 18.6902C4.78312 18.2978 4.87502 17.9106 5.05416 17.5641C5.51115 16.6774 6.59758 16.101 8.27895 15.7907C9.05056 15.6392 9.83122 15.5415 10.6156 15.4981C12.0505 15.3824 13.492 15.3824 14.9268 15.4981C15.7082 15.5436 16.4859 15.6414 17.2549 15.7907Z" fill="url(#paint0_linear_1915_3864)"/>
</g>
</g>
<defs>
<linearGradient id="paint0_linear_1915_3864" x1="4.78676" y1="11.9596" x2="20.7333" y2="11.9596" gradientUnits="userSpaceOnUse">
<stop stop-color="#C26259"/>
<stop offset="0.2" stop-color="#FFCDC3"/>
<stop offset="0.36" stop-color="#EA8B81"/>
<stop offset="0.5" stop-color="#FFB3A9"/>
<stop offset="0.64" stop-color="#FFDDD3"/>
<stop offset="0.8" stop-color="#EC8C83"/>
<stop offset="1" stop-color="#DF817B"/>
</linearGradient>
</defs>
</svg>
