<svg width="25" height="24" viewBox="0 0 25 24" fill="none" xmlns="http://www.w3.org/2000/svg">
<g id="teenyicons:cog-solid" clip-path="url(#clip0_1915_4084)">
<path id="Vector" d="M10.3293 11.9601C10.3293 10.6413 11.3818 9.56812 12.6783 9.56812C13.9748 9.56812 15.0272 10.6413 15.0272 11.9601C15.0272 13.2789 13.9748 14.3521 12.6783 14.3521C11.3818 14.3521 10.3293 13.2789 10.3293 11.9601Z" fill="url(#paint0_linear_1915_4084)"/>
<path id="Vector_2" fill-rule="evenodd" clip-rule="evenodd" d="M9.59901 0H15.7544L16.016 1.33474V1.33952L16.4465 3.4684C17.0573 3.74268 17.6266 4.08394 18.1496 4.46826L20.2944 3.7379L21.5638 3.33764L22.2288 4.49696L23.9622 7.45347L24.6399 8.63831L23.6305 9.53611L22.0215 10.9298C22.0725 11.244 22.1187 11.5964 22.1187 11.96C22.1187 12.3236 22.0709 12.6776 22.0231 12.9902L23.6369 14.3903L24.6399 15.2817L23.9574 16.4745L22.2288 19.423L21.5638 20.5871L20.2769 20.1757L18.1496 19.4517C17.6187 19.8441 17.0478 20.1792 16.4465 20.4516L16.016 22.5805V22.5853L15.7576 23.92H9.6022L9.34227 22.5821L8.91171 20.4516C8.31038 20.1792 7.73951 19.8441 7.20861 19.4517L5.06697 20.1805L3.79283 20.5871L3.13105 19.423L1.39605 16.4649L0.71991 15.2817L1.72774 14.3839L3.33516 12.9886C3.27603 12.6488 3.24403 12.3048 3.23948 11.96C3.23948 11.598 3.28732 11.2424 3.33676 10.9314L1.71977 9.52813L0.71991 8.6399L1.39924 7.44709L3.12945 4.49696L3.79124 3.33604L5.07973 3.74428L7.20701 4.46826C7.7379 4.0759 8.30878 3.74075 8.91012 3.4684L9.34068 1.33633L9.59901 0ZM12.6799 7.97333C10.5175 7.97333 8.765 9.75936 8.765 11.96C8.765 14.1606 10.5191 15.9467 12.6783 15.9467C14.8391 15.9467 16.5916 14.1606 16.5916 11.96C16.5916 9.75936 14.8375 7.97333 12.6799 7.97333Z" fill="url(#paint1_linear_1915_4084)"/>
</g>
<defs>
<linearGradient id="paint0_linear_1915_4084" x1="10.3293" y1="11.96" x2="15.0272" y2="11.96" gradientUnits="userSpaceOnUse">
<stop stop-color="#C26259"/>
<stop offset="0.2" stop-color="#FFCDC3"/>
<stop offset="0.36" stop-color="#EA8B81"/>
<stop offset="0.5" stop-color="#FFB3A9"/>
<stop offset="0.64" stop-color="#FFDDD3"/>
<stop offset="0.8" stop-color="#EC8C83"/>
<stop offset="1" stop-color="#DF817B"/>
</linearGradient>
<linearGradient id="paint1_linear_1915_4084" x1="0.71991" y1="11.9594" x2="24.6399" y2="11.9594" gradientUnits="userSpaceOnUse">
<stop stop-color="#C26259"/>
<stop offset="0.2" stop-color="#FFCDC3"/>
<stop offset="0.36" stop-color="#EA8B81"/>
<stop offset="0.5" stop-color="#FFB3A9"/>
<stop offset="0.64" stop-color="#FFDDD3"/>
<stop offset="0.8" stop-color="#EC8C83"/>
<stop offset="1" stop-color="#DF817B"/>
</linearGradient>
<clipPath id="clip0_1915_4084">
<rect width="23.92" height="23.92" fill="white" transform="translate(0.71991)"/>
</clipPath>
</defs>
</svg>
