<svg width="24" height="24" viewBox="0 0 24 24" fill="none" xmlns="http://www.w3.org/2000/svg">
<g id="basil:bag-outline">
<path id="Vector" fill-rule="evenodd" clip-rule="evenodd" d="M7.25003 6.63092V5.46092C7.25017 5.04195 7.40062 4.63693 7.67404 4.31946C7.94746 4.002 8.3257 3.79317 8.74003 3.73092L9.96003 3.54792C11.3125 3.34503 12.6876 3.34503 14.04 3.54792L15.26 3.73092C15.6744 3.79317 16.0526 4.002 16.326 4.31946C16.5994 4.63693 16.7499 5.04195 16.75 5.46092V6.63092L18.464 6.76892C19.1017 6.82044 19.7037 7.08429 20.1738 7.51829C20.6439 7.95228 20.9549 8.53136 21.057 9.16292C21.5223 12.0355 21.5223 14.9643 21.057 17.8369C20.9549 18.4685 20.6439 19.0476 20.1738 19.4816C19.7037 19.9156 19.1017 20.1794 18.464 20.2309L16.592 20.3809C13.5357 20.6276 10.4644 20.6276 7.40803 20.3809L5.53603 20.2309C4.89833 20.1794 4.29631 19.9156 3.82624 19.4816C3.35617 19.0476 3.0452 18.4685 2.94303 17.8369C2.47781 14.9643 2.47781 12.0355 2.94303 9.16292C3.0454 8.53154 3.35647 7.95269 3.82652 7.5189C4.29657 7.0851 4.89847 6.82139 5.53603 6.76992L7.25003 6.63092ZM10.183 5.03092C11.3876 4.85025 12.6124 4.85025 13.817 5.03092L15.037 5.21393C15.0962 5.22278 15.1503 5.25258 15.1894 5.29791C15.2284 5.34323 15.25 5.40107 15.25 5.46092V6.52592C13.0851 6.40246 10.9149 6.40246 8.75003 6.52592V5.45992C8.75009 5.40007 8.77162 5.34223 8.8107 5.29691C8.84979 5.25158 8.90384 5.22178 8.96303 5.21292L10.183 5.03092ZM7.52903 8.11292C10.505 7.87292 13.495 7.87292 16.471 8.11292L18.343 8.26493C18.6464 8.2892 18.9328 8.41451 19.1565 8.62082C19.3803 8.82714 19.5283 9.10252 19.577 9.40292C19.639 9.78792 19.692 10.1729 19.737 10.5609C17.33 11.7459 14.6829 12.3622 12 12.3622C9.31712 12.3622 6.67006 11.7459 4.26303 10.5609C4.30703 10.1739 4.36103 9.78792 4.42303 9.40292C4.47174 9.10252 4.61979 8.82714 4.84351 8.62082C5.06722 8.41451 5.35367 8.2892 5.65703 8.26493L7.52903 8.11292ZM4.12903 12.1569C6.60088 13.2807 9.28471 13.8622 12 13.8622C14.7153 13.8622 17.3992 13.2807 19.871 12.1569C19.9666 13.9756 19.868 15.7992 19.577 17.5969C19.5285 17.8975 19.3806 18.1731 19.1568 18.3796C18.9331 18.5861 18.6465 18.7116 18.343 18.7359L16.471 18.8859C13.495 19.1259 10.505 19.1259 7.52903 18.8859L5.65703 18.7359C5.35353 18.7116 5.06697 18.5861 4.84323 18.3796C4.6195 18.1731 4.47153 17.8975 4.42303 17.5969C4.13203 15.7969 4.03303 13.9729 4.12903 12.1569Z" fill="url(#paint0_linear_1915_5583)"/>
</g>
<defs>
<linearGradient id="paint0_linear_1915_5583" x1="2.59412" y1="11.9804" x2="21.406" y2="11.9804" gradientUnits="userSpaceOnUse">
<stop stop-color="#C26259"/>
<stop offset="0.2" stop-color="#FFCDC3"/>
<stop offset="0.36" stop-color="#EA8B81"/>
<stop offset="0.5" stop-color="#FFB3A9"/>
<stop offset="0.64" stop-color="#FFDDD3"/>
<stop offset="0.8" stop-color="#EC8C83"/>
<stop offset="1" stop-color="#DF817B"/>
</linearGradient>
</defs>
</svg>
