<svg width="24" height="24" viewBox="0 0 24 24" fill="none" xmlns="http://www.w3.org/2000/svg">
<path d="M1.875 12C1.875 6.35711 6.35711 1.875 12 1.875C17.6429 1.875 22.125 6.35711 22.125 12C22.125 17.6429 17.6429 22.125 12 22.125C6.35711 22.125 1.875 17.6429 1.875 12ZM2.625 12C2.625 17.1571 6.84289 21.375 12 21.375C17.1571 21.375 21.375 17.1571 21.375 12C21.375 6.84289 17.1571 2.625 12 2.625C6.84289 2.625 2.625 6.84289 2.625 12Z" fill="white" stroke="url(#paint0_linear_5835_12961)" stroke-width="0.75"/>
<path d="M16.05 16.7197L12.2652 12.9348L12 12.6697L11.7348 12.9348L7.95 16.7197L7.28033 16.05L11.0652 12.2652L11.3303 12L11.0652 11.7348L7.28033 7.95L7.95 7.28033L11.7348 11.0652L12 11.3303L12.2652 11.0652L16.05 7.28033L16.7197 7.95L12.9348 11.7348L12.6697 12L12.9348 12.2652L16.7197 16.05L16.05 16.7197Z" fill="white" stroke="url(#paint1_linear_5835_12961)" stroke-width="0.75"/>
<defs>
<linearGradient id="paint0_linear_5835_12961" x1="1.5" y1="11.9995" x2="22.5" y2="11.9995" gradientUnits="userSpaceOnUse">
<stop stop-color="#C26259"/>
<stop offset="0.2" stop-color="#FFCDC3"/>
<stop offset="0.36" stop-color="#EA8B81"/>
<stop offset="0.5" stop-color="#FFB3A9"/>
<stop offset="0.64" stop-color="#FFDDD3"/>
<stop offset="0.8" stop-color="#EC8C83"/>
<stop offset="1" stop-color="#DF817B"/>
</linearGradient>
<linearGradient id="paint1_linear_5835_12961" x1="6.75" y1="11.9997" x2="17.25" y2="11.9997" gradientUnits="userSpaceOnUse">
<stop stop-color="#C26259"/>
<stop offset="0.2" stop-color="#FFCDC3"/>
<stop offset="0.36" stop-color="#EA8B81"/>
<stop offset="0.5" stop-color="#FFB3A9"/>
<stop offset="0.64" stop-color="#FFDDD3"/>
<stop offset="0.8" stop-color="#EC8C83"/>
<stop offset="1" stop-color="#DF817B"/>
</linearGradient>
</defs>
</svg>
