<svg width="24" height="24" viewBox="0 0 24 24" fill="none" xmlns="http://www.w3.org/2000/svg">
<g id="fluent:signature-20-filled">
<path id="Vector" d="M14.4252 3.32651C14.6963 3.04862 15.02 2.82732 15.3773 2.67543C15.7347 2.52355 16.1186 2.44411 16.5069 2.44171C16.8951 2.43931 17.28 2.514 17.6392 2.66145C17.9984 2.8089 18.3248 3.02618 18.5994 3.3007C18.874 3.57521 19.0913 3.9015 19.2389 4.26065C19.3864 4.6198 19.4612 5.00467 19.459 5.39294C19.4567 5.78121 19.3773 6.16517 19.2256 6.52256C19.0738 6.87994 18.8526 7.20365 18.5748 7.47491L17.0484 9.00011L17.1516 9.10331C17.3745 9.32618 17.5514 9.5908 17.6721 9.88204C17.7927 10.1733 17.8548 10.4855 17.8548 10.8007C17.8548 11.116 17.7927 11.4281 17.6721 11.7194C17.5514 12.0106 17.3745 12.2752 17.1516 12.4981L15.4236 14.2249C15.3104 14.3342 15.1588 14.3947 15.0015 14.3933C14.8442 14.3919 14.6937 14.3288 14.5825 14.2176C14.4712 14.1064 14.4081 13.9559 14.4068 13.7985C14.4054 13.6412 14.4659 13.4897 14.5752 13.3765L16.3032 11.6485C16.5281 11.4235 16.6545 11.1183 16.6545 10.8001C16.6545 10.4819 16.5281 10.1767 16.3032 9.95171L16.2 9.84851L8.22476 17.8249C8.14755 17.9017 8.0509 17.9561 7.94516 17.9821L3.14516 19.1821C3.04092 19.208 2.93165 19.2054 2.82875 19.1747C2.72584 19.1439 2.63307 19.0861 2.56013 19.0073C2.48719 18.9285 2.43674 18.8315 2.41405 18.7265C2.39136 18.6216 2.39727 18.5124 2.43116 18.4105L3.93116 13.9105C3.96041 13.8224 4.0097 13.7423 4.07516 13.6765L14.4264 3.32651H14.4252ZM3.92156 20.2861C3.90151 20.271 3.88151 20.2558 3.86156 20.2405L5.47916 19.8361C6.12476 20.1601 6.90476 20.4001 7.79996 20.4001C8.40836 20.4001 9.01676 20.1877 9.64076 19.8325C10.2672 19.4749 10.8696 18.9985 11.472 18.5101L11.628 18.3829C12.162 17.9473 12.7104 17.5009 13.2324 17.1925C13.7988 16.8589 14.4852 16.5961 15.1896 16.8325C16.176 17.1601 16.4868 18.0673 16.7748 19.0285C16.8408 19.2481 16.9536 19.4653 17.0868 19.6153C17.22 19.7653 17.3268 19.8001 17.4 19.8001C17.6244 19.8001 17.9472 19.6789 18.3564 19.4365C18.6156 19.2841 18.84 19.1293 19.062 18.9757C19.1976 18.8809 19.3332 18.7885 19.4736 18.6973C19.8552 18.4501 20.184 18.2845 20.4216 18.1801C20.5434 18.1267 20.6675 18.0786 20.7936 18.0361L20.8176 18.0289L20.8272 18.0265L20.8308 18.0253L21 18.6013L20.832 18.0253C20.983 17.9855 21.1436 18.0061 21.2797 18.0829C21.4157 18.1596 21.5165 18.2864 21.5606 18.4362C21.6046 18.5861 21.5885 18.7472 21.5156 18.8854C21.4428 19.0235 21.3189 19.1278 21.1704 19.1761L21.162 19.1785L21.114 19.1953C21.0434 19.2209 20.9738 19.2489 20.9052 19.2793C20.7192 19.3609 20.4492 19.4953 20.1264 19.7041C20.0424 19.7593 19.9332 19.8337 19.8108 19.9177C19.5612 20.0893 19.2528 20.3017 18.966 20.4697C18.5316 20.7265 17.97 21.0001 17.4 21.0001C16.872 21.0001 16.464 20.7217 16.1904 20.4121C15.9301 20.1099 15.7374 19.7556 15.6252 19.3729C15.3096 18.3217 15.1284 18.0769 14.8092 17.9689C14.6148 17.9053 14.3256 17.9413 13.842 18.2269C13.4028 18.4861 12.9252 18.8749 12.3684 19.3273L12.228 19.4413C11.6304 19.9273 10.9584 20.4625 10.2348 20.8753C9.50876 21.2881 8.69156 21.6001 7.79996 21.6001C6.13436 21.6001 4.81316 20.9341 3.92156 20.2861Z" fill="url(#paint0_linear_1915_5596)"/>
</g>
<defs>
<linearGradient id="paint0_linear_1915_5596" x1="2.40051" y1="12.0204" x2="21.5849" y2="12.0204" gradientUnits="userSpaceOnUse">
<stop stop-color="#C26259"/>
<stop offset="0.2" stop-color="#FFCDC3"/>
<stop offset="0.36" stop-color="#EA8B81"/>
<stop offset="0.5" stop-color="#FFB3A9"/>
<stop offset="0.64" stop-color="#FFDDD3"/>
<stop offset="0.8" stop-color="#EC8C83"/>
<stop offset="1" stop-color="#DF817B"/>
</linearGradient>
</defs>
</svg>
