<svg width="17" height="17" viewBox="0 0 37 37" fill="none" xmlns="http://www.w3.org/2000/svg">
<g filter="url(#filter0_i_4714_9116)">
<rect x="1" y="1" width="35" height="35" rx="17.5" fill="#2D2D2D"/>
</g>
<rect x="1" y="1" width="35" height="35" rx="17.5" stroke="url(#paint0_linear_4714_9116)" stroke-width="2"/>
<path d="M23.9062 13.5836C23.5781 12.8664 23.1117 12.2219 22.5164 11.6711C21.307 10.5484 19.7016 9.92969 18 9.92969C16.2984 9.92969 14.693 10.5484 13.4836 11.6687C12.8883 12.2219 12.4219 12.8641 12.0938 13.5836C11.7516 14.3336 11.5781 15.1281 11.5781 15.9484V16.5812C11.5781 16.7266 11.6953 16.8438 11.8406 16.8438H13.1063C13.2516 16.8438 13.3687 16.7266 13.3687 16.5812V15.9484C13.3687 13.6164 15.4453 11.7203 18 11.7203C20.5547 11.7203 22.6312 13.6164 22.6312 15.9484C22.6312 16.9047 22.2914 17.8047 21.6469 18.5547C21.0094 19.2977 20.1094 19.8297 19.1133 20.0547C18.5438 20.1836 18.0305 20.5047 17.6672 20.9641C17.3052 21.4219 17.1079 21.9882 17.107 22.5719V23.3078C17.107 23.4531 17.2242 23.5703 17.3695 23.5703H18.6352C18.7805 23.5703 18.8977 23.4531 18.8977 23.3078V22.5719C18.8977 22.2039 19.1531 21.8805 19.507 21.8008C20.8758 21.4914 22.118 20.7531 23.0062 19.7219C23.4539 19.1992 23.8031 18.618 24.0445 17.9875C24.2953 17.3336 24.4219 16.6469 24.4219 15.9484C24.4219 15.1281 24.2484 14.3312 23.9062 13.5836ZM18 25.4453C17.2758 25.4453 16.6875 26.0336 16.6875 26.7578C16.6875 27.482 17.2758 28.0703 18 28.0703C18.7242 28.0703 19.3125 27.482 19.3125 26.7578C19.3125 26.0336 18.7242 25.4453 18 25.4453Z" fill="url(#paint1_linear_4714_9116)"/>
<defs>
<filter id="filter0_i_4714_9116" x="0" y="-4" width="37" height="41" filterUnits="userSpaceOnUse" color-interpolation-filters="sRGB">
<feFlood flood-opacity="0" result="BackgroundImageFix"/>
<feBlend mode="normal" in="SourceGraphic" in2="BackgroundImageFix" result="shape"/>
<feColorMatrix in="SourceAlpha" type="matrix" values="0 0 0 0 0 0 0 0 0 0 0 0 0 0 0 0 0 0 127 0" result="hardAlpha"/>
<feOffset dy="-15"/>
<feGaussianBlur stdDeviation="2"/>
<feComposite in2="hardAlpha" operator="arithmetic" k2="-1" k3="1"/>
<feColorMatrix type="matrix" values="0 0 0 0 0 0 0 0 0 0 0 0 0 0 0 0 0 0 1 0"/>
<feBlend mode="normal" in2="shape" result="effect1_innerShadow_4714_9116"/>
</filter>
<linearGradient id="paint0_linear_4714_9116" x1="1" y1="18.4992" x2="36" y2="18.4992" gradientUnits="userSpaceOnUse">
<stop stop-color="#C26259"/>
<stop offset="0.2" stop-color="#FFCDC3"/>
<stop offset="0.36" stop-color="#EA8B81"/>
<stop offset="0.5" stop-color="#FFB3A9"/>
<stop offset="0.64" stop-color="#FFDDD3"/>
<stop offset="0.8" stop-color="#EC8C83"/>
<stop offset="1" stop-color="#DF817B"/>
</linearGradient>
<linearGradient id="paint1_linear_4714_9116" x1="11.5781" y1="18.9996" x2="24.4219" y2="18.9996" gradientUnits="userSpaceOnUse">
<stop stop-color="#C26259"/>
<stop offset="0.2" stop-color="#FFCDC3"/>
<stop offset="0.36" stop-color="#EA8B81"/>
<stop offset="0.5" stop-color="#FFB3A9"/>
<stop offset="0.64" stop-color="#FFDDD3"/>
<stop offset="0.8" stop-color="#EC8C83"/>
<stop offset="1" stop-color="#DF817B"/>
</linearGradient>
</defs>
</svg>
