<svg width="50" height="50" viewBox="0 0 25 24" fill="none" xmlns="http://www.w3.org/2000/svg">
<g id="material-symbols:fingerprint-outline">
<path id="Vector" d="M3.36841 9.6499C3.25174 9.56657 3.18074 9.46224 3.15541 9.3369C3.13007 9.21157 3.16774 9.08257 3.26841 8.9499C4.30174 7.53324 5.59774 6.43324 7.15641 5.6499C8.71507 4.86657 10.3774 4.4749 12.1434 4.4749C13.9101 4.4749 15.5767 4.85424 17.1434 5.6129C18.7101 6.37157 20.0184 7.46724 21.0684 8.8999C21.1851 9.0499 21.2227 9.18324 21.1814 9.2999C21.1401 9.41657 21.0691 9.51657 20.9684 9.5999C20.8684 9.68324 20.7517 9.7209 20.6184 9.7129C20.4851 9.7049 20.3684 9.6339 20.2684 9.4999C19.3517 8.1999 18.1727 7.20424 16.7314 6.5129C15.2901 5.82157 13.7607 5.47557 12.1434 5.4749C10.5267 5.4749 9.01007 5.8209 7.59341 6.5129C6.17674 7.2049 5.00174 8.20057 4.06841 9.4999C3.96841 9.6499 3.85174 9.73324 3.71841 9.7499C3.58507 9.76657 3.46841 9.73324 3.36841 9.6499ZM14.9684 21.9749C13.2351 21.5416 11.8184 20.6789 10.7184 19.3869C9.61841 18.0949 9.06841 16.5159 9.06841 14.6499C9.06841 13.8166 9.36841 13.1166 9.96841 12.5499C10.5684 11.9832 11.2934 11.6999 12.1434 11.6999C12.9934 11.6999 13.7184 11.9832 14.3184 12.5499C14.9184 13.1166 15.2184 13.8166 15.2184 14.6499C15.2184 15.1999 15.4267 15.6626 15.8434 16.0379C16.2601 16.4132 16.7517 16.6006 17.3184 16.5999C17.8851 16.5999 18.3684 16.4122 18.7684 16.0369C19.1684 15.6616 19.3684 15.1992 19.3684 14.6499C19.3684 12.7166 18.6601 11.0916 17.2434 9.7749C15.8267 8.45824 14.1351 7.7999 12.1684 7.7999C10.2017 7.7999 8.51007 8.45824 7.09341 9.7749C5.67674 11.0916 4.96841 12.7082 4.96841 14.6249C4.96841 15.0249 5.00607 15.5249 5.08141 16.1249C5.15674 16.7249 5.33574 17.4249 5.61841 18.2249C5.66841 18.3749 5.66441 18.5082 5.60641 18.6249C5.54841 18.7416 5.45241 18.8249 5.31841 18.8749C5.18507 18.9249 5.05574 18.9206 4.93041 18.8619C4.80507 18.8032 4.71774 18.7076 4.66841 18.5749C4.41841 17.9249 4.23941 17.2789 4.13141 16.6369C4.02341 15.9949 3.96907 15.3326 3.96841 14.6499C3.96841 12.4332 4.77274 10.5749 6.38141 9.0749C7.99007 7.5749 9.91074 6.8249 12.1434 6.8249C14.3934 6.8249 16.3267 7.5749 17.9434 9.0749C19.5601 10.5749 20.3684 12.4332 20.3684 14.6499C20.3684 15.4832 20.0727 16.1789 19.4814 16.7369C18.8901 17.2949 18.1691 17.5742 17.3184 17.5749C16.4684 17.5749 15.7391 17.2956 15.1304 16.7369C14.5217 16.1782 14.2177 15.4826 14.2184 14.6499C14.2184 14.0999 14.0144 13.6372 13.6064 13.2619C13.1984 12.8866 12.7107 12.6992 12.1434 12.6999C11.5767 12.6999 11.0891 12.8876 10.6804 13.2629C10.2717 13.6382 10.0677 14.1006 10.0684 14.6499C10.0684 16.2666 10.5477 17.6166 11.5064 18.6999C12.4651 19.7832 13.7024 20.5416 15.2184 20.9749C15.3684 21.0249 15.4684 21.1082 15.5184 21.2249C15.5684 21.3416 15.5767 21.4666 15.5434 21.5999C15.5101 21.7166 15.4434 21.8166 15.3434 21.8999C15.2434 21.9832 15.1184 22.0082 14.9684 21.9749ZM6.61841 4.4249C6.48507 4.50824 6.35174 4.52924 6.21841 4.4879C6.08507 4.44657 5.98507 4.3589 5.91841 4.2249C5.85174 4.09157 5.83507 3.9709 5.86841 3.8629C5.90174 3.7549 5.98507 3.6589 6.11841 3.5749C7.05174 3.0749 8.02674 2.69157 9.04341 2.4249C10.0601 2.15824 11.0934 2.0249 12.1434 2.0249C13.2101 2.0249 14.2517 2.15424 15.2684 2.4129C16.2851 2.67157 17.2684 3.04224 18.2184 3.5249C18.3684 3.60824 18.4561 3.70824 18.4814 3.8249C18.5067 3.94157 18.4941 4.05824 18.4434 4.1749C18.3934 4.29157 18.3101 4.38324 18.1934 4.4499C18.0767 4.51657 17.9351 4.50824 17.7684 4.4249C16.8851 3.9749 15.9724 3.6289 15.0304 3.3869C14.0884 3.1449 13.1261 3.02424 12.1434 3.0249C11.1767 3.0249 10.2267 3.13757 9.29341 3.3629C8.36007 3.58824 7.46841 3.94224 6.61841 4.4249ZM9.56841 21.6249C8.58507 20.5916 7.83074 19.5372 7.30541 18.4619C6.78007 17.3866 6.51774 16.1159 6.51841 14.6499C6.51841 13.1332 7.06841 11.8539 8.16841 10.8119C9.26841 9.7699 10.5934 9.24924 12.1434 9.2499C13.6934 9.2499 15.0267 9.7709 16.1434 10.8129C17.2601 11.8549 17.8184 13.1339 17.8184 14.6499C17.8184 14.7999 17.7724 14.9209 17.6804 15.0129C17.5884 15.1049 17.4677 15.1506 17.3184 15.1499C17.1851 15.1499 17.0684 15.1039 16.9684 15.0119C16.8684 14.9199 16.8184 14.7992 16.8184 14.6499C16.8184 13.3999 16.3557 12.3539 15.4304 11.5119C14.5051 10.6699 13.4094 10.2492 12.1434 10.2499C10.8767 10.2499 9.78907 10.6709 8.88041 11.5129C7.97174 12.3549 7.51774 13.4006 7.51841 14.6499C7.51841 15.9999 7.75174 17.1459 8.21841 18.0879C8.68507 19.0299 9.36841 19.9756 10.2684 20.9249C10.3684 21.0249 10.4184 21.1416 10.4184 21.2749C10.4184 21.4082 10.3684 21.5249 10.2684 21.6249C10.1684 21.7249 10.0517 21.7749 9.91841 21.7749C9.78507 21.7749 9.66841 21.7249 9.56841 21.6249ZM17.1184 19.9249C15.6351 19.9249 14.3474 19.4249 13.2554 18.4249C12.1634 17.4249 11.6177 16.1666 11.6184 14.6499C11.6184 14.5166 11.6644 14.3999 11.7564 14.2999C11.8484 14.1999 11.9691 14.1499 12.1184 14.1499C12.2684 14.1499 12.3894 14.1999 12.4814 14.2999C12.5734 14.3999 12.6191 14.5166 12.6184 14.6499C12.6184 15.8999 13.0684 16.9249 13.9684 17.7249C14.8684 18.5249 15.9184 18.9249 17.1184 18.9249C17.2184 18.9249 17.3601 18.9166 17.5434 18.8999C17.7267 18.8832 17.9184 18.8582 18.1184 18.8249C18.2684 18.7916 18.3977 18.8126 18.5064 18.8879C18.6151 18.9632 18.6857 19.0756 18.7184 19.2249C18.7517 19.3582 18.7267 19.4749 18.6434 19.5749C18.5601 19.6749 18.4517 19.7416 18.3184 19.7749C18.0184 19.8582 17.7561 19.9042 17.5314 19.9129C17.3067 19.9216 17.1691 19.9256 17.1184 19.9249Z" fill="url(#paint0_linear_1915_4125)"/>
</g>
<defs>
<linearGradient id="paint0_linear_1915_4125" x1="3.14777" y1="12.0066" x2="21.1976" y2="12.0066" gradientUnits="userSpaceOnUse">
<stop stop-color="#C26259"/>
<stop offset="0.2" stop-color="#FFCDC3"/>
<stop offset="0.36" stop-color="#EA8B81"/>
<stop offset="0.5" stop-color="#FFB3A9"/>
<stop offset="0.64" stop-color="#FFDDD3"/>
<stop offset="0.8" stop-color="#EC8C83"/>
<stop offset="1" stop-color="#DF817B"/>
</linearGradient>
</defs>
</svg>
