<svg width="24" height="24" viewBox="0 0 24 24" fill="none" xmlns="http://www.w3.org/2000/svg">
<g id="bx:map">
<path id="Vector" d="M12 14C14.206 14 16 12.206 16 10C16 7.794 14.206 6 12 6C9.794 6 8 7.794 8 10C8 12.206 9.794 14 12 14ZM12 8C13.103 8 14 8.897 14 10C14 11.103 13.103 12 12 12C10.897 12 10 11.103 10 10C10 8.897 10.897 8 12 8Z" fill="url(#paint0_linear_1915_5589)"/>
<path id="Vector_2" d="M11.42 21.814C11.5892 21.9349 11.792 21.9998 12 21.9998C12.2079 21.9998 12.4107 21.9349 12.58 21.814C12.884 21.599 20.029 16.44 20 10C20 5.589 16.411 2 12 2C7.58897 2 3.99997 5.589 3.99997 9.995C3.97097 16.44 11.116 21.599 11.42 21.814ZM12 4C15.309 4 18 6.691 18 10.005C18.021 14.443 13.612 18.428 12 19.735C10.389 18.427 5.97897 14.441 5.99997 10C5.99997 6.691 8.69097 4 12 4Z" fill="url(#paint1_linear_1915_5589)"/>
</g>
<defs>
<linearGradient id="paint0_linear_1915_5589" x1="8" y1="9.99981" x2="16" y2="9.99981" gradientUnits="userSpaceOnUse">
<stop stop-color="#C26259"/>
<stop offset="0.2" stop-color="#FFCDC3"/>
<stop offset="0.36" stop-color="#EA8B81"/>
<stop offset="0.5" stop-color="#FFB3A9"/>
<stop offset="0.64" stop-color="#FFDDD3"/>
<stop offset="0.8" stop-color="#EC8C83"/>
<stop offset="1" stop-color="#DF817B"/>
</linearGradient>
<linearGradient id="paint1_linear_1915_5589" x1="3.99988" y1="11.9994" x2="20.0001" y2="11.9994" gradientUnits="userSpaceOnUse">
<stop stop-color="#C26259"/>
<stop offset="0.2" stop-color="#FFCDC3"/>
<stop offset="0.36" stop-color="#EA8B81"/>
<stop offset="0.5" stop-color="#FFB3A9"/>
<stop offset="0.64" stop-color="#FFDDD3"/>
<stop offset="0.8" stop-color="#EC8C83"/>
<stop offset="1" stop-color="#DF817B"/>
</linearGradient>
</defs>
</svg>
