<svg width="24" height="24" viewBox="0 0 19 19" fill="none" xmlns="http://www.w3.org/2000/svg">
<path d="M17.5866 12.5899L13.1578 10.6053C12.9572 10.5193 12.7382 10.4847 12.5208 10.5047C12.3034 10.5247 12.0945 10.5985 11.9128 10.7196C11.8944 10.7315 11.8768 10.7446 11.8603 10.759L9.54564 12.7278C9.52162 12.7409 9.49489 12.7482 9.46755 12.7492C9.44021 12.7501 9.41302 12.7447 9.38814 12.7334C7.90032 12.0153 6.35907 10.4834 5.63814 9.0162C5.62613 8.99168 5.61989 8.96474 5.61989 8.93745C5.61989 8.91015 5.62613 8.88321 5.63814 8.8587L7.61345 6.51495C7.62762 6.4976 7.64077 6.47945 7.65282 6.46057C7.77225 6.27823 7.84439 6.06902 7.86272 5.85182C7.88105 5.63463 7.845 5.41629 7.75782 5.21651L5.7872 0.795259C5.67529 0.534267 5.48175 0.316611 5.23563 0.174957C4.98951 0.0333034 4.70409 -0.0247065 4.4222 0.00963374C3.1971 0.170693 2.07256 0.772326 1.25872 1.7021C0.444884 2.63188 -0.0025572 3.82618 1.09944e-05 5.06182C1.09944e-05 12.4024 5.97189 18.3743 13.3125 18.3743C14.5481 18.3767 15.7423 17.9292 16.672 17.1154C17.6018 16.3016 18.2034 15.1772 18.3647 13.9521C18.399 13.6716 18.3417 13.3874 18.2015 13.142C18.0613 12.8966 17.8457 12.7029 17.5866 12.5899ZM13.3125 17.2493C6.59251 17.2493 1.12501 11.7818 1.12501 5.06182C1.12188 4.09988 1.46908 3.1697 2.10174 2.44508C2.7344 1.72046 3.60925 1.25097 4.56282 1.12432H4.58439C4.62217 1.12503 4.65885 1.13713 4.68963 1.15905C4.72041 1.18096 4.74386 1.21167 4.75689 1.24713L6.73501 5.6637C6.74629 5.68825 6.75213 5.71495 6.75213 5.74198C6.75213 5.769 6.74629 5.7957 6.73501 5.82026L4.75595 8.16963C4.74118 8.18641 4.72771 8.20427 4.71564 8.22307C4.5918 8.41212 4.51887 8.62995 4.50393 8.85546C4.48898 9.08097 4.53252 9.30651 4.63032 9.51026C5.46189 11.2128 7.17751 12.9153 8.89876 13.7468C9.1037 13.8441 9.33034 13.8866 9.55659 13.8701C9.78284 13.8537 10.001 13.7789 10.1897 13.6531C10.2075 13.6409 10.2253 13.6278 10.2422 13.6137L12.5559 11.6449C12.5788 11.6327 12.604 11.6255 12.6299 11.6239C12.6558 11.6222 12.6817 11.6262 12.7059 11.6356L17.1356 13.6203C17.1718 13.6357 17.2022 13.6621 17.2226 13.6957C17.243 13.7294 17.2522 13.7686 17.2491 13.8078C17.1231 14.7618 16.654 15.6373 15.9296 16.2706C15.2051 16.904 14.2748 17.2519 13.3125 17.2493Z" fill="url(#paint0_linear_2586_375)"/>
<defs>
<linearGradient id="paint0_linear_2586_375" x1="0" y1="9.18672" x2="18.3744" y2="9.18672" gradientUnits="userSpaceOnUse">
<stop stop-color="#C26259"/>
<stop offset="0.2" stop-color="#FFCDC3"/>
<stop offset="0.36" stop-color="#EA8B81"/>
<stop offset="0.5" stop-color="#FFB3A9"/>
<stop offset="0.64" stop-color="#FFDDD3"/>
<stop offset="0.8" stop-color="#EC8C83"/>
<stop offset="1" stop-color="#DF817B"/>
</linearGradient>
</defs>
</svg>
