<svg width="16" height="16" viewBox="0 0 16 16" fill="none" xmlns="http://www.w3.org/2000/svg">
<g id="ph:signature">
<path id="Vector" d="M14.5059 10.5H3.99717C4.16342 10.1725 4.33029 9.83562 4.49717 9.49312C5.43029 9.59625 6.53592 8.94312 7.79342 7.54187C7.83092 7.64563 7.87279 7.7525 7.91842 7.86062C8.32529 8.81375 8.85029 9.35687 9.48092 9.47625C10.1272 9.60125 10.7672 9.27437 11.4234 8.4875C11.8497 8.99188 12.7247 9.5 14.5059 9.5C14.6385 9.5 14.7657 9.44732 14.8595 9.35355C14.9532 9.25979 15.0059 9.13261 15.0059 9C15.0059 8.86739 14.9532 8.74021 14.8595 8.64645C14.7657 8.55268 14.6385 8.5 14.5059 8.5C12.5915 8.5 12.034 7.83812 12.0059 7.48625C12.0029 7.36994 11.9594 7.25833 11.8829 7.17065C11.8064 7.08297 11.7017 7.02471 11.5869 7.00591C11.4721 6.9871 11.3543 7.00893 11.2538 7.06763C11.1534 7.12633 11.0765 7.21823 11.0365 7.3275C10.2759 8.46812 9.82529 8.52375 9.66154 8.49375C9.14092 8.39562 8.65654 7.18563 8.49342 6.39937C8.47207 6.30008 8.42099 6.20963 8.34698 6.14008C8.27296 6.07053 8.17952 6.02517 8.07908 6.01004C7.97865 5.9949 7.87599 6.01072 7.78476 6.05537C7.69354 6.10002 7.61808 6.1714 7.56842 6.26C6.33092 7.79875 5.50092 8.3225 4.98029 8.45625C5.51092 7.27625 5.90717 6.24062 6.16092 5.36875C6.58717 3.90375 6.61842 2.87937 6.25529 2.2375C6.06779 1.9025 5.67467 1.50313 4.88592 1.5H4.87029C3.87029 1.50687 3.08279 2.45625 2.70654 4.10625C2.48217 5.08812 2.44529 6.18062 2.60467 7.10625C2.76404 8.03187 3.09592 8.70062 3.57654 9.09937C3.34404 9.5825 3.10592 10.0544 2.87467 10.5013H1.50592C1.37331 10.5013 1.24613 10.5539 1.15236 10.6477C1.0586 10.7415 1.00592 10.8686 1.00592 11.0013C1.00592 11.1339 1.0586 11.261 1.15236 11.3548C1.24613 11.4486 1.37331 11.5013 1.50592 11.5013H2.34404C1.63654 12.8138 1.08654 13.7287 1.07779 13.7437C1.04215 13.8001 1.01811 13.8629 1.00711 13.9286C0.996104 13.9944 0.998348 14.0616 1.01371 14.1265C1.02907 14.1913 1.05724 14.2524 1.09656 14.3062C1.13588 14.36 1.18556 14.4054 1.24267 14.4398C1.29979 14.4741 1.36319 14.4967 1.42916 14.5061C1.49512 14.5156 1.56231 14.5118 1.62678 14.4949C1.69125 14.4781 1.7517 14.4485 1.80457 14.4079C1.85744 14.3674 1.90168 14.3166 1.93467 14.2587C1.94404 14.2425 2.63904 13.0844 3.47842 11.5013H14.5059C14.6385 11.5013 14.7657 11.4486 14.8595 11.3548C14.9532 11.261 15.0059 11.1339 15.0059 11.0013C15.0059 10.8686 14.9532 10.7415 14.8595 10.6477C14.7657 10.5539 14.6385 10.5013 14.5059 10.5013V10.5ZM12.0059 7.5V7.48688C12.0063 7.49124 12.0063 7.49564 12.0059 7.5ZM3.68029 4.32875C3.92967 3.23625 4.41092 2.5 4.88092 2.5C5.20904 2.5 5.31842 2.61625 5.38092 2.72937C5.56842 3.0625 5.78842 4.24125 4.02779 8.1275C3.51592 7.42187 3.34154 5.8125 3.68029 4.32875Z" fill="url(#paint0_linear_1915_3039)"/>
</g>
<defs>
<linearGradient id="paint0_linear_1915_3039" x1="1.00024" y1="8.00529" x2="15.0059" y2="8.00529" gradientUnits="userSpaceOnUse">
<stop stop-color="#C26259"/>
<stop offset="0.2" stop-color="#FFCDC3"/>
<stop offset="0.36" stop-color="#EA8B81"/>
<stop offset="0.5" stop-color="#FFB3A9"/>
<stop offset="0.64" stop-color="#FFDDD3"/>
<stop offset="0.8" stop-color="#EC8C83"/>
<stop offset="1" stop-color="#DF817B"/>
</linearGradient>
</defs>
</svg>
