<svg width="24" height="24" viewBox="0 0 24 24" fill="none" xmlns="http://www.w3.org/2000/svg">
<path d="M2.06008 10.0595C2.57008 10.5695 3.38008 10.6195 3.93008 10.1595C8.60008 6.31953 15.3801 6.31953 20.0601 10.1495C20.6201 10.6095 21.4401 10.5695 21.9501 10.0595C22.5401 9.46953 22.5001 8.48953 21.8501 7.95953C16.1401 3.28953 7.88008 3.28953 2.16008 7.95953C1.51008 8.47953 1.46008 9.45953 2.06008 10.0595ZM9.82008 17.8195L11.2901 19.2895C11.6801 19.6795 12.3101 19.6795 12.7001 19.2895L14.1701 17.8195C14.6401 17.3495 14.5401 16.5395 13.9401 16.2295C13.3352 15.9189 12.665 15.7569 11.9851 15.7569C11.3051 15.7569 10.635 15.9189 10.0301 16.2295C9.46008 16.5395 9.35008 17.3495 9.82008 17.8195ZM6.09008 14.0895C6.58008 14.5795 7.35008 14.6295 7.92008 14.2195C9.11313 13.3754 10.5386 12.9221 12.0001 12.9221C13.4615 12.9221 14.887 13.3754 16.0801 14.2195C16.6501 14.6195 17.4201 14.5795 17.9101 14.0895L17.9201 14.0795C18.5201 13.4795 18.4801 12.4595 17.7901 11.9695C14.3501 9.47953 9.66008 9.47953 6.21008 11.9695C5.52008 12.4695 5.48008 13.4795 6.09008 14.0895Z" fill="url(#paint0_linear_5332_12029)"/>
<defs>
<linearGradient id="paint0_linear_5332_12029" x1="1.63965" y1="12.0192" x2="22.3666" y2="12.0192" gradientUnits="userSpaceOnUse">
<stop stop-color="#C26259"/>
<stop offset="0.2" stop-color="#FFCDC3"/>
<stop offset="0.36" stop-color="#EA8B81"/>
<stop offset="0.5" stop-color="#FFB3A9"/>
<stop offset="0.64" stop-color="#FFDDD3"/>
<stop offset="0.8" stop-color="#EC8C83"/>
<stop offset="1" stop-color="#DF817B"/>
</linearGradient>
</defs>
</svg>
