<svg width="24" height="24" viewBox="0 0 24 24" fill="none" xmlns="http://www.w3.org/2000/svg">
<path d="M20.06 10.1399C20.62 10.5999 21.44 10.5599 21.95 10.0499C22.54 9.45987 22.5 8.47987 21.85 7.94987C18.26 5.00987 13.65 3.91987 9.29996 4.68987L11.89 7.27987C14.78 7.24987 17.69 8.19987 20.06 10.1399ZM17.79 11.9699C17.01 11.3999 16.16 10.9699 15.27 10.6699L18.22 13.6199C18.46 13.0399 18.32 12.3499 17.79 11.9699ZM13.95 16.2299C13.3451 15.9193 12.6749 15.7573 11.995 15.7573C11.315 15.7573 10.6448 15.9193 10.04 16.2299C9.44996 16.5399 9.33996 17.3499 9.80996 17.8199L11.28 19.2899C11.67 19.6799 12.3 19.6799 12.69 19.2899L14.16 17.8199C14.65 17.3499 14.55 16.5399 13.95 16.2299ZM19.68 17.8999L4.11996 2.33987C4.02738 2.24729 3.91747 2.17385 3.79651 2.12375C3.67554 2.07364 3.54589 2.04785 3.41496 2.04785C3.28403 2.04785 3.15438 2.07364 3.03342 2.12375C2.91246 2.17385 2.80254 2.24729 2.70996 2.33987C2.61738 2.43245 2.54394 2.54236 2.49384 2.66333C2.44373 2.78429 2.41794 2.91394 2.41794 3.04487C2.41794 3.1758 2.44373 3.30545 2.49384 3.42642C2.54394 3.54738 2.61738 3.65729 2.70996 3.74987L5.04996 6.09987C4.03996 6.59987 3.05996 7.20987 2.15996 7.94987C2.00724 8.07585 1.88255 8.23237 1.7939 8.40938C1.70524 8.58639 1.65458 8.77999 1.64516 8.97774C1.63575 9.17549 1.66778 9.37302 1.73922 9.55766C1.81065 9.74229 1.9199 9.90995 2.05996 10.0499C2.56996 10.5599 3.37996 10.6099 3.92996 10.1499C4.92996 9.32987 6.02996 8.68987 7.17996 8.21987L9.40996 10.4499C8.27996 10.7499 7.19996 11.2499 6.21996 11.9599C5.52996 12.4599 5.48996 13.4699 6.08996 14.0699L6.09996 14.0799C6.58996 14.5699 7.35996 14.6199 7.92996 14.2099C9.09511 13.3937 10.4776 12.9445 11.9 12.9199L18.27 19.2899C18.66 19.6799 19.29 19.6799 19.68 19.2899C20.07 18.9199 20.07 18.2899 19.68 17.8999Z" fill="url(#paint0_linear_5332_12033)"/>
<defs>
<linearGradient id="paint0_linear_5332_12033" x1="1.64355" y1="10.8147" x2="22.3664" y2="10.8147" gradientUnits="userSpaceOnUse">
<stop stop-color="#C26259"/>
<stop offset="0.2" stop-color="#FFCDC3"/>
<stop offset="0.36" stop-color="#EA8B81"/>
<stop offset="0.5" stop-color="#FFB3A9"/>
<stop offset="0.64" stop-color="#FFDDD3"/>
<stop offset="0.8" stop-color="#EC8C83"/>
<stop offset="1" stop-color="#DF817B"/>
</linearGradient>
</defs>
</svg>
