<svg width="30" height="30" viewBox="0 0 30 30" fill="none" xmlns="http://www.w3.org/2000/svg">
<g id="ic:round-add">
<g id="Vector">
<path d="M22.5 16.25H16.25V22.5C16.25 23.1875 15.6875 23.75 15 23.75C14.3125 23.75 13.75 23.1875 13.75 22.5V16.25H7.5C6.8125 16.25 6.25 15.6875 6.25 15C6.25 14.3125 6.8125 13.75 7.5 13.75H13.75V7.5C13.75 6.8125 14.3125 6.25 15 6.25C15.6875 6.25 16.25 6.8125 16.25 7.5V13.75H22.5C23.1875 13.75 23.75 14.3125 23.75 15C23.75 15.6875 23.1875 16.25 22.5 16.25Z" fill="black"/>
<path d="M22.5 16.25H16.25V22.5C16.25 23.1875 15.6875 23.75 15 23.75C14.3125 23.75 13.75 23.1875 13.75 22.5V16.25H7.5C6.8125 16.25 6.25 15.6875 6.25 15C6.25 14.3125 6.8125 13.75 7.5 13.75H13.75V7.5C13.75 6.8125 14.3125 6.25 15 6.25C15.6875 6.25 16.25 6.8125 16.25 7.5V13.75H22.5C23.1875 13.75 23.75 14.3125 23.75 15C23.75 15.6875 23.1875 16.25 22.5 16.25Z" fill="url(#paint0_linear_1420_5811)"/>
</g>
</g>
<defs>
<linearGradient id="paint0_linear_1420_5811" x1="6.25" y1="15.3241" x2="23.75" y2="15.3241" gradientUnits="userSpaceOnUse">
<stop stop-color="#B68013"/>
<stop offset="0.531472" stop-color="#FDEF9F"/>
<stop offset="1" stop-color="#B68014"/>
</linearGradient>
</defs>
</svg>
