<svg width="40" height="40" viewBox="0 0 40 40" fill="none" xmlns="http://www.w3.org/2000/svg">
<circle cx="20" cy="20" r="19.5" fill="black"/>
<circle cx="20" cy="20" r="19.5" stroke="url(#paint0_linear_1439_10936)"/>
<circle cx="20" cy="20" r="19.5" stroke="url(#paint1_linear_1439_10936)"/>
<path d="M29.0937 14C28.7586 14.0001 28.428 14.0784 28.1284 14.2285C27.8287 14.3787 27.5682 14.5967 27.3675 14.8651C27.1668 15.1336 27.0314 15.4451 26.9722 15.775C26.9129 16.1049 26.9314 16.4441 27.0261 16.7656L23.6806 20.1106C23.2394 19.9637 22.7625 19.9637 22.3212 20.1106L19.8411 17.6305C19.9227 17.312 19.9304 16.9791 19.8636 16.6572C19.7969 16.3353 19.6574 16.0329 19.4558 15.7732C19.2543 15.5135 18.996 15.3033 18.7007 15.1587C18.4055 15.0141 18.0811 14.9389 17.7523 14.9389C17.4236 14.9389 17.0992 15.0141 16.8039 15.1587C16.5087 15.3033 16.2504 15.5135 16.0489 15.7732C15.8473 16.0329 15.7078 16.3353 15.641 16.6572C15.5743 16.9791 15.582 17.312 15.6636 17.6305L11.5156 21.7756C11.0551 21.6393 10.5623 21.6604 10.1151 21.8354C9.66787 22.0105 9.29176 22.3297 9.04621 22.7424C8.80066 23.1552 8.69967 23.638 8.7592 24.1145C8.81874 24.5911 9.0354 25.0342 9.37495 25.3739C9.71449 25.7136 10.1576 25.9304 10.6341 25.99C11.1106 26.0497 11.5935 25.9489 12.0063 25.7035C12.4191 25.4581 12.7384 25.0821 12.9136 24.6349C13.0889 24.1877 13.1101 23.6949 12.9739 23.2344L17.0694 19.1394C17.5106 19.2864 17.9876 19.2864 18.4287 19.1394L20.9094 21.62C20.8278 21.9385 20.82 22.2714 20.8868 22.5933C20.9536 22.9152 21.0931 23.2175 21.2947 23.4773C21.4962 23.737 21.7545 23.9472 22.0497 24.0918C22.345 24.2364 22.6694 24.3115 22.9981 24.3115C23.3269 24.3115 23.6513 24.2364 23.9465 24.0918C24.2418 23.9472 24.5 23.737 24.7016 23.4773C24.9032 23.2175 25.0426 22.9152 25.1094 22.5933C25.1762 22.2714 25.1685 21.9385 25.0869 21.62L28.4844 18.2244C28.781 18.3119 29.0929 18.3346 29.3991 18.2909C29.7052 18.2472 29.9984 18.1382 30.2587 17.9712C30.519 17.8043 30.7403 17.5833 30.9077 17.3232C31.0751 17.0632 31.1845 16.7702 31.2287 16.4641C31.2728 16.158 31.2506 15.846 31.1636 15.5493C31.0765 15.2526 30.9267 14.978 30.7242 14.7443C30.5217 14.5106 30.2713 14.3231 29.99 14.1947C29.7086 14.0663 29.403 13.9999 29.0937 14Z" fill="white"/>
<path d="M29.0937 14C28.7586 14.0001 28.428 14.0784 28.1284 14.2285C27.8287 14.3787 27.5682 14.5967 27.3675 14.8651C27.1668 15.1336 27.0314 15.4451 26.9722 15.775C26.9129 16.1049 26.9314 16.4441 27.0261 16.7656L23.6806 20.1106C23.2394 19.9637 22.7625 19.9637 22.3212 20.1106L19.8411 17.6305C19.9227 17.312 19.9304 16.9791 19.8636 16.6572C19.7969 16.3353 19.6574 16.0329 19.4558 15.7732C19.2543 15.5135 18.996 15.3033 18.7007 15.1587C18.4055 15.0141 18.0811 14.9389 17.7523 14.9389C17.4236 14.9389 17.0992 15.0141 16.8039 15.1587C16.5087 15.3033 16.2504 15.5135 16.0489 15.7732C15.8473 16.0329 15.7078 16.3353 15.641 16.6572C15.5743 16.9791 15.582 17.312 15.6636 17.6305L11.5156 21.7756C11.0551 21.6393 10.5623 21.6604 10.1151 21.8354C9.66787 22.0105 9.29176 22.3297 9.04621 22.7424C8.80066 23.1552 8.69967 23.638 8.7592 24.1145C8.81874 24.5911 9.0354 25.0342 9.37495 25.3739C9.71449 25.7136 10.1576 25.9304 10.6341 25.99C11.1106 26.0497 11.5935 25.9489 12.0063 25.7035C12.4191 25.4581 12.7384 25.0821 12.9136 24.6349C13.0889 24.1877 13.1101 23.6949 12.9739 23.2344L17.0694 19.1394C17.5106 19.2864 17.9876 19.2864 18.4287 19.1394L20.9094 21.62C20.8278 21.9385 20.82 22.2714 20.8868 22.5933C20.9536 22.9152 21.0931 23.2175 21.2947 23.4773C21.4962 23.737 21.7545 23.9472 22.0497 24.0918C22.345 24.2364 22.6694 24.3115 22.9981 24.3115C23.3269 24.3115 23.6513 24.2364 23.9465 24.0918C24.2418 23.9472 24.5 23.737 24.7016 23.4773C24.9032 23.2175 25.0426 22.9152 25.1094 22.5933C25.1762 22.2714 25.1685 21.9385 25.0869 21.62L28.4844 18.2244C28.781 18.3119 29.0929 18.3346 29.3991 18.2909C29.7052 18.2472 29.9984 18.1382 30.2587 17.9712C30.519 17.8043 30.7403 17.5833 30.9077 17.3232C31.0751 17.0632 31.1845 16.7702 31.2287 16.4641C31.2728 16.158 31.2506 15.846 31.1636 15.5493C31.0765 15.2526 30.9267 14.978 30.7242 14.7443C30.5217 14.5106 30.2713 14.3231 29.99 14.1947C29.7086 14.0663 29.403 13.9999 29.0937 14Z" fill="url(#paint2_linear_1439_10936)"/>
<defs>
<linearGradient id="paint0_linear_1439_10936" x1="3.9311e-10" y1="20.0067" x2="40" y2="20.0067" gradientUnits="userSpaceOnUse">
<stop stop-color="#F46722"/>
<stop offset="0.394274" stop-color="#E6F70B"/>
<stop offset="0.728979" stop-color="#F46722"/>
<stop offset="1" stop-color="#E37132"/>
</linearGradient>
<linearGradient id="paint1_linear_1439_10936" x1="1.49012e-07" y1="20" x2="40" y2="20" gradientUnits="userSpaceOnUse">
<stop stop-color="#B68013"/>
<stop offset="0.510417" stop-color="#FDEF9F"/>
<stop offset="1" stop-color="#B68014"/>
</linearGradient>
<linearGradient id="paint2_linear_1439_10936" x1="8.74254" y1="20.2257" x2="31.2508" y2="20.2257" gradientUnits="userSpaceOnUse">
<stop stop-color="#B68013"/>
<stop offset="0.531472" stop-color="#FDEF9F"/>
<stop offset="1" stop-color="#B68014"/>
</linearGradient>
</defs>
</svg>
