<svg width="24" height="24" viewBox="0 0 25 24" fill="none" xmlns="http://www.w3.org/2000/svg">
<g id="Iconly/Bold/Profile">
<g id="Profile">
<g id="Profile_2">
<path fill-rule="evenodd" clip-rule="evenodd" d="M17.9964 7.37552C17.9964 10.3481 15.6531 12.7579 12.7626 12.7579C9.87204 12.7579 7.52878 10.3481 7.52878 7.37552C7.52878 4.40293 9.87204 1.99316 12.7626 1.99316C15.6531 1.99316 17.9964 4.40293 17.9964 7.37552ZM17.2549 15.7904C18.919 16.1274 20.0054 16.6772 20.471 17.5639C20.8207 18.2559 20.8207 19.0797 20.471 19.7718C20.0054 20.6585 18.9621 21.2437 17.2376 21.5452C16.4692 21.7002 15.6914 21.8009 14.9096 21.8467C14.1853 21.9265 13.461 21.9265 12.7281 21.9265H11.4089C11.133 21.891 10.8657 21.8733 10.607 21.8733C9.82517 21.8331 9.04716 21.7353 8.27893 21.5807C6.61481 21.2615 5.52838 20.694 5.06277 19.8073C4.88303 19.4638 4.78827 19.0801 4.78685 18.69C4.78311 18.2976 4.875 17.9104 5.05415 17.5639C5.51114 16.6772 6.59756 16.1008 8.27893 15.7904C9.05054 15.639 9.8312 15.5412 10.6156 15.4978C12.0505 15.3822 13.4919 15.3822 14.9268 15.4978C15.7082 15.5434 16.4858 15.6411 17.2549 15.7904Z" fill="white"/>
<path fill-rule="evenodd" clip-rule="evenodd" d="M17.9964 7.37552C17.9964 10.3481 15.6531 12.7579 12.7626 12.7579C9.87204 12.7579 7.52878 10.3481 7.52878 7.37552C7.52878 4.40293 9.87204 1.99316 12.7626 1.99316C15.6531 1.99316 17.9964 4.40293 17.9964 7.37552ZM17.2549 15.7904C18.919 16.1274 20.0054 16.6772 20.471 17.5639C20.8207 18.2559 20.8207 19.0797 20.471 19.7718C20.0054 20.6585 18.9621 21.2437 17.2376 21.5452C16.4692 21.7002 15.6914 21.8009 14.9096 21.8467C14.1853 21.9265 13.461 21.9265 12.7281 21.9265H11.4089C11.133 21.891 10.8657 21.8733 10.607 21.8733C9.82517 21.8331 9.04716 21.7353 8.27893 21.5807C6.61481 21.2615 5.52838 20.694 5.06277 19.8073C4.88303 19.4638 4.78827 19.0801 4.78685 18.69C4.78311 18.2976 4.875 17.9104 5.05415 17.5639C5.51114 16.6772 6.59756 16.1008 8.27893 15.7904C9.05054 15.639 9.8312 15.5412 10.6156 15.4978C12.0505 15.3822 13.4919 15.3822 14.9268 15.4978C15.7082 15.5434 16.4858 15.6411 17.2549 15.7904Z" fill="url(#paint0_linear_1439_11051)"/>
</g>
</g>
</g>
<defs>
<linearGradient id="paint0_linear_1439_11051" x1="4.78674" y1="12.329" x2="20.7333" y2="12.329" gradientUnits="userSpaceOnUse">
<stop stop-color="#B68013"/>
<stop offset="0.531472" stop-color="#FDEF9F"/>
<stop offset="1" stop-color="#B68014"/>
</linearGradient>
</defs>
</svg>
