<svg width="25" height="24" viewBox="0 0 25 24" fill="none" xmlns="http://www.w3.org/2000/svg">
<g id="solar:inbox-bold">
<g id="Group">
<g id="Vector">
<path d="M3.81245 20.4665C5.27357 21.9266 7.62171 21.9266 12.32 21.9266C17.0183 21.9266 19.3674 21.9266 20.8265 20.4665C22.0933 19.2007 22.2617 17.2642 22.2837 13.7041H19.1372C18.1664 13.7041 17.9123 13.72 17.7 13.8177C17.4867 13.9164 17.3093 14.0988 16.6774 14.8343L16.0744 15.539L15.9867 15.6406C15.4864 16.2257 15.0897 16.6891 14.5416 16.9413C13.9934 17.1934 13.3834 17.1934 12.614 17.1924H12.027C11.2566 17.1924 10.6466 17.1944 10.0984 16.9413C9.55026 16.6891 9.15359 16.2257 8.65326 15.6406L8.56556 15.539L7.96257 14.8353C7.33069 14.0978 7.15328 13.9164 6.93999 13.8187C6.7277 13.72 6.47355 13.7041 5.5028 13.7041H2.35632C2.37925 17.2642 2.54569 19.2007 3.81245 20.4665Z" fill="white"/>
<path d="M3.81245 20.4665C5.27357 21.9266 7.62171 21.9266 12.32 21.9266C17.0183 21.9266 19.3674 21.9266 20.8265 20.4665C22.0933 19.2007 22.2617 17.2642 22.2837 13.7041H19.1372C18.1664 13.7041 17.9123 13.72 17.7 13.8177C17.4867 13.9164 17.3093 14.0988 16.6774 14.8343L16.0744 15.539L15.9867 15.6406C15.4864 16.2257 15.0897 16.6891 14.5416 16.9413C13.9934 17.1934 13.3834 17.1934 12.614 17.1924H12.027C11.2566 17.1924 10.6466 17.1944 10.0984 16.9413C9.55026 16.6891 9.15359 16.2257 8.65326 15.6406L8.56556 15.539L7.96257 14.8353C7.33069 14.0978 7.15328 13.9164 6.93999 13.8187C6.7277 13.72 6.47355 13.7041 5.5028 13.7041H2.35632C2.37925 17.2642 2.54569 19.2007 3.81245 20.4665Z" fill="url(#paint0_linear_1439_11266)"/>
</g>
<g id="Vector_2">
<path d="M20.8266 3.45228C19.3685 1.99316 17.0183 1.99316 12.3201 1.99316C7.62177 1.99316 5.27263 1.99316 3.81251 3.45228C2.35339 4.9134 2.35339 7.26154 2.35339 11.9598V12.209H5.63741C6.40684 12.209 7.0168 12.207 7.56496 12.4602C8.11313 12.7123 8.5098 13.1758 9.01013 13.7608L9.09784 13.8625L9.70082 14.5661C10.3327 15.3036 10.5101 15.485 10.7234 15.5827C10.9357 15.6814 11.1898 15.6973 12.1606 15.6973H12.4795C13.4503 15.6973 13.7044 15.6814 13.9167 15.5837C14.13 15.485 14.3074 15.3027 14.9393 14.5671L15.5423 13.8625L15.63 13.7608C16.1303 13.1758 16.527 12.7123 17.0752 12.4602C17.6233 12.207 18.2333 12.208 19.0027 12.209H22.2867V11.9598C22.2867 7.26154 22.2867 4.9124 20.8266 3.45228Z" fill="white"/>
<path d="M20.8266 3.45228C19.3685 1.99316 17.0183 1.99316 12.3201 1.99316C7.62177 1.99316 5.27263 1.99316 3.81251 3.45228C2.35339 4.9134 2.35339 7.26154 2.35339 11.9598V12.209H5.63741C6.40684 12.209 7.0168 12.207 7.56496 12.4602C8.11313 12.7123 8.5098 13.1758 9.01013 13.7608L9.09784 13.8625L9.70082 14.5661C10.3327 15.3036 10.5101 15.485 10.7234 15.5827C10.9357 15.6814 11.1898 15.6973 12.1606 15.6973H12.4795C13.4503 15.6973 13.7044 15.6814 13.9167 15.5837C14.13 15.485 14.3074 15.3027 14.9393 14.5671L15.5423 13.8625L15.63 13.7608C16.1303 13.1758 16.527 12.7123 17.0752 12.4602C17.6233 12.207 18.2333 12.208 19.0027 12.209H22.2867V11.9598C22.2867 7.26154 22.2867 4.9124 20.8266 3.45228Z" fill="url(#paint1_linear_1439_11266)"/>
</g>
</g>
</g>
<defs>
<linearGradient id="paint0_linear_1439_11266" x1="2.35632" y1="17.9676" x2="22.2837" y2="17.9676" gradientUnits="userSpaceOnUse">
<stop stop-color="#B68013"/>
<stop offset="0.531472" stop-color="#FDEF9F"/>
<stop offset="1" stop-color="#B68014"/>
</linearGradient>
<linearGradient id="paint1_linear_1439_11266" x1="2.35339" y1="9.09903" x2="22.2867" y2="9.09903" gradientUnits="userSpaceOnUse">
<stop stop-color="#B68013"/>
<stop offset="0.531472" stop-color="#FDEF9F"/>
<stop offset="1" stop-color="#B68014"/>
</linearGradient>
</defs>
</svg>
