<svg width="17" height="16" viewBox="0 0 17 16" fill="none" xmlns="http://www.w3.org/2000/svg">
<g id="clarity:date-line" clip-path="url(#clip0_1439_8071)">
<g id="Vector">
<mask id="path-1-inside-1_1439_8071" fill="white">
<path d="M14.9333 2.66675H13.4889V3.55564H14.8222V13.3334H2.37777V3.55564H3.71111V2.66675H2.26666C2.16277 2.66848 2.06023 2.69067 1.96491 2.73204C1.86959 2.77341 1.78336 2.83315 1.71113 2.90785C1.63891 2.98256 1.5821 3.07076 1.54397 3.16742C1.50584 3.26407 1.48712 3.3673 1.48888 3.47119V13.4179C1.48712 13.5218 1.50584 13.625 1.54397 13.7216C1.5821 13.8183 1.63891 13.9065 1.71113 13.9812C1.78336 14.0559 1.86959 14.1156 1.96491 14.157C2.06023 14.1984 2.16277 14.2206 2.26666 14.2223H14.9333C15.0372 14.2206 15.1398 14.1984 15.2351 14.157C15.3304 14.1156 15.4166 14.0559 15.4889 13.9812C15.5611 13.9065 15.6179 13.8183 15.656 13.7216C15.6942 13.625 15.7129 13.5218 15.7111 13.4179V3.47119C15.7129 3.3673 15.6942 3.26407 15.656 3.16742C15.6179 3.07076 15.5611 2.98256 15.4889 2.90785C15.4166 2.83315 15.3304 2.77341 15.2351 2.73204C15.1398 2.69067 15.0372 2.66848 14.9333 2.66675Z"/>
</mask>
<path d="M14.9333 2.66675H13.4889V3.55564H14.8222V13.3334H2.37777V3.55564H3.71111V2.66675H2.26666C2.16277 2.66848 2.06023 2.69067 1.96491 2.73204C1.86959 2.77341 1.78336 2.83315 1.71113 2.90785C1.63891 2.98256 1.5821 3.07076 1.54397 3.16742C1.50584 3.26407 1.48712 3.3673 1.48888 3.47119V13.4179C1.48712 13.5218 1.50584 13.625 1.54397 13.7216C1.5821 13.8183 1.63891 13.9065 1.71113 13.9812C1.78336 14.0559 1.86959 14.1156 1.96491 14.157C2.06023 14.1984 2.16277 14.2206 2.26666 14.2223H14.9333C15.0372 14.2206 15.1398 14.1984 15.2351 14.157C15.3304 14.1156 15.4166 14.0559 15.4889 13.9812C15.5611 13.9065 15.6179 13.8183 15.656 13.7216C15.6942 13.625 15.7129 13.5218 15.7111 13.4179V3.47119C15.7129 3.3673 15.6942 3.26407 15.656 3.16742C15.6179 3.07076 15.5611 2.98256 15.4889 2.90785C15.4166 2.83315 15.3304 2.77341 15.2351 2.73204C15.1398 2.69067 15.0372 2.66848 14.9333 2.66675Z" fill="white"/>
<path d="M14.9333 2.66675L14.95 1.66689L14.9417 1.66675H14.9333V2.66675ZM13.4889 2.66675V1.66675H12.4889V2.66675H13.4889ZM13.4889 3.55564H12.4889V4.55564H13.4889V3.55564ZM14.8222 3.55564H15.8222V2.55564H14.8222V3.55564ZM14.8222 13.3334V14.3334H15.8222V13.3334H14.8222ZM2.37777 13.3334H1.37777V14.3334H2.37777V13.3334ZM2.37777 3.55564V2.55564H1.37777V3.55564H2.37777ZM3.71111 3.55564V4.55564H4.71111V3.55564H3.71111ZM3.71111 2.66675H4.71111V1.66675H3.71111V2.66675ZM2.26666 2.66675V1.66675H2.25831L2.24995 1.66689L2.26666 2.66675ZM1.48888 3.47119H2.48888V3.4627L2.48874 3.4542L1.48888 3.47119ZM1.48888 13.4179L2.48874 13.4349L2.48888 13.4264V13.4179H1.48888ZM2.26666 14.2223L2.24995 15.2222L2.25831 15.2223H2.26666V14.2223ZM14.9333 14.2223V15.2223H14.9417L14.95 15.2222L14.9333 14.2223ZM15.7111 13.4179H14.7111V13.4264L14.7113 13.4349L15.7111 13.4179ZM15.7111 3.47119L14.7113 3.4542L14.7111 3.4627V3.47119H15.7111ZM14.9333 1.66675H13.4889V3.66675H14.9333V1.66675ZM12.4889 2.66675V3.55564H14.4889V2.66675H12.4889ZM13.4889 4.55564H14.8222V2.55564H13.4889V4.55564ZM13.8222 3.55564V13.3334H15.8222V3.55564H13.8222ZM14.8222 12.3334H2.37777V14.3334H14.8222V12.3334ZM3.37777 13.3334V3.55564H1.37777V13.3334H3.37777ZM2.37777 4.55564H3.71111V2.55564H2.37777V4.55564ZM4.71111 3.55564V2.66675H2.71111V3.55564H4.71111ZM3.71111 1.66675H2.26666V3.66675H3.71111V1.66675ZM2.24995 1.66689C2.01473 1.67082 1.78259 1.72105 1.56678 1.81471L2.36305 3.64937C2.33788 3.66029 2.3108 3.66615 2.28337 3.66661L2.24995 1.66689ZM1.56678 1.81471C1.35097 1.90838 1.15573 2.04364 0.992211 2.21276L2.43006 3.60295C2.41099 3.62267 2.38822 3.63844 2.36305 3.64937L1.56678 1.81471ZM0.992211 2.21276C0.828688 2.38189 0.700085 2.58158 0.613748 2.80042L2.47419 3.53441C2.46412 3.55993 2.44913 3.58322 2.43006 3.60295L0.992211 2.21276ZM0.613748 2.80042C0.52741 3.01926 0.48503 3.25296 0.489028 3.48819L2.48874 3.4542C2.48921 3.48163 2.48426 3.50889 2.47419 3.53441L0.613748 2.80042ZM0.488884 3.47119V13.4179H2.48888V3.47119H0.488884ZM0.489028 13.4009C0.48503 13.6361 0.52741 13.8698 0.613748 14.0886L2.47419 13.3546C2.48426 13.3802 2.48921 13.4074 2.48874 13.4349L0.489028 13.4009ZM0.613748 14.0886C0.700085 14.3075 0.828688 14.5072 0.992211 14.6763L2.43006 13.2861C2.44913 13.3058 2.46412 13.3291 2.47419 13.3546L0.613748 14.0886ZM0.992211 14.6763C1.15573 14.8454 1.35097 14.9807 1.56678 15.0743L2.36305 13.2397C2.38821 13.2506 2.41098 13.2664 2.43006 13.2861L0.992211 14.6763ZM1.56678 15.0743C1.78259 15.168 2.01473 15.2182 2.24995 15.2222L2.28337 13.2224C2.3108 13.2229 2.33788 13.2288 2.36305 13.2397L1.56678 15.0743ZM2.26666 15.2223H14.9333V13.2223H2.26666V15.2223ZM14.95 15.2222C15.1853 15.2182 15.4174 15.168 15.6332 15.0743L14.8369 13.2397C14.8621 13.2288 14.8892 13.2229 14.9166 13.2224L14.95 15.2222ZM15.6332 15.0743C15.849 14.9807 16.0443 14.8454 16.2078 14.6763L14.7699 13.2861C14.789 13.2664 14.8118 13.2506 14.8369 13.2397L15.6332 15.0743ZM16.2078 14.6763C16.3713 14.5072 16.4999 14.3075 16.5862 14.0886L14.7258 13.3546C14.7359 13.3291 14.7509 13.3058 14.7699 13.2861L16.2078 14.6763ZM16.5862 14.0886C16.6726 13.8698 16.715 13.6361 16.711 13.4009L14.7113 13.4349C14.7108 13.4074 14.7157 13.3802 14.7258 13.3546L16.5862 14.0886ZM16.7111 13.4179V3.47119H14.7111V13.4179H16.7111ZM16.711 3.48819C16.715 3.25297 16.6726 3.01926 16.5862 2.80042L14.7258 3.53441C14.7157 3.50889 14.7108 3.48163 14.7113 3.4542L16.711 3.48819ZM16.5862 2.80042C16.4999 2.58159 16.3713 2.3819 16.2078 2.21276L14.7699 3.60295C14.7509 3.58322 14.7359 3.55993 14.7258 3.53441L16.5862 2.80042ZM16.2078 2.21276C16.0443 2.04363 15.849 1.90837 15.6332 1.81471L14.8369 3.64937C14.8118 3.63845 14.789 3.62267 14.7699 3.60295L16.2078 2.21276ZM15.6332 1.81471C15.4174 1.72105 15.1853 1.67082 14.95 1.66689L14.9166 3.66661C14.8892 3.66615 14.8621 3.66029 14.8369 3.64937L15.6332 1.81471Z" fill="url(#paint0_linear_1439_8071)" mask="url(#path-1-inside-1_1439_8071)"/>
</g>
<g id="Vector_2">
<mask id="path-3-inside-2_1439_8071" fill="white">
<path d="M4.15576 6.22217H5.04465V7.11106H4.15576V6.22217Z"/>
</mask>
<path d="M4.15576 6.22217H5.04465V7.11106H4.15576V6.22217Z" fill="white"/>
<path d="M4.15576 6.22217V5.22217H3.15576V6.22217H4.15576ZM5.04465 6.22217H6.04465V5.22217H5.04465V6.22217ZM5.04465 7.11106V8.11106H6.04465V7.11106H5.04465ZM4.15576 7.11106H3.15576V8.11106H4.15576V7.11106ZM4.15576 7.22217H5.04465V5.22217H4.15576V7.22217ZM4.04465 6.22217V7.11106H6.04465V6.22217H4.04465ZM5.04465 6.11106H4.15576V8.11106H5.04465V6.11106ZM5.15576 7.11106V6.22217H3.15576V7.11106H5.15576Z" fill="url(#paint1_linear_1439_8071)" mask="url(#path-3-inside-2_1439_8071)"/>
</g>
<g id="Vector_3">
<mask id="path-5-inside-3_1439_8071" fill="white">
<path d="M6.82227 6.22217H7.71115V7.11106H6.82227V6.22217Z"/>
</mask>
<path d="M6.82227 6.22217H7.71115V7.11106H6.82227V6.22217Z" fill="white"/>
<path d="M6.82227 6.22217V5.22217H5.82227V6.22217H6.82227ZM7.71115 6.22217H8.71115V5.22217H7.71115V6.22217ZM7.71115 7.11106V8.11106H8.71115V7.11106H7.71115ZM6.82227 7.11106H5.82227V8.11106H6.82227V7.11106ZM6.82227 7.22217H7.71115V5.22217H6.82227V7.22217ZM6.71115 6.22217V7.11106H8.71115V6.22217H6.71115ZM7.71115 6.11106H6.82227V8.11106H7.71115V6.11106ZM7.82227 7.11106V6.22217H5.82227V7.11106H7.82227Z" fill="url(#paint2_linear_1439_8071)" mask="url(#path-5-inside-3_1439_8071)"/>
</g>
<g id="Vector_4">
<mask id="path-7-inside-4_1439_8071" fill="white">
<path d="M9.48877 6.22217H10.3777V7.11106H9.48877V6.22217Z"/>
</mask>
<path d="M9.48877 6.22217H10.3777V7.11106H9.48877V6.22217Z" fill="white"/>
<path d="M9.48877 6.22217V5.22217H8.48877V6.22217H9.48877ZM10.3777 6.22217H11.3777V5.22217H10.3777V6.22217ZM10.3777 7.11106V8.11106H11.3777V7.11106H10.3777ZM9.48877 7.11106H8.48877V8.11106H9.48877V7.11106ZM9.48877 7.22217H10.3777V5.22217H9.48877V7.22217ZM9.37766 6.22217V7.11106H11.3777V6.22217H9.37766ZM10.3777 6.11106H9.48877V8.11106H10.3777V6.11106ZM10.4888 7.11106V6.22217H8.48877V7.11106H10.4888Z" fill="url(#paint3_linear_1439_8071)" mask="url(#path-7-inside-4_1439_8071)"/>
</g>
<g id="Vector_5">
<mask id="path-9-inside-5_1439_8071" fill="white">
<path d="M12.1558 6.22217H13.0447V7.11106H12.1558V6.22217Z"/>
</mask>
<path d="M12.1558 6.22217H13.0447V7.11106H12.1558V6.22217Z" fill="white"/>
<path d="M12.1558 6.22217V5.22217H11.1558V6.22217H12.1558ZM13.0447 6.22217H14.0447V5.22217H13.0447V6.22217ZM13.0447 7.11106V8.11106H14.0447V7.11106H13.0447ZM12.1558 7.11106H11.1558V8.11106H12.1558V7.11106ZM12.1558 7.22217H13.0447V5.22217H12.1558V7.22217ZM12.0447 6.22217V7.11106H14.0447V6.22217H12.0447ZM13.0447 6.11106H12.1558V8.11106H13.0447V6.11106ZM13.1558 7.11106V6.22217H11.1558V7.11106H13.1558Z" fill="url(#paint4_linear_1439_8071)" mask="url(#path-9-inside-5_1439_8071)"/>
</g>
<g id="Vector_6">
<mask id="path-11-inside-6_1439_8071" fill="white">
<path d="M4.15576 8.44434H5.04465V9.33322H4.15576V8.44434Z"/>
</mask>
<path d="M4.15576 8.44434H5.04465V9.33322H4.15576V8.44434Z" fill="white"/>
<path d="M4.15576 8.44434V7.44434H3.15576V8.44434H4.15576ZM5.04465 8.44434H6.04465V7.44434H5.04465V8.44434ZM5.04465 9.33322V10.3332H6.04465V9.33322H5.04465ZM4.15576 9.33322H3.15576V10.3332H4.15576V9.33322ZM4.15576 9.44434H5.04465V7.44434H4.15576V9.44434ZM4.04465 8.44434V9.33322H6.04465V8.44434H4.04465ZM5.04465 8.33322H4.15576V10.3332H5.04465V8.33322ZM5.15576 9.33322V8.44434H3.15576V9.33322H5.15576Z" fill="url(#paint5_linear_1439_8071)" mask="url(#path-11-inside-6_1439_8071)"/>
</g>
<g id="Vector_7">
<mask id="path-13-inside-7_1439_8071" fill="white">
<path d="M6.82227 8.44434H7.71115V9.33322H6.82227V8.44434Z"/>
</mask>
<path d="M6.82227 8.44434H7.71115V9.33322H6.82227V8.44434Z" fill="white"/>
<path d="M6.82227 8.44434V7.44434H5.82227V8.44434H6.82227ZM7.71115 8.44434H8.71115V7.44434H7.71115V8.44434ZM7.71115 9.33322V10.3332H8.71115V9.33322H7.71115ZM6.82227 9.33322H5.82227V10.3332H6.82227V9.33322ZM6.82227 9.44434H7.71115V7.44434H6.82227V9.44434ZM6.71115 8.44434V9.33322H8.71115V8.44434H6.71115ZM7.71115 8.33322H6.82227V10.3332H7.71115V8.33322ZM7.82227 9.33322V8.44434H5.82227V9.33322H7.82227Z" fill="url(#paint6_linear_1439_8071)" mask="url(#path-13-inside-7_1439_8071)"/>
</g>
<g id="Vector_8">
<mask id="path-15-inside-8_1439_8071" fill="white">
<path d="M9.48877 8.44434H10.3777V9.33322H9.48877V8.44434Z"/>
</mask>
<path d="M9.48877 8.44434H10.3777V9.33322H9.48877V8.44434Z" fill="white"/>
<path d="M9.48877 8.44434V7.44434H8.48877V8.44434H9.48877ZM10.3777 8.44434H11.3777V7.44434H10.3777V8.44434ZM10.3777 9.33322V10.3332H11.3777V9.33322H10.3777ZM9.48877 9.33322H8.48877V10.3332H9.48877V9.33322ZM9.48877 9.44434H10.3777V7.44434H9.48877V9.44434ZM9.37766 8.44434V9.33322H11.3777V8.44434H9.37766ZM10.3777 8.33322H9.48877V10.3332H10.3777V8.33322ZM10.4888 9.33322V8.44434H8.48877V9.33322H10.4888Z" fill="url(#paint7_linear_1439_8071)" mask="url(#path-15-inside-8_1439_8071)"/>
</g>
<g id="Vector_9">
<mask id="path-17-inside-9_1439_8071" fill="white">
<path d="M12.1558 8.44434H13.0447V9.33322H12.1558V8.44434Z"/>
</mask>
<path d="M12.1558 8.44434H13.0447V9.33322H12.1558V8.44434Z" fill="white"/>
<path d="M12.1558 8.44434V7.44434H11.1558V8.44434H12.1558ZM13.0447 8.44434H14.0447V7.44434H13.0447V8.44434ZM13.0447 9.33322V10.3332H14.0447V9.33322H13.0447ZM12.1558 9.33322H11.1558V10.3332H12.1558V9.33322ZM12.1558 9.44434H13.0447V7.44434H12.1558V9.44434ZM12.0447 8.44434V9.33322H14.0447V8.44434H12.0447ZM13.0447 8.33322H12.1558V10.3332H13.0447V8.33322ZM13.1558 9.33322V8.44434H11.1558V9.33322H13.1558Z" fill="url(#paint8_linear_1439_8071)" mask="url(#path-17-inside-9_1439_8071)"/>
</g>
<g id="Vector_10">
<mask id="path-19-inside-10_1439_8071" fill="white">
<path d="M4.15576 10.6667H5.04465V11.5556H4.15576V10.6667Z"/>
</mask>
<path d="M4.15576 10.6667H5.04465V11.5556H4.15576V10.6667Z" fill="white"/>
<path d="M4.15576 10.6667V9.66675H3.15576V10.6667H4.15576ZM5.04465 10.6667H6.04465V9.66675H5.04465V10.6667ZM5.04465 11.5556V12.5556H6.04465V11.5556H5.04465ZM4.15576 11.5556H3.15576V12.5556H4.15576V11.5556ZM4.15576 11.6667H5.04465V9.66675H4.15576V11.6667ZM4.04465 10.6667V11.5556H6.04465V10.6667H4.04465ZM5.04465 10.5556H4.15576V12.5556H5.04465V10.5556ZM5.15576 11.5556V10.6667H3.15576V11.5556H5.15576Z" fill="url(#paint9_linear_1439_8071)" mask="url(#path-19-inside-10_1439_8071)"/>
</g>
<g id="Vector_11">
<mask id="path-21-inside-11_1439_8071" fill="white">
<path d="M6.82227 10.6667H7.71115V11.5556H6.82227V10.6667Z"/>
</mask>
<path d="M6.82227 10.6667H7.71115V11.5556H6.82227V10.6667Z" fill="white"/>
<path d="M6.82227 10.6667V9.66675H5.82227V10.6667H6.82227ZM7.71115 10.6667H8.71115V9.66675H7.71115V10.6667ZM7.71115 11.5556V12.5556H8.71115V11.5556H7.71115ZM6.82227 11.5556H5.82227V12.5556H6.82227V11.5556ZM6.82227 11.6667H7.71115V9.66675H6.82227V11.6667ZM6.71115 10.6667V11.5556H8.71115V10.6667H6.71115ZM7.71115 10.5556H6.82227V12.5556H7.71115V10.5556ZM7.82227 11.5556V10.6667H5.82227V11.5556H7.82227Z" fill="url(#paint10_linear_1439_8071)" mask="url(#path-21-inside-11_1439_8071)"/>
</g>
<g id="Vector_12">
<mask id="path-23-inside-12_1439_8071" fill="white">
<path d="M9.48877 10.6667H10.3777V11.5556H9.48877V10.6667Z"/>
</mask>
<path d="M9.48877 10.6667H10.3777V11.5556H9.48877V10.6667Z" fill="white"/>
<path d="M9.48877 10.6667V9.66675H8.48877V10.6667H9.48877ZM10.3777 10.6667H11.3777V9.66675H10.3777V10.6667ZM10.3777 11.5556V12.5556H11.3777V11.5556H10.3777ZM9.48877 11.5556H8.48877V12.5556H9.48877V11.5556ZM9.48877 11.6667H10.3777V9.66675H9.48877V11.6667ZM9.37766 10.6667V11.5556H11.3777V10.6667H9.37766ZM10.3777 10.5556H9.48877V12.5556H10.3777V10.5556ZM10.4888 11.5556V10.6667H8.48877V11.5556H10.4888Z" fill="url(#paint11_linear_1439_8071)" mask="url(#path-23-inside-12_1439_8071)"/>
</g>
<g id="Vector_13">
<mask id="path-25-inside-13_1439_8071" fill="white">
<path d="M12.1558 10.6667H13.0447V11.5556H12.1558V10.6667Z"/>
</mask>
<path d="M12.1558 10.6667H13.0447V11.5556H12.1558V10.6667Z" fill="white"/>
<path d="M12.1558 10.6667V9.66675H11.1558V10.6667H12.1558ZM13.0447 10.6667H14.0447V9.66675H13.0447V10.6667ZM13.0447 11.5556V12.5556H14.0447V11.5556H13.0447ZM12.1558 11.5556H11.1558V12.5556H12.1558V11.5556ZM12.1558 11.6667H13.0447V9.66675H12.1558V11.6667ZM12.0447 10.6667V11.5556H14.0447V10.6667H12.0447ZM13.0447 10.5556H12.1558V12.5556H13.0447V10.5556ZM13.1558 11.5556V10.6667H11.1558V11.5556H13.1558Z" fill="url(#paint12_linear_1439_8071)" mask="url(#path-25-inside-13_1439_8071)"/>
</g>
<g id="Vector_14">
<mask id="path-27-inside-14_1439_8071" fill="white">
<path d="M5.04454 4.44447C5.16242 4.44447 5.27546 4.39765 5.35881 4.3143C5.44216 4.23095 5.48899 4.1179 5.48899 4.00003V1.33336C5.48899 1.21549 5.44216 1.10244 5.35881 1.01909C5.27546 0.935741 5.16242 0.888916 5.04454 0.888916C4.92667 0.888916 4.81362 0.935741 4.73027 1.01909C4.64692 1.10244 4.6001 1.21549 4.6001 1.33336V4.00003C4.6001 4.1179 4.64692 4.23095 4.73027 4.3143C4.81362 4.39765 4.92667 4.44447 5.04454 4.44447Z"/>
</mask>
<path d="M5.04454 4.44447C5.16242 4.44447 5.27546 4.39765 5.35881 4.3143C5.44216 4.23095 5.48899 4.1179 5.48899 4.00003V1.33336C5.48899 1.21549 5.44216 1.10244 5.35881 1.01909C5.27546 0.935741 5.16242 0.888916 5.04454 0.888916C4.92667 0.888916 4.81362 0.935741 4.73027 1.01909C4.64692 1.10244 4.6001 1.21549 4.6001 1.33336V4.00003C4.6001 4.1179 4.64692 4.23095 4.73027 4.3143C4.81362 4.39765 4.92667 4.44447 5.04454 4.44447Z" fill="white"/>
<path d="M5.04454 0.888916V-0.111084V0.888916ZM5.04454 5.44447C5.42763 5.44447 5.79503 5.29229 6.06592 5.0214L4.6517 3.60719C4.75589 3.503 4.8972 3.44447 5.04454 3.44447V5.44447ZM6.06592 5.0214C6.3368 4.75052 6.48899 4.38312 6.48899 4.00003H4.48899C4.48899 3.85268 4.54752 3.71138 4.6517 3.60719L6.06592 5.0214ZM6.48899 4.00003V1.33336H4.48899V4.00003H6.48899ZM6.48899 1.33336C6.48899 0.950269 6.3368 0.582869 6.06592 0.311984L4.6517 1.7262C4.54752 1.62201 4.48899 1.4807 4.48899 1.33336H6.48899ZM6.06592 0.311984C5.79503 0.0410982 5.42763 -0.111084 5.04454 -0.111084V1.88892C4.8972 1.88892 4.75589 1.83038 4.6517 1.7262L6.06592 0.311984ZM5.04454 -0.111084C4.66145 -0.111084 4.29405 0.0410981 4.02317 0.311984L5.43738 1.7262C5.33319 1.83038 5.19188 1.88892 5.04454 1.88892V-0.111084ZM4.02317 0.311984C3.75228 0.58287 3.6001 0.95027 3.6001 1.33336H5.6001C5.6001 1.4807 5.54157 1.62201 5.43738 1.7262L4.02317 0.311984ZM3.6001 1.33336V4.00003H5.6001V1.33336H3.6001ZM3.6001 4.00003C3.6001 4.38312 3.75228 4.75052 4.02317 5.0214L5.43738 3.60719C5.54157 3.71138 5.6001 3.85268 5.6001 4.00003H3.6001ZM4.02317 5.0214C4.29405 5.29229 4.66145 5.44447 5.04454 5.44447V3.44447C5.19189 3.44447 5.33319 3.503 5.43738 3.60719L4.02317 5.0214Z" fill="url(#paint13_linear_1439_8071)" mask="url(#path-27-inside-14_1439_8071)"/>
</g>
<g id="Vector_15">
<mask id="path-29-inside-15_1439_8071" fill="white">
<path d="M12.1559 4.44447C12.2737 4.44447 12.3868 4.39765 12.4701 4.3143C12.5535 4.23095 12.6003 4.1179 12.6003 4.00003V1.33336C12.6003 1.21549 12.5535 1.10244 12.4701 1.01909C12.3868 0.935741 12.2737 0.888916 12.1559 0.888916C12.038 0.888916 11.9249 0.935741 11.8416 1.01909C11.7583 1.10244 11.7114 1.21549 11.7114 1.33336V4.00003C11.7114 4.1179 11.7583 4.23095 11.8416 4.3143C11.9249 4.39765 12.038 4.44447 12.1559 4.44447Z"/>
</mask>
<path d="M12.1559 4.44447C12.2737 4.44447 12.3868 4.39765 12.4701 4.3143C12.5535 4.23095 12.6003 4.1179 12.6003 4.00003V1.33336C12.6003 1.21549 12.5535 1.10244 12.4701 1.01909C12.3868 0.935741 12.2737 0.888916 12.1559 0.888916C12.038 0.888916 11.9249 0.935741 11.8416 1.01909C11.7583 1.10244 11.7114 1.21549 11.7114 1.33336V4.00003C11.7114 4.1179 11.7583 4.23095 11.8416 4.3143C11.9249 4.39765 12.038 4.44447 12.1559 4.44447Z" fill="white"/>
<path d="M12.1559 0.888916V-0.111084V0.888916ZM12.1559 5.44447C12.539 5.44447 12.9064 5.29229 13.1772 5.0214L11.763 3.60719C11.8672 3.503 12.0085 3.44447 12.1559 3.44447V5.44447ZM13.1772 5.0214C13.4481 4.75052 13.6003 4.38312 13.6003 4.00003H11.6003C11.6003 3.85269 11.6588 3.71138 11.763 3.60719L13.1772 5.0214ZM13.6003 4.00003V1.33336H11.6003V4.00003H13.6003ZM13.6003 1.33336C13.6003 0.950272 13.4481 0.582871 13.1772 0.311984L11.763 1.7262C11.6588 1.62201 11.6003 1.4807 11.6003 1.33336H13.6003ZM13.1772 0.311984C12.9064 0.0410975 12.539 -0.111084 12.1559 -0.111084V1.88892C12.0085 1.88892 11.8672 1.83039 11.763 1.7262L13.1772 0.311984ZM12.1559 -0.111084C11.7728 -0.111084 11.4054 0.0410975 11.1345 0.311984L12.5487 1.7262C12.4445 1.83039 12.3032 1.88892 12.1559 1.88892V-0.111084ZM11.1345 0.311984C10.8636 0.582871 10.7114 0.950272 10.7114 1.33336H12.7114C12.7114 1.4807 12.6529 1.62201 12.5487 1.7262L11.1345 0.311984ZM10.7114 1.33336V4.00003H12.7114V1.33336H10.7114ZM10.7114 4.00003C10.7114 4.38312 10.8636 4.75052 11.1345 5.0214L12.5487 3.60719C12.6529 3.71138 12.7114 3.85269 12.7114 4.00003H10.7114ZM11.1345 5.0214C11.4054 5.29229 11.7728 5.44447 12.1559 5.44447V3.44447C12.3032 3.44447 12.4445 3.503 12.5487 3.60719L11.1345 5.0214Z" fill="url(#paint14_linear_1439_8071)" mask="url(#path-29-inside-15_1439_8071)"/>
</g>
<g id="Vector_16">
<mask id="path-31-inside-16_1439_8071" fill="white">
<path d="M6.37793 2.66675H10.8224V3.55564H6.37793V2.66675Z"/>
</mask>
<path d="M6.37793 2.66675H10.8224V3.55564H6.37793V2.66675Z" fill="white"/>
<path d="M6.37793 2.66675V1.66675H5.37793V2.66675H6.37793ZM10.8224 2.66675H11.8224V1.66675H10.8224V2.66675ZM10.8224 3.55564V4.55564H11.8224V3.55564H10.8224ZM6.37793 3.55564H5.37793V4.55564H6.37793V3.55564ZM6.37793 3.66675H10.8224V1.66675H6.37793V3.66675ZM9.82237 2.66675V3.55564H11.8224V2.66675H9.82237ZM10.8224 2.55564H6.37793V4.55564H10.8224V2.55564ZM7.37793 3.55564V2.66675H5.37793V3.55564H7.37793Z" fill="url(#paint15_linear_1439_8071)" mask="url(#path-31-inside-16_1439_8071)"/>
</g>
</g>
<defs>
<linearGradient id="paint0_linear_1439_8071" x1="1.48877" y1="8.44453" x2="15.7112" y2="8.44453" gradientUnits="userSpaceOnUse">
<stop stop-color="#B68013"/>
<stop offset="0.510417" stop-color="#FDEF9F"/>
<stop offset="1" stop-color="#B68014"/>
</linearGradient>
<linearGradient id="paint1_linear_1439_8071" x1="4.15576" y1="6.66661" x2="5.04465" y2="6.66661" gradientUnits="userSpaceOnUse">
<stop stop-color="#B68013"/>
<stop offset="0.510417" stop-color="#FDEF9F"/>
<stop offset="1" stop-color="#B68014"/>
</linearGradient>
<linearGradient id="paint2_linear_1439_8071" x1="6.82227" y1="6.66661" x2="7.71115" y2="6.66661" gradientUnits="userSpaceOnUse">
<stop stop-color="#B68013"/>
<stop offset="0.510417" stop-color="#FDEF9F"/>
<stop offset="1" stop-color="#B68014"/>
</linearGradient>
<linearGradient id="paint3_linear_1439_8071" x1="9.48877" y1="6.66661" x2="10.3777" y2="6.66661" gradientUnits="userSpaceOnUse">
<stop stop-color="#B68013"/>
<stop offset="0.510417" stop-color="#FDEF9F"/>
<stop offset="1" stop-color="#B68014"/>
</linearGradient>
<linearGradient id="paint4_linear_1439_8071" x1="12.1558" y1="6.66661" x2="13.0447" y2="6.66661" gradientUnits="userSpaceOnUse">
<stop stop-color="#B68013"/>
<stop offset="0.510417" stop-color="#FDEF9F"/>
<stop offset="1" stop-color="#B68014"/>
</linearGradient>
<linearGradient id="paint5_linear_1439_8071" x1="4.15576" y1="8.88878" x2="5.04465" y2="8.88878" gradientUnits="userSpaceOnUse">
<stop stop-color="#B68013"/>
<stop offset="0.510417" stop-color="#FDEF9F"/>
<stop offset="1" stop-color="#B68014"/>
</linearGradient>
<linearGradient id="paint6_linear_1439_8071" x1="6.82227" y1="8.88878" x2="7.71115" y2="8.88878" gradientUnits="userSpaceOnUse">
<stop stop-color="#B68013"/>
<stop offset="0.510417" stop-color="#FDEF9F"/>
<stop offset="1" stop-color="#B68014"/>
</linearGradient>
<linearGradient id="paint7_linear_1439_8071" x1="9.48877" y1="8.88878" x2="10.3777" y2="8.88878" gradientUnits="userSpaceOnUse">
<stop stop-color="#B68013"/>
<stop offset="0.510417" stop-color="#FDEF9F"/>
<stop offset="1" stop-color="#B68014"/>
</linearGradient>
<linearGradient id="paint8_linear_1439_8071" x1="12.1558" y1="8.88878" x2="13.0447" y2="8.88878" gradientUnits="userSpaceOnUse">
<stop stop-color="#B68013"/>
<stop offset="0.510417" stop-color="#FDEF9F"/>
<stop offset="1" stop-color="#B68014"/>
</linearGradient>
<linearGradient id="paint9_linear_1439_8071" x1="4.15576" y1="11.1112" x2="5.04465" y2="11.1112" gradientUnits="userSpaceOnUse">
<stop stop-color="#B68013"/>
<stop offset="0.510417" stop-color="#FDEF9F"/>
<stop offset="1" stop-color="#B68014"/>
</linearGradient>
<linearGradient id="paint10_linear_1439_8071" x1="6.82227" y1="11.1112" x2="7.71115" y2="11.1112" gradientUnits="userSpaceOnUse">
<stop stop-color="#B68013"/>
<stop offset="0.510417" stop-color="#FDEF9F"/>
<stop offset="1" stop-color="#B68014"/>
</linearGradient>
<linearGradient id="paint11_linear_1439_8071" x1="9.48877" y1="11.1112" x2="10.3777" y2="11.1112" gradientUnits="userSpaceOnUse">
<stop stop-color="#B68013"/>
<stop offset="0.510417" stop-color="#FDEF9F"/>
<stop offset="1" stop-color="#B68014"/>
</linearGradient>
<linearGradient id="paint12_linear_1439_8071" x1="12.1558" y1="11.1112" x2="13.0447" y2="11.1112" gradientUnits="userSpaceOnUse">
<stop stop-color="#B68013"/>
<stop offset="0.510417" stop-color="#FDEF9F"/>
<stop offset="1" stop-color="#B68014"/>
</linearGradient>
<linearGradient id="paint13_linear_1439_8071" x1="4.6001" y1="2.66669" x2="5.48899" y2="2.66669" gradientUnits="userSpaceOnUse">
<stop stop-color="#B68013"/>
<stop offset="0.510417" stop-color="#FDEF9F"/>
<stop offset="1" stop-color="#B68014"/>
</linearGradient>
<linearGradient id="paint14_linear_1439_8071" x1="11.7114" y1="2.66669" x2="12.6003" y2="2.66669" gradientUnits="userSpaceOnUse">
<stop stop-color="#B68013"/>
<stop offset="0.510417" stop-color="#FDEF9F"/>
<stop offset="1" stop-color="#B68014"/>
</linearGradient>
<linearGradient id="paint15_linear_1439_8071" x1="6.37793" y1="3.11119" x2="10.8224" y2="3.11119" gradientUnits="userSpaceOnUse">
<stop stop-color="#B68013"/>
<stop offset="0.510417" stop-color="#FDEF9F"/>
<stop offset="1" stop-color="#B68014"/>
</linearGradient>
<clipPath id="clip0_1439_8071">
<rect width="16" height="16" fill="white" transform="translate(0.600098)"/>
</clipPath>
</defs>
</svg>
