<svg width="32" height="32" viewBox="0 0 42 42" fill="none" xmlns="http://www.w3.org/2000/svg">
<g filter="url(#filter0_i_2899_175)">
<rect x="2" y="2" width="37.998" height="37.998" rx="18.999" fill="#2D2D2D"/>
</g>
<rect x="1" y="1" width="39.998" height="39.998" rx="19.999" stroke="#D9D9D9" stroke-width="2"/>
<rect x="1" y="1" width="39.998" height="39.998" rx="19.999" stroke="url(#paint0_linear_2899_175)" stroke-width="2"/>
<path d="M16 30C15.45 30 14.9793 29.8043 14.588 29.413C14.1967 29.0217 14.0007 28.5507 14 28V15H13V13H18V12H24V13H29V15H28V28C28 28.55 27.8043 29.021 27.413 29.413C27.0217 29.805 26.5507 30.0007 26 30H16ZM26 15H16V28H26V15ZM18 26H20V17H18V26ZM22 26H24V17H22V26Z" fill="#D9D9D9"/>
<path d="M16 30C15.45 30 14.9793 29.8043 14.588 29.413C14.1967 29.0217 14.0007 28.5507 14 28V15H13V13H18V12H24V13H29V15H28V28C28 28.55 27.8043 29.021 27.413 29.413C27.0217 29.805 26.5507 30.0007 26 30H16ZM26 15H16V28H26V15ZM18 26H20V17H18V26ZM22 26H24V17H22V26Z" fill="url(#paint1_linear_2899_175)"/>
<defs>
<filter id="filter0_i_2899_175" x="0" y="-4" width="41.998" height="45.998" filterUnits="userSpaceOnUse" color-interpolation-filters="sRGB">
<feFlood flood-opacity="0" result="BackgroundImageFix"/>
<feBlend mode="normal" in="SourceGraphic" in2="BackgroundImageFix" result="shape"/>
<feColorMatrix in="SourceAlpha" type="matrix" values="0 0 0 0 0 0 0 0 0 0 0 0 0 0 0 0 0 0 127 0" result="hardAlpha"/>
<feOffset dy="-15"/>
<feGaussianBlur stdDeviation="2"/>
<feComposite in2="hardAlpha" operator="arithmetic" k2="-1" k3="1"/>
<feColorMatrix type="matrix" values="0 0 0 0 0 0 0 0 0 0 0 0 0 0 0 0 0 0 1 0"/>
<feBlend mode="normal" in2="shape" result="effect1_innerShadow_2899_175"/>
</filter>
<linearGradient id="paint0_linear_2899_175" x1="2" y1="21.7027" x2="39.998" y2="21.7027" gradientUnits="userSpaceOnUse">
<stop stop-color="#B68013"/>
<stop offset="0.531472" stop-color="#FDEF9F"/>
<stop offset="1" stop-color="#B68014"/>
</linearGradient>
<linearGradient id="paint1_linear_2899_175" x1="13" y1="21.3333" x2="29" y2="21.3333" gradientUnits="userSpaceOnUse">
<stop stop-color="#B68013"/>
<stop offset="0.531472" stop-color="#FDEF9F"/>
<stop offset="1" stop-color="#B68014"/>
</linearGradient>
</defs>
</svg>
