<svg width="24" height="26" viewBox="0 0 24 26" fill="none" xmlns="http://www.w3.org/2000/svg">
<g id="solar:document-broken">
<g id="Vector">
<path d="M3 15.0716V10.9288C3 7.0231 3 5.06975 4.172 3.85692C5.343 2.64307 7.229 2.64307 11 2.64307H13C16.771 2.64307 18.657 2.64307 19.828 3.85692C20.482 4.53325 20.771 5.4395 20.898 6.78592M21 10.9288V15.0716C21 18.9773 21 20.9307 19.828 22.1435C18.657 23.3574 16.771 23.3574 13 23.3574H11C7.229 23.3574 5.343 23.3574 4.172 22.1435C3.518 21.4672 3.229 20.5609 3.102 19.2145M8 15.0716H13M8 10.9288H9M16 10.9288H12" stroke="#6E81A0" stroke-width="1.5" stroke-linecap="round"/>
<path d="M3 15.0716V10.9288C3 7.0231 3 5.06975 4.172 3.85692C5.343 2.64307 7.229 2.64307 11 2.64307H13C16.771 2.64307 18.657 2.64307 19.828 3.85692C20.482 4.53325 20.771 5.4395 20.898 6.78592M21 10.9288V15.0716C21 18.9773 21 20.9307 19.828 22.1435C18.657 23.3574 16.771 23.3574 13 23.3574H11C7.229 23.3574 5.343 23.3574 4.172 22.1435C3.518 21.4672 3.229 20.5609 3.102 19.2145M8 15.0716H13M8 10.9288H9M16 10.9288H12" stroke="url(#paint0_linear_1439_7676)" stroke-width="1.5" stroke-linecap="round"/>
<path d="M3 15.0716V10.9288C3 7.0231 3 5.06975 4.172 3.85692C5.343 2.64307 7.229 2.64307 11 2.64307H13C16.771 2.64307 18.657 2.64307 19.828 3.85692C20.482 4.53325 20.771 5.4395 20.898 6.78592M21 10.9288V15.0716C21 18.9773 21 20.9307 19.828 22.1435C18.657 23.3574 16.771 23.3574 13 23.3574H11C7.229 23.3574 5.343 23.3574 4.172 22.1435C3.518 21.4672 3.229 20.5609 3.102 19.2145M8 15.0716H13M8 10.9288H9M16 10.9288H12" stroke="url(#paint1_linear_1439_7676)" stroke-width="1.5" stroke-linecap="round"/>
</g>
</g>
<defs>
<linearGradient id="paint0_linear_1439_7676" x1="3" y1="23.3573" x2="21" y2="23.3573" gradientUnits="userSpaceOnUse">
<stop stop-color="#B46A11"/>
<stop offset="0.354167" stop-color="#D68D15"/>
<stop offset="0.6875" stop-color="#E7AC18"/>
<stop offset="1" stop-color="#F8C73D"/>
</linearGradient>
<linearGradient id="paint1_linear_1439_7676" x1="3" y1="13.0002" x2="21" y2="13.0002" gradientUnits="userSpaceOnUse">
<stop stop-color="#B68013"/>
<stop offset="0.510417" stop-color="#FDEF9F"/>
<stop offset="1" stop-color="#B68014"/>
</linearGradient>
</defs>
</svg>
