<svg width="37" height="37" viewBox="0 0 37 37" fill="none" xmlns="http://www.w3.org/2000/svg">
<rect x="1" y="1" width="35" height="35" rx="6" fill="black"/>
<rect x="1" y="1" width="35" height="35" rx="6" fill="url(#paint0_linear_1439_10382)" fill-opacity="0.3"/>
<rect x="1" y="1" width="35" height="35" rx="6" stroke="url(#paint1_linear_1439_10382)" stroke-width="2"/>
<rect x="1" y="1" width="35" height="35" rx="6" stroke="url(#paint2_linear_1439_10382)" stroke-width="2"/>
<path d="M12 27H26V25H12V27ZM26 16H22V10H16V16H12L19 23L26 16Z" fill="white"/>
<path d="M12 27H26V25H12V27ZM26 16H22V10H16V16H12L19 23L26 16Z" fill="url(#paint3_linear_1439_10382)"/>
<defs>
<linearGradient id="paint0_linear_1439_10382" x1="18.5" y1="1" x2="18.5" y2="36" gradientUnits="userSpaceOnUse">
<stop stop-color="#AEAEAE"/>
<stop offset="0.390625" stop-color="#2B2A2A"/>
<stop offset="0.796875" stop-color="#AEAEAE" stop-opacity="0.3"/>
<stop offset="1"/>
</linearGradient>
<linearGradient id="paint1_linear_1439_10382" x1="1" y1="18.5058" x2="36" y2="18.5058" gradientUnits="userSpaceOnUse">
<stop stop-color="#F46722"/>
<stop offset="0.394274" stop-color="#E6F70B"/>
<stop offset="0.728979" stop-color="#F46722"/>
<stop offset="1" stop-color="#E37132"/>
</linearGradient>
<linearGradient id="paint2_linear_1439_10382" x1="1" y1="18.5" x2="36" y2="18.5" gradientUnits="userSpaceOnUse">
<stop stop-color="#B68013"/>
<stop offset="0.510417" stop-color="#FDEF9F"/>
<stop offset="1" stop-color="#B68014"/>
</linearGradient>
<linearGradient id="paint3_linear_1439_10382" x1="12" y1="18.8148" x2="26" y2="18.8148" gradientUnits="userSpaceOnUse">
<stop stop-color="#B68013"/>
<stop offset="0.531472" stop-color="#FDEF9F"/>
<stop offset="1" stop-color="#B68014"/>
</linearGradient>
</defs>
</svg>
