<svg width="24" height="24" viewBox="0 0 24 24" fill="none" xmlns="http://www.w3.org/2000/svg">
<g id="fluent:signature-20-filled">
<path id="Vector" d="M14.4253 3.32626C14.6965 3.04837 15.0201 2.82707 15.3774 2.67519C15.7348 2.52331 16.1187 2.44386 16.507 2.44146C16.8953 2.43906 17.2801 2.51375 17.6393 2.66121C17.9985 2.80866 18.3249 3.02594 18.5995 3.30046C18.8741 3.57497 19.0915 3.90126 19.239 4.26041C19.3866 4.61956 19.4614 5.00442 19.4591 5.3927C19.4568 5.78097 19.3775 6.16493 19.2257 6.52231C19.0739 6.8797 18.8527 7.2034 18.5749 7.47466L17.0485 8.99986L17.1517 9.10306C17.3746 9.32594 17.5515 9.59055 17.6722 9.8818C17.7929 10.173 17.855 10.4852 17.855 10.8005C17.855 11.1157 17.7929 11.4279 17.6722 11.7191C17.5515 12.0104 17.3746 12.275 17.1517 12.4979L15.4237 14.2247C15.3105 14.334 15.159 14.3944 15.0016 14.3931C14.8443 14.3917 14.6938 14.3286 14.5826 14.2174C14.4713 14.1061 14.4082 13.9556 14.4069 13.7983C14.4055 13.641 14.466 13.4894 14.5753 13.3763L16.3033 11.6483C16.5282 11.4232 16.6546 11.1181 16.6546 10.7999C16.6546 10.4817 16.5282 10.1765 16.3033 9.95146L16.2001 9.84826L8.22488 17.8247C8.14767 17.9015 8.05102 17.9558 7.94528 17.9819L3.14528 19.1819C3.04105 19.2078 2.93177 19.2052 2.82887 19.1744C2.72596 19.1437 2.6332 19.0859 2.56025 19.0071C2.48731 18.9282 2.43686 18.8313 2.41417 18.7263C2.39149 18.6213 2.39739 18.5122 2.43128 18.4103L3.93128 13.9103C3.96053 13.8222 4.00982 13.7421 4.07528 13.6763L14.4265 3.32626H14.4253ZM3.92168 20.2859C3.90163 20.2707 3.88163 20.2555 3.86168 20.2403L5.47928 19.8359C6.12488 20.1599 6.90488 20.3999 7.80008 20.3999C8.40848 20.3999 9.01688 20.1875 9.64088 19.8323C10.2673 19.4747 10.8697 18.9983 11.4721 18.5099L11.6281 18.3827C12.1621 17.9471 12.7105 17.5007 13.2325 17.1923C13.7989 16.8587 14.4853 16.5959 15.1897 16.8323C16.1761 17.1599 16.4869 18.0671 16.7749 19.0283C16.8409 19.2479 16.9537 19.4651 17.0869 19.6151C17.2201 19.7651 17.3269 19.7999 17.4001 19.7999C17.6245 19.7999 17.9473 19.6787 18.3565 19.4363C18.6157 19.2839 18.8401 19.1291 19.0621 18.9755C19.1977 18.8807 19.3333 18.7883 19.4737 18.6971C19.8553 18.4499 20.1841 18.2843 20.4217 18.1799C20.5435 18.1264 20.6676 18.0784 20.7937 18.0359L20.8177 18.0287L20.8273 18.0263L20.8309 18.0251L21.0001 18.6011L20.8321 18.0251C20.9831 17.9852 21.1437 18.0059 21.2798 18.0826C21.4158 18.1593 21.5166 18.2861 21.5607 18.436C21.6047 18.5858 21.5886 18.747 21.5158 18.8851C21.4429 19.0233 21.319 19.1276 21.1705 19.1759L21.1621 19.1783L21.1141 19.1951C21.0435 19.2207 20.9739 19.2487 20.9053 19.2791C20.7193 19.3607 20.4493 19.4951 20.1265 19.7039C20.0425 19.7591 19.9333 19.8335 19.8109 19.9175C19.5613 20.0891 19.2529 20.3015 18.9661 20.4695C18.5317 20.7263 17.9701 20.9999 17.4001 20.9999C16.8721 20.9999 16.4641 20.7215 16.1905 20.4119C15.9302 20.1097 15.7375 19.7554 15.6253 19.3727C15.3097 18.3215 15.1285 18.0767 14.8093 17.9687C14.6149 17.9051 14.3257 17.9411 13.8421 18.2267C13.4029 18.4859 12.9253 18.8747 12.3685 19.3271L12.2281 19.4411C11.6305 19.9271 10.9585 20.4623 10.2349 20.8751C9.50888 21.2879 8.69168 21.5999 7.80008 21.5999C6.13448 21.5999 4.81328 20.9339 3.92168 20.2859Z" fill="url(#paint0_linear_1596_306)"/>
</g>
<defs>
<linearGradient id="paint0_linear_1596_306" x1="2.40063" y1="12.3754" x2="21.585" y2="12.3754" gradientUnits="userSpaceOnUse">
<stop stop-color="#B68013"/>
<stop offset="0.531472" stop-color="#FDEF9F"/>
<stop offset="1" stop-color="#B68014"/>
</linearGradient>
</defs>
</svg>
