<svg width="64" height="64" viewBox="0 0 64 64" fill="none" xmlns="http://www.w3.org/2000/svg">
<g filter="url(#filter0_i_3530_113)">
<rect x="2" y="2" width="60" height="60" rx="28.4907" fill="#2D2D2D"/>
</g>
<rect x="1" y="1" width="62" height="62" rx="29.4907" stroke="#D9D9D9" stroke-width="2"/>
<rect x="1" y="1" width="62" height="62" rx="29.4907" stroke="url(#paint0_linear_3530_113)" stroke-width="2"/>
<path d="M46.3607 24.9556L40.2321 18.827C39.5658 18.1608 38.6621 17.7865 37.7199 17.7865C36.7777 17.7865 35.8741 18.1608 35.2078 18.827L17.6421 36.3927C16.9758 37.059 16.6016 37.9627 16.6016 38.9049C16.6016 39.8471 16.9758 40.7507 17.6421 41.417L22.092 45.8669C22.2024 45.9772 22.3335 46.0646 22.4778 46.124C22.6221 46.1835 22.7767 46.2138 22.9328 46.2133H45.0284C45.3424 46.2133 45.6437 46.0885 45.8658 45.8665C46.0879 45.6444 46.2126 45.3431 46.2126 45.029C46.2126 44.715 46.0879 44.4137 45.8658 44.1916C45.6437 43.9695 45.3424 43.8448 45.0284 43.8448H32.4899L46.3607 29.9799C47.0269 29.3136 47.4012 28.41 47.4012 27.4678C47.4012 26.5256 47.0269 25.6219 46.3607 24.9556ZM29.1414 43.8448H23.4228L19.3193 39.7413C19.0974 39.5192 18.9727 39.2181 18.9727 38.9041C18.9727 38.5902 19.0974 38.2891 19.3193 38.067L27.2643 30.1235L35.0642 37.9234L29.1414 43.8448ZM44.6849 28.3012L36.7385 36.2492L28.9385 28.4492L36.8865 20.5057C36.9965 20.3956 37.1271 20.3083 37.2709 20.2487C37.4146 20.1891 37.5687 20.1584 37.7244 20.1584C37.88 20.1584 38.0341 20.1891 38.1779 20.2487C38.3216 20.3083 38.4522 20.3956 38.5622 20.5057L44.6879 26.6314C44.9098 26.8535 45.0345 27.1546 45.0345 27.4685C45.0345 27.7825 44.9098 28.0836 44.6879 28.3057L44.6849 28.3012Z" fill="#D9D9D9"/>
<path d="M46.3607 24.9556L40.2321 18.827C39.5658 18.1608 38.6621 17.7865 37.7199 17.7865C36.7777 17.7865 35.8741 18.1608 35.2078 18.827L17.6421 36.3927C16.9758 37.059 16.6016 37.9627 16.6016 38.9049C16.6016 39.8471 16.9758 40.7507 17.6421 41.417L22.092 45.8669C22.2024 45.9772 22.3335 46.0646 22.4778 46.124C22.6221 46.1835 22.7767 46.2138 22.9328 46.2133H45.0284C45.3424 46.2133 45.6437 46.0885 45.8658 45.8665C46.0879 45.6444 46.2126 45.3431 46.2126 45.029C46.2126 44.715 46.0879 44.4137 45.8658 44.1916C45.6437 43.9695 45.3424 43.8448 45.0284 43.8448H32.4899L46.3607 29.9799C47.0269 29.3136 47.4012 28.41 47.4012 27.4678C47.4012 26.5256 47.0269 25.6219 46.3607 24.9556ZM29.1414 43.8448H23.4228L19.3193 39.7413C19.0974 39.5192 18.9727 39.2181 18.9727 38.9041C18.9727 38.5902 19.0974 38.2891 19.3193 38.067L27.2643 30.1235L35.0642 37.9234L29.1414 43.8448ZM44.6849 28.3012L36.7385 36.2492L28.9385 28.4492L36.8865 20.5057C36.9965 20.3956 37.1271 20.3083 37.2709 20.2487C37.4146 20.1891 37.5687 20.1584 37.7244 20.1584C37.88 20.1584 38.0341 20.1891 38.1779 20.2487C38.3216 20.3083 38.4522 20.3956 38.5622 20.5057L44.6879 26.6314C44.9098 26.8535 45.0345 27.1546 45.0345 27.4685C45.0345 27.7825 44.9098 28.0836 44.6879 28.3057L44.6849 28.3012Z" fill="url(#paint1_linear_3530_113)"/>
<defs>
<filter id="filter0_i_3530_113" x="0" y="-4" width="64" height="68" filterUnits="userSpaceOnUse" color-interpolation-filters="sRGB">
<feFlood flood-opacity="0" result="BackgroundImageFix"/>
<feBlend mode="normal" in="SourceGraphic" in2="BackgroundImageFix" result="shape"/>
<feColorMatrix in="SourceAlpha" type="matrix" values="0 0 0 0 0 0 0 0 0 0 0 0 0 0 0 0 0 0 127 0" result="hardAlpha"/>
<feOffset dy="-15"/>
<feGaussianBlur stdDeviation="2"/>
<feComposite in2="hardAlpha" operator="arithmetic" k2="-1" k3="1"/>
<feColorMatrix type="matrix" values="0 0 0 0 0 0 0 0 0 0 0 0 0 0 0 0 0 0 1 0"/>
<feBlend mode="normal" in2="shape" result="effect1_innerShadow_3530_113"/>
</filter>
<linearGradient id="paint0_linear_3530_113" x1="2" y1="33.1111" x2="62" y2="33.1111" gradientUnits="userSpaceOnUse">
<stop stop-color="#B68013"/>
<stop offset="0.531472" stop-color="#FDEF9F"/>
<stop offset="1" stop-color="#B68014"/>
</linearGradient>
<linearGradient id="paint1_linear_3530_113" x1="16.6016" y1="32.5264" x2="47.4012" y2="32.5264" gradientUnits="userSpaceOnUse">
<stop stop-color="#B68013"/>
<stop offset="0.531472" stop-color="#FDEF9F"/>
<stop offset="1" stop-color="#B68014"/>
</linearGradient>
</defs>
</svg>
