<svg width="24" height="24" viewBox="0 0 24 24" fill="none" xmlns="http://www.w3.org/2000/svg">
<path fill-rule="evenodd" clip-rule="evenodd" d="M11.0955 17.9608C11.3879 17.9865 11.6893 18 12 18C16.9091 18 21 12 21 12C21 12 20.3304 11.0179 19.2079 9.84839L11.0955 17.9608Z" fill="#D4AF37"/>
<path fill-rule="evenodd" clip-rule="evenodd" d="M11.0955 17.9608C11.3879 17.9865 11.6893 18 12 18C16.9091 18 21 12 21 12C21 12 20.3304 11.0179 19.2079 9.84839L11.0955 17.9608Z" fill="url(#paint0_linear_1420_5455)"/>
<path fill-rule="evenodd" clip-rule="evenodd" d="M14.5051 6.49485C13.7076 6.18695 12.8665 6 12 6C5.45455 6 3 12 3 12C3 12 3.75006 13.8335 5.52661 15.4734L9 12C9 10.3431 10.3431 9 12 9L14.5051 6.49485Z" fill="#D4AF37"/>
<path fill-rule="evenodd" clip-rule="evenodd" d="M14.5051 6.49485C13.7076 6.18695 12.8665 6 12 6C5.45455 6 3 12 3 12C3 12 3.75006 13.8335 5.52661 15.4734L9 12C9 10.3431 10.3431 9 12 9L14.5051 6.49485Z" fill="url(#paint1_linear_1420_5455)"/>
<rect x="5.10001" y="18.4351" width="19" height="2" transform="rotate(-45 5.10001 18.4351)" fill="#D4AF37"/>
<rect x="5.10001" y="18.4351" width="19" height="2" transform="rotate(-45 5.10001 18.4351)" fill="url(#paint2_linear_1420_5455)"/>
<rect x="5.10001" y="18.4351" width="19" height="2" transform="rotate(-45 5.10001 18.4351)" stroke="url(#paint3_linear_1420_5455)"/>
<defs>
<linearGradient id="paint0_linear_1420_5455" x1="11.0955" y1="14.0752" x2="21" y2="14.0752" gradientUnits="userSpaceOnUse">
<stop stop-color="#B68013"/>
<stop offset="0.531472" stop-color="#FDEF9F"/>
<stop offset="1" stop-color="#B68014"/>
</linearGradient>
<linearGradient id="paint1_linear_1420_5455" x1="3" y1="10.9121" x2="14.5051" y2="10.9121" gradientUnits="userSpaceOnUse">
<stop stop-color="#B68013"/>
<stop offset="0.531472" stop-color="#FDEF9F"/>
<stop offset="1" stop-color="#B68014"/>
</linearGradient>
<linearGradient id="paint2_linear_1420_5455" x1="5.10001" y1="19.4721" x2="24.1" y2="19.4721" gradientUnits="userSpaceOnUse">
<stop stop-color="#B68013"/>
<stop offset="0.531472" stop-color="#FDEF9F"/>
<stop offset="1" stop-color="#B68014"/>
</linearGradient>
<linearGradient id="paint3_linear_1420_5455" x1="5.10001" y1="19.4351" x2="24.1" y2="19.4351" gradientUnits="userSpaceOnUse">
<stop stop-color="#B68013"/>
<stop offset="0.510417" stop-color="#FDEF9F"/>
<stop offset="1" stop-color="#B68014"/>
</linearGradient>
</defs>
</svg>
