<svg width="50" height="50" viewBox="0 0 25 24" fill="none" xmlns="http://www.w3.org/2000/svg">
<g id="material-symbols:fingerprint-outline">
<g id="Vector">
<path d="M3.36847 9.6499C3.2518 9.56657 3.1808 9.46224 3.15547 9.3369C3.13013 9.21157 3.1678 9.08257 3.26847 8.9499C4.3018 7.53324 5.5978 6.43324 7.15647 5.6499C8.71513 4.86657 10.3775 4.4749 12.1435 4.4749C13.9101 4.4749 15.5768 4.85424 17.1435 5.6129C18.7101 6.37157 20.0185 7.46724 21.0685 8.8999C21.1851 9.0499 21.2228 9.18324 21.1815 9.2999C21.1401 9.41657 21.0691 9.51657 20.9685 9.5999C20.8685 9.68324 20.7518 9.7209 20.6185 9.7129C20.4851 9.7049 20.3685 9.6339 20.2685 9.4999C19.3518 8.1999 18.1728 7.20424 16.7315 6.5129C15.2901 5.82157 13.7608 5.47557 12.1435 5.4749C10.5268 5.4749 9.01013 5.8209 7.59347 6.5129C6.1768 7.2049 5.0018 8.20057 4.06847 9.4999C3.96847 9.6499 3.8518 9.73324 3.71847 9.7499C3.58513 9.76657 3.46847 9.73324 3.36847 9.6499ZM14.9685 21.9749C13.2351 21.5416 11.8185 20.6789 10.7185 19.3869C9.61847 18.0949 9.06847 16.5159 9.06847 14.6499C9.06847 13.8166 9.36847 13.1166 9.96847 12.5499C10.5685 11.9832 11.2935 11.6999 12.1435 11.6999C12.9935 11.6999 13.7185 11.9832 14.3185 12.5499C14.9185 13.1166 15.2185 13.8166 15.2185 14.6499C15.2185 15.1999 15.4268 15.6626 15.8435 16.0379C16.2601 16.4132 16.7518 16.6006 17.3185 16.5999C17.8851 16.5999 18.3685 16.4122 18.7685 16.0369C19.1685 15.6616 19.3685 15.1992 19.3685 14.6499C19.3685 12.7166 18.6601 11.0916 17.2435 9.7749C15.8268 8.45824 14.1351 7.7999 12.1685 7.7999C10.2018 7.7999 8.51013 8.45824 7.09347 9.7749C5.6768 11.0916 4.96847 12.7082 4.96847 14.6249C4.96847 15.0249 5.00613 15.5249 5.08147 16.1249C5.1568 16.7249 5.3358 17.4249 5.61847 18.2249C5.66847 18.3749 5.66447 18.5082 5.60647 18.6249C5.54847 18.7416 5.45247 18.8249 5.31847 18.8749C5.18513 18.9249 5.0558 18.9206 4.93047 18.8619C4.80513 18.8032 4.7178 18.7076 4.66847 18.5749C4.41847 17.9249 4.23947 17.2789 4.13147 16.6369C4.02347 15.9949 3.96913 15.3326 3.96847 14.6499C3.96847 12.4332 4.7728 10.5749 6.38147 9.0749C7.99013 7.5749 9.9108 6.8249 12.1435 6.8249C14.3935 6.8249 16.3268 7.5749 17.9435 9.0749C19.5601 10.5749 20.3685 12.4332 20.3685 14.6499C20.3685 15.4832 20.0728 16.1789 19.4815 16.7369C18.8901 17.2949 18.1691 17.5742 17.3185 17.5749C16.4685 17.5749 15.7391 17.2956 15.1305 16.7369C14.5218 16.1782 14.2178 15.4826 14.2185 14.6499C14.2185 14.0999 14.0145 13.6372 13.6065 13.2619C13.1985 12.8866 12.7108 12.6992 12.1435 12.6999C11.5768 12.6999 11.0891 12.8876 10.6805 13.2629C10.2718 13.6382 10.0678 14.1006 10.0685 14.6499C10.0685 16.2666 10.5478 17.6166 11.5065 18.6999C12.4651 19.7832 13.7025 20.5416 15.2185 20.9749C15.3685 21.0249 15.4685 21.1082 15.5185 21.2249C15.5685 21.3416 15.5768 21.4666 15.5435 21.5999C15.5101 21.7166 15.4435 21.8166 15.3435 21.8999C15.2435 21.9832 15.1185 22.0082 14.9685 21.9749ZM6.61847 4.4249C6.48513 4.50824 6.3518 4.52924 6.21847 4.4879C6.08513 4.44657 5.98513 4.3589 5.91847 4.2249C5.8518 4.09157 5.83513 3.9709 5.86847 3.8629C5.9018 3.7549 5.98513 3.6589 6.11847 3.5749C7.0518 3.0749 8.0268 2.69157 9.04347 2.4249C10.0601 2.15824 11.0935 2.0249 12.1435 2.0249C13.2101 2.0249 14.2518 2.15424 15.2685 2.4129C16.2851 2.67157 17.2685 3.04224 18.2185 3.5249C18.3685 3.60824 18.4561 3.70824 18.4815 3.8249C18.5068 3.94157 18.4941 4.05824 18.4435 4.1749C18.3935 4.29157 18.3101 4.38324 18.1935 4.4499C18.0768 4.51657 17.9351 4.50824 17.7685 4.4249C16.8851 3.9749 15.9725 3.6289 15.0305 3.3869C14.0885 3.1449 13.1261 3.02424 12.1435 3.0249C11.1768 3.0249 10.2268 3.13757 9.29347 3.3629C8.36013 3.58824 7.46847 3.94224 6.61847 4.4249ZM9.56847 21.6249C8.58513 20.5916 7.8308 19.5372 7.30547 18.4619C6.78013 17.3866 6.5178 16.1159 6.51847 14.6499C6.51847 13.1332 7.06847 11.8539 8.16847 10.8119C9.26847 9.7699 10.5935 9.24924 12.1435 9.2499C13.6935 9.2499 15.0268 9.7709 16.1435 10.8129C17.2601 11.8549 17.8185 13.1339 17.8185 14.6499C17.8185 14.7999 17.7725 14.9209 17.6805 15.0129C17.5885 15.1049 17.4678 15.1506 17.3185 15.1499C17.1851 15.1499 17.0685 15.1039 16.9685 15.0119C16.8685 14.9199 16.8185 14.7992 16.8185 14.6499C16.8185 13.3999 16.3558 12.3539 15.4305 11.5119C14.5051 10.6699 13.4095 10.2492 12.1435 10.2499C10.8768 10.2499 9.78913 10.6709 8.88047 11.5129C7.9718 12.3549 7.5178 13.4006 7.51847 14.6499C7.51847 15.9999 7.7518 17.1459 8.21847 18.0879C8.68513 19.0299 9.36847 19.9756 10.2685 20.9249C10.3685 21.0249 10.4185 21.1416 10.4185 21.2749C10.4185 21.4082 10.3685 21.5249 10.2685 21.6249C10.1685 21.7249 10.0518 21.7749 9.91847 21.7749C9.78513 21.7749 9.66847 21.7249 9.56847 21.6249ZM17.1185 19.9249C15.6351 19.9249 14.3475 19.4249 13.2555 18.4249C12.1635 17.4249 11.6178 16.1666 11.6185 14.6499C11.6185 14.5166 11.6645 14.3999 11.7565 14.2999C11.8485 14.1999 11.9691 14.1499 12.1185 14.1499C12.2685 14.1499 12.3895 14.1999 12.4815 14.2999C12.5735 14.3999 12.6191 14.5166 12.6185 14.6499C12.6185 15.8999 13.0685 16.9249 13.9685 17.7249C14.8685 18.5249 15.9185 18.9249 17.1185 18.9249C17.2185 18.9249 17.3601 18.9166 17.5435 18.8999C17.7268 18.8832 17.9185 18.8582 18.1185 18.8249C18.2685 18.7916 18.3978 18.8126 18.5065 18.8879C18.6151 18.9632 18.6858 19.0756 18.7185 19.2249C18.7518 19.3582 18.7268 19.4749 18.6435 19.5749C18.5601 19.6749 18.4518 19.7416 18.3185 19.7749C18.0185 19.8582 17.7561 19.9042 17.5315 19.9129C17.3068 19.9216 17.1691 19.9256 17.1185 19.9249Z" fill="#2E476E"/>
<path d="M3.36847 9.6499C3.2518 9.56657 3.1808 9.46224 3.15547 9.3369C3.13013 9.21157 3.1678 9.08257 3.26847 8.9499C4.3018 7.53324 5.5978 6.43324 7.15647 5.6499C8.71513 4.86657 10.3775 4.4749 12.1435 4.4749C13.9101 4.4749 15.5768 4.85424 17.1435 5.6129C18.7101 6.37157 20.0185 7.46724 21.0685 8.8999C21.1851 9.0499 21.2228 9.18324 21.1815 9.2999C21.1401 9.41657 21.0691 9.51657 20.9685 9.5999C20.8685 9.68324 20.7518 9.7209 20.6185 9.7129C20.4851 9.7049 20.3685 9.6339 20.2685 9.4999C19.3518 8.1999 18.1728 7.20424 16.7315 6.5129C15.2901 5.82157 13.7608 5.47557 12.1435 5.4749C10.5268 5.4749 9.01013 5.8209 7.59347 6.5129C6.1768 7.2049 5.0018 8.20057 4.06847 9.4999C3.96847 9.6499 3.8518 9.73324 3.71847 9.7499C3.58513 9.76657 3.46847 9.73324 3.36847 9.6499ZM14.9685 21.9749C13.2351 21.5416 11.8185 20.6789 10.7185 19.3869C9.61847 18.0949 9.06847 16.5159 9.06847 14.6499C9.06847 13.8166 9.36847 13.1166 9.96847 12.5499C10.5685 11.9832 11.2935 11.6999 12.1435 11.6999C12.9935 11.6999 13.7185 11.9832 14.3185 12.5499C14.9185 13.1166 15.2185 13.8166 15.2185 14.6499C15.2185 15.1999 15.4268 15.6626 15.8435 16.0379C16.2601 16.4132 16.7518 16.6006 17.3185 16.5999C17.8851 16.5999 18.3685 16.4122 18.7685 16.0369C19.1685 15.6616 19.3685 15.1992 19.3685 14.6499C19.3685 12.7166 18.6601 11.0916 17.2435 9.7749C15.8268 8.45824 14.1351 7.7999 12.1685 7.7999C10.2018 7.7999 8.51013 8.45824 7.09347 9.7749C5.6768 11.0916 4.96847 12.7082 4.96847 14.6249C4.96847 15.0249 5.00613 15.5249 5.08147 16.1249C5.1568 16.7249 5.3358 17.4249 5.61847 18.2249C5.66847 18.3749 5.66447 18.5082 5.60647 18.6249C5.54847 18.7416 5.45247 18.8249 5.31847 18.8749C5.18513 18.9249 5.0558 18.9206 4.93047 18.8619C4.80513 18.8032 4.7178 18.7076 4.66847 18.5749C4.41847 17.9249 4.23947 17.2789 4.13147 16.6369C4.02347 15.9949 3.96913 15.3326 3.96847 14.6499C3.96847 12.4332 4.7728 10.5749 6.38147 9.0749C7.99013 7.5749 9.9108 6.8249 12.1435 6.8249C14.3935 6.8249 16.3268 7.5749 17.9435 9.0749C19.5601 10.5749 20.3685 12.4332 20.3685 14.6499C20.3685 15.4832 20.0728 16.1789 19.4815 16.7369C18.8901 17.2949 18.1691 17.5742 17.3185 17.5749C16.4685 17.5749 15.7391 17.2956 15.1305 16.7369C14.5218 16.1782 14.2178 15.4826 14.2185 14.6499C14.2185 14.0999 14.0145 13.6372 13.6065 13.2619C13.1985 12.8866 12.7108 12.6992 12.1435 12.6999C11.5768 12.6999 11.0891 12.8876 10.6805 13.2629C10.2718 13.6382 10.0678 14.1006 10.0685 14.6499C10.0685 16.2666 10.5478 17.6166 11.5065 18.6999C12.4651 19.7832 13.7025 20.5416 15.2185 20.9749C15.3685 21.0249 15.4685 21.1082 15.5185 21.2249C15.5685 21.3416 15.5768 21.4666 15.5435 21.5999C15.5101 21.7166 15.4435 21.8166 15.3435 21.8999C15.2435 21.9832 15.1185 22.0082 14.9685 21.9749ZM6.61847 4.4249C6.48513 4.50824 6.3518 4.52924 6.21847 4.4879C6.08513 4.44657 5.98513 4.3589 5.91847 4.2249C5.8518 4.09157 5.83513 3.9709 5.86847 3.8629C5.9018 3.7549 5.98513 3.6589 6.11847 3.5749C7.0518 3.0749 8.0268 2.69157 9.04347 2.4249C10.0601 2.15824 11.0935 2.0249 12.1435 2.0249C13.2101 2.0249 14.2518 2.15424 15.2685 2.4129C16.2851 2.67157 17.2685 3.04224 18.2185 3.5249C18.3685 3.60824 18.4561 3.70824 18.4815 3.8249C18.5068 3.94157 18.4941 4.05824 18.4435 4.1749C18.3935 4.29157 18.3101 4.38324 18.1935 4.4499C18.0768 4.51657 17.9351 4.50824 17.7685 4.4249C16.8851 3.9749 15.9725 3.6289 15.0305 3.3869C14.0885 3.1449 13.1261 3.02424 12.1435 3.0249C11.1768 3.0249 10.2268 3.13757 9.29347 3.3629C8.36013 3.58824 7.46847 3.94224 6.61847 4.4249ZM9.56847 21.6249C8.58513 20.5916 7.8308 19.5372 7.30547 18.4619C6.78013 17.3866 6.5178 16.1159 6.51847 14.6499C6.51847 13.1332 7.06847 11.8539 8.16847 10.8119C9.26847 9.7699 10.5935 9.24924 12.1435 9.2499C13.6935 9.2499 15.0268 9.7709 16.1435 10.8129C17.2601 11.8549 17.8185 13.1339 17.8185 14.6499C17.8185 14.7999 17.7725 14.9209 17.6805 15.0129C17.5885 15.1049 17.4678 15.1506 17.3185 15.1499C17.1851 15.1499 17.0685 15.1039 16.9685 15.0119C16.8685 14.9199 16.8185 14.7992 16.8185 14.6499C16.8185 13.3999 16.3558 12.3539 15.4305 11.5119C14.5051 10.6699 13.4095 10.2492 12.1435 10.2499C10.8768 10.2499 9.78913 10.6709 8.88047 11.5129C7.9718 12.3549 7.5178 13.4006 7.51847 14.6499C7.51847 15.9999 7.7518 17.1459 8.21847 18.0879C8.68513 19.0299 9.36847 19.9756 10.2685 20.9249C10.3685 21.0249 10.4185 21.1416 10.4185 21.2749C10.4185 21.4082 10.3685 21.5249 10.2685 21.6249C10.1685 21.7249 10.0518 21.7749 9.91847 21.7749C9.78513 21.7749 9.66847 21.7249 9.56847 21.6249ZM17.1185 19.9249C15.6351 19.9249 14.3475 19.4249 13.2555 18.4249C12.1635 17.4249 11.6178 16.1666 11.6185 14.6499C11.6185 14.5166 11.6645 14.3999 11.7565 14.2999C11.8485 14.1999 11.9691 14.1499 12.1185 14.1499C12.2685 14.1499 12.3895 14.1999 12.4815 14.2999C12.5735 14.3999 12.6191 14.5166 12.6185 14.6499C12.6185 15.8999 13.0685 16.9249 13.9685 17.7249C14.8685 18.5249 15.9185 18.9249 17.1185 18.9249C17.2185 18.9249 17.3601 18.9166 17.5435 18.8999C17.7268 18.8832 17.9185 18.8582 18.1185 18.8249C18.2685 18.7916 18.3978 18.8126 18.5065 18.8879C18.6151 18.9632 18.6858 19.0756 18.7185 19.2249C18.7518 19.3582 18.7268 19.4749 18.6435 19.5749C18.5601 19.6749 18.4518 19.7416 18.3185 19.7749C18.0185 19.8582 17.7561 19.9042 17.5315 19.9129C17.3068 19.9216 17.1691 19.9256 17.1185 19.9249Z" fill="url(#paint0_linear_1439_11197)"/>
<path d="M3.36847 9.6499C3.2518 9.56657 3.1808 9.46224 3.15547 9.3369C3.13013 9.21157 3.1678 9.08257 3.26847 8.9499C4.3018 7.53324 5.5978 6.43324 7.15647 5.6499C8.71513 4.86657 10.3775 4.4749 12.1435 4.4749C13.9101 4.4749 15.5768 4.85424 17.1435 5.6129C18.7101 6.37157 20.0185 7.46724 21.0685 8.8999C21.1851 9.0499 21.2228 9.18324 21.1815 9.2999C21.1401 9.41657 21.0691 9.51657 20.9685 9.5999C20.8685 9.68324 20.7518 9.7209 20.6185 9.7129C20.4851 9.7049 20.3685 9.6339 20.2685 9.4999C19.3518 8.1999 18.1728 7.20424 16.7315 6.5129C15.2901 5.82157 13.7608 5.47557 12.1435 5.4749C10.5268 5.4749 9.01013 5.8209 7.59347 6.5129C6.1768 7.2049 5.0018 8.20057 4.06847 9.4999C3.96847 9.6499 3.8518 9.73324 3.71847 9.7499C3.58513 9.76657 3.46847 9.73324 3.36847 9.6499ZM14.9685 21.9749C13.2351 21.5416 11.8185 20.6789 10.7185 19.3869C9.61847 18.0949 9.06847 16.5159 9.06847 14.6499C9.06847 13.8166 9.36847 13.1166 9.96847 12.5499C10.5685 11.9832 11.2935 11.6999 12.1435 11.6999C12.9935 11.6999 13.7185 11.9832 14.3185 12.5499C14.9185 13.1166 15.2185 13.8166 15.2185 14.6499C15.2185 15.1999 15.4268 15.6626 15.8435 16.0379C16.2601 16.4132 16.7518 16.6006 17.3185 16.5999C17.8851 16.5999 18.3685 16.4122 18.7685 16.0369C19.1685 15.6616 19.3685 15.1992 19.3685 14.6499C19.3685 12.7166 18.6601 11.0916 17.2435 9.7749C15.8268 8.45824 14.1351 7.7999 12.1685 7.7999C10.2018 7.7999 8.51013 8.45824 7.09347 9.7749C5.6768 11.0916 4.96847 12.7082 4.96847 14.6249C4.96847 15.0249 5.00613 15.5249 5.08147 16.1249C5.1568 16.7249 5.3358 17.4249 5.61847 18.2249C5.66847 18.3749 5.66447 18.5082 5.60647 18.6249C5.54847 18.7416 5.45247 18.8249 5.31847 18.8749C5.18513 18.9249 5.0558 18.9206 4.93047 18.8619C4.80513 18.8032 4.7178 18.7076 4.66847 18.5749C4.41847 17.9249 4.23947 17.2789 4.13147 16.6369C4.02347 15.9949 3.96913 15.3326 3.96847 14.6499C3.96847 12.4332 4.7728 10.5749 6.38147 9.0749C7.99013 7.5749 9.9108 6.8249 12.1435 6.8249C14.3935 6.8249 16.3268 7.5749 17.9435 9.0749C19.5601 10.5749 20.3685 12.4332 20.3685 14.6499C20.3685 15.4832 20.0728 16.1789 19.4815 16.7369C18.8901 17.2949 18.1691 17.5742 17.3185 17.5749C16.4685 17.5749 15.7391 17.2956 15.1305 16.7369C14.5218 16.1782 14.2178 15.4826 14.2185 14.6499C14.2185 14.0999 14.0145 13.6372 13.6065 13.2619C13.1985 12.8866 12.7108 12.6992 12.1435 12.6999C11.5768 12.6999 11.0891 12.8876 10.6805 13.2629C10.2718 13.6382 10.0678 14.1006 10.0685 14.6499C10.0685 16.2666 10.5478 17.6166 11.5065 18.6999C12.4651 19.7832 13.7025 20.5416 15.2185 20.9749C15.3685 21.0249 15.4685 21.1082 15.5185 21.2249C15.5685 21.3416 15.5768 21.4666 15.5435 21.5999C15.5101 21.7166 15.4435 21.8166 15.3435 21.8999C15.2435 21.9832 15.1185 22.0082 14.9685 21.9749ZM6.61847 4.4249C6.48513 4.50824 6.3518 4.52924 6.21847 4.4879C6.08513 4.44657 5.98513 4.3589 5.91847 4.2249C5.8518 4.09157 5.83513 3.9709 5.86847 3.8629C5.9018 3.7549 5.98513 3.6589 6.11847 3.5749C7.0518 3.0749 8.0268 2.69157 9.04347 2.4249C10.0601 2.15824 11.0935 2.0249 12.1435 2.0249C13.2101 2.0249 14.2518 2.15424 15.2685 2.4129C16.2851 2.67157 17.2685 3.04224 18.2185 3.5249C18.3685 3.60824 18.4561 3.70824 18.4815 3.8249C18.5068 3.94157 18.4941 4.05824 18.4435 4.1749C18.3935 4.29157 18.3101 4.38324 18.1935 4.4499C18.0768 4.51657 17.9351 4.50824 17.7685 4.4249C16.8851 3.9749 15.9725 3.6289 15.0305 3.3869C14.0885 3.1449 13.1261 3.02424 12.1435 3.0249C11.1768 3.0249 10.2268 3.13757 9.29347 3.3629C8.36013 3.58824 7.46847 3.94224 6.61847 4.4249ZM9.56847 21.6249C8.58513 20.5916 7.8308 19.5372 7.30547 18.4619C6.78013 17.3866 6.5178 16.1159 6.51847 14.6499C6.51847 13.1332 7.06847 11.8539 8.16847 10.8119C9.26847 9.7699 10.5935 9.24924 12.1435 9.2499C13.6935 9.2499 15.0268 9.7709 16.1435 10.8129C17.2601 11.8549 17.8185 13.1339 17.8185 14.6499C17.8185 14.7999 17.7725 14.9209 17.6805 15.0129C17.5885 15.1049 17.4678 15.1506 17.3185 15.1499C17.1851 15.1499 17.0685 15.1039 16.9685 15.0119C16.8685 14.9199 16.8185 14.7992 16.8185 14.6499C16.8185 13.3999 16.3558 12.3539 15.4305 11.5119C14.5051 10.6699 13.4095 10.2492 12.1435 10.2499C10.8768 10.2499 9.78913 10.6709 8.88047 11.5129C7.9718 12.3549 7.5178 13.4006 7.51847 14.6499C7.51847 15.9999 7.7518 17.1459 8.21847 18.0879C8.68513 19.0299 9.36847 19.9756 10.2685 20.9249C10.3685 21.0249 10.4185 21.1416 10.4185 21.2749C10.4185 21.4082 10.3685 21.5249 10.2685 21.6249C10.1685 21.7249 10.0518 21.7749 9.91847 21.7749C9.78513 21.7749 9.66847 21.7249 9.56847 21.6249ZM17.1185 19.9249C15.6351 19.9249 14.3475 19.4249 13.2555 18.4249C12.1635 17.4249 11.6178 16.1666 11.6185 14.6499C11.6185 14.5166 11.6645 14.3999 11.7565 14.2999C11.8485 14.1999 11.9691 14.1499 12.1185 14.1499C12.2685 14.1499 12.3895 14.1999 12.4815 14.2999C12.5735 14.3999 12.6191 14.5166 12.6185 14.6499C12.6185 15.8999 13.0685 16.9249 13.9685 17.7249C14.8685 18.5249 15.9185 18.9249 17.1185 18.9249C17.2185 18.9249 17.3601 18.9166 17.5435 18.8999C17.7268 18.8832 17.9185 18.8582 18.1185 18.8249C18.2685 18.7916 18.3978 18.8126 18.5065 18.8879C18.6151 18.9632 18.6858 19.0756 18.7185 19.2249C18.7518 19.3582 18.7268 19.4749 18.6435 19.5749C18.5601 19.6749 18.4518 19.7416 18.3185 19.7749C18.0185 19.8582 17.7561 19.9042 17.5315 19.9129C17.3068 19.9216 17.1691 19.9256 17.1185 19.9249Z" fill="url(#paint1_linear_1439_11197)"/>
<path d="M3.36847 9.6499C3.2518 9.56657 3.1808 9.46224 3.15547 9.3369C3.13013 9.21157 3.1678 9.08257 3.26847 8.9499C4.3018 7.53324 5.5978 6.43324 7.15647 5.6499C8.71513 4.86657 10.3775 4.4749 12.1435 4.4749C13.9101 4.4749 15.5768 4.85424 17.1435 5.6129C18.7101 6.37157 20.0185 7.46724 21.0685 8.8999C21.1851 9.0499 21.2228 9.18324 21.1815 9.2999C21.1401 9.41657 21.0691 9.51657 20.9685 9.5999C20.8685 9.68324 20.7518 9.7209 20.6185 9.7129C20.4851 9.7049 20.3685 9.6339 20.2685 9.4999C19.3518 8.1999 18.1728 7.20424 16.7315 6.5129C15.2901 5.82157 13.7608 5.47557 12.1435 5.4749C10.5268 5.4749 9.01013 5.8209 7.59347 6.5129C6.1768 7.2049 5.0018 8.20057 4.06847 9.4999C3.96847 9.6499 3.8518 9.73324 3.71847 9.7499C3.58513 9.76657 3.46847 9.73324 3.36847 9.6499ZM14.9685 21.9749C13.2351 21.5416 11.8185 20.6789 10.7185 19.3869C9.61847 18.0949 9.06847 16.5159 9.06847 14.6499C9.06847 13.8166 9.36847 13.1166 9.96847 12.5499C10.5685 11.9832 11.2935 11.6999 12.1435 11.6999C12.9935 11.6999 13.7185 11.9832 14.3185 12.5499C14.9185 13.1166 15.2185 13.8166 15.2185 14.6499C15.2185 15.1999 15.4268 15.6626 15.8435 16.0379C16.2601 16.4132 16.7518 16.6006 17.3185 16.5999C17.8851 16.5999 18.3685 16.4122 18.7685 16.0369C19.1685 15.6616 19.3685 15.1992 19.3685 14.6499C19.3685 12.7166 18.6601 11.0916 17.2435 9.7749C15.8268 8.45824 14.1351 7.7999 12.1685 7.7999C10.2018 7.7999 8.51013 8.45824 7.09347 9.7749C5.6768 11.0916 4.96847 12.7082 4.96847 14.6249C4.96847 15.0249 5.00613 15.5249 5.08147 16.1249C5.1568 16.7249 5.3358 17.4249 5.61847 18.2249C5.66847 18.3749 5.66447 18.5082 5.60647 18.6249C5.54847 18.7416 5.45247 18.8249 5.31847 18.8749C5.18513 18.9249 5.0558 18.9206 4.93047 18.8619C4.80513 18.8032 4.7178 18.7076 4.66847 18.5749C4.41847 17.9249 4.23947 17.2789 4.13147 16.6369C4.02347 15.9949 3.96913 15.3326 3.96847 14.6499C3.96847 12.4332 4.7728 10.5749 6.38147 9.0749C7.99013 7.5749 9.9108 6.8249 12.1435 6.8249C14.3935 6.8249 16.3268 7.5749 17.9435 9.0749C19.5601 10.5749 20.3685 12.4332 20.3685 14.6499C20.3685 15.4832 20.0728 16.1789 19.4815 16.7369C18.8901 17.2949 18.1691 17.5742 17.3185 17.5749C16.4685 17.5749 15.7391 17.2956 15.1305 16.7369C14.5218 16.1782 14.2178 15.4826 14.2185 14.6499C14.2185 14.0999 14.0145 13.6372 13.6065 13.2619C13.1985 12.8866 12.7108 12.6992 12.1435 12.6999C11.5768 12.6999 11.0891 12.8876 10.6805 13.2629C10.2718 13.6382 10.0678 14.1006 10.0685 14.6499C10.0685 16.2666 10.5478 17.6166 11.5065 18.6999C12.4651 19.7832 13.7025 20.5416 15.2185 20.9749C15.3685 21.0249 15.4685 21.1082 15.5185 21.2249C15.5685 21.3416 15.5768 21.4666 15.5435 21.5999C15.5101 21.7166 15.4435 21.8166 15.3435 21.8999C15.2435 21.9832 15.1185 22.0082 14.9685 21.9749ZM6.61847 4.4249C6.48513 4.50824 6.3518 4.52924 6.21847 4.4879C6.08513 4.44657 5.98513 4.3589 5.91847 4.2249C5.8518 4.09157 5.83513 3.9709 5.86847 3.8629C5.9018 3.7549 5.98513 3.6589 6.11847 3.5749C7.0518 3.0749 8.0268 2.69157 9.04347 2.4249C10.0601 2.15824 11.0935 2.0249 12.1435 2.0249C13.2101 2.0249 14.2518 2.15424 15.2685 2.4129C16.2851 2.67157 17.2685 3.04224 18.2185 3.5249C18.3685 3.60824 18.4561 3.70824 18.4815 3.8249C18.5068 3.94157 18.4941 4.05824 18.4435 4.1749C18.3935 4.29157 18.3101 4.38324 18.1935 4.4499C18.0768 4.51657 17.9351 4.50824 17.7685 4.4249C16.8851 3.9749 15.9725 3.6289 15.0305 3.3869C14.0885 3.1449 13.1261 3.02424 12.1435 3.0249C11.1768 3.0249 10.2268 3.13757 9.29347 3.3629C8.36013 3.58824 7.46847 3.94224 6.61847 4.4249ZM9.56847 21.6249C8.58513 20.5916 7.8308 19.5372 7.30547 18.4619C6.78013 17.3866 6.5178 16.1159 6.51847 14.6499C6.51847 13.1332 7.06847 11.8539 8.16847 10.8119C9.26847 9.7699 10.5935 9.24924 12.1435 9.2499C13.6935 9.2499 15.0268 9.7709 16.1435 10.8129C17.2601 11.8549 17.8185 13.1339 17.8185 14.6499C17.8185 14.7999 17.7725 14.9209 17.6805 15.0129C17.5885 15.1049 17.4678 15.1506 17.3185 15.1499C17.1851 15.1499 17.0685 15.1039 16.9685 15.0119C16.8685 14.9199 16.8185 14.7992 16.8185 14.6499C16.8185 13.3999 16.3558 12.3539 15.4305 11.5119C14.5051 10.6699 13.4095 10.2492 12.1435 10.2499C10.8768 10.2499 9.78913 10.6709 8.88047 11.5129C7.9718 12.3549 7.5178 13.4006 7.51847 14.6499C7.51847 15.9999 7.7518 17.1459 8.21847 18.0879C8.68513 19.0299 9.36847 19.9756 10.2685 20.9249C10.3685 21.0249 10.4185 21.1416 10.4185 21.2749C10.4185 21.4082 10.3685 21.5249 10.2685 21.6249C10.1685 21.7249 10.0518 21.7749 9.91847 21.7749C9.78513 21.7749 9.66847 21.7249 9.56847 21.6249ZM17.1185 19.9249C15.6351 19.9249 14.3475 19.4249 13.2555 18.4249C12.1635 17.4249 11.6178 16.1666 11.6185 14.6499C11.6185 14.5166 11.6645 14.3999 11.7565 14.2999C11.8485 14.1999 11.9691 14.1499 12.1185 14.1499C12.2685 14.1499 12.3895 14.1999 12.4815 14.2999C12.5735 14.3999 12.6191 14.5166 12.6185 14.6499C12.6185 15.8999 13.0685 16.9249 13.9685 17.7249C14.8685 18.5249 15.9185 18.9249 17.1185 18.9249C17.2185 18.9249 17.3601 18.9166 17.5435 18.8999C17.7268 18.8832 17.9185 18.8582 18.1185 18.8249C18.2685 18.7916 18.3978 18.8126 18.5065 18.8879C18.6151 18.9632 18.6858 19.0756 18.7185 19.2249C18.7518 19.3582 18.7268 19.4749 18.6435 19.5749C18.5601 19.6749 18.4518 19.7416 18.3185 19.7749C18.0185 19.8582 17.7561 19.9042 17.5315 19.9129C17.3068 19.9216 17.1691 19.9256 17.1185 19.9249Z" fill="url(#paint2_linear_1439_11197)"/>
</g>
</g>
<defs>
<linearGradient id="paint0_linear_1439_11197" x1="3.14783" y1="12.007" x2="21.1977" y2="12.007" gradientUnits="userSpaceOnUse">
<stop stop-color="#B46A11"/>
<stop offset="0.32" stop-color="#D68D15"/>
<stop offset="0.68" stop-color="#E7AC18"/>
<stop offset="1" stop-color="#F8C73D"/>
</linearGradient>
<linearGradient id="paint1_linear_1439_11197" x1="3.14783" y1="2.0249" x2="21.8598" y2="2.80363" gradientUnits="userSpaceOnUse">
<stop stop-color="#F46722"/>
<stop offset="0.485606" stop-color="#E6F70B"/>
<stop offset="0.78125" stop-color="#F46722"/>
<stop offset="1" stop-color="#E37132"/>
</linearGradient>
<linearGradient id="paint2_linear_1439_11197" x1="3.14783" y1="12.3768" x2="21.1977" y2="12.3768" gradientUnits="userSpaceOnUse">
<stop stop-color="#B68013"/>
<stop offset="0.531472" stop-color="#FDEF9F"/>
<stop offset="1" stop-color="#B68014"/>
</linearGradient>
</defs>
</svg>
