<svg width="24" height="24" viewBox="0 0 24 24" fill="none" xmlns="http://www.w3.org/2000/svg">
<g id="bx:map">
<g id="Vector">
<path d="M12 14C14.206 14 16 12.206 16 10C16 7.794 14.206 6 12 6C9.794 6 8 7.794 8 10C8 12.206 9.794 14 12 14ZM12 8C13.103 8 14 8.897 14 10C14 11.103 13.103 12 12 12C10.897 12 10 11.103 10 10C10 8.897 10.897 8 12 8Z" fill="#DF1A5A"/>
<path d="M12 14C14.206 14 16 12.206 16 10C16 7.794 14.206 6 12 6C9.794 6 8 7.794 8 10C8 12.206 9.794 14 12 14ZM12 8C13.103 8 14 8.897 14 10C14 11.103 13.103 12 12 12C10.897 12 10 11.103 10 10C10 8.897 10.897 8 12 8Z" fill="url(#paint0_linear_1439_9892)"/>
</g>
<g id="Vector_2">
<path d="M11.4201 21.814C11.5893 21.9349 11.7921 21.9998 12.0001 21.9998C12.2081 21.9998 12.4108 21.9349 12.5801 21.814C12.8841 21.599 20.0291 16.44 20.0001 10C20.0001 5.589 16.4111 2 12.0001 2C7.58909 2 4.00009 5.589 4.00009 9.995C3.97109 16.44 11.1161 21.599 11.4201 21.814ZM12.0001 4C15.3091 4 18.0001 6.691 18.0001 10.005C18.0211 14.443 13.6121 18.428 12.0001 19.735C10.3891 18.427 5.97909 14.441 6.00009 10C6.00009 6.691 8.69109 4 12.0001 4Z" fill="#DF1A5A"/>
<path d="M11.4201 21.814C11.5893 21.9349 11.7921 21.9998 12.0001 21.9998C12.2081 21.9998 12.4108 21.9349 12.5801 21.814C12.8841 21.599 20.0291 16.44 20.0001 10C20.0001 5.589 16.4111 2 12.0001 2C7.58909 2 4.00009 5.589 4.00009 9.995C3.97109 16.44 11.1161 21.599 11.4201 21.814ZM12.0001 4C15.3091 4 18.0001 6.691 18.0001 10.005C18.0211 14.443 13.6121 18.428 12.0001 19.735C10.3891 18.427 5.97909 14.441 6.00009 10C6.00009 6.691 8.69109 4 12.0001 4Z" fill="url(#paint1_linear_1439_9892)"/>
</g>
</g>
<defs>
<linearGradient id="paint0_linear_1439_9892" x1="8" y1="10.1481" x2="16" y2="10.1481" gradientUnits="userSpaceOnUse">
<stop stop-color="#B68013"/>
<stop offset="0.531472" stop-color="#FDEF9F"/>
<stop offset="1" stop-color="#B68014"/>
</linearGradient>
<linearGradient id="paint1_linear_1439_9892" x1="4" y1="12.3703" x2="20.0002" y2="12.3703" gradientUnits="userSpaceOnUse">
<stop stop-color="#B68013"/>
<stop offset="0.531472" stop-color="#FDEF9F"/>
<stop offset="1" stop-color="#B68014"/>
</linearGradient>
</defs>
</svg>
