<svg width="24" height="24" viewBox="0 0 19 19" fill="none" xmlns="http://www.w3.org/2000/svg">
<path d="M17.7741 13.0282L13.3453 11.0435C13.1447 10.9575 12.9257 10.9229 12.7083 10.9429C12.4909 10.9629 12.282 11.0368 12.1003 11.1579C12.0819 11.1697 12.0643 11.1829 12.0478 11.1972L9.73314 13.166C9.70912 13.1791 9.68239 13.1864 9.65505 13.1874C9.62771 13.1884 9.60052 13.183 9.57564 13.1716C8.08782 12.4535 6.54657 10.9216 5.82564 9.45443C5.81363 9.42991 5.80739 9.40298 5.80739 9.37568C5.80739 9.34838 5.81363 9.32144 5.82564 9.29693L7.80095 6.95318C7.81512 6.93584 7.82827 6.91768 7.84032 6.8988C7.95975 6.71646 8.03189 6.50725 8.05022 6.29006C8.06855 6.07286 8.0325 5.85452 7.94532 5.65474L5.9747 1.23349C5.86279 0.9725 5.66925 0.754844 5.42313 0.61319C5.17701 0.471536 4.89159 0.413526 4.6097 0.447866C3.3846 0.608925 2.26006 1.21056 1.44622 2.14034C0.632384 3.07011 0.184943 4.26441 0.187511 5.50005C0.187511 12.8407 6.15939 18.8126 13.5 18.8126C14.7356 18.8149 15.9298 18.3674 16.8595 17.5536C17.7893 16.7398 18.3909 15.6154 18.5522 14.3904C18.5865 14.1098 18.5292 13.8257 18.389 13.5802C18.2488 13.3348 18.0332 13.1412 17.7741 13.0282ZM13.5 17.6876C6.78001 17.6876 1.31251 12.2201 1.31251 5.50005C1.30938 4.53811 1.65658 3.60793 2.28924 2.88331C2.9219 2.15869 3.79675 1.6892 4.75032 1.56255H4.77189C4.80967 1.56326 4.84635 1.57536 4.87713 1.59728C4.90791 1.61919 4.93136 1.6499 4.94439 1.68537L6.92251 6.10193C6.93379 6.12648 6.93963 6.15319 6.93963 6.18021C6.93963 6.20723 6.93379 6.23394 6.92251 6.25849L4.94345 8.60787C4.92868 8.62464 4.91521 8.6425 4.90314 8.6613C4.7793 8.85036 4.70637 9.06818 4.69143 9.29369C4.67648 9.5192 4.72002 9.74475 4.81782 9.94849C5.64939 11.651 7.36501 13.3535 9.08626 14.1851C9.2912 14.2823 9.51784 14.3248 9.74409 14.3084C9.97034 14.2919 10.1885 14.2172 10.3772 14.0913C10.395 14.0791 10.4128 14.066 10.4297 14.0519L12.7434 12.0832C12.7663 12.0709 12.7915 12.0637 12.8174 12.0621C12.8433 12.0605 12.8692 12.0645 12.8934 12.0738L17.3231 14.0585C17.3593 14.0739 17.3897 14.1003 17.4101 14.1339C17.4305 14.1676 17.4397 14.2068 17.4366 14.246C17.3106 15.2 16.8415 16.0755 16.1171 16.7089C15.3926 17.3422 14.4623 17.6901 13.5 17.6876Z" fill="#D9D9D9"/>
<path d="M17.7741 13.0282L13.3453 11.0435C13.1447 10.9575 12.9257 10.9229 12.7083 10.9429C12.4909 10.9629 12.282 11.0368 12.1003 11.1579C12.0819 11.1697 12.0643 11.1829 12.0478 11.1972L9.73314 13.166C9.70912 13.1791 9.68239 13.1864 9.65505 13.1874C9.62771 13.1884 9.60052 13.183 9.57564 13.1716C8.08782 12.4535 6.54657 10.9216 5.82564 9.45443C5.81363 9.42991 5.80739 9.40298 5.80739 9.37568C5.80739 9.34838 5.81363 9.32144 5.82564 9.29693L7.80095 6.95318C7.81512 6.93584 7.82827 6.91768 7.84032 6.8988C7.95975 6.71646 8.03189 6.50725 8.05022 6.29006C8.06855 6.07286 8.0325 5.85452 7.94532 5.65474L5.9747 1.23349C5.86279 0.9725 5.66925 0.754844 5.42313 0.61319C5.17701 0.471536 4.89159 0.413526 4.6097 0.447866C3.3846 0.608925 2.26006 1.21056 1.44622 2.14034C0.632384 3.07011 0.184943 4.26441 0.187511 5.50005C0.187511 12.8407 6.15939 18.8126 13.5 18.8126C14.7356 18.8149 15.9298 18.3674 16.8595 17.5536C17.7893 16.7398 18.3909 15.6154 18.5522 14.3904C18.5865 14.1098 18.5292 13.8257 18.389 13.5802C18.2488 13.3348 18.0332 13.1412 17.7741 13.0282ZM13.5 17.6876C6.78001 17.6876 1.31251 12.2201 1.31251 5.50005C1.30938 4.53811 1.65658 3.60793 2.28924 2.88331C2.9219 2.15869 3.79675 1.6892 4.75032 1.56255H4.77189C4.80967 1.56326 4.84635 1.57536 4.87713 1.59728C4.90791 1.61919 4.93136 1.6499 4.94439 1.68537L6.92251 6.10193C6.93379 6.12648 6.93963 6.15319 6.93963 6.18021C6.93963 6.20723 6.93379 6.23394 6.92251 6.25849L4.94345 8.60787C4.92868 8.62464 4.91521 8.6425 4.90314 8.6613C4.7793 8.85036 4.70637 9.06818 4.69143 9.29369C4.67648 9.5192 4.72002 9.74475 4.81782 9.94849C5.64939 11.651 7.36501 13.3535 9.08626 14.1851C9.2912 14.2823 9.51784 14.3248 9.74409 14.3084C9.97034 14.2919 10.1885 14.2172 10.3772 14.0913C10.395 14.0791 10.4128 14.066 10.4297 14.0519L12.7434 12.0832C12.7663 12.0709 12.7915 12.0637 12.8174 12.0621C12.8433 12.0605 12.8692 12.0645 12.8934 12.0738L17.3231 14.0585C17.3593 14.0739 17.3897 14.1003 17.4101 14.1339C17.4305 14.1676 17.4397 14.2068 17.4366 14.246C17.3106 15.2 16.8415 16.0755 16.1171 16.7089C15.3926 17.3422 14.4623 17.6901 13.5 17.6876Z" fill="url(#paint0_linear_2586_374)"/>
<defs>
<linearGradient id="paint0_linear_2586_374" x1="0.1875" y1="9.96566" x2="18.5619" y2="9.96566" gradientUnits="userSpaceOnUse">
<stop stop-color="#B68013"/>
<stop offset="0.531472" stop-color="#FDEF9F"/>
<stop offset="1" stop-color="#B68014"/>
</linearGradient>
</defs>
</svg>
