<svg width="32" height="60" viewBox="0 0 39 39" fill="none" xmlns="http://www.w3.org/2000/svg">
<g filter="url(#filter0_i_2757_335)">
<rect x="2" y="2" width="35" height="35" rx="17.5" fill="#2D2D2D"/>
</g>
<rect x="1" y="1" width="37" height="37" rx="18.5" stroke="#D9D9D9" stroke-width="2"/>
<rect x="1" y="1" width="37" height="37" rx="18.5" stroke="url(#paint0_linear_2757_335)" stroke-width="2"/>
<path d="M28.71 15.0401C29.1 14.6501 29.1 14.0001 28.71 13.6301L26.37 11.2901C26 10.9001 25.35 10.9001 24.96 11.2901L23.12 13.1201L26.87 16.8701M11 25.2501V29.0001H14.75L25.81 17.9301L22.06 14.1801L11 25.2501Z" fill="#D9D9D9"/>
<path d="M28.71 15.0401C29.1 14.6501 29.1 14.0001 28.71 13.6301L26.37 11.2901C26 10.9001 25.35 10.9001 24.96 11.2901L23.12 13.1201L26.87 16.8701M11 25.2501V29.0001H14.75L25.81 17.9301L22.06 14.1801L11 25.2501Z" fill="url(#paint1_linear_2757_335)"/>
<defs>
<filter id="filter0_i_2757_335" x="0" y="-4" width="39" height="43" filterUnits="userSpaceOnUse" color-interpolation-filters="sRGB">
<feFlood flood-opacity="0" result="BackgroundImageFix"/>
<feBlend mode="normal" in="SourceGraphic" in2="BackgroundImageFix" result="shape"/>
<feColorMatrix in="SourceAlpha" type="matrix" values="0 0 0 0 0 0 0 0 0 0 0 0 0 0 0 0 0 0 127 0" result="hardAlpha"/>
<feOffset dy="-15"/>
<feGaussianBlur stdDeviation="2"/>
<feComposite in2="hardAlpha" operator="arithmetic" k2="-1" k3="1"/>
<feColorMatrix type="matrix" values="0 0 0 0 0 0 0 0 0 0 0 0 0 0 0 0 0 0 1 0"/>
<feBlend mode="normal" in2="shape" result="effect1_innerShadow_2757_335"/>
</filter>
<linearGradient id="paint0_linear_2757_335" x1="2" y1="20.1482" x2="37" y2="20.1482" gradientUnits="userSpaceOnUse">
<stop stop-color="#B68013"/>
<stop offset="0.531472" stop-color="#FDEF9F"/>
<stop offset="1" stop-color="#B68014"/>
</linearGradient>
<linearGradient id="paint1_linear_2757_335" x1="11" y1="20.3322" x2="29.0025" y2="20.3322" gradientUnits="userSpaceOnUse">
<stop stop-color="#B68013"/>
<stop offset="0.531472" stop-color="#FDEF9F"/>
<stop offset="1" stop-color="#B68014"/>
</linearGradient>
</defs>
</svg>
