<svg width="221" height="64" viewBox="0 0 221 64" fill="none" xmlns="http://www.w3.org/2000/svg">
<g filter="url(#filter0_d_5153_4538)">
<mask id="path-1-outside-1_5153_4538" maskUnits="userSpaceOnUse" x="2" y="-2" width="216" height="60" fill="black">
<rect fill="white" x="2" y="-2" width="216" height="60"/>
<path d="M4.06934 18.2324C4.06934 16.0596 4.48438 14.021 5.31445 12.1167C6.14453 10.2124 7.26758 8.55225 8.68359 7.13623C10.124 5.6958 11.7964 4.56055 13.7007 3.73047C15.605 2.90039 17.6436 2.48535 19.8164 2.48535H43.9131V12.9956H19.8164C19.084 12.9956 18.4004 13.1299 17.7656 13.3984C17.1309 13.667 16.5693 14.0454 16.0811 14.5337C15.6172 14.9976 15.251 15.5469 14.9824 16.1816C14.7139 16.8164 14.5796 17.5 14.5796 18.2324C14.5796 18.9648 14.7139 19.6606 14.9824 20.3198C15.251 20.9546 15.6172 21.5161 16.0811 22.0044C16.5693 22.4683 17.1309 22.8345 17.7656 23.103C18.4004 23.3716 19.084 23.5059 19.8164 23.5059H30.3267C32.4995 23.5059 34.5381 23.9209 36.4424 24.751C38.3711 25.5566 40.0435 26.6797 41.4595 28.1201C42.8999 29.5361 44.0229 31.2085 44.8286 33.1372C45.6587 35.0415 46.0737 37.0801 46.0737 39.2529C46.0737 41.4258 45.6587 43.4644 44.8286 45.3687C44.0229 47.2729 42.8999 48.9453 41.4595 50.3857C40.0435 51.8018 38.3711 52.9248 36.4424 53.7549C34.5381 54.585 32.4995 55 30.3267 55H6.99902V44.4897H30.3267C31.0591 44.4897 31.7427 44.3555 32.3774 44.0869C33.0122 43.8184 33.5615 43.4521 34.0254 42.9883C34.5137 42.5 34.8921 41.9385 35.1606 41.3037C35.4292 40.6689 35.5635 39.9854 35.5635 39.2529C35.5635 38.5205 35.4292 37.8369 35.1606 37.2021C34.8921 36.5674 34.5137 36.0181 34.0254 35.5542C33.5615 35.0659 33.0122 34.6875 32.3774 34.4189C31.7427 34.1504 31.0591 34.0161 30.3267 34.0161H19.8164C17.6436 34.0161 15.605 33.6011 13.7007 32.771C11.7964 31.9409 10.124 30.8179 8.68359 29.4019C7.26758 27.9614 6.14453 26.2891 5.31445 24.3848C4.48438 22.4561 4.06934 20.4053 4.06934 18.2324ZM63.4307 55H53.4331V0.178223H63.4307V17.5C64.627 16.5967 65.8599 15.9619 67.1294 15.5957C68.3989 15.2051 69.6929 15.0098 71.0112 15.0098C73.4282 15.0098 75.6987 15.4736 77.8228 16.4014C79.9468 17.3047 81.79 18.562 83.3525 20.1733C84.9395 21.7603 86.1846 23.6279 87.0879 25.7764C88.0156 27.9004 88.4795 30.1709 88.4795 32.5879V55H78.4087V32.5879H78.4819C78.4819 31.5625 78.2866 30.5981 77.896 29.6948C77.5054 28.7671 76.9683 27.9614 76.2847 27.2778C75.6011 26.5942 74.8076 26.0571 73.9043 25.6665C73.001 25.2759 72.0366 25.0806 71.0112 25.0806C69.9614 25.0806 68.9727 25.2759 68.0449 25.6665C67.1172 26.0571 66.3115 26.5942 65.6279 27.2778C64.9443 27.9614 64.4072 28.7671 64.0166 29.6948C63.626 30.5981 63.4307 31.5625 63.4307 32.5879V55ZM125.648 50.4224C124.843 51.1548 123.976 51.8506 123.048 52.5098C122.145 53.1445 121.193 53.7061 120.192 54.1943C119.191 54.6582 118.153 55.0244 117.079 55.293C116.029 55.5859 114.955 55.7324 113.856 55.7324C111.439 55.7324 109.169 55.3052 107.045 54.4507C104.921 53.5962 103.053 52.3877 101.442 50.8252C99.855 49.2383 98.5977 47.3218 97.6699 45.0757C96.7666 42.8052 96.3149 40.2661 96.3149 37.4585V15.7788H106.276V37.4585C106.276 38.7769 106.471 39.9609 106.862 41.0107C107.277 42.0361 107.826 42.9028 108.51 43.6108C109.193 44.3188 109.987 44.856 110.89 45.2222C111.818 45.5884 112.807 45.7715 113.856 45.7715C114.882 45.7715 115.846 45.5396 116.75 45.0757C117.677 44.5874 118.483 43.9526 119.167 43.1714C119.85 42.3901 120.387 41.5112 120.778 40.5347C121.168 39.5337 121.364 38.5083 121.364 37.4585V15.7788H131.361V55H128.944L125.648 50.4224ZM162.048 55H139.197V45.0391H162.048C162.732 45.0391 163.318 44.7949 163.806 44.3066C164.294 43.8184 164.539 43.2324 164.539 42.5488C164.539 41.8408 164.294 41.377 163.806 41.1572C163.318 40.9375 162.732 40.8276 162.048 40.8276H151.648C149.915 40.8276 148.291 40.498 146.777 39.8389C145.264 39.1797 143.945 38.2886 142.822 37.1655C141.699 36.0181 140.808 34.6875 140.149 33.1738C139.514 31.6602 139.197 30.0366 139.197 28.3032C139.197 26.5698 139.514 24.9463 140.149 23.4326C140.808 21.9189 141.699 20.6006 142.822 19.4775C143.945 18.3545 145.264 17.4756 146.777 16.8408C148.291 16.1816 149.915 15.8521 151.648 15.8521H171.899V25.813H151.648C150.964 25.813 150.378 26.0571 149.89 26.5454C149.402 27.0337 149.158 27.6196 149.158 28.3032C149.158 29.0112 149.402 29.6216 149.89 30.1343C150.378 30.6226 150.964 30.8667 151.648 30.8667H162.048C163.757 30.8667 165.369 31.1597 166.882 31.7456C168.396 32.3071 169.714 33.1006 170.837 34.126C171.96 35.1514 172.852 36.3843 173.511 37.8247C174.17 39.2651 174.5 40.8398 174.5 42.5488C174.5 44.2822 174.17 45.9058 173.511 47.4194C172.852 48.9087 171.96 50.2271 170.837 51.3745C169.714 52.4976 168.396 53.3887 166.882 54.0479C165.369 54.6826 163.757 55 162.048 55ZM191.344 55H181.346V0.178223H191.344V17.5C192.54 16.5967 193.773 15.9619 195.042 15.5957C196.312 15.2051 197.606 15.0098 198.924 15.0098C201.341 15.0098 203.612 15.4736 205.736 16.4014C207.86 17.3047 209.703 18.562 211.266 20.1733C212.853 21.7603 214.098 23.6279 215.001 25.7764C215.929 27.9004 216.393 30.1709 216.393 32.5879V55H206.322V32.5879H206.395C206.395 31.5625 206.2 30.5981 205.809 29.6948C205.418 28.7671 204.881 27.9614 204.198 27.2778C203.514 26.5942 202.721 26.0571 201.817 25.6665C200.914 25.2759 199.95 25.0806 198.924 25.0806C197.875 25.0806 196.886 25.2759 195.958 25.6665C195.03 26.0571 194.225 26.5942 193.541 27.2778C192.857 27.9614 192.32 28.7671 191.93 29.6948C191.539 30.5981 191.344 31.5625 191.344 32.5879V55Z"/>
</mask>
<path d="M4.06934 18.2324C4.06934 16.0596 4.48438 14.021 5.31445 12.1167C6.14453 10.2124 7.26758 8.55225 8.68359 7.13623C10.124 5.6958 11.7964 4.56055 13.7007 3.73047C15.605 2.90039 17.6436 2.48535 19.8164 2.48535H43.9131V12.9956H19.8164C19.084 12.9956 18.4004 13.1299 17.7656 13.3984C17.1309 13.667 16.5693 14.0454 16.0811 14.5337C15.6172 14.9976 15.251 15.5469 14.9824 16.1816C14.7139 16.8164 14.5796 17.5 14.5796 18.2324C14.5796 18.9648 14.7139 19.6606 14.9824 20.3198C15.251 20.9546 15.6172 21.5161 16.0811 22.0044C16.5693 22.4683 17.1309 22.8345 17.7656 23.103C18.4004 23.3716 19.084 23.5059 19.8164 23.5059H30.3267C32.4995 23.5059 34.5381 23.9209 36.4424 24.751C38.3711 25.5566 40.0435 26.6797 41.4595 28.1201C42.8999 29.5361 44.0229 31.2085 44.8286 33.1372C45.6587 35.0415 46.0737 37.0801 46.0737 39.2529C46.0737 41.4258 45.6587 43.4644 44.8286 45.3687C44.0229 47.2729 42.8999 48.9453 41.4595 50.3857C40.0435 51.8018 38.3711 52.9248 36.4424 53.7549C34.5381 54.585 32.4995 55 30.3267 55H6.99902V44.4897H30.3267C31.0591 44.4897 31.7427 44.3555 32.3774 44.0869C33.0122 43.8184 33.5615 43.4521 34.0254 42.9883C34.5137 42.5 34.8921 41.9385 35.1606 41.3037C35.4292 40.6689 35.5635 39.9854 35.5635 39.2529C35.5635 38.5205 35.4292 37.8369 35.1606 37.2021C34.8921 36.5674 34.5137 36.0181 34.0254 35.5542C33.5615 35.0659 33.0122 34.6875 32.3774 34.4189C31.7427 34.1504 31.0591 34.0161 30.3267 34.0161H19.8164C17.6436 34.0161 15.605 33.6011 13.7007 32.771C11.7964 31.9409 10.124 30.8179 8.68359 29.4019C7.26758 27.9614 6.14453 26.2891 5.31445 24.3848C4.48438 22.4561 4.06934 20.4053 4.06934 18.2324ZM63.4307 55H53.4331V0.178223H63.4307V17.5C64.627 16.5967 65.8599 15.9619 67.1294 15.5957C68.3989 15.2051 69.6929 15.0098 71.0112 15.0098C73.4282 15.0098 75.6987 15.4736 77.8228 16.4014C79.9468 17.3047 81.79 18.562 83.3525 20.1733C84.9395 21.7603 86.1846 23.6279 87.0879 25.7764C88.0156 27.9004 88.4795 30.1709 88.4795 32.5879V55H78.4087V32.5879H78.4819C78.4819 31.5625 78.2866 30.5981 77.896 29.6948C77.5054 28.7671 76.9683 27.9614 76.2847 27.2778C75.6011 26.5942 74.8076 26.0571 73.9043 25.6665C73.001 25.2759 72.0366 25.0806 71.0112 25.0806C69.9614 25.0806 68.9727 25.2759 68.0449 25.6665C67.1172 26.0571 66.3115 26.5942 65.6279 27.2778C64.9443 27.9614 64.4072 28.7671 64.0166 29.6948C63.626 30.5981 63.4307 31.5625 63.4307 32.5879V55ZM125.648 50.4224C124.843 51.1548 123.976 51.8506 123.048 52.5098C122.145 53.1445 121.193 53.7061 120.192 54.1943C119.191 54.6582 118.153 55.0244 117.079 55.293C116.029 55.5859 114.955 55.7324 113.856 55.7324C111.439 55.7324 109.169 55.3052 107.045 54.4507C104.921 53.5962 103.053 52.3877 101.442 50.8252C99.855 49.2383 98.5977 47.3218 97.6699 45.0757C96.7666 42.8052 96.3149 40.2661 96.3149 37.4585V15.7788H106.276V37.4585C106.276 38.7769 106.471 39.9609 106.862 41.0107C107.277 42.0361 107.826 42.9028 108.51 43.6108C109.193 44.3188 109.987 44.856 110.89 45.2222C111.818 45.5884 112.807 45.7715 113.856 45.7715C114.882 45.7715 115.846 45.5396 116.75 45.0757C117.677 44.5874 118.483 43.9526 119.167 43.1714C119.85 42.3901 120.387 41.5112 120.778 40.5347C121.168 39.5337 121.364 38.5083 121.364 37.4585V15.7788H131.361V55H128.944L125.648 50.4224ZM162.048 55H139.197V45.0391H162.048C162.732 45.0391 163.318 44.7949 163.806 44.3066C164.294 43.8184 164.539 43.2324 164.539 42.5488C164.539 41.8408 164.294 41.377 163.806 41.1572C163.318 40.9375 162.732 40.8276 162.048 40.8276H151.648C149.915 40.8276 148.291 40.498 146.777 39.8389C145.264 39.1797 143.945 38.2886 142.822 37.1655C141.699 36.0181 140.808 34.6875 140.149 33.1738C139.514 31.6602 139.197 30.0366 139.197 28.3032C139.197 26.5698 139.514 24.9463 140.149 23.4326C140.808 21.9189 141.699 20.6006 142.822 19.4775C143.945 18.3545 145.264 17.4756 146.777 16.8408C148.291 16.1816 149.915 15.8521 151.648 15.8521H171.899V25.813H151.648C150.964 25.813 150.378 26.0571 149.89 26.5454C149.402 27.0337 149.158 27.6196 149.158 28.3032C149.158 29.0112 149.402 29.6216 149.89 30.1343C150.378 30.6226 150.964 30.8667 151.648 30.8667H162.048C163.757 30.8667 165.369 31.1597 166.882 31.7456C168.396 32.3071 169.714 33.1006 170.837 34.126C171.96 35.1514 172.852 36.3843 173.511 37.8247C174.17 39.2651 174.5 40.8398 174.5 42.5488C174.5 44.2822 174.17 45.9058 173.511 47.4194C172.852 48.9087 171.96 50.2271 170.837 51.3745C169.714 52.4976 168.396 53.3887 166.882 54.0479C165.369 54.6826 163.757 55 162.048 55ZM191.344 55H181.346V0.178223H191.344V17.5C192.54 16.5967 193.773 15.9619 195.042 15.5957C196.312 15.2051 197.606 15.0098 198.924 15.0098C201.341 15.0098 203.612 15.4736 205.736 16.4014C207.86 17.3047 209.703 18.562 211.266 20.1733C212.853 21.7603 214.098 23.6279 215.001 25.7764C215.929 27.9004 216.393 30.1709 216.393 32.5879V55H206.322V32.5879H206.395C206.395 31.5625 206.2 30.5981 205.809 29.6948C205.418 28.7671 204.881 27.9614 204.198 27.2778C203.514 26.5942 202.721 26.0571 201.817 25.6665C200.914 25.2759 199.95 25.0806 198.924 25.0806C197.875 25.0806 196.886 25.2759 195.958 25.6665C195.03 26.0571 194.225 26.5942 193.541 27.2778C192.857 27.9614 192.32 28.7671 191.93 29.6948C191.539 30.5981 191.344 31.5625 191.344 32.5879V55Z" fill="#120D26"/>
<path d="M43.9131 2.48535H45.4131V0.985352H43.9131V2.48535ZM43.9131 12.9956V14.4956H45.4131V12.9956H43.9131ZM14.9824 20.3198L13.5933 20.8858L13.5971 20.8951L13.601 20.9043L14.9824 20.3198ZM16.0811 22.0044L14.9936 23.0375L15.02 23.0654L15.0479 23.0919L16.0811 22.0044ZM36.4424 24.751L35.843 26.126L35.8536 26.1306L35.8642 26.1351L36.4424 24.751ZM41.4595 28.1201L40.3898 29.1717L40.3988 29.1808L40.4079 29.1898L41.4595 28.1201ZM44.8286 33.1372L43.4445 33.7154L43.449 33.726L43.4536 33.7366L44.8286 33.1372ZM44.8286 45.3687L43.4536 44.7693L43.4503 44.7767L43.4472 44.7842L44.8286 45.3687ZM36.4424 53.7549L35.8494 52.3771L35.843 52.3798L36.4424 53.7549ZM6.99902 55H5.49902V56.5H6.99902V55ZM6.99902 44.4897V42.9897H5.49902V44.4897H6.99902ZM34.0254 35.5542L32.9379 36.5873L32.9644 36.6152L32.9923 36.6417L34.0254 35.5542ZM8.68359 29.4019L7.61391 30.4534L7.62289 30.4626L7.63204 30.4715L8.68359 29.4019ZM5.31445 24.3848L3.93662 24.9778L3.93941 24.9841L5.31445 24.3848ZM5.56934 18.2324C5.56934 16.2562 5.94562 14.4226 6.6895 12.7161L3.93941 11.5173C3.02313 13.6194 2.56934 15.863 2.56934 18.2324H5.56934ZM6.6895 12.7161C7.44742 10.9773 8.46592 9.47522 9.74425 8.19689L7.62293 6.07557C6.06923 7.62927 4.84165 9.44748 3.93941 11.5173L6.6895 12.7161ZM9.74425 8.19689C11.0493 6.89185 12.5644 5.8621 14.3001 5.10551L13.1013 2.35542C11.0284 3.259 9.19875 4.49975 7.62293 6.07557L9.74425 8.19689ZM14.3001 5.10551C16.0066 4.36163 17.8401 3.98535 19.8164 3.98535V0.985352C17.447 0.985352 15.2034 1.43915 13.1013 2.35542L14.3001 5.10551ZM19.8164 3.98535H43.9131V0.985352H19.8164V3.98535ZM42.4131 2.48535V12.9956H45.4131V2.48535H42.4131ZM43.9131 11.4956H19.8164V14.4956H43.9131V11.4956ZM19.8164 11.4956C18.896 11.4956 18.0123 11.6654 17.1812 12.017L18.3501 14.7799C18.7885 14.5944 19.272 14.4956 19.8164 14.4956V11.4956ZM17.1812 12.017C16.3681 12.361 15.645 12.8484 15.0204 13.473L17.1417 15.5944C17.4937 15.2424 17.8936 14.973 18.3501 14.7799L17.1812 12.017ZM15.0204 13.473C14.4131 14.0803 13.9409 14.7937 13.601 15.5972L16.3639 16.7661C16.561 16.3001 16.8213 15.9148 17.1417 15.5944L15.0204 13.473ZM13.601 15.5972C13.2494 16.4283 13.0796 17.312 13.0796 18.2324H16.0796C16.0796 17.688 16.1784 17.2045 16.3639 16.7661L13.601 15.5972ZM13.0796 18.2324C13.0796 19.1531 13.2494 20.0416 13.5933 20.8858L16.3716 19.7539C16.1784 19.2796 16.0796 18.7765 16.0796 18.2324H13.0796ZM13.601 20.9043C13.9381 21.7011 14.4026 22.4155 14.9936 23.0375L17.1686 20.9713C16.8318 20.6167 16.5639 20.2081 16.3639 19.7354L13.601 20.9043ZM15.0479 23.0919C15.67 23.6828 16.3844 24.1474 17.1812 24.4845L18.3501 21.7216C17.8774 21.5216 17.4687 21.2537 17.1142 20.9169L15.0479 23.0919ZM17.1812 24.4845C18.0123 24.8361 18.896 25.0059 19.8164 25.0059V22.0059C19.272 22.0059 18.7885 21.9071 18.3501 21.7216L17.1812 24.4845ZM19.8164 25.0059H30.3267V22.0059H19.8164V25.0059ZM30.3267 25.0059C32.3029 25.0059 34.1365 25.3821 35.843 26.126L37.0418 23.3759C34.9397 22.4597 32.6961 22.0059 30.3267 22.0059V25.0059ZM35.8642 26.1351C37.6151 26.8665 39.1187 27.8787 40.3898 29.1717L42.5292 27.0686C40.9682 25.4807 39.1271 24.2468 37.0205 23.3669L35.8642 26.1351ZM40.4079 29.1898C41.7009 30.4609 42.7131 31.9645 43.4445 33.7154L46.2127 32.559C45.3328 30.4525 44.0989 28.6114 42.511 27.0504L40.4079 29.1898ZM43.4536 33.7366C44.1974 35.4431 44.5737 37.2767 44.5737 39.2529H47.5737C47.5737 36.8835 47.1199 34.6399 46.2037 32.5378L43.4536 33.7366ZM44.5737 39.2529C44.5737 41.2292 44.1974 43.0627 43.4536 44.7693L46.2037 45.968C47.1199 43.866 47.5737 41.6224 47.5737 39.2529H44.5737ZM43.4472 44.7842C42.7156 46.5133 41.7006 48.0233 40.3988 49.3251L42.5201 51.4464C44.0992 49.8673 45.3303 48.0326 46.2101 45.9531L43.4472 44.7842ZM40.3988 49.3251C39.1237 50.6002 37.6121 51.6184 35.8494 52.3771L37.0354 55.1327C39.1301 54.2312 40.9633 53.0033 42.5201 51.4464L40.3988 49.3251ZM35.843 52.3798C34.1365 53.1237 32.3029 53.5 30.3267 53.5V56.5C32.6961 56.5 34.9397 56.0462 37.0418 55.1299L35.843 52.3798ZM30.3267 53.5H6.99902V56.5H30.3267V53.5ZM8.49902 55V44.4897H5.49902V55H8.49902ZM6.99902 45.9897H30.3267V42.9897H6.99902V45.9897ZM30.3267 45.9897C31.2471 45.9897 32.1308 45.82 32.9619 45.4684L31.793 42.7055C31.3545 42.891 30.8711 42.9897 30.3267 42.9897V45.9897ZM32.9619 45.4684C33.7654 45.1284 34.4787 44.6563 35.0861 44.0489L32.9647 41.9276C32.6443 42.248 32.259 42.5083 31.793 42.7055L32.9619 45.4684ZM35.0861 44.0489C35.7107 43.4243 36.1981 42.7012 36.5421 41.8882L33.7792 40.7192C33.5861 41.1758 33.3167 41.5757 32.9647 41.9276L35.0861 44.0489ZM36.5421 41.8882C36.8937 41.0571 37.0635 40.1734 37.0635 39.2529H34.0635C34.0635 39.7973 33.9647 40.2808 33.7792 40.7192L36.5421 41.8882ZM37.0635 39.2529C37.0635 38.3325 36.8937 37.4488 36.5421 36.6177L33.7792 37.7866C33.9647 38.225 34.0635 38.7085 34.0635 39.2529H37.0635ZM36.5421 36.6177C36.1952 35.7976 35.6998 35.0759 35.0585 34.4667L32.9923 36.6417C33.3276 36.9602 33.589 37.3371 33.7792 37.7866L36.5421 36.6177ZM35.1129 34.5211C34.5037 33.8798 33.7819 33.3844 32.9619 33.0375L31.793 35.8004C32.2425 35.9906 32.6194 36.252 32.9379 36.5873L35.1129 34.5211ZM32.9619 33.0375C32.1308 32.6859 31.2471 32.5161 30.3267 32.5161V35.5161C30.8711 35.5161 31.3545 35.6149 31.793 35.8004L32.9619 33.0375ZM30.3267 32.5161H19.8164V35.5161H30.3267V32.5161ZM19.8164 32.5161C17.8401 32.5161 16.0066 32.1398 14.3001 31.396L13.1013 34.146C15.2034 35.0623 17.447 35.5161 19.8164 35.5161V32.5161ZM14.3001 31.396C12.559 30.637 11.0411 29.6159 9.73515 28.3322L7.63204 30.4715C9.20699 32.0198 11.0338 33.2448 13.1013 34.146L14.3001 31.396ZM9.75328 28.3503C8.46951 27.0444 7.44841 25.5264 6.6895 23.7854L3.93941 24.9841C4.84065 27.0517 6.06565 28.8785 7.61391 30.4534L9.75328 28.3503ZM6.69227 23.7918C5.94562 22.0569 5.56934 20.2086 5.56934 18.2324H2.56934C2.56934 20.6019 3.02313 22.8552 3.93664 24.9777L6.69227 23.7918ZM63.4307 55V56.5H64.9307V55H63.4307ZM53.4331 55H51.9331V56.5H53.4331V55ZM53.4331 0.178223V-1.32178H51.9331V0.178223H53.4331ZM63.4307 0.178223H64.9307V-1.32178H63.4307V0.178223ZM63.4307 17.5H61.9307V20.5123L64.3346 18.6971L63.4307 17.5ZM67.1294 15.5957L67.5451 17.0369L67.5579 17.0333L67.5705 17.0294L67.1294 15.5957ZM77.8228 16.4014L77.2224 17.776L77.229 17.7789L77.2357 17.7817L77.8228 16.4014ZM83.3525 20.1733L82.2757 21.2176L82.2837 21.2258L82.2919 21.234L83.3525 20.1733ZM87.0879 25.7764L85.7051 26.3577L85.7092 26.3673L85.7133 26.3768L87.0879 25.7764ZM88.4795 55V56.5H89.9795V55H88.4795ZM78.4087 55H76.9087V56.5H78.4087V55ZM78.4087 32.5879V31.0879H76.9087V32.5879H78.4087ZM78.4819 32.5879V34.0879H79.9819V32.5879H78.4819ZM77.896 29.6948L76.5135 30.2769L76.5163 30.2836L76.5192 30.2902L77.896 29.6948ZM64.0166 29.6948L65.3934 30.2902L65.3963 30.2836L65.3991 30.2769L64.0166 29.6948ZM63.4307 53.5H53.4331V56.5H63.4307V53.5ZM54.9331 55V0.178223H51.9331V55H54.9331ZM53.4331 1.67822H63.4307V-1.32178H53.4331V1.67822ZM61.9307 0.178223V17.5H64.9307V0.178223H61.9307ZM64.3346 18.6971C65.404 17.8896 66.474 17.3459 67.5451 17.0369L66.7137 14.1545C65.2458 14.5779 63.8499 15.3038 62.5268 16.3029L64.3346 18.6971ZM67.5705 17.0294C68.6982 16.6824 69.8435 16.5098 71.0112 16.5098V13.5098C69.5422 13.5098 68.0996 13.7278 66.6883 14.162L67.5705 17.0294ZM71.0112 16.5098C73.2306 16.5098 75.2958 16.9345 77.2224 17.776L78.4232 15.0268C76.1017 14.0128 73.6258 13.5098 71.0112 13.5098V16.5098ZM77.2357 17.7817C79.181 18.609 80.8564 19.7539 82.2757 21.2176L84.4294 19.1291C82.7237 17.3701 80.7125 16.0003 78.4098 15.021L77.2357 17.7817ZM82.2919 21.234C83.7361 22.6782 84.8742 24.3814 85.7051 26.3577L88.4706 25.195C87.495 22.8745 86.1428 20.8423 84.4132 19.1127L82.2919 21.234ZM85.7133 26.3768C86.5548 28.3033 86.9795 30.3685 86.9795 32.5879H89.9795C89.9795 29.9733 89.4765 27.4975 88.4625 25.176L85.7133 26.3768ZM86.9795 32.5879V55H89.9795V32.5879H86.9795ZM88.4795 53.5H78.4087V56.5H88.4795V53.5ZM79.9087 55V32.5879H76.9087V55H79.9087ZM78.4087 34.0879H78.4819V31.0879H78.4087V34.0879ZM79.9819 32.5879C79.9819 31.3665 79.7481 30.1986 79.2728 29.0995L76.5192 30.2902C76.8251 30.9977 76.9819 31.7585 76.9819 32.5879H79.9819ZM79.2785 29.1127C78.8157 28.0137 78.1718 27.0436 77.3453 26.2172L75.224 28.3385C75.7647 28.8792 76.1951 29.5205 76.5135 30.2769L79.2785 29.1127ZM77.3453 26.2172C76.5255 25.3974 75.5734 24.7541 74.4997 24.2897L73.3089 27.0433C74.0418 27.3602 74.6766 27.7911 75.224 28.3385L77.3453 26.2172ZM74.4997 24.2897C73.4005 23.8144 72.2326 23.5806 71.0112 23.5806V26.5806C71.8406 26.5806 72.6014 26.7374 73.3089 27.0433L74.4997 24.2897ZM71.0112 23.5806C69.7702 23.5806 68.5827 23.8125 67.4628 24.284L68.627 27.049C69.3626 26.7392 70.1526 26.5806 71.0112 26.5806V23.5806ZM67.4628 24.284C66.3638 24.7468 65.3937 25.3907 64.5673 26.2172L66.6886 28.3385C67.2293 27.7978 67.8706 27.3674 68.627 27.049L67.4628 24.284ZM64.5673 26.2172C63.7408 27.0436 63.0969 28.0137 62.6341 29.1127L65.3991 30.2769C65.7175 29.5205 66.1479 28.8792 66.6886 28.3385L64.5673 26.2172ZM62.6398 29.0995C62.1645 30.1986 61.9307 31.3665 61.9307 32.5879H64.9307C64.9307 31.7585 65.0875 30.9977 65.3934 30.2902L62.6398 29.0995ZM61.9307 32.5879V55H64.9307V32.5879H61.9307ZM125.648 50.4224L126.866 49.5459L125.883 48.1816L124.639 49.3125L125.648 50.4224ZM123.048 52.5098L123.911 53.7371L123.917 53.7325L123.048 52.5098ZM120.192 54.1943L120.823 55.5553L120.836 55.549L120.85 55.5425L120.192 54.1943ZM117.079 55.293L116.715 53.8378L116.696 53.8427L116.676 53.8482L117.079 55.293ZM101.442 50.8252L100.381 51.8859L100.389 51.894L100.398 51.902L101.442 50.8252ZM97.6699 45.0757L96.2762 45.6302L96.2798 45.6393L96.2835 45.6483L97.6699 45.0757ZM96.3149 15.7788V14.2788H94.8149V15.7788H96.3149ZM106.276 15.7788H107.776V14.2788H106.276V15.7788ZM106.862 41.0107L105.456 41.5338L105.463 41.5538L105.471 41.5735L106.862 41.0107ZM110.89 45.2222L110.327 46.6123L110.339 46.6174L110.89 45.2222ZM116.75 45.0757L117.435 46.41L117.441 46.4066L117.448 46.4031L116.75 45.0757ZM120.778 40.5347L122.171 41.0918L122.175 41.08L120.778 40.5347ZM121.364 15.7788V14.2788H119.864V15.7788H121.364ZM131.361 15.7788H132.861V14.2788H131.361V15.7788ZM131.361 55V56.5H132.861V55H131.361ZM128.944 55L127.727 55.8765L128.176 56.5H128.944V55ZM124.639 49.3125C123.88 50.0027 123.061 50.661 122.18 51.287L123.917 53.7325C124.892 53.0401 125.805 52.3069 126.657 51.5323L124.639 49.3125ZM122.186 51.2825C121.348 51.8712 120.465 52.3924 119.534 52.8462L120.85 55.5425C121.921 55.0197 122.942 54.4179 123.911 53.7371L122.186 51.2825ZM119.561 52.8334C118.646 53.2573 117.698 53.592 116.715 53.8378L117.443 56.7482C118.609 56.4568 119.736 56.0591 120.823 55.5553L119.561 52.8334ZM116.676 53.8482C115.758 54.1042 114.82 54.2324 113.856 54.2324V57.2324C115.09 57.2324 116.3 57.0677 117.482 56.7378L116.676 53.8482ZM113.856 54.2324C111.62 54.2324 109.541 53.838 107.605 53.0591L106.485 55.8423C108.797 56.7723 111.258 57.2324 113.856 57.2324V54.2324ZM107.605 53.0591C105.657 52.2756 103.955 51.1728 102.486 49.7483L100.398 51.902C102.151 53.6026 104.184 54.9167 106.485 55.8423L107.605 53.0591ZM102.503 49.7645C101.066 48.3285 99.915 46.5819 99.0563 44.503L96.2835 45.6483C97.2804 48.0617 98.6435 50.1481 100.381 51.8859L102.503 49.7645ZM99.0637 44.5212C98.2402 42.4514 97.8149 40.1042 97.8149 37.4585H94.8149C94.8149 40.428 95.293 43.159 96.2762 45.6302L99.0637 44.5212ZM97.8149 37.4585V15.7788H94.8149V37.4585H97.8149ZM96.3149 17.2788H106.276V14.2788H96.3149V17.2788ZM104.776 15.7788V37.4585H107.776V15.7788H104.776ZM104.776 37.4585C104.776 38.9245 104.993 40.2899 105.456 41.5338L108.268 40.4876C107.949 39.6319 107.776 38.6292 107.776 37.4585H104.776ZM105.471 41.5735C105.95 42.7551 106.598 43.7903 107.431 44.6527L109.589 42.5689C109.054 42.0153 108.604 41.3172 108.252 40.448L105.471 41.5735ZM107.431 44.6527C108.258 45.5101 109.227 46.1665 110.327 46.6123L111.454 43.8321C110.747 43.5454 110.128 43.1276 109.589 42.5689L107.431 44.6527ZM110.339 46.6174C111.452 47.0564 112.628 47.2715 113.856 47.2715V44.2715C112.985 44.2715 112.184 44.1203 111.441 43.8269L110.339 46.6174ZM113.856 47.2715C115.118 47.2715 116.317 46.9839 117.435 46.41L116.064 43.7413C115.375 44.0952 114.646 44.2715 113.856 44.2715V47.2715ZM117.448 46.4031C118.537 45.8298 119.489 45.0805 120.295 44.1591L118.038 42.1836C117.477 42.8248 116.817 43.345 116.051 43.7483L117.448 46.4031ZM120.295 44.1591C121.092 43.2486 121.718 42.2236 122.171 41.0918L119.385 39.9776C119.057 40.7988 118.608 41.5317 118.038 42.1836L120.295 44.1591ZM122.175 41.08C122.632 39.9094 122.864 38.6993 122.864 37.4585H119.864C119.864 38.3173 119.705 39.158 119.38 39.9894L122.175 41.08ZM122.864 37.4585V15.7788H119.864V37.4585H122.864ZM121.364 17.2788H131.361V14.2788H121.364V17.2788ZM129.861 15.7788V55H132.861V15.7788H129.861ZM131.361 53.5H128.944V56.5H131.361V53.5ZM130.162 54.1235L126.866 49.5459L124.431 51.2988L127.727 55.8765L130.162 54.1235ZM139.197 55H137.697V56.5H139.197V55ZM139.197 45.0391V43.5391H137.697V45.0391H139.197ZM142.822 37.1655L141.75 38.2147L141.756 38.2205L141.762 38.2262L142.822 37.1655ZM140.149 33.1738L138.766 33.7539L138.77 33.7634L138.774 33.7727L140.149 33.1738ZM140.149 23.4326L138.774 22.8337L138.77 22.8431L138.766 22.8525L140.149 23.4326ZM146.777 16.8408L147.357 18.2241L147.367 18.2202L147.376 18.2161L146.777 16.8408ZM171.899 15.8521H173.399V14.3521H171.899V15.8521ZM171.899 25.813V27.313H173.399V25.813H171.899ZM149.89 30.1343L148.804 31.1688L148.817 31.182L148.829 31.1949L149.89 30.1343ZM166.882 31.7456L166.341 33.1445L166.351 33.1483L166.361 33.152L166.882 31.7456ZM173.511 47.4194L174.882 48.0266L174.886 48.0183L173.511 47.4194ZM170.837 51.3745L171.898 52.4352L171.904 52.4295L171.909 52.4237L170.837 51.3745ZM166.882 54.0479L167.462 55.4311L167.472 55.4272L167.481 55.4231L166.882 54.0479ZM162.048 53.5H139.197V56.5H162.048V53.5ZM140.697 55V45.0391H137.697V55H140.697ZM139.197 46.5391H162.048V43.5391H139.197V46.5391ZM162.048 46.5391C163.134 46.5391 164.1 46.1337 164.867 45.3673L162.745 43.246C162.535 43.4562 162.33 43.5391 162.048 43.5391V46.5391ZM164.867 45.3673C165.633 44.6009 166.039 43.6348 166.039 42.5488H163.039C163.039 42.8301 162.956 43.0358 162.745 43.246L164.867 45.3673ZM166.039 42.5488C166.039 41.4782 165.629 40.3326 164.422 39.7893L163.191 42.5251C163.173 42.5172 163.14 42.4986 163.103 42.4644C163.066 42.4299 163.042 42.3943 163.028 42.3685C163.016 42.3448 163.018 42.3409 163.024 42.3695C163.03 42.3991 163.039 42.4565 163.039 42.5488H166.039ZM164.422 39.7893C163.694 39.462 162.888 39.3276 162.048 39.3276V42.3276C162.576 42.3276 162.942 42.413 163.191 42.5251L164.422 39.7893ZM162.048 39.3276H151.648V42.3276H162.048V39.3276ZM151.648 39.3276C150.11 39.3276 148.692 39.0364 147.376 38.4636L146.178 41.2141C147.89 41.9597 149.719 42.3276 151.648 42.3276V39.3276ZM147.376 38.4636C146.028 37.8764 144.868 37.0898 143.883 36.1049L141.762 38.2262C143.023 39.4873 144.499 40.4829 146.178 41.2141L147.376 38.4636ZM143.894 36.1163C142.902 35.103 142.113 33.9261 141.524 32.5749L138.774 33.7727C139.504 35.4489 140.496 36.9332 141.75 38.2147L143.894 36.1163ZM141.532 32.5937C140.979 31.2739 140.697 29.8488 140.697 28.3032H137.697C137.697 30.2245 138.05 32.0464 138.766 33.7539L141.532 32.5937ZM140.697 28.3032C140.697 26.7577 140.979 25.3325 141.532 24.0127L138.766 22.8525C138.05 24.5601 137.697 26.382 137.697 28.3032H140.697ZM141.524 24.0315C142.111 22.6832 142.898 21.5232 143.883 20.5382L141.762 18.4169C140.5 19.678 139.505 21.1547 138.774 22.8337L141.524 24.0315ZM143.883 20.5382C144.864 19.5575 146.017 18.7861 147.357 18.2241L146.197 15.4575C144.51 16.165 143.027 17.1515 141.762 18.4169L143.883 20.5382ZM147.376 18.2161C148.692 17.6433 150.11 17.3521 151.648 17.3521V14.3521C149.719 14.3521 147.89 14.72 146.178 15.4656L147.376 18.2161ZM151.648 17.3521H171.899V14.3521H151.648V17.3521ZM170.399 15.8521V25.813H173.399V15.8521H170.399ZM171.899 24.313H151.648V27.313H171.899V24.313ZM151.648 24.313C150.562 24.313 149.596 24.7184 148.829 25.4847L150.951 27.6061C151.161 27.3959 151.367 27.313 151.648 27.313V24.313ZM148.829 25.4847C148.063 26.2511 147.658 27.2173 147.658 28.3032H150.658C150.658 28.022 150.741 27.8163 150.951 27.6061L148.829 25.4847ZM147.658 28.3032C147.658 29.3964 148.05 30.3772 148.804 31.1688L150.976 29.0998C150.754 28.866 150.658 28.6261 150.658 28.3032H147.658ZM148.829 31.1949C149.596 31.9613 150.562 32.3667 151.648 32.3667V29.3667C151.367 29.3667 151.161 29.2838 150.951 29.0736L148.829 31.1949ZM151.648 32.3667H162.048V29.3667H151.648V32.3667ZM162.048 32.3667C163.582 32.3667 165.009 32.6289 166.341 33.1445L167.424 30.3468C165.728 29.6905 163.933 29.3667 162.048 29.3667V32.3667ZM166.361 33.152C167.705 33.6506 168.854 34.3463 169.826 35.2337L171.849 33.0182C170.575 31.8549 169.087 30.9637 167.404 30.3393L166.361 33.152ZM169.826 35.2337C170.794 36.1176 171.568 37.1839 172.147 38.4489L174.875 37.2005C174.135 35.5847 173.127 34.1852 171.849 33.0182L169.826 35.2337ZM172.147 38.4489C172.709 39.6783 173 41.038 173 42.5488H176C176 40.6417 175.63 38.8519 174.875 37.2005L172.147 38.4489ZM173 42.5488C173 44.0866 172.708 45.5052 172.135 46.8205L174.886 48.0183C175.632 46.3063 176 44.4778 176 42.5488H173ZM172.139 46.8123C171.551 48.1399 170.761 49.308 169.765 50.3253L171.909 52.4237C173.16 51.1461 174.152 49.6775 174.882 48.0266L172.139 46.8123ZM169.777 50.3139C168.792 51.2988 167.632 52.0854 166.283 52.6726L167.481 55.4231C169.16 54.6919 170.637 53.6963 171.898 52.4352L169.777 50.3139ZM166.302 52.6646C164.98 53.2191 163.566 53.5 162.048 53.5V56.5C163.948 56.5 165.757 56.1461 167.462 55.4311L166.302 52.6646ZM191.344 55V56.5H192.844V55H191.344ZM181.346 55H179.846V56.5H181.346V55ZM181.346 0.178223V-1.32178H179.846V0.178223H181.346ZM191.344 0.178223H192.844V-1.32178H191.344V0.178223ZM191.344 17.5H189.844V20.5123L192.248 18.6971L191.344 17.5ZM195.042 15.5957L195.458 17.0369L195.471 17.0333L195.484 17.0294L195.042 15.5957ZM205.736 16.4014L205.135 17.776L205.142 17.7789L205.149 17.7817L205.736 16.4014ZM211.266 20.1733L210.189 21.2176L210.197 21.2258L210.205 21.234L211.266 20.1733ZM215.001 25.7764L213.618 26.3577L213.622 26.3673L213.626 26.3768L215.001 25.7764ZM216.393 55V56.5H217.893V55H216.393ZM206.322 55H204.822V56.5H206.322V55ZM206.322 32.5879V31.0879H204.822V32.5879H206.322ZM206.395 32.5879V34.0879H207.895V32.5879H206.395ZM205.809 29.6948L204.427 30.2769L204.429 30.2836L204.432 30.2902L205.809 29.6948ZM191.93 29.6948L193.306 30.2902L193.309 30.2836L193.312 30.2769L191.93 29.6948ZM191.344 53.5H181.346V56.5H191.344V53.5ZM182.846 55V0.178223H179.846V55H182.846ZM181.346 1.67822H191.344V-1.32178H181.346V1.67822ZM189.844 0.178223V17.5H192.844V0.178223H189.844ZM192.248 18.6971C193.317 17.8896 194.387 17.3459 195.458 17.0369L194.627 14.1545C193.159 14.5779 191.763 15.3038 190.44 16.3029L192.248 18.6971ZM195.484 17.0294C196.611 16.6824 197.757 16.5098 198.924 16.5098V13.5098C197.455 13.5098 196.013 13.7278 194.601 14.162L195.484 17.0294ZM198.924 16.5098C201.144 16.5098 203.209 16.9345 205.135 17.776L206.336 15.0268C204.015 14.0128 201.539 13.5098 198.924 13.5098V16.5098ZM205.149 17.7817C207.094 18.609 208.769 19.7539 210.189 21.2176L212.342 19.1291C210.637 17.3701 208.626 16.0003 206.323 15.021L205.149 17.7817ZM210.205 21.234C211.649 22.6782 212.787 24.3814 213.618 26.3577L216.384 25.195C215.408 22.8745 214.056 20.8423 212.326 19.1127L210.205 21.234ZM213.626 26.3768C214.468 28.3033 214.893 30.3685 214.893 32.5879H217.893C217.893 29.9733 217.39 27.4975 216.376 25.176L213.626 26.3768ZM214.893 32.5879V55H217.893V32.5879H214.893ZM216.393 53.5H206.322V56.5H216.393V53.5ZM207.822 55V32.5879H204.822V55H207.822ZM206.322 34.0879H206.395V31.0879H206.322V34.0879ZM207.895 32.5879C207.895 31.3665 207.661 30.1986 207.186 29.0995L204.432 30.2902C204.738 30.9977 204.895 31.7585 204.895 32.5879H207.895ZM207.192 29.1127C206.729 28.0137 206.085 27.0436 205.258 26.2172L203.137 28.3385C203.678 28.8792 204.108 29.5205 204.427 30.2769L207.192 29.1127ZM205.258 26.2172C204.439 25.3974 203.487 24.7541 202.413 24.2897L201.222 27.0433C201.955 27.3602 202.59 27.7911 203.137 28.3385L205.258 26.2172ZM202.413 24.2897C201.314 23.8144 200.146 23.5806 198.924 23.5806V26.5806C199.754 26.5806 200.515 26.7374 201.222 27.0433L202.413 24.2897ZM198.924 23.5806C197.683 23.5806 196.496 23.8125 195.376 24.284L196.54 27.049C197.276 26.7392 198.066 26.5806 198.924 26.5806V23.5806ZM195.376 24.284C194.277 24.7468 193.307 25.3907 192.48 26.2172L194.602 28.3385C195.142 27.7978 195.784 27.3674 196.54 27.049L195.376 24.284ZM192.48 26.2172C191.654 27.0436 191.01 28.0137 190.547 29.1127L193.312 30.2769C193.631 29.5205 194.061 28.8792 194.602 28.3385L192.48 26.2172ZM190.553 29.0995C190.078 30.1986 189.844 31.3665 189.844 32.5879H192.844C192.844 31.7585 193.001 30.9977 193.306 30.2902L190.553 29.0995ZM189.844 32.5879V55H192.844V32.5879H189.844Z" fill="url(#paint0_linear_5153_4538)" mask="url(#path-1-outside-1_5153_4538)"/>
</g>
<defs>
<filter id="filter0_d_5153_4538" x="0.0693359" y="0.178223" width="220.323" height="63.5542" filterUnits="userSpaceOnUse" color-interpolation-filters="sRGB">
<feFlood flood-opacity="0" result="BackgroundImageFix"/>
<feColorMatrix in="SourceAlpha" type="matrix" values="0 0 0 0 0 0 0 0 0 0 0 0 0 0 0 0 0 0 127 0" result="hardAlpha"/>
<feOffset dy="4"/>
<feGaussianBlur stdDeviation="2"/>
<feComposite in2="hardAlpha" operator="out"/>
<feColorMatrix type="matrix" values="0 0 0 0 1 0 0 0 0 1 0 0 0 0 1 0 0 0 0.25 0"/>
<feBlend mode="normal" in2="BackgroundImageFix" result="effect1_dropShadow_5153_4538"/>
<feBlend mode="normal" in="SourceGraphic" in2="effect1_dropShadow_5153_4538" result="shape"/>
</filter>
<linearGradient id="paint0_linear_5153_4538" x1="2" y1="29.2222" x2="220" y2="29.2222" gradientUnits="userSpaceOnUse">
<stop stop-color="#B68013"/>
<stop offset="0.531472" stop-color="#FDEF9F"/>
<stop offset="1" stop-color="#B68014"/>
</linearGradient>
</defs>
</svg>
