<svg width="15" height="12" viewBox="0 0 15 12" fill="none" xmlns="http://www.w3.org/2000/svg">
<path d="M14.4645 8.30053H3.20969C3.38774 7.99849 3.56646 7.68779 3.74519 7.37191C4.74456 7.46702 5.92868 6.86466 7.27545 5.57231C7.31561 5.668 7.36046 5.76657 7.40933 5.86629C7.84509 6.74534 8.40736 7.24625 9.08276 7.35635C9.77489 7.47163 10.4603 7.17016 11.1632 6.44444C11.6197 6.90962 12.5568 7.37825 14.4645 7.37825C14.6065 7.37825 14.7427 7.32967 14.8432 7.24319C14.9436 7.15671 15 7.03941 15 6.91711C15 6.79481 14.9436 6.67752 14.8432 6.59104C14.7427 6.50456 14.6065 6.45597 14.4645 6.45597C12.4142 6.45597 11.8171 5.84554 11.787 5.52101C11.7838 5.41374 11.7372 5.3108 11.6552 5.22993C11.5733 5.14907 11.4612 5.09534 11.3382 5.078C11.2153 5.06065 11.0891 5.08079 10.9815 5.13493C10.8739 5.18907 10.7916 5.27382 10.7488 5.3746C9.9342 6.42657 9.45158 6.47788 9.2762 6.45021C8.71862 6.35971 8.19985 5.24375 8.02515 4.5186C8.00229 4.42702 7.94758 4.34361 7.86831 4.27946C7.78904 4.21532 7.68896 4.17348 7.5814 4.15952C7.47383 4.14557 7.36388 4.16015 7.26618 4.20133C7.16848 4.24252 7.08766 4.30835 7.03448 4.39006C5.70912 5.80922 4.8202 6.29227 4.26261 6.41562C4.83091 5.32733 5.25529 4.37219 5.52705 3.56808C5.98357 2.21693 6.01703 1.27217 5.62813 0.680183C5.42732 0.371218 5.00628 0.00288213 4.16154 0H4.1448C3.07381 0.00634069 2.2304 0.881932 1.82744 2.4037C1.58713 3.30926 1.54764 4.31685 1.71833 5.17054C1.88902 6.02423 2.24446 6.641 2.7592 7.00876C2.5102 7.45434 2.25517 7.88954 2.0075 8.30169H0.541574C0.399552 8.30169 0.263346 8.35027 0.162921 8.43675C0.0624953 8.52323 0.00607703 8.64053 0.00607703 8.76283C0.00607703 8.88513 0.0624953 9.00242 0.162921 9.0889C0.263346 9.17538 0.399552 9.22397 0.541574 9.22397H1.4392C0.681473 10.4345 0.0924259 11.2784 0.0830547 11.2922C0.0448774 11.3441 0.0191391 11.4021 0.00735273 11.4627C-0.00443365 11.5233 -0.00203032 11.5854 0.0144214 11.6452C0.0308732 11.705 0.0610415 11.7613 0.103153 11.811C0.145265 11.8606 0.19847 11.9024 0.259642 11.9341C0.320813 11.9658 0.388717 11.9866 0.459362 11.9953C0.530007 12.0041 0.601968 12.0005 0.671015 11.985C0.740062 11.9694 0.804801 11.9422 0.861429 11.9047C0.918057 11.8673 0.965429 11.8206 1.00076 11.7672C1.0108 11.7522 1.75514 10.6841 2.65411 9.22397H14.4645C14.6065 9.22397 14.7427 9.17538 14.8432 9.0889C14.9436 9.00242 15 8.88513 15 8.76283C15 8.64053 14.9436 8.52323 14.8432 8.43675C14.7427 8.35027 14.6065 8.30169 14.4645 8.30169V8.30053ZM11.787 5.53369V5.52158C11.7875 5.52561 11.7875 5.52966 11.787 5.53369ZM2.87032 2.6089C3.1374 1.60131 3.65281 0.922282 4.15618 0.922282C4.5076 0.922282 4.62474 1.0295 4.69168 1.13383C4.89249 1.44106 5.12811 2.5282 3.24249 6.11242C2.69427 5.46164 2.50752 3.97734 2.87032 2.6089Z" fill="#D9D9D9"/>
<path d="M14.4645 8.30053H3.20969C3.38774 7.99849 3.56646 7.68779 3.74519 7.37191C4.74456 7.46702 5.92868 6.86466 7.27545 5.57231C7.31561 5.668 7.36046 5.76657 7.40933 5.86629C7.84509 6.74534 8.40736 7.24625 9.08276 7.35635C9.77489 7.47163 10.4603 7.17016 11.1632 6.44444C11.6197 6.90962 12.5568 7.37825 14.4645 7.37825C14.6065 7.37825 14.7427 7.32967 14.8432 7.24319C14.9436 7.15671 15 7.03941 15 6.91711C15 6.79481 14.9436 6.67752 14.8432 6.59104C14.7427 6.50456 14.6065 6.45597 14.4645 6.45597C12.4142 6.45597 11.8171 5.84554 11.787 5.52101C11.7838 5.41374 11.7372 5.3108 11.6552 5.22993C11.5733 5.14907 11.4612 5.09534 11.3382 5.078C11.2153 5.06065 11.0891 5.08079 10.9815 5.13493C10.8739 5.18907 10.7916 5.27382 10.7488 5.3746C9.9342 6.42657 9.45158 6.47788 9.2762 6.45021C8.71862 6.35971 8.19985 5.24375 8.02515 4.5186C8.00229 4.42702 7.94758 4.34361 7.86831 4.27946C7.78904 4.21532 7.68896 4.17348 7.5814 4.15952C7.47383 4.14557 7.36388 4.16015 7.26618 4.20133C7.16848 4.24252 7.08766 4.30835 7.03448 4.39006C5.70912 5.80922 4.8202 6.29227 4.26261 6.41562C4.83091 5.32733 5.25529 4.37219 5.52705 3.56808C5.98357 2.21693 6.01703 1.27217 5.62813 0.680183C5.42732 0.371218 5.00628 0.00288213 4.16154 0H4.1448C3.07381 0.00634069 2.2304 0.881932 1.82744 2.4037C1.58713 3.30926 1.54764 4.31685 1.71833 5.17054C1.88902 6.02423 2.24446 6.641 2.7592 7.00876C2.5102 7.45434 2.25517 7.88954 2.0075 8.30169H0.541574C0.399552 8.30169 0.263346 8.35027 0.162921 8.43675C0.0624953 8.52323 0.00607703 8.64053 0.00607703 8.76283C0.00607703 8.88513 0.0624953 9.00242 0.162921 9.0889C0.263346 9.17538 0.399552 9.22397 0.541574 9.22397H1.4392C0.681473 10.4345 0.0924259 11.2784 0.0830547 11.2922C0.0448774 11.3441 0.0191391 11.4021 0.00735273 11.4627C-0.00443365 11.5233 -0.00203032 11.5854 0.0144214 11.6452C0.0308732 11.705 0.0610415 11.7613 0.103153 11.811C0.145265 11.8606 0.19847 11.9024 0.259642 11.9341C0.320813 11.9658 0.388717 11.9866 0.459362 11.9953C0.530007 12.0041 0.601968 12.0005 0.671015 11.985C0.740062 11.9694 0.804801 11.9422 0.861429 11.9047C0.918057 11.8673 0.965429 11.8206 1.00076 11.7672C1.0108 11.7522 1.75514 10.6841 2.65411 9.22397H14.4645C14.6065 9.22397 14.7427 9.17538 14.8432 9.0889C14.9436 9.00242 15 8.88513 15 8.76283C15 8.64053 14.9436 8.52323 14.8432 8.43675C14.7427 8.35027 14.6065 8.30169 14.4645 8.30169V8.30053ZM11.787 5.53369V5.52158C11.7875 5.52561 11.7875 5.52966 11.787 5.53369ZM2.87032 2.6089C3.1374 1.60131 3.65281 0.922282 4.15618 0.922282C4.5076 0.922282 4.62474 1.0295 4.69168 1.13383C4.89249 1.44106 5.12811 2.5282 3.24249 6.11242C2.69427 5.46164 2.50752 3.97734 2.87032 2.6089Z" fill="url(#paint0_linear_2624_279)"/>
<defs>
<linearGradient id="paint0_linear_2624_279" x1="-1.27242e-08" y1="6.22222" x2="15" y2="6.22222" gradientUnits="userSpaceOnUse">
<stop stop-color="#B68013"/>
<stop offset="0.531472" stop-color="#FDEF9F"/>
<stop offset="1" stop-color="#B68014"/>
</linearGradient>
</defs>
</svg>
