<svg width="72" height="150" viewBox="0 0 390 844" fill="none" xmlns="http://www.w3.org/2000/svg">
<g clip-path="url(#clip0_2969_1452)">
<rect width="390" height="844" fill="url(#paint0_linear_2969_1452)"/>
<rect opacity="0.35" x="351.833" y="17.8333" width="21" height="10.3333" rx="2.16667" stroke="white"/>
<path opacity="0.4" d="M374.333 21V25C375.138 24.6612 375.662 23.8731 375.662 23C375.662 22.1269 375.138 21.3388 374.333 21Z" fill="white"/>
<rect x="353.333" y="19.3333" width="18" height="7.33333" rx="1.33333" fill="white"/>
<path fill-rule="evenodd" clip-rule="evenodd" d="M336.614 19.615C338.928 19.6151 341.153 20.4693 342.83 22.0008C342.956 22.1191 343.158 22.1176 343.282 21.9975L344.489 20.8272C344.552 20.7663 344.587 20.6837 344.587 20.5979C344.586 20.5121 344.55 20.4299 344.486 20.3697C340.085 16.3175 333.142 16.3175 328.741 20.3697C328.677 20.4299 328.641 20.512 328.64 20.5978C328.64 20.6837 328.675 20.7662 328.738 20.8272L329.945 21.9975C330.069 22.1178 330.271 22.1193 330.397 22.0008C332.074 20.4692 334.3 19.615 336.614 19.615ZM336.614 23.4226C337.885 23.4226 339.111 23.8765 340.053 24.6963C340.181 24.8126 340.382 24.8101 340.506 24.6906L341.711 23.5203C341.775 23.4589 341.81 23.3756 341.809 23.2891C341.808 23.2025 341.771 23.12 341.707 23.0598C338.837 20.4954 334.393 20.4954 331.524 23.0598C331.459 23.12 331.422 23.2026 331.421 23.2891C331.42 23.3757 331.456 23.459 331.519 23.5203L332.724 24.6906C332.849 24.8101 333.049 24.8126 333.177 24.6963C334.119 23.877 335.343 23.4231 336.614 23.4226ZM339.029 25.9845C339.031 26.0712 338.995 26.1549 338.931 26.2157L336.845 28.2377C336.784 28.2971 336.701 28.3306 336.614 28.3306C336.527 28.3306 336.444 28.2971 336.382 28.2377L334.297 26.2157C334.232 26.1549 334.197 26.0712 334.199 25.9844C334.201 25.8976 334.24 25.8154 334.307 25.7573C335.639 24.675 337.589 24.675 338.921 25.7573C338.988 25.8155 339.027 25.8977 339.029 25.9845Z" fill="white"/>
<path fill-rule="evenodd" clip-rule="evenodd" d="M322.4 17.6667H321.36C320.785 17.6667 320.32 18.1145 320.32 18.6667V27.3334C320.32 27.8857 320.785 28.3334 321.36 28.3334H322.4C322.974 28.3334 323.44 27.8857 323.44 27.3334V18.6667C323.44 18.1145 322.974 17.6667 322.4 17.6667ZM316.506 20.0001H317.546C318.121 20.0001 318.586 20.4478 318.586 21.0001V27.3334C318.586 27.8857 318.121 28.3334 317.546 28.3334H316.506C315.932 28.3334 315.466 27.8857 315.466 27.3334V21.0001C315.466 20.4478 315.932 20.0001 316.506 20.0001ZM312.693 22.3334H311.653C311.079 22.3334 310.613 22.7811 310.613 23.3334V27.3334C310.613 27.8857 311.079 28.3334 311.653 28.3334H312.693C313.267 28.3334 313.733 27.8857 313.733 27.3334V23.3334C313.733 22.7811 313.267 22.3334 312.693 22.3334ZM307.84 24.3334H306.8C306.225 24.3334 305.76 24.7811 305.76 25.3334V27.3334C305.76 27.8857 306.225 28.3334 306.8 28.3334H307.84C308.414 28.3334 308.88 27.8857 308.88 27.3334V25.3334C308.88 24.7811 308.414 24.3334 307.84 24.3334Z" fill="white"/>
<path d="M37.5101 28.18C36.9301 28.18 36.4101 28.08 35.9501 27.88C35.4901 27.67 35.0701 27.38 34.6901 27.01L35.5751 26.005C36.1751 26.635 36.8451 26.95 37.5851 26.95C37.9951 26.95 38.3751 26.815 38.7251 26.545C39.0751 26.265 39.3551 25.83 39.5651 25.24C39.7851 24.65 39.8951 23.89 39.8951 22.96C39.5851 23.24 39.2401 23.475 38.8601 23.665C38.4801 23.855 38.0701 23.95 37.6301 23.95C37.1001 23.95 36.5951 23.83 36.1151 23.59C35.6451 23.34 35.2601 22.98 34.9601 22.51C34.6701 22.03 34.5251 21.44 34.5251 20.74C34.5251 20.11 34.6651 19.535 34.9451 19.015C35.2351 18.495 35.6351 18.085 36.1451 17.785C36.6551 17.475 37.2451 17.32 37.9151 17.32C38.4351 17.32 38.8801 17.4 39.2501 17.56C39.6201 17.72 39.9301 17.93 40.1801 18.19C40.4201 18.44 40.6201 18.735 40.7801 19.075C40.9501 19.405 41.0751 19.845 41.1551 20.395C41.2351 20.935 41.2751 21.64 41.2751 22.51C41.2751 23.84 41.1101 24.925 40.7801 25.765C40.4501 26.595 40.0001 27.205 39.4301 27.595C38.8701 27.985 38.2301 28.18 37.5101 28.18ZM37.8551 22.84C38.2351 22.84 38.6001 22.745 38.9501 22.555C39.3101 22.365 39.6251 22.135 39.8951 21.865V21.415C39.8951 20.465 39.7101 19.745 39.3401 19.255C38.9801 18.765 38.4901 18.52 37.8701 18.52C37.3001 18.52 36.8151 18.72 36.4151 19.12C36.0251 19.51 35.8301 20.03 35.8301 20.68C35.8301 21.13 35.9251 21.52 36.1151 21.85C36.3051 22.17 36.5501 22.415 36.8501 22.585C37.1601 22.755 37.4951 22.84 37.8551 22.84ZM44.4942 22.03C44.2242 22.03 43.9892 21.93 43.7892 21.73C43.5892 21.53 43.4892 21.295 43.4892 21.025C43.4892 20.715 43.5792 20.47 43.7592 20.29C43.9392 20.11 44.1842 20.02 44.4942 20.02C44.7542 20.02 44.9842 20.12 45.1842 20.32C45.3942 20.52 45.4992 20.755 45.4992 21.025C45.4992 21.325 45.4042 21.57 45.2142 21.76C45.0242 21.94 44.7842 22.03 44.4942 22.03ZM44.4942 28.18C44.2242 28.18 43.9892 28.08 43.7892 27.88C43.5892 27.68 43.4892 27.445 43.4892 27.175C43.4892 26.865 43.5792 26.62 43.7592 26.44C43.9392 26.26 44.1842 26.17 44.4942 26.17C44.7542 26.17 44.9842 26.27 45.1842 26.47C45.3942 26.67 45.4992 26.905 45.4992 27.175C45.4992 27.475 45.4042 27.72 45.2142 27.91C45.0242 28.09 44.7842 28.18 44.4942 28.18ZM51.8863 28V25.765H47.4013V24.685L50.5363 17.395L51.7063 17.89L48.8713 24.535H51.8863V21.55H53.2363V24.535H54.4813V25.765H53.2363V28H51.8863ZM57.2954 28V26.8H59.4404V19.225L57.4304 20.74L56.6954 19.735L59.8004 17.5H60.7904V26.8H62.5754V28H57.2954Z" fill="white"/>
<g filter="url(#filter0_i_2969_1452)">
<rect x="22" y="45" width="35" height="35" rx="17.5" fill="#2D2D2D"/>
</g>
<rect x="22" y="45" width="35" height="35" rx="17.5" stroke="url(#paint1_linear_2969_1452)" stroke-width="2"/>
<path fill-rule="evenodd" clip-rule="evenodd" d="M41.71 57.71C41.32 57.32 40.69 57.32 40.3 57.71L35.71 62.3C35.32 62.69 35.32 63.32 35.71 63.71L40.3 68.3C40.69 68.69 41.32 68.69 41.71 68.3C42.1 67.91 42.1 67.28 41.71 66.89L37.83 63L41.71 59.12C42.1 58.73 42.09 58.09 41.71 57.71Z" fill="url(#paint2_linear_2969_1452)"/>
<g filter="url(#filter1_d_2969_1452)">
<path d="M137.077 61.552C137.077 59.888 137.437 58.408 138.157 57.112C138.877 55.8 139.877 54.784 141.157 54.064C142.453 53.328 143.917 52.96 145.549 52.96C147.549 52.96 149.261 53.488 150.685 54.544C152.109 55.6 153.061 57.04 153.541 58.864H149.029C148.693 58.16 148.213 57.624 147.589 57.256C146.981 56.888 146.285 56.704 145.501 56.704C144.237 56.704 143.213 57.144 142.429 58.024C141.645 58.904 141.253 60.08 141.253 61.552C141.253 63.024 141.645 64.2 142.429 65.08C143.213 65.96 144.237 66.4 145.501 66.4C146.285 66.4 146.981 66.216 147.589 65.848C148.213 65.48 148.693 64.944 149.029 64.24H153.541C153.061 66.064 152.109 67.504 150.685 68.56C149.261 69.6 147.549 70.12 145.549 70.12C143.917 70.12 142.453 69.76 141.157 69.04C139.877 68.304 138.877 67.288 138.157 65.992C137.437 64.696 137.077 63.216 137.077 61.552ZM160.158 58.84C160.638 58.104 161.238 57.528 161.958 57.112C162.678 56.68 163.478 56.464 164.358 56.464V60.808H163.23C162.206 60.808 161.438 61.032 160.926 61.48C160.414 61.912 160.158 62.68 160.158 63.784V70H156.054V56.608H160.158V58.84ZM178.944 63.088C178.944 63.472 178.92 63.872 178.872 64.288H169.584C169.648 65.12 169.912 65.76 170.376 66.208C170.856 66.64 171.44 66.856 172.128 66.856C173.152 66.856 173.864 66.424 174.264 65.56H178.632C178.408 66.44 178 67.232 177.408 67.936C176.832 68.64 176.104 69.192 175.224 69.592C174.344 69.992 173.36 70.192 172.272 70.192C170.96 70.192 169.792 69.912 168.768 69.352C167.744 68.792 166.944 67.992 166.368 66.952C165.792 65.912 165.504 64.696 165.504 63.304C165.504 61.912 165.784 60.696 166.344 59.656C166.92 58.616 167.72 57.816 168.744 57.256C169.768 56.696 170.944 56.416 172.272 56.416C173.568 56.416 174.72 56.688 175.728 57.232C176.736 57.776 177.52 58.552 178.08 59.56C178.656 60.568 178.944 61.744 178.944 63.088ZM174.744 62.008C174.744 61.304 174.504 60.744 174.024 60.328C173.544 59.912 172.944 59.704 172.224 59.704C171.536 59.704 170.952 59.904 170.472 60.304C170.008 60.704 169.72 61.272 169.608 62.008H174.744ZM180.293 63.28C180.293 61.904 180.549 60.696 181.061 59.656C181.589 58.616 182.301 57.816 183.197 57.256C184.093 56.696 185.093 56.416 186.197 56.416C187.141 56.416 187.965 56.608 188.669 56.992C189.389 57.376 189.941 57.88 190.325 58.504V56.608H194.429V70H190.325V68.104C189.925 68.728 189.365 69.232 188.645 69.616C187.941 70 187.117 70.192 186.173 70.192C185.085 70.192 184.093 69.912 183.197 69.352C182.301 68.776 181.589 67.968 181.061 66.928C180.549 65.872 180.293 64.656 180.293 63.28ZM190.325 63.304C190.325 62.28 190.037 61.472 189.461 60.88C188.901 60.288 188.213 59.992 187.397 59.992C186.581 59.992 185.885 60.288 185.309 60.88C184.749 61.456 184.469 62.256 184.469 63.28C184.469 64.304 184.749 65.12 185.309 65.728C185.885 66.32 186.581 66.616 187.397 66.616C188.213 66.616 188.901 66.32 189.461 65.728C190.037 65.136 190.325 64.328 190.325 63.304ZM204.862 66.52V70H202.774C201.286 70 200.126 69.64 199.294 68.92C198.462 68.184 198.046 66.992 198.046 65.344V60.016H196.414V56.608H198.046V53.344H202.15V56.608H204.838V60.016H202.15V65.392C202.15 65.792 202.246 66.08 202.438 66.256C202.63 66.432 202.95 66.52 203.398 66.52H204.862ZM219.772 63.088C219.772 63.472 219.748 63.872 219.7 64.288H210.412C210.476 65.12 210.74 65.76 211.204 66.208C211.684 66.64 212.268 66.856 212.956 66.856C213.98 66.856 214.692 66.424 215.092 65.56H219.46C219.236 66.44 218.828 67.232 218.236 67.936C217.66 68.64 216.932 69.192 216.052 69.592C215.172 69.992 214.188 70.192 213.1 70.192C211.788 70.192 210.62 69.912 209.596 69.352C208.572 68.792 207.772 67.992 207.196 66.952C206.62 65.912 206.332 64.696 206.332 63.304C206.332 61.912 206.612 60.696 207.172 59.656C207.748 58.616 208.548 57.816 209.572 57.256C210.596 56.696 211.772 56.416 213.1 56.416C214.396 56.416 215.548 56.688 216.556 57.232C217.564 57.776 218.348 58.552 218.908 59.56C219.484 60.568 219.772 61.744 219.772 63.088ZM215.572 62.008C215.572 61.304 215.332 60.744 214.852 60.328C214.372 59.912 213.772 59.704 213.052 59.704C212.364 59.704 211.78 59.904 211.3 60.304C210.836 60.704 210.548 61.272 210.436 62.008H215.572ZM242.095 70H237.991L231.127 59.608V70H227.023V53.152H231.127L237.991 63.592V53.152H242.095V70ZM251.382 53.152C253.158 53.152 254.71 53.504 256.038 54.208C257.366 54.912 258.39 55.904 259.11 57.184C259.846 58.448 260.214 59.912 260.214 61.576C260.214 63.224 259.846 64.688 259.11 65.968C258.39 67.248 257.358 68.24 256.014 68.944C254.686 69.648 253.142 70 251.382 70H245.07V53.152H251.382ZM251.118 66.448C252.67 66.448 253.878 66.024 254.742 65.176C255.606 64.328 256.038 63.128 256.038 61.576C256.038 60.024 255.606 58.816 254.742 57.952C253.878 57.088 252.67 56.656 251.118 56.656H249.174V66.448H251.118ZM272.996 67.024H266.708L265.7 70H261.404L267.5 53.152H272.252L278.348 70H274.004L272.996 67.024ZM271.94 63.856L269.852 57.688L267.788 63.856H271.94Z" fill="white"/>
</g>
<g filter="url(#filter2_i_2969_1452)">
<rect x="31" y="442" width="327" height="60" rx="24" fill="#2D2D2D"/>
</g>
<rect x="29" y="440" width="331" height="64" rx="26" stroke="url(#paint3_linear_2969_1452)" stroke-width="4"/>
<path d="M149.788 474.718C149.788 473.494 150.07 472.396 150.634 471.424C151.21 470.452 151.984 469.696 152.956 469.156C153.94 468.604 155.014 468.328 156.178 468.328C157.51 468.328 158.692 468.658 159.724 469.318C160.768 469.966 161.524 470.89 161.992 472.09H159.526C159.202 471.43 158.752 470.938 158.176 470.614C157.6 470.29 156.934 470.128 156.178 470.128C155.35 470.128 154.612 470.314 153.964 470.686C153.316 471.058 152.806 471.592 152.434 472.288C152.074 472.984 151.894 473.794 151.894 474.718C151.894 475.642 152.074 476.452 152.434 477.148C152.806 477.844 153.316 478.384 153.964 478.768C154.612 479.14 155.35 479.326 156.178 479.326C156.934 479.326 157.6 479.164 158.176 478.84C158.752 478.516 159.202 478.024 159.526 477.364H161.992C161.524 478.564 160.768 479.488 159.724 480.136C158.692 480.784 157.51 481.108 156.178 481.108C155.002 481.108 153.928 480.838 152.956 480.298C151.984 479.746 151.21 478.984 150.634 478.012C150.07 477.04 149.788 475.942 149.788 474.718ZM170.1 481.126C168.936 481.126 167.862 480.856 166.878 480.316C165.906 479.764 165.132 479.002 164.556 478.03C163.992 477.046 163.71 475.942 163.71 474.718C163.71 473.494 163.992 472.396 164.556 471.424C165.132 470.452 165.906 469.696 166.878 469.156C167.862 468.604 168.936 468.328 170.1 468.328C171.276 468.328 172.35 468.604 173.322 469.156C174.306 469.696 175.08 470.452 175.644 471.424C176.208 472.396 176.49 473.494 176.49 474.718C176.49 475.942 176.208 477.046 175.644 478.03C175.08 479.002 174.306 479.764 173.322 480.316C172.35 480.856 171.276 481.126 170.1 481.126ZM170.1 479.344C170.928 479.344 171.666 479.158 172.314 478.786C172.962 478.402 173.466 477.862 173.826 477.166C174.198 476.458 174.384 475.642 174.384 474.718C174.384 473.794 174.198 472.984 173.826 472.288C173.466 471.592 172.962 471.058 172.314 470.686C171.666 470.314 170.928 470.128 170.1 470.128C169.272 470.128 168.534 470.314 167.886 470.686C167.238 471.058 166.728 471.592 166.356 472.288C165.996 472.984 165.816 473.794 165.816 474.718C165.816 475.642 165.996 476.458 166.356 477.166C166.728 477.862 167.238 478.402 167.886 478.786C168.534 479.158 169.272 479.344 170.1 479.344ZM188.787 481H186.735L180.561 471.658V481H178.509V468.472H180.561L186.735 477.796V468.472H188.787V481ZM199.564 468.49V470.164H196.234V481H194.182V470.164H190.834V468.49H199.564ZM203.694 468.49V481H201.642V468.49H203.694ZM216.666 481H214.614L208.44 471.658V481H206.388V468.472H208.44L214.614 477.796V468.472H216.666V481ZM221.395 468.49V476.464C221.395 477.412 221.641 478.126 222.133 478.606C222.637 479.086 223.333 479.326 224.221 479.326C225.121 479.326 225.817 479.086 226.309 478.606C226.813 478.126 227.065 477.412 227.065 476.464V468.49H229.117V476.428C229.117 477.448 228.895 478.312 228.451 479.02C228.007 479.728 227.413 480.256 226.669 480.604C225.925 480.952 225.103 481.126 224.203 481.126C223.303 481.126 222.481 480.952 221.737 480.604C221.005 480.256 220.423 479.728 219.991 479.02C219.559 478.312 219.343 477.448 219.343 476.428V468.49H221.395ZM233.84 470.146V473.818H238.16V475.492H233.84V479.326H238.7V481H231.788V468.472H238.7V470.146H233.84Z" fill="white"/>
<g filter="url(#filter3_i_2969_1452)">
<rect x="35" y="342" width="327" height="60" rx="24" fill="#2D2D2D"/>
</g>
<rect x="33" y="340" width="331" height="64" rx="26" stroke="url(#paint4_linear_2969_1452)" stroke-width="4"/>
<path d="M166.319 368.49L161.621 381H159.245L154.529 368.49H156.725L160.433 378.894L164.159 368.49H166.319ZM170.087 368.49V381H168.035V368.49H170.087ZM174.833 370.146V373.818H179.153V375.492H174.833V379.326H179.693V381H172.781V368.472H179.693V370.146H174.833ZM198.51 368.49L194.802 381H192.48L189.852 371.532L187.062 381L184.758 381.018L181.212 368.49H183.39L185.982 378.678L188.79 368.49H191.094L193.704 378.624L196.314 368.49H198.51ZM215.156 381H213.104L206.93 371.658V381H204.878V368.472H206.93L213.104 377.796V368.472H215.156V381ZM221.937 368.49C223.269 368.49 224.433 368.748 225.429 369.264C226.437 369.768 227.211 370.5 227.751 371.46C228.303 372.408 228.579 373.518 228.579 374.79C228.579 376.062 228.303 377.166 227.751 378.102C227.211 379.038 226.437 379.758 225.429 380.262C224.433 380.754 223.269 381 221.937 381H217.851V368.49H221.937ZM221.937 379.326C223.401 379.326 224.523 378.93 225.303 378.138C226.083 377.346 226.473 376.23 226.473 374.79C226.473 373.338 226.083 372.204 225.303 371.388C224.523 370.572 223.401 370.164 221.937 370.164H219.903V379.326H221.937ZM238.155 378.444H232.917L232.017 381H229.875L234.357 368.472H236.733L241.215 381H239.055L238.155 378.444ZM237.579 376.77L235.545 370.956L233.493 376.77H237.579Z" fill="white"/>
</g>
<defs>
<filter id="filter0_i_2969_1452" x="21" y="40" width="37" height="41" filterUnits="userSpaceOnUse" color-interpolation-filters="sRGB">
<feFlood flood-opacity="0" result="BackgroundImageFix"/>
<feBlend mode="normal" in="SourceGraphic" in2="BackgroundImageFix" result="shape"/>
<feColorMatrix in="SourceAlpha" type="matrix" values="0 0 0 0 0 0 0 0 0 0 0 0 0 0 0 0 0 0 127 0" result="hardAlpha"/>
<feOffset dy="-15"/>
<feGaussianBlur stdDeviation="2"/>
<feComposite in2="hardAlpha" operator="arithmetic" k2="-1" k3="1"/>
<feColorMatrix type="matrix" values="0 0 0 0 0 0 0 0 0 0 0 0 0 0 0 0 0 0 1 0"/>
<feBlend mode="normal" in2="shape" result="effect1_innerShadow_2969_1452"/>
</filter>
<filter id="filter1_d_2969_1452" x="57.0771" y="-25.04" width="301.271" height="177.232" filterUnits="userSpaceOnUse" color-interpolation-filters="sRGB">
<feFlood flood-opacity="0" result="BackgroundImageFix"/>
<feColorMatrix in="SourceAlpha" type="matrix" values="0 0 0 0 0 0 0 0 0 0 0 0 0 0 0 0 0 0 127 0" result="hardAlpha"/>
<feOffset dy="2"/>
<feGaussianBlur stdDeviation="40"/>
<feColorMatrix type="matrix" values="0 0 0 0 1 0 0 0 0 1 0 0 0 0 1 0 0 0 1 0"/>
<feBlend mode="normal" in2="BackgroundImageFix" result="effect1_dropShadow_2969_1452"/>
<feBlend mode="normal" in="SourceGraphic" in2="effect1_dropShadow_2969_1452" result="shape"/>
</filter>
<filter id="filter2_i_2969_1452" x="27" y="434" width="335" height="72" filterUnits="userSpaceOnUse" color-interpolation-filters="sRGB">
<feFlood flood-opacity="0" result="BackgroundImageFix"/>
<feBlend mode="normal" in="SourceGraphic" in2="BackgroundImageFix" result="shape"/>
<feColorMatrix in="SourceAlpha" type="matrix" values="0 0 0 0 0 0 0 0 0 0 0 0 0 0 0 0 0 0 127 0" result="hardAlpha"/>
<feOffset dy="-30"/>
<feGaussianBlur stdDeviation="2"/>
<feComposite in2="hardAlpha" operator="arithmetic" k2="-1" k3="1"/>
<feColorMatrix type="matrix" values="0 0 0 0 0 0 0 0 0 0 0 0 0 0 0 0 0 0 1 0"/>
<feBlend mode="normal" in2="shape" result="effect1_innerShadow_2969_1452"/>
</filter>
<filter id="filter3_i_2969_1452" x="31" y="334" width="335" height="72" filterUnits="userSpaceOnUse" color-interpolation-filters="sRGB">
<feFlood flood-opacity="0" result="BackgroundImageFix"/>
<feBlend mode="normal" in="SourceGraphic" in2="BackgroundImageFix" result="shape"/>
<feColorMatrix in="SourceAlpha" type="matrix" values="0 0 0 0 0 0 0 0 0 0 0 0 0 0 0 0 0 0 127 0" result="hardAlpha"/>
<feOffset dy="-30"/>
<feGaussianBlur stdDeviation="2"/>
<feComposite in2="hardAlpha" operator="arithmetic" k2="-1" k3="1"/>
<feColorMatrix type="matrix" values="0 0 0 0 0 0 0 0 0 0 0 0 0 0 0 0 0 0 1 0"/>
<feBlend mode="normal" in2="shape" result="effect1_innerShadow_2969_1452"/>
</filter>
<linearGradient id="paint0_linear_2969_1452" x1="195" y1="0" x2="195" y2="844" gradientUnits="userSpaceOnUse">
<stop stop-color="#121212"/>
<stop offset="1" stop-color="#2A2A2A"/>
</linearGradient>
<linearGradient id="paint1_linear_2969_1452" x1="39.5" y1="44.6011" x2="39.5" y2="81.1816" gradientUnits="userSpaceOnUse">
<stop stop-color="#979797"/>
<stop offset="0.01" stop-color="#AEAEAE"/>
<stop offset="0.03" stop-color="#CBCBCB"/>
<stop offset="0.06" stop-color="#E1E1E1"/>
<stop offset="0.08" stop-color="#F1F1F1"/>
<stop offset="0.11" stop-color="#FBFBFB"/>
<stop offset="0.15" stop-color="#FEFEFE"/>
<stop offset="0.29" stop-color="#DCDCDC"/>
<stop offset="0.48" stop-color="#7D7D7D"/>
<stop offset="0.62" stop-color="#5A5A5A"/>
<stop offset="0.76" stop-color="#7D7D7D"/>
<stop offset="0.9" stop-color="#C4C4C4"/>
<stop offset="0.95" stop-color="#E0E0E0"/>
<stop offset="1" stop-color="#F8F8F8"/>
</linearGradient>
<linearGradient id="paint2_linear_2969_1452" x1="38.71" y1="57.2901" x2="38.71" y2="68.9698" gradientUnits="userSpaceOnUse">
<stop stop-color="#979797"/>
<stop offset="0.01" stop-color="#AEAEAE"/>
<stop offset="0.03" stop-color="#CBCBCB"/>
<stop offset="0.06" stop-color="#E1E1E1"/>
<stop offset="0.08" stop-color="#F1F1F1"/>
<stop offset="0.11" stop-color="#FBFBFB"/>
<stop offset="0.15" stop-color="#FEFEFE"/>
<stop offset="0.29" stop-color="#DCDCDC"/>
<stop offset="0.48" stop-color="#7D7D7D"/>
<stop offset="0.62" stop-color="#5A5A5A"/>
<stop offset="0.76" stop-color="#7D7D7D"/>
<stop offset="0.9" stop-color="#C4C4C4"/>
<stop offset="0.95" stop-color="#E0E0E0"/>
<stop offset="1" stop-color="#F8F8F8"/>
</linearGradient>
<linearGradient id="paint3_linear_2969_1452" x1="194.5" y1="441.316" x2="194.5" y2="504.026" gradientUnits="userSpaceOnUse">
<stop stop-color="#979797"/>
<stop offset="0.01" stop-color="#AEAEAE"/>
<stop offset="0.03" stop-color="#CBCBCB"/>
<stop offset="0.06" stop-color="#E1E1E1"/>
<stop offset="0.08" stop-color="#F1F1F1"/>
<stop offset="0.11" stop-color="#FBFBFB"/>
<stop offset="0.15" stop-color="#FEFEFE"/>
<stop offset="0.29" stop-color="#DCDCDC"/>
<stop offset="0.48" stop-color="#7D7D7D"/>
<stop offset="0.62" stop-color="#5A5A5A"/>
<stop offset="0.76" stop-color="#7D7D7D"/>
<stop offset="0.9" stop-color="#C4C4C4"/>
<stop offset="0.95" stop-color="#E0E0E0"/>
<stop offset="1" stop-color="#F8F8F8"/>
</linearGradient>
<linearGradient id="paint4_linear_2969_1452" x1="198.5" y1="341.316" x2="198.5" y2="404.026" gradientUnits="userSpaceOnUse">
<stop stop-color="#979797"/>
<stop offset="0.01" stop-color="#AEAEAE"/>
<stop offset="0.03" stop-color="#CBCBCB"/>
<stop offset="0.06" stop-color="#E1E1E1"/>
<stop offset="0.08" stop-color="#F1F1F1"/>
<stop offset="0.11" stop-color="#FBFBFB"/>
<stop offset="0.15" stop-color="#FEFEFE"/>
<stop offset="0.29" stop-color="#DCDCDC"/>
<stop offset="0.48" stop-color="#7D7D7D"/>
<stop offset="0.62" stop-color="#5A5A5A"/>
<stop offset="0.76" stop-color="#7D7D7D"/>
<stop offset="0.9" stop-color="#C4C4C4"/>
<stop offset="0.95" stop-color="#E0E0E0"/>
<stop offset="1" stop-color="#F8F8F8"/>
</linearGradient>
<clipPath id="clip0_2969_1452">
<rect width="390" height="844" fill="white"/>
</clipPath>
</defs>
</svg>
