<svg width="37" height="37" viewBox="0 0 37 37" fill="none" xmlns="http://www.w3.org/2000/svg">
<g filter="url(#filter0_i_2123_1456)">
<rect x="1" y="1" width="35" height="35" rx="6" fill="#2D2D2D"/>
</g>
<rect x="1" y="1" width="35" height="35" rx="6" stroke="url(#paint0_linear_2123_1456)" stroke-width="2"/>
<path d="M26.1167 12.3583L24.9583 10.9583C24.7333 10.675 24.3917 10.5 24 10.5H14C13.6083 10.5 13.2667 10.675 13.0333 10.9583L11.8833 12.3583C11.6417 12.6417 11.5 13.0167 11.5 13.4167V23.8333C11.5 24.75 12.25 25.5 13.1667 25.5H24.8333C25.75 25.5 26.5 24.75 26.5 23.8333V13.4167C26.5 13.0167 26.3583 12.6417 26.1167 12.3583ZM19 22.5833L14.4167 18H17.3333V16.3333H20.6667V18H23.5833L19 22.5833ZM13.2667 12.1667L13.9417 11.3333H23.9417L24.725 12.1667H13.2667Z" fill="url(#paint1_linear_2123_1456)"/>
<defs>
<filter id="filter0_i_2123_1456" x="0" y="-4" width="37" height="41" filterUnits="userSpaceOnUse" color-interpolation-filters="sRGB">
<feFlood flood-opacity="0" result="BackgroundImageFix"/>
<feBlend mode="normal" in="SourceGraphic" in2="BackgroundImageFix" result="shape"/>
<feColorMatrix in="SourceAlpha" type="matrix" values="0 0 0 0 0 0 0 0 0 0 0 0 0 0 0 0 0 0 127 0" result="hardAlpha"/>
<feOffset dy="-20"/>
<feGaussianBlur stdDeviation="2"/>
<feComposite in2="hardAlpha" operator="arithmetic" k2="-1" k3="1"/>
<feColorMatrix type="matrix" values="0 0 0 0 0 0 0 0 0 0 0 0 0 0 0 0 0 0 1 0"/>
<feBlend mode="normal" in2="shape" result="effect1_innerShadow_2123_1456"/>
</filter>
<linearGradient id="paint0_linear_2123_1456" x1="18.5" y1="0.601068" x2="18.5" y2="37.1816" gradientUnits="userSpaceOnUse">
<stop stop-color="#979797"/>
<stop offset="0.01" stop-color="#AEAEAE"/>
<stop offset="0.03" stop-color="#CBCBCB"/>
<stop offset="0.06" stop-color="#E1E1E1"/>
<stop offset="0.08" stop-color="#F1F1F1"/>
<stop offset="0.11" stop-color="#FBFBFB"/>
<stop offset="0.15" stop-color="#FEFEFE"/>
<stop offset="0.29" stop-color="#DCDCDC"/>
<stop offset="0.48" stop-color="#7D7D7D"/>
<stop offset="0.62" stop-color="#5A5A5A"/>
<stop offset="0.76" stop-color="#7D7D7D"/>
<stop offset="0.9" stop-color="#C4C4C4"/>
<stop offset="0.95" stop-color="#E0E0E0"/>
<stop offset="1" stop-color="#F8F8F8"/>
</linearGradient>
<linearGradient id="paint1_linear_2123_1456" x1="19" y1="10.329" x2="19" y2="26.0064" gradientUnits="userSpaceOnUse">
<stop stop-color="#979797"/>
<stop offset="0.01" stop-color="#AEAEAE"/>
<stop offset="0.03" stop-color="#CBCBCB"/>
<stop offset="0.06" stop-color="#E1E1E1"/>
<stop offset="0.08" stop-color="#F1F1F1"/>
<stop offset="0.11" stop-color="#FBFBFB"/>
<stop offset="0.15" stop-color="#FEFEFE"/>
<stop offset="0.29" stop-color="#DCDCDC"/>
<stop offset="0.48" stop-color="#7D7D7D"/>
<stop offset="0.62" stop-color="#5A5A5A"/>
<stop offset="0.76" stop-color="#7D7D7D"/>
<stop offset="0.9" stop-color="#C4C4C4"/>
<stop offset="0.95" stop-color="#E0E0E0"/>
<stop offset="1" stop-color="#F8F8F8"/>
</linearGradient>
</defs>
</svg>
