<svg width="64" height="64" viewBox="0 0 64 64" fill="none" xmlns="http://www.w3.org/2000/svg">
<g filter="url(#filter0_i_2123_6015)">
<path d="M2 30.4907C2 14.7557 14.7557 2 30.4907 2H33.5093C49.2443 2 62 14.7557 62 30.4907V33.5093C62 49.2443 49.2443 62 33.5093 62H30.4907C14.7557 62 2 49.2443 2 33.5093V30.4907Z" fill="#2D2D2D"/>
</g>
<path d="M30.4907 1C14.2034 1 1 14.2034 1 30.4907V33.5093C1 49.7966 14.2034 63 30.4907 63H33.5093C49.7966 63 63 49.7966 63 33.5093V30.4907C63 14.2034 49.7966 1 33.5093 1H30.4907Z" stroke="url(#paint0_linear_2123_6015)" stroke-width="2"/>
<path fill-rule="evenodd" clip-rule="evenodd" d="M28.3995 24.98L19.9995 32L28.3995 39.02V34.4001H42.7996V29.6001H28.3995V24.98Z" fill="url(#paint1_linear_2123_6015)"/>
<defs>
<filter id="filter0_i_2123_6015" x="0" y="-4" width="64" height="68" filterUnits="userSpaceOnUse" color-interpolation-filters="sRGB">
<feFlood flood-opacity="0" result="BackgroundImageFix"/>
<feBlend mode="normal" in="SourceGraphic" in2="BackgroundImageFix" result="shape"/>
<feColorMatrix in="SourceAlpha" type="matrix" values="0 0 0 0 0 0 0 0 0 0 0 0 0 0 0 0 0 0 127 0" result="hardAlpha"/>
<feOffset dy="-15"/>
<feGaussianBlur stdDeviation="2"/>
<feComposite in2="hardAlpha" operator="arithmetic" k2="-1" k3="1"/>
<feColorMatrix type="matrix" values="0 0 0 0 0 0 0 0 0 0 0 0 0 0 0 0 0 0 1 0"/>
<feBlend mode="normal" in2="shape" result="effect1_innerShadow_2123_6015"/>
</filter>
<linearGradient id="paint0_linear_2123_6015" x1="32" y1="1.31612" x2="32" y2="64.0257" gradientUnits="userSpaceOnUse">
<stop stop-color="#979797"/>
<stop offset="0.01" stop-color="#AEAEAE"/>
<stop offset="0.03" stop-color="#CBCBCB"/>
<stop offset="0.06" stop-color="#E1E1E1"/>
<stop offset="0.08" stop-color="#F1F1F1"/>
<stop offset="0.11" stop-color="#FBFBFB"/>
<stop offset="0.15" stop-color="#FEFEFE"/>
<stop offset="0.29" stop-color="#DCDCDC"/>
<stop offset="0.48" stop-color="#7D7D7D"/>
<stop offset="0.62" stop-color="#5A5A5A"/>
<stop offset="0.76" stop-color="#7D7D7D"/>
<stop offset="0.9" stop-color="#C4C4C4"/>
<stop offset="0.95" stop-color="#E0E0E0"/>
<stop offset="1" stop-color="#F8F8F8"/>
</linearGradient>
<linearGradient id="paint1_linear_2123_6015" x1="31.3996" y1="24.82" x2="31.3996" y2="39.494" gradientUnits="userSpaceOnUse">
<stop stop-color="#979797"/>
<stop offset="0.01" stop-color="#AEAEAE"/>
<stop offset="0.03" stop-color="#CBCBCB"/>
<stop offset="0.06" stop-color="#E1E1E1"/>
<stop offset="0.08" stop-color="#F1F1F1"/>
<stop offset="0.11" stop-color="#FBFBFB"/>
<stop offset="0.15" stop-color="#FEFEFE"/>
<stop offset="0.29" stop-color="#DCDCDC"/>
<stop offset="0.48" stop-color="#7D7D7D"/>
<stop offset="0.62" stop-color="#5A5A5A"/>
<stop offset="0.76" stop-color="#7D7D7D"/>
<stop offset="0.9" stop-color="#C4C4C4"/>
<stop offset="0.95" stop-color="#E0E0E0"/>
<stop offset="1" stop-color="#F8F8F8"/>
</linearGradient>
</defs>
</svg>
