<svg width="25" height="24" viewBox="0 0 25 24" fill="none" xmlns="http://www.w3.org/2000/svg">
<path fill-rule="evenodd" clip-rule="evenodd" d="M9.59907 0H15.7545L16.016 1.33474V1.33952L16.4466 3.4684C17.0573 3.74268 17.6266 4.08394 18.1497 4.46826L20.2945 3.7379L21.5639 3.33764L22.2288 4.49696L23.9622 7.45347L24.64 8.63831L23.6305 9.53611L22.0215 10.9298C22.0726 11.244 22.1188 11.5964 22.1188 11.96C22.1188 12.3236 22.071 12.6776 22.0231 12.9902L23.6369 14.3903L24.64 15.2817L23.9575 16.4745L22.2288 19.423L21.5639 20.5871L20.277 20.1757L18.1497 19.4517C17.6188 19.8441 17.0479 20.1792 16.4466 20.4516L16.016 22.5805V22.5853L15.7577 23.92H9.60226L9.34233 22.5821L8.91177 20.4516C8.31044 20.1792 7.73957 19.8441 7.20867 19.4517L5.06703 20.1805L3.79289 20.5871L3.13111 19.423L1.39611 16.4649L0.719971 15.2817L1.7278 14.3839L3.33522 12.9886C3.27609 12.6488 3.24409 12.3048 3.23954 11.96C3.23954 11.598 3.28738 11.2424 3.33682 10.9314L1.71983 9.52813L0.719971 8.6399L1.3993 7.44709L3.12951 4.49696L3.7913 3.33604L5.07979 3.74428L7.20707 4.46826C7.73796 4.0759 8.30884 3.74075 8.91018 3.4684L9.34074 1.33633L9.59907 0ZM12.68 7.97333C10.5176 7.97333 8.76506 9.75936 8.76506 11.96C8.76506 14.1606 10.5192 15.9467 12.6784 15.9467C14.8391 15.9467 16.5917 14.1606 16.5917 11.96C16.5917 9.75936 14.8376 7.97333 12.68 7.97333Z" fill="url(#paint0_linear_2123_4003)"/>
<defs>
<linearGradient id="paint0_linear_2123_4003" x1="12.68" y1="-0.272642" x2="12.68" y2="24.7276" gradientUnits="userSpaceOnUse">
<stop stop-color="#979797"/>
<stop offset="0.01" stop-color="#AEAEAE"/>
<stop offset="0.03" stop-color="#CBCBCB"/>
<stop offset="0.06" stop-color="#E1E1E1"/>
<stop offset="0.08" stop-color="#F1F1F1"/>
<stop offset="0.11" stop-color="#FBFBFB"/>
<stop offset="0.15" stop-color="#FEFEFE"/>
<stop offset="0.29" stop-color="#DCDCDC"/>
<stop offset="0.48" stop-color="#7D7D7D"/>
<stop offset="0.62" stop-color="#5A5A5A"/>
<stop offset="0.76" stop-color="#7D7D7D"/>
<stop offset="0.9" stop-color="#C4C4C4"/>
<stop offset="0.95" stop-color="#E0E0E0"/>
<stop offset="1" stop-color="#F8F8F8"/>
</linearGradient>
</defs>
</svg>
