<svg width="25" height="24" viewBox="0 0 25 24" fill="none" xmlns="http://www.w3.org/2000/svg">
<path d="M3.81258 20.4667C5.27369 21.9268 7.62183 21.9268 12.3201 21.9268C17.0184 21.9268 19.3676 21.9268 20.8267 20.4667C22.0934 19.201 22.2619 17.2644 22.2838 13.7043H19.1373C18.1666 13.7043 17.9124 13.7203 17.7001 13.818C17.4868 13.9166 17.3094 14.099 16.6775 14.8346L16.0746 15.5392L15.9869 15.6409C15.4865 16.2259 15.0899 16.6894 14.5417 16.9415C13.9935 17.1937 13.3836 17.1937 12.6141 17.1927H12.0271C11.2567 17.1927 10.6467 17.1947 10.0986 16.9415C9.55038 16.6894 9.15371 16.2259 8.65339 15.6409L8.56568 15.5392L7.9627 14.8356C7.33081 14.098 7.1534 13.9166 6.94012 13.819C6.72783 13.7203 6.47368 13.7043 5.50292 13.7043H2.35645C2.37937 17.2644 2.54581 19.201 3.81258 20.4667Z" fill="white"/>
<path d="M20.8267 3.45253C19.3686 1.99341 17.0185 1.99341 12.3202 1.99341C7.6219 1.99341 5.27275 1.99341 3.81264 3.45253C2.35352 4.91364 2.35352 7.26179 2.35352 11.9601V12.2092H5.63753C6.40696 12.2092 7.01692 12.2072 7.56509 12.4604C8.11325 12.7126 8.50993 13.176 9.01025 13.7611L9.09796 13.8627L9.70094 14.5664C10.3328 15.3039 10.5102 15.4853 10.7235 15.583C10.9358 15.6816 11.19 15.6976 12.1607 15.6976H12.4796C13.4504 15.6976 13.7046 15.6816 13.9168 15.584C14.1301 15.4853 14.3075 15.3029 14.9394 14.5674L15.5424 13.8627L15.6301 13.7611C16.1304 13.176 16.5271 12.7126 17.0753 12.4604C17.6234 12.2072 18.2334 12.2082 19.0028 12.2092H22.2869V11.9601C22.2869 7.26179 22.2869 4.91264 20.8267 3.45253Z" fill="url(#paint0_linear_2123_4111)"/>
<defs>
<linearGradient id="paint0_linear_2123_4111" x1="12.3202" y1="1.83721" x2="12.3202" y2="16.1602" gradientUnits="userSpaceOnUse">
<stop stop-color="#979797"/>
<stop offset="0.01" stop-color="#AEAEAE"/>
<stop offset="0.03" stop-color="#CBCBCB"/>
<stop offset="0.06" stop-color="#E1E1E1"/>
<stop offset="0.08" stop-color="#F1F1F1"/>
<stop offset="0.11" stop-color="#FBFBFB"/>
<stop offset="0.15" stop-color="#FEFEFE"/>
<stop offset="0.29" stop-color="#DCDCDC"/>
<stop offset="0.48" stop-color="#7D7D7D"/>
<stop offset="0.62" stop-color="#5A5A5A"/>
<stop offset="0.76" stop-color="#7D7D7D"/>
<stop offset="0.9" stop-color="#C4C4C4"/>
<stop offset="0.95" stop-color="#E0E0E0"/>
<stop offset="1" stop-color="#F8F8F8"/>
</linearGradient>
</defs>
</svg>
