<svg width="82" height="82" viewBox="0 0 82 82" fill="none" xmlns="http://www.w3.org/2000/svg">
<g id="fluent-mdl2:completed-solid" clip-path="url(#clip0_2123_4485)">
<path id="Vector" d="M41 0C44.7637 0 48.3939 0.480469 51.8906 1.44141C55.3874 2.40234 58.6439 3.79036 61.6602 5.60547C64.6764 7.42057 67.4391 9.55599 69.9482 12.0117C72.4574 14.4674 74.6061 17.2301 76.3945 20.2998C78.1829 23.3695 79.5576 26.6393 80.5186 30.1094C81.4795 33.5794 81.9733 37.2096 82 41C82 44.7637 81.5195 48.3939 80.5586 51.8906C79.5977 55.3874 78.2096 58.6439 76.3945 61.6602C74.5794 64.6764 72.444 67.4391 69.9883 69.9482C67.5326 72.4574 64.7699 74.6061 61.7002 76.3945C58.6305 78.1829 55.3607 79.5576 51.8906 80.5186C48.4206 81.4795 44.7904 81.9733 41 82C37.2363 82 33.6061 81.5195 30.1094 80.5586C26.6126 79.5977 23.3561 78.2096 20.3398 76.3945C17.3236 74.5794 14.5609 72.444 12.0518 69.9883C9.54264 67.5326 7.39388 64.7699 5.60547 61.7002C3.81706 58.6305 2.44238 55.3607 1.48145 51.8906C0.520508 48.4206 0.0266927 44.7904 0 41C0 37.2363 0.480469 33.6061 1.44141 30.1094C2.40234 26.6126 3.79036 23.3561 5.60547 20.3398C7.42057 17.3236 9.55599 14.5609 12.0117 12.0518C14.4674 9.54264 17.2301 7.39388 20.2998 5.60547C23.3695 3.81706 26.6393 2.44238 30.1094 1.48145C33.5794 0.520508 37.2096 0.0266927 41 0ZM65.1436 27.4268L59.6982 21.9814L33.3125 48.3672L22.3018 37.3564L16.8564 42.8018L33.3125 59.2578L65.1436 27.4268Z" fill="url(#paint0_linear_2123_4485)"/>
</g>
<defs>
<linearGradient id="paint0_linear_2123_4485" x1="41" y1="-0.934641" x2="41" y2="84.7684" gradientUnits="userSpaceOnUse">
<stop stop-color="#979797"/>
<stop offset="0.01" stop-color="#AEAEAE"/>
<stop offset="0.03" stop-color="#CBCBCB"/>
<stop offset="0.06" stop-color="#E1E1E1"/>
<stop offset="0.08" stop-color="#F1F1F1"/>
<stop offset="0.11" stop-color="#FBFBFB"/>
<stop offset="0.15" stop-color="#FEFEFE"/>
<stop offset="0.29" stop-color="#DCDCDC"/>
<stop offset="0.48" stop-color="#7D7D7D"/>
<stop offset="0.62" stop-color="#5A5A5A"/>
<stop offset="0.76" stop-color="#7D7D7D"/>
<stop offset="0.9" stop-color="#C4C4C4"/>
<stop offset="0.95" stop-color="#E0E0E0"/>
<stop offset="1" stop-color="#F8F8F8"/>
</linearGradient>
<clipPath id="clip0_2123_4485">
<rect width="82" height="82" fill="white"/>
</clipPath>
</defs>
</svg>
