<svg width="24" height="24" viewBox="0 0 24 24" fill="none" xmlns="http://www.w3.org/2000/svg">
<g id="basil:bag-outline">
<path id="Vector" fill-rule="evenodd" clip-rule="evenodd" d="M7.24991 6.63092V5.46092C7.25005 5.04195 7.4005 4.63693 7.67392 4.31946C7.94734 4.002 8.32558 3.79317 8.73991 3.73092L9.95991 3.54792C11.3123 3.34503 12.6875 3.34503 14.0399 3.54792L15.2599 3.73092C15.6742 3.79317 16.0525 4.002 16.3259 4.31946C16.5993 4.63693 16.7498 5.04195 16.7499 5.46092V6.63092L18.4639 6.76892C19.1016 6.82044 19.7036 7.08429 20.1737 7.51829C20.6438 7.95228 20.9547 8.53136 21.0569 9.16292C21.5221 12.0355 21.5221 14.9643 21.0569 17.8369C20.9547 18.4685 20.6438 19.0476 20.1737 19.4816C19.7036 19.9156 19.1016 20.1794 18.4639 20.2309L16.5919 20.3809C13.5355 20.6276 10.4643 20.6276 7.40791 20.3809L5.53591 20.2309C4.89821 20.1794 4.29619 19.9156 3.82612 19.4816C3.35605 19.0476 3.04507 18.4685 2.94291 17.8369C2.47769 14.9643 2.47769 12.0355 2.94291 9.16292C3.04528 8.53154 3.35634 7.95269 3.8264 7.5189C4.29645 7.0851 4.89835 6.82139 5.53591 6.76992L7.24991 6.63092ZM10.1829 5.03092C11.3875 4.85025 12.6123 4.85025 13.8169 5.03092L15.0369 5.21393C15.0961 5.22278 15.1501 5.25258 15.1892 5.29791C15.2283 5.34323 15.2498 5.40107 15.2499 5.46092V6.52592C13.085 6.40246 10.9148 6.40246 8.74991 6.52592V5.45992C8.74997 5.40007 8.77149 5.34223 8.81058 5.29691C8.84967 5.25158 8.90372 5.22178 8.96291 5.21292L10.1829 5.03092ZM7.52891 8.11292C10.5049 7.87292 13.4949 7.87292 16.4709 8.11292L18.3429 8.26493C18.6463 8.2892 18.9327 8.41451 19.1564 8.62082C19.3801 8.82714 19.5282 9.10252 19.5769 9.40292C19.6389 9.78792 19.6919 10.1729 19.7369 10.5609C17.3299 11.7459 14.6828 12.3622 11.9999 12.3622C9.317 12.3622 6.66993 11.7459 4.26291 10.5609C4.30691 10.1739 4.36091 9.78792 4.42291 9.40292C4.47161 9.10252 4.61967 8.82714 4.84338 8.62082C5.0671 8.41451 5.35355 8.2892 5.65691 8.26493L7.52891 8.11292ZM4.12891 12.1569C6.60076 13.2807 9.28459 13.8622 11.9999 13.8622C14.7152 13.8622 17.3991 13.2807 19.8709 12.1569C19.9665 13.9756 19.8679 15.7992 19.5769 17.5969C19.5284 17.8975 19.3804 18.1731 19.1567 18.3796C18.933 18.5861 18.6464 18.7116 18.3429 18.7359L16.4709 18.8859C13.4949 19.1259 10.5049 19.1259 7.52891 18.8859L5.65691 18.7359C5.35341 18.7116 5.06685 18.5861 4.84311 18.3796C4.61938 18.1731 4.47141 17.8975 4.42291 17.5969C4.13191 15.7969 4.03291 13.9729 4.12891 12.1569Z" fill="url(#paint0_linear_2123_5500)"/>
</g>
<defs>
<linearGradient id="paint0_linear_2123_5500" x1="11.9999" y1="3.20004" x2="11.9999" y2="21.1456" gradientUnits="userSpaceOnUse">
<stop stop-color="#979797"/>
<stop offset="0.01" stop-color="#AEAEAE"/>
<stop offset="0.03" stop-color="#CBCBCB"/>
<stop offset="0.06" stop-color="#E1E1E1"/>
<stop offset="0.08" stop-color="#F1F1F1"/>
<stop offset="0.11" stop-color="#FBFBFB"/>
<stop offset="0.15" stop-color="#FEFEFE"/>
<stop offset="0.29" stop-color="#DCDCDC"/>
<stop offset="0.48" stop-color="#7D7D7D"/>
<stop offset="0.62" stop-color="#5A5A5A"/>
<stop offset="0.76" stop-color="#7D7D7D"/>
<stop offset="0.9" stop-color="#C4C4C4"/>
<stop offset="0.95" stop-color="#E0E0E0"/>
<stop offset="1" stop-color="#F8F8F8"/>
</linearGradient>
</defs>
</svg>
