<svg width="24" height="24" viewBox="0 0 24 24" fill="none" xmlns="http://www.w3.org/2000/svg">
<g id="fluent:signature-20-filled">
<path id="Vector" d="M14.4253 3.32651C14.6965 3.04862 15.0201 2.82732 15.3774 2.67543C15.7348 2.52355 16.1187 2.44411 16.507 2.44171C16.8953 2.43931 17.2801 2.514 17.6393 2.66145C17.9985 2.8089 18.3249 3.02618 18.5995 3.3007C18.8741 3.57521 19.0915 3.9015 19.239 4.26065C19.3866 4.6198 19.4614 5.00467 19.4591 5.39294C19.4568 5.78121 19.3775 6.16517 19.2257 6.52256C19.0739 6.87994 18.8527 7.20365 18.5749 7.47491L17.0485 9.00011L17.1517 9.10331C17.3746 9.32618 17.5515 9.5908 17.6722 9.88204C17.7929 10.1733 17.855 10.4855 17.855 10.8007C17.855 11.116 17.7929 11.4281 17.6722 11.7194C17.5515 12.0106 17.3746 12.2752 17.1517 12.4981L15.4237 14.2249C15.3105 14.3342 15.159 14.3947 15.0016 14.3933C14.8443 14.3919 14.6938 14.3288 14.5826 14.2176C14.4713 14.1064 14.4082 13.9559 14.4069 13.7985C14.4055 13.6412 14.466 13.4897 14.5753 13.3765L16.3033 11.6485C16.5282 11.4235 16.6546 11.1183 16.6546 10.8001C16.6546 10.4819 16.5282 10.1767 16.3033 9.95171L16.2001 9.84851L8.22488 17.8249C8.14767 17.9017 8.05102 17.9561 7.94528 17.9821L3.14528 19.1821C3.04105 19.208 2.93177 19.2054 2.82887 19.1747C2.72596 19.1439 2.6332 19.0861 2.56025 19.0073C2.48731 18.9285 2.43686 18.8315 2.41417 18.7265C2.39149 18.6216 2.39739 18.5124 2.43128 18.4105L3.93128 13.9105C3.96053 13.8224 4.00982 13.7423 4.07528 13.6765L14.4265 3.32651H14.4253ZM3.92168 20.2861C3.90163 20.271 3.88163 20.2558 3.86168 20.2405L5.47928 19.8361C6.12488 20.1601 6.90488 20.4001 7.80008 20.4001C8.40848 20.4001 9.01688 20.1877 9.64088 19.8325C10.2673 19.4749 10.8697 18.9985 11.4721 18.5101L11.6281 18.3829C12.1621 17.9473 12.7105 17.5009 13.2325 17.1925C13.7989 16.8589 14.4853 16.5961 15.1897 16.8325C16.1761 17.1601 16.4869 18.0673 16.7749 19.0285C16.8409 19.2481 16.9537 19.4653 17.0869 19.6153C17.2201 19.7653 17.3269 19.8001 17.4001 19.8001C17.6245 19.8001 17.9473 19.6789 18.3565 19.4365C18.6157 19.2841 18.8401 19.1293 19.0621 18.9757C19.1977 18.8809 19.3333 18.7885 19.4737 18.6973C19.8553 18.4501 20.1841 18.2845 20.4217 18.1801C20.5435 18.1267 20.6676 18.0786 20.7937 18.0361L20.8177 18.0289L20.8273 18.0265L20.8309 18.0253L21.0001 18.6013L20.8321 18.0253C20.9831 17.9855 21.1437 18.0061 21.2798 18.0829C21.4158 18.1596 21.5166 18.2864 21.5607 18.4362C21.6047 18.5861 21.5886 18.7472 21.5158 18.8854C21.4429 19.0235 21.319 19.1278 21.1705 19.1761L21.1621 19.1785L21.1141 19.1953C21.0435 19.2209 20.9739 19.2489 20.9053 19.2793C20.7193 19.3609 20.4493 19.4953 20.1265 19.7041C20.0425 19.7593 19.9333 19.8337 19.8109 19.9177C19.5613 20.0893 19.2529 20.3017 18.9661 20.4697C18.5317 20.7265 17.9701 21.0001 17.4001 21.0001C16.8721 21.0001 16.4641 20.7217 16.1905 20.4121C15.9302 20.1099 15.7375 19.7556 15.6253 19.3729C15.3097 18.3217 15.1285 18.0769 14.8093 17.9689C14.6149 17.9053 14.3257 17.9413 13.8421 18.2269C13.4029 18.4861 12.9253 18.8749 12.3685 19.3273L12.2281 19.4413C11.6305 19.9273 10.9585 20.4625 10.2349 20.8753C9.50888 21.2881 8.69168 21.6001 7.80008 21.6001C6.13448 21.6001 4.81328 20.9341 3.92168 20.2861Z" fill="url(#paint0_linear_2123_5513)"/>
</g>
<defs>
<linearGradient id="paint0_linear_2123_5513" x1="11.9928" y1="2.22328" x2="11.9928" y2="22.2469" gradientUnits="userSpaceOnUse">
<stop stop-color="#979797"/>
<stop offset="0.01" stop-color="#AEAEAE"/>
<stop offset="0.03" stop-color="#CBCBCB"/>
<stop offset="0.06" stop-color="#E1E1E1"/>
<stop offset="0.08" stop-color="#F1F1F1"/>
<stop offset="0.11" stop-color="#FBFBFB"/>
<stop offset="0.15" stop-color="#FEFEFE"/>
<stop offset="0.29" stop-color="#DCDCDC"/>
<stop offset="0.48" stop-color="#7D7D7D"/>
<stop offset="0.62" stop-color="#5A5A5A"/>
<stop offset="0.76" stop-color="#7D7D7D"/>
<stop offset="0.9" stop-color="#C4C4C4"/>
<stop offset="0.95" stop-color="#E0E0E0"/>
<stop offset="1" stop-color="#F8F8F8"/>
</linearGradient>
</defs>
</svg>
