<svg width="42" height="42" viewBox="0 0 42 42" fill="none" xmlns="http://www.w3.org/2000/svg">
<g filter="url(#filter0_i_2899_123)">
<rect x="2" y="2" width="37.998" height="37.998" rx="18.999" fill="#2D2D2D"/>
</g>
<rect x="1" y="1" width="39.998" height="39.998" rx="19.999" stroke="url(#paint0_linear_2899_123)" stroke-width="2"/>
<path d="M30.0935 16.5373L26.2123 12.656C25.7903 12.2341 25.2181 11.9971 24.6213 11.9971C24.0246 11.9971 23.4524 12.2341 23.0304 12.656L11.906 23.7804C11.4841 24.2024 11.2471 24.7746 11.2471 25.3713C11.2471 25.9681 11.4841 26.5403 11.906 26.9623L14.7242 29.7804C14.7941 29.8503 14.8771 29.9056 14.9685 29.9432C15.0599 29.9809 15.1578 30.0001 15.2567 29.9998H29.2498C29.4487 29.9998 29.6395 29.9208 29.7801 29.7801C29.9208 29.6395 29.9998 29.4487 29.9998 29.2498C29.9998 29.0509 29.9208 28.8601 29.7801 28.7194C29.6395 28.5788 29.4487 28.4998 29.2498 28.4998H21.3092L30.0935 19.7192C30.5155 19.2972 30.7525 18.7249 30.7525 18.1282C30.7525 17.5315 30.5155 16.9592 30.0935 16.5373ZM19.1885 28.4998H15.567L12.9682 25.901C12.8277 25.7604 12.7487 25.5697 12.7487 25.3709C12.7487 25.172 12.8277 24.9814 12.9682 24.8407L17.9998 19.8101L22.9395 24.7498L19.1885 28.4998ZM29.0323 18.656L23.9998 23.6895L19.0601 18.7498L24.0935 13.7192C24.1632 13.6494 24.2459 13.5941 24.3369 13.5564C24.428 13.5186 24.5256 13.4992 24.6242 13.4992C24.7227 13.4992 24.8203 13.5186 24.9114 13.5564C25.0024 13.5941 25.0851 13.6494 25.1548 13.7192L29.0342 17.5985C29.1747 17.7392 29.2536 17.9299 29.2536 18.1287C29.2536 18.3275 29.1747 18.5182 29.0342 18.6588L29.0323 18.656Z" fill="url(#paint1_linear_2899_123)"/>
<defs>
<filter id="filter0_i_2899_123" x="0" y="-4" width="41.998" height="45.998" filterUnits="userSpaceOnUse" color-interpolation-filters="sRGB">
<feFlood flood-opacity="0" result="BackgroundImageFix"/>
<feBlend mode="normal" in="SourceGraphic" in2="BackgroundImageFix" result="shape"/>
<feColorMatrix in="SourceAlpha" type="matrix" values="0 0 0 0 0 0 0 0 0 0 0 0 0 0 0 0 0 0 127 0" result="hardAlpha"/>
<feOffset dy="-15"/>
<feGaussianBlur stdDeviation="2"/>
<feComposite in2="hardAlpha" operator="arithmetic" k2="-1" k3="1"/>
<feColorMatrix type="matrix" values="0 0 0 0 0 0 0 0 0 0 0 0 0 0 0 0 0 0 1 0"/>
<feBlend mode="normal" in2="shape" result="effect1_innerShadow_2899_123"/>
</filter>
<linearGradient id="paint0_linear_2899_123" x1="20.999" y1="1.5669" x2="20.999" y2="41.2809" gradientUnits="userSpaceOnUse">
<stop stop-color="#979797"/>
<stop offset="0.01" stop-color="#AEAEAE"/>
<stop offset="0.03" stop-color="#CBCBCB"/>
<stop offset="0.06" stop-color="#E1E1E1"/>
<stop offset="0.08" stop-color="#F1F1F1"/>
<stop offset="0.11" stop-color="#FBFBFB"/>
<stop offset="0.15" stop-color="#FEFEFE"/>
<stop offset="0.29" stop-color="#DCDCDC"/>
<stop offset="0.48" stop-color="#7D7D7D"/>
<stop offset="0.62" stop-color="#5A5A5A"/>
<stop offset="0.76" stop-color="#7D7D7D"/>
<stop offset="0.9" stop-color="#C4C4C4"/>
<stop offset="0.95" stop-color="#E0E0E0"/>
<stop offset="1" stop-color="#F8F8F8"/>
</linearGradient>
<linearGradient id="paint1_linear_2899_123" x1="20.9998" y1="11.7919" x2="20.9998" y2="30.6076" gradientUnits="userSpaceOnUse">
<stop stop-color="#979797"/>
<stop offset="0.01" stop-color="#AEAEAE"/>
<stop offset="0.03" stop-color="#CBCBCB"/>
<stop offset="0.06" stop-color="#E1E1E1"/>
<stop offset="0.08" stop-color="#F1F1F1"/>
<stop offset="0.11" stop-color="#FBFBFB"/>
<stop offset="0.15" stop-color="#FEFEFE"/>
<stop offset="0.29" stop-color="#DCDCDC"/>
<stop offset="0.48" stop-color="#7D7D7D"/>
<stop offset="0.62" stop-color="#5A5A5A"/>
<stop offset="0.76" stop-color="#7D7D7D"/>
<stop offset="0.9" stop-color="#C4C4C4"/>
<stop offset="0.95" stop-color="#E0E0E0"/>
<stop offset="1" stop-color="#F8F8F8"/>
</linearGradient>
</defs>
</svg>
