<svg width="40" height="40" viewBox="0 0 40 40" fill="none" xmlns="http://www.w3.org/2000/svg">
<path d="M11.6667 5H8.33333C7.44928 5 6.60143 5.35119 5.97631 5.97631C5.35119 6.60143 5 7.44928 5 8.33333V11.6667M28.3333 5H31.6667C32.5507 5 33.3986 5.35119 34.0237 5.97631C34.6488 6.60143 35 7.44928 35 8.33333V11.6667M26.6667 13.3333V16.6667M13.3333 13.3333V16.6667M15 26.6667C15 26.6667 16.6667 28.3333 20 28.3333C23.3333 28.3333 25 26.6667 25 26.6667M20 13.3333V21.6667H18.3333M11.6667 35H8.33333C7.44928 35 6.60143 34.6488 5.97631 34.0237C5.35119 33.3986 5 32.5507 5 31.6667V28.3333M28.3333 35H31.6667C32.5507 35 33.3986 34.6488 34.0237 34.0237C34.6488 33.3986 35 32.5507 35 31.6667V28.3333" stroke="url(#paint0_linear_5748_1416)" stroke-width="2.5" stroke-linecap="round" stroke-linejoin="round"/>
<defs>
<linearGradient id="paint0_linear_5748_1416" x1="20" y1="4.65806" x2="20" y2="36.0128" gradientUnits="userSpaceOnUse">
<stop stop-color="#979797"/>
<stop offset="0.01" stop-color="#AEAEAE"/>
<stop offset="0.03" stop-color="#CBCBCB"/>
<stop offset="0.06" stop-color="#E1E1E1"/>
<stop offset="0.08" stop-color="#F1F1F1"/>
<stop offset="0.11" stop-color="#FBFBFB"/>
<stop offset="0.15" stop-color="#FEFEFE"/>
<stop offset="0.29" stop-color="#DCDCDC"/>
<stop offset="0.48" stop-color="#7D7D7D"/>
<stop offset="0.62" stop-color="#5A5A5A"/>
<stop offset="0.76" stop-color="#7D7D7D"/>
<stop offset="0.9" stop-color="#C4C4C4"/>
<stop offset="0.95" stop-color="#E0E0E0"/>
<stop offset="1" stop-color="#F8F8F8"/>
</linearGradient>
</defs>
</svg>
