<svg width="227" height="82" viewBox="0 0 227 82" fill="none" xmlns="http://www.w3.org/2000/svg">
<g clip-path="url(#clip0_5199_6821)">
<mask id="path-1-outside-1_5199_6821" maskUnits="userSpaceOnUse" x="5" y="11" width="216" height="60" fill="black">
<rect fill="white" x="5" y="11" width="216" height="60"/>
<path d="M7.06934 31.2324C7.06934 29.0596 7.48438 27.021 8.31445 25.1167C9.14453 23.2124 10.2676 21.5522 11.6836 20.1362C13.124 18.6958 14.7964 17.5605 16.7007 16.7305C18.605 15.9004 20.6436 15.4854 22.8164 15.4854H46.9131V25.9956H22.8164C22.084 25.9956 21.4004 26.1299 20.7656 26.3984C20.1309 26.667 19.5693 27.0454 19.0811 27.5337C18.6172 27.9976 18.251 28.5469 17.9824 29.1816C17.7139 29.8164 17.5796 30.5 17.5796 31.2324C17.5796 31.9648 17.7139 32.6606 17.9824 33.3198C18.251 33.9546 18.6172 34.5161 19.0811 35.0044C19.5693 35.4683 20.1309 35.8345 20.7656 36.103C21.4004 36.3716 22.084 36.5059 22.8164 36.5059H33.3267C35.4995 36.5059 37.5381 36.9209 39.4424 37.751C41.3711 38.5566 43.0435 39.6797 44.4595 41.1201C45.8999 42.5361 47.0229 44.2085 47.8286 46.1372C48.6587 48.0415 49.0737 50.0801 49.0737 52.2529C49.0737 54.4258 48.6587 56.4644 47.8286 58.3687C47.0229 60.2729 45.8999 61.9453 44.4595 63.3857C43.0435 64.8018 41.3711 65.9248 39.4424 66.7549C37.5381 67.585 35.4995 68 33.3267 68H9.99902V57.4897H33.3267C34.0591 57.4897 34.7427 57.3555 35.3774 57.0869C36.0122 56.8184 36.5615 56.4521 37.0254 55.9883C37.5137 55.5 37.8921 54.9385 38.1606 54.3037C38.4292 53.6689 38.5635 52.9854 38.5635 52.2529C38.5635 51.5205 38.4292 50.8369 38.1606 50.2021C37.8921 49.5674 37.5137 49.0181 37.0254 48.5542C36.5615 48.0659 36.0122 47.6875 35.3774 47.4189C34.7427 47.1504 34.0591 47.0161 33.3267 47.0161H22.8164C20.6436 47.0161 18.605 46.6011 16.7007 45.771C14.7964 44.9409 13.124 43.8179 11.6836 42.4019C10.2676 40.9614 9.14453 39.2891 8.31445 37.3848C7.48438 35.4561 7.06934 33.4053 7.06934 31.2324ZM66.4307 68H56.4331V13.1782H66.4307V30.5C67.627 29.5967 68.8599 28.9619 70.1294 28.5957C71.3989 28.2051 72.6929 28.0098 74.0112 28.0098C76.4282 28.0098 78.6987 28.4736 80.8228 29.4014C82.9468 30.3047 84.79 31.562 86.3525 33.1733C87.9395 34.7603 89.1846 36.6279 90.0879 38.7764C91.0156 40.9004 91.4795 43.1709 91.4795 45.5879V68H81.4087V45.5879H81.4819C81.4819 44.5625 81.2866 43.5981 80.896 42.6948C80.5054 41.7671 79.9683 40.9614 79.2847 40.2778C78.6011 39.5942 77.8076 39.0571 76.9043 38.6665C76.001 38.2759 75.0366 38.0806 74.0112 38.0806C72.9614 38.0806 71.9727 38.2759 71.0449 38.6665C70.1172 39.0571 69.3115 39.5942 68.6279 40.2778C67.9443 40.9614 67.4072 41.7671 67.0166 42.6948C66.626 43.5981 66.4307 44.5625 66.4307 45.5879V68ZM128.648 63.4224C127.843 64.1548 126.976 64.8506 126.048 65.5098C125.145 66.1445 124.193 66.7061 123.192 67.1943C122.191 67.6582 121.153 68.0244 120.079 68.293C119.029 68.5859 117.955 68.7324 116.856 68.7324C114.439 68.7324 112.169 68.3052 110.045 67.4507C107.921 66.5962 106.053 65.3877 104.442 63.8252C102.855 62.2383 101.598 60.3218 100.67 58.0757C99.7666 55.8052 99.3149 53.2661 99.3149 50.4585V28.7788H109.276V50.4585C109.276 51.7769 109.471 52.9609 109.862 54.0107C110.277 55.0361 110.826 55.9028 111.51 56.6108C112.193 57.3188 112.987 57.856 113.89 58.2222C114.818 58.5884 115.807 58.7715 116.856 58.7715C117.882 58.7715 118.846 58.5396 119.75 58.0757C120.677 57.5874 121.483 56.9526 122.167 56.1714C122.85 55.3901 123.387 54.5112 123.778 53.5347C124.168 52.5337 124.364 51.5083 124.364 50.4585V28.7788H134.361V68H131.944L128.648 63.4224ZM165.048 68H142.197V58.0391H165.048C165.732 58.0391 166.318 57.7949 166.806 57.3066C167.294 56.8184 167.539 56.2324 167.539 55.5488C167.539 54.8408 167.294 54.377 166.806 54.1572C166.318 53.9375 165.732 53.8276 165.048 53.8276H154.648C152.915 53.8276 151.291 53.498 149.777 52.8389C148.264 52.1797 146.945 51.2886 145.822 50.1655C144.699 49.0181 143.808 47.6875 143.149 46.1738C142.514 44.6602 142.197 43.0366 142.197 41.3032C142.197 39.5698 142.514 37.9463 143.149 36.4326C143.808 34.9189 144.699 33.6006 145.822 32.4775C146.945 31.3545 148.264 30.4756 149.777 29.8408C151.291 29.1816 152.915 28.8521 154.648 28.8521H174.899V38.813H154.648C153.964 38.813 153.378 39.0571 152.89 39.5454C152.402 40.0337 152.158 40.6196 152.158 41.3032C152.158 42.0112 152.402 42.6216 152.89 43.1343C153.378 43.6226 153.964 43.8667 154.648 43.8667H165.048C166.757 43.8667 168.369 44.1597 169.882 44.7456C171.396 45.3071 172.714 46.1006 173.837 47.126C174.96 48.1514 175.852 49.3843 176.511 50.8247C177.17 52.2651 177.5 53.8398 177.5 55.5488C177.5 57.2822 177.17 58.9058 176.511 60.4194C175.852 61.9087 174.96 63.2271 173.837 64.3745C172.714 65.4976 171.396 66.3887 169.882 67.0479C168.369 67.6826 166.757 68 165.048 68ZM194.344 68H184.346V13.1782H194.344V30.5C195.54 29.5967 196.773 28.9619 198.042 28.5957C199.312 28.2051 200.606 28.0098 201.924 28.0098C204.341 28.0098 206.612 28.4736 208.736 29.4014C210.86 30.3047 212.703 31.562 214.266 33.1733C215.853 34.7603 217.098 36.6279 218.001 38.7764C218.929 40.9004 219.393 43.1709 219.393 45.5879V68H209.322V45.5879H209.395C209.395 44.5625 209.2 43.5981 208.809 42.6948C208.418 41.7671 207.881 40.9614 207.198 40.2778C206.514 39.5942 205.721 39.0571 204.817 38.6665C203.914 38.2759 202.95 38.0806 201.924 38.0806C200.875 38.0806 199.886 38.2759 198.958 38.6665C198.03 39.0571 197.225 39.5942 196.541 40.2778C195.857 40.9614 195.32 41.7671 194.93 42.6948C194.539 43.5981 194.344 44.5625 194.344 45.5879V68Z"/>
</mask>
<path d="M7.06934 31.2324C7.06934 29.0596 7.48438 27.021 8.31445 25.1167C9.14453 23.2124 10.2676 21.5522 11.6836 20.1362C13.124 18.6958 14.7964 17.5605 16.7007 16.7305C18.605 15.9004 20.6436 15.4854 22.8164 15.4854H46.9131V25.9956H22.8164C22.084 25.9956 21.4004 26.1299 20.7656 26.3984C20.1309 26.667 19.5693 27.0454 19.0811 27.5337C18.6172 27.9976 18.251 28.5469 17.9824 29.1816C17.7139 29.8164 17.5796 30.5 17.5796 31.2324C17.5796 31.9648 17.7139 32.6606 17.9824 33.3198C18.251 33.9546 18.6172 34.5161 19.0811 35.0044C19.5693 35.4683 20.1309 35.8345 20.7656 36.103C21.4004 36.3716 22.084 36.5059 22.8164 36.5059H33.3267C35.4995 36.5059 37.5381 36.9209 39.4424 37.751C41.3711 38.5566 43.0435 39.6797 44.4595 41.1201C45.8999 42.5361 47.0229 44.2085 47.8286 46.1372C48.6587 48.0415 49.0737 50.0801 49.0737 52.2529C49.0737 54.4258 48.6587 56.4644 47.8286 58.3687C47.0229 60.2729 45.8999 61.9453 44.4595 63.3857C43.0435 64.8018 41.3711 65.9248 39.4424 66.7549C37.5381 67.585 35.4995 68 33.3267 68H9.99902V57.4897H33.3267C34.0591 57.4897 34.7427 57.3555 35.3774 57.0869C36.0122 56.8184 36.5615 56.4521 37.0254 55.9883C37.5137 55.5 37.8921 54.9385 38.1606 54.3037C38.4292 53.6689 38.5635 52.9854 38.5635 52.2529C38.5635 51.5205 38.4292 50.8369 38.1606 50.2021C37.8921 49.5674 37.5137 49.0181 37.0254 48.5542C36.5615 48.0659 36.0122 47.6875 35.3774 47.4189C34.7427 47.1504 34.0591 47.0161 33.3267 47.0161H22.8164C20.6436 47.0161 18.605 46.6011 16.7007 45.771C14.7964 44.9409 13.124 43.8179 11.6836 42.4019C10.2676 40.9614 9.14453 39.2891 8.31445 37.3848C7.48438 35.4561 7.06934 33.4053 7.06934 31.2324ZM66.4307 68H56.4331V13.1782H66.4307V30.5C67.627 29.5967 68.8599 28.9619 70.1294 28.5957C71.3989 28.2051 72.6929 28.0098 74.0112 28.0098C76.4282 28.0098 78.6987 28.4736 80.8228 29.4014C82.9468 30.3047 84.79 31.562 86.3525 33.1733C87.9395 34.7603 89.1846 36.6279 90.0879 38.7764C91.0156 40.9004 91.4795 43.1709 91.4795 45.5879V68H81.4087V45.5879H81.4819C81.4819 44.5625 81.2866 43.5981 80.896 42.6948C80.5054 41.7671 79.9683 40.9614 79.2847 40.2778C78.6011 39.5942 77.8076 39.0571 76.9043 38.6665C76.001 38.2759 75.0366 38.0806 74.0112 38.0806C72.9614 38.0806 71.9727 38.2759 71.0449 38.6665C70.1172 39.0571 69.3115 39.5942 68.6279 40.2778C67.9443 40.9614 67.4072 41.7671 67.0166 42.6948C66.626 43.5981 66.4307 44.5625 66.4307 45.5879V68ZM128.648 63.4224C127.843 64.1548 126.976 64.8506 126.048 65.5098C125.145 66.1445 124.193 66.7061 123.192 67.1943C122.191 67.6582 121.153 68.0244 120.079 68.293C119.029 68.5859 117.955 68.7324 116.856 68.7324C114.439 68.7324 112.169 68.3052 110.045 67.4507C107.921 66.5962 106.053 65.3877 104.442 63.8252C102.855 62.2383 101.598 60.3218 100.67 58.0757C99.7666 55.8052 99.3149 53.2661 99.3149 50.4585V28.7788H109.276V50.4585C109.276 51.7769 109.471 52.9609 109.862 54.0107C110.277 55.0361 110.826 55.9028 111.51 56.6108C112.193 57.3188 112.987 57.856 113.89 58.2222C114.818 58.5884 115.807 58.7715 116.856 58.7715C117.882 58.7715 118.846 58.5396 119.75 58.0757C120.677 57.5874 121.483 56.9526 122.167 56.1714C122.85 55.3901 123.387 54.5112 123.778 53.5347C124.168 52.5337 124.364 51.5083 124.364 50.4585V28.7788H134.361V68H131.944L128.648 63.4224ZM165.048 68H142.197V58.0391H165.048C165.732 58.0391 166.318 57.7949 166.806 57.3066C167.294 56.8184 167.539 56.2324 167.539 55.5488C167.539 54.8408 167.294 54.377 166.806 54.1572C166.318 53.9375 165.732 53.8276 165.048 53.8276H154.648C152.915 53.8276 151.291 53.498 149.777 52.8389C148.264 52.1797 146.945 51.2886 145.822 50.1655C144.699 49.0181 143.808 47.6875 143.149 46.1738C142.514 44.6602 142.197 43.0366 142.197 41.3032C142.197 39.5698 142.514 37.9463 143.149 36.4326C143.808 34.9189 144.699 33.6006 145.822 32.4775C146.945 31.3545 148.264 30.4756 149.777 29.8408C151.291 29.1816 152.915 28.8521 154.648 28.8521H174.899V38.813H154.648C153.964 38.813 153.378 39.0571 152.89 39.5454C152.402 40.0337 152.158 40.6196 152.158 41.3032C152.158 42.0112 152.402 42.6216 152.89 43.1343C153.378 43.6226 153.964 43.8667 154.648 43.8667H165.048C166.757 43.8667 168.369 44.1597 169.882 44.7456C171.396 45.3071 172.714 46.1006 173.837 47.126C174.96 48.1514 175.852 49.3843 176.511 50.8247C177.17 52.2651 177.5 53.8398 177.5 55.5488C177.5 57.2822 177.17 58.9058 176.511 60.4194C175.852 61.9087 174.96 63.2271 173.837 64.3745C172.714 65.4976 171.396 66.3887 169.882 67.0479C168.369 67.6826 166.757 68 165.048 68ZM194.344 68H184.346V13.1782H194.344V30.5C195.54 29.5967 196.773 28.9619 198.042 28.5957C199.312 28.2051 200.606 28.0098 201.924 28.0098C204.341 28.0098 206.612 28.4736 208.736 29.4014C210.86 30.3047 212.703 31.562 214.266 33.1733C215.853 34.7603 217.098 36.6279 218.001 38.7764C218.929 40.9004 219.393 43.1709 219.393 45.5879V68H209.322V45.5879H209.395C209.395 44.5625 209.2 43.5981 208.809 42.6948C208.418 41.7671 207.881 40.9614 207.198 40.2778C206.514 39.5942 205.721 39.0571 204.817 38.6665C203.914 38.2759 202.95 38.0806 201.924 38.0806C200.875 38.0806 199.886 38.2759 198.958 38.6665C198.03 39.0571 197.225 39.5942 196.541 40.2778C195.857 40.9614 195.32 41.7671 194.93 42.6948C194.539 43.5981 194.344 44.5625 194.344 45.5879V68Z" fill="black"/>
<path d="M46.9131 15.4854H48.4131V13.9854H46.9131V15.4854ZM46.9131 25.9956V27.4956H48.4131V25.9956H46.9131ZM17.9824 33.3198L16.5933 33.8858L16.5971 33.8951L16.601 33.9043L17.9824 33.3198ZM19.0811 35.0044L17.9936 36.0375L18.02 36.0654L18.0479 36.0919L19.0811 35.0044ZM39.4424 37.751L38.843 39.126L38.8536 39.1306L38.8642 39.1351L39.4424 37.751ZM44.4595 41.1201L43.3898 42.1717L43.3988 42.1808L43.4079 42.1898L44.4595 41.1201ZM47.8286 46.1372L46.4445 46.7154L46.449 46.726L46.4536 46.7366L47.8286 46.1372ZM47.8286 58.3687L46.4536 57.7693L46.4503 57.7767L46.4472 57.7842L47.8286 58.3687ZM39.4424 66.7549L38.8494 65.3771L38.843 65.3798L39.4424 66.7549ZM9.99902 68H8.49902V69.5H9.99902V68ZM9.99902 57.4897V55.9897H8.49902V57.4897H9.99902ZM37.0254 48.5542L35.9379 49.5873L35.9644 49.6152L35.9923 49.6417L37.0254 48.5542ZM11.6836 42.4019L10.6139 43.4534L10.6229 43.4626L10.632 43.4715L11.6836 42.4019ZM8.31445 37.3848L6.93662 37.9778L6.93941 37.9841L8.31445 37.3848ZM8.56934 31.2324C8.56934 29.2562 8.94562 27.4226 9.6895 25.7161L6.93941 24.5173C6.02313 26.6194 5.56934 28.863 5.56934 31.2324H8.56934ZM9.6895 25.7161C10.4474 23.9773 11.4659 22.4752 12.7443 21.1969L10.6229 19.0756C9.06923 20.6293 7.84165 22.4475 6.93941 24.5173L9.6895 25.7161ZM12.7443 21.1969C14.0493 19.8919 15.5644 18.8621 17.3001 18.1055L16.1013 15.3554C14.0284 16.259 12.1988 17.4998 10.6229 19.0756L12.7443 21.1969ZM17.3001 18.1055C19.0066 17.3616 20.8401 16.9854 22.8164 16.9854V13.9854C20.447 13.9854 18.2034 14.4391 16.1013 15.3554L17.3001 18.1055ZM22.8164 16.9854H46.9131V13.9854H22.8164V16.9854ZM45.4131 15.4854V25.9956H48.4131V15.4854H45.4131ZM46.9131 24.4956H22.8164V27.4956H46.9131V24.4956ZM22.8164 24.4956C21.896 24.4956 21.0123 24.6654 20.1812 25.017L21.3501 27.7799C21.7885 27.5944 22.272 27.4956 22.8164 27.4956V24.4956ZM20.1812 25.017C19.3681 25.361 18.645 25.8484 18.0204 26.473L20.1417 28.5944C20.4937 28.2424 20.8936 27.973 21.3501 27.7799L20.1812 25.017ZM18.0204 26.473C17.4131 27.0803 16.9409 27.7937 16.601 28.5972L19.3639 29.7661C19.561 29.3001 19.8213 28.9148 20.1417 28.5944L18.0204 26.473ZM16.601 28.5972C16.2494 29.4283 16.0796 30.312 16.0796 31.2324H19.0796C19.0796 30.688 19.1784 30.2045 19.3639 29.7661L16.601 28.5972ZM16.0796 31.2324C16.0796 32.1531 16.2494 33.0416 16.5933 33.8858L19.3716 32.7539C19.1784 32.2796 19.0796 31.7765 19.0796 31.2324H16.0796ZM16.601 33.9043C16.9381 34.7011 17.4026 35.4155 17.9936 36.0375L20.1686 33.9713C19.8318 33.6167 19.5639 33.2081 19.3639 32.7354L16.601 33.9043ZM18.0479 36.0919C18.67 36.6828 19.3844 37.1474 20.1812 37.4845L21.3501 34.7216C20.8774 34.5216 20.4687 34.2537 20.1142 33.9169L18.0479 36.0919ZM20.1812 37.4845C21.0123 37.8361 21.896 38.0059 22.8164 38.0059V35.0059C22.272 35.0059 21.7885 34.9071 21.3501 34.7216L20.1812 37.4845ZM22.8164 38.0059H33.3267V35.0059H22.8164V38.0059ZM33.3267 38.0059C35.3029 38.0059 37.1365 38.3821 38.843 39.126L40.0418 36.3759C37.9397 35.4597 35.6961 35.0059 33.3267 35.0059V38.0059ZM38.8642 39.1351C40.6151 39.8665 42.1187 40.8787 43.3898 42.1717L45.5292 40.0686C43.9682 38.4807 42.1271 37.2468 40.0205 36.3669L38.8642 39.1351ZM43.4079 42.1898C44.7009 43.4609 45.7131 44.9645 46.4445 46.7154L49.2127 45.559C48.3328 43.4525 47.0989 41.6114 45.511 40.0504L43.4079 42.1898ZM46.4536 46.7366C47.1974 48.4431 47.5737 50.2767 47.5737 52.2529H50.5737C50.5737 49.8835 50.1199 47.6399 49.2037 45.5378L46.4536 46.7366ZM47.5737 52.2529C47.5737 54.2292 47.1974 56.0627 46.4536 57.7693L49.2037 58.968C50.1199 56.866 50.5737 54.6224 50.5737 52.2529H47.5737ZM46.4472 57.7842C45.7156 59.5133 44.7006 61.0233 43.3988 62.3251L45.5201 64.4464C47.0992 62.8673 48.3303 61.0326 49.2101 58.9531L46.4472 57.7842ZM43.3988 62.3251C42.1237 63.6002 40.6121 64.6184 38.8494 65.3771L40.0354 68.1327C42.1301 67.2312 43.9633 66.0033 45.5201 64.4464L43.3988 62.3251ZM38.843 65.3798C37.1365 66.1237 35.3029 66.5 33.3267 66.5V69.5C35.6961 69.5 37.9397 69.0462 40.0418 68.1299L38.843 65.3798ZM33.3267 66.5H9.99902V69.5H33.3267V66.5ZM11.499 68V57.4897H8.49902V68H11.499ZM9.99902 58.9897H33.3267V55.9897H9.99902V58.9897ZM33.3267 58.9897C34.2471 58.9897 35.1308 58.82 35.9619 58.4684L34.793 55.7055C34.3545 55.891 33.8711 55.9897 33.3267 55.9897V58.9897ZM35.9619 58.4684C36.7654 58.1284 37.4787 57.6563 38.0861 57.0489L35.9647 54.9276C35.6443 55.248 35.259 55.5083 34.793 55.7055L35.9619 58.4684ZM38.0861 57.0489C38.7107 56.4243 39.1981 55.7012 39.5421 54.8882L36.7792 53.7193C36.5861 54.1758 36.3167 54.5757 35.9647 54.9276L38.0861 57.0489ZM39.5421 54.8882C39.8937 54.0571 40.0635 53.1734 40.0635 52.2529H37.0635C37.0635 52.7973 36.9647 53.2808 36.7792 53.7193L39.5421 54.8882ZM40.0635 52.2529C40.0635 51.3325 39.8937 50.4488 39.5421 49.6177L36.7792 50.7866C36.9647 51.225 37.0635 51.7085 37.0635 52.2529H40.0635ZM39.5421 49.6177C39.1952 48.7976 38.6998 48.0759 38.0585 47.4667L35.9923 49.6417C36.3276 49.9602 36.589 50.3371 36.7792 50.7866L39.5421 49.6177ZM38.1129 47.5211C37.5037 46.8798 36.7819 46.3844 35.9619 46.0375L34.793 48.8004C35.2425 48.9906 35.6194 49.252 35.9379 49.5873L38.1129 47.5211ZM35.9619 46.0375C35.1308 45.6859 34.2471 45.5161 33.3267 45.5161V48.5161C33.8711 48.5161 34.3545 48.6149 34.793 48.8004L35.9619 46.0375ZM33.3267 45.5161H22.8164V48.5161H33.3267V45.5161ZM22.8164 45.5161C20.8401 45.5161 19.0066 45.1398 17.3001 44.396L16.1013 47.146C18.2034 48.0623 20.447 48.5161 22.8164 48.5161V45.5161ZM17.3001 44.396C15.559 43.637 14.0411 42.6159 12.7352 41.3322L10.632 43.4715C12.207 45.0198 14.0338 46.2448 16.1013 47.146L17.3001 44.396ZM12.7533 41.3503C11.4695 40.0444 10.4484 38.5264 9.6895 36.7854L6.93941 37.9841C7.84065 40.0517 9.06565 41.8785 10.6139 43.4534L12.7533 41.3503ZM9.69227 36.7918C8.94562 35.0569 8.56934 33.2086 8.56934 31.2324H5.56934C5.56934 33.6019 6.02313 35.8552 6.93664 37.9777L9.69227 36.7918ZM66.4307 68V69.5H67.9307V68H66.4307ZM56.4331 68H54.9331V69.5H56.4331V68ZM56.4331 13.1782V11.6782H54.9331V13.1782H56.4331ZM66.4307 13.1782H67.9307V11.6782H66.4307V13.1782ZM66.4307 30.5H64.9307V33.5123L67.3346 31.6971L66.4307 30.5ZM70.1294 28.5957L70.5451 30.0369L70.5579 30.0333L70.5705 30.0294L70.1294 28.5957ZM80.8228 29.4014L80.2224 30.776L80.229 30.7789L80.2357 30.7817L80.8228 29.4014ZM86.3525 33.1733L85.2757 34.2176L85.2837 34.2258L85.2919 34.234L86.3525 33.1733ZM90.0879 38.7764L88.7051 39.3578L88.7092 39.3673L88.7133 39.3768L90.0879 38.7764ZM91.4795 68V69.5H92.9795V68H91.4795ZM81.4087 68H79.9087V69.5H81.4087V68ZM81.4087 45.5879V44.0879H79.9087V45.5879H81.4087ZM81.4819 45.5879V47.0879H82.9819V45.5879H81.4819ZM80.896 42.6948L79.5135 43.2769L79.5163 43.2836L79.5192 43.2902L80.896 42.6948ZM67.0166 42.6948L68.3934 43.2902L68.3963 43.2836L68.3991 43.2769L67.0166 42.6948ZM66.4307 66.5H56.4331V69.5H66.4307V66.5ZM57.9331 68V13.1782H54.9331V68H57.9331ZM56.4331 14.6782H66.4307V11.6782H56.4331V14.6782ZM64.9307 13.1782V30.5H67.9307V13.1782H64.9307ZM67.3346 31.6971C68.404 30.8896 69.474 30.3459 70.5451 30.0369L69.7137 27.1545C68.2458 27.5779 66.8499 28.3038 65.5268 29.3029L67.3346 31.6971ZM70.5705 30.0294C71.6982 29.6824 72.8435 29.5098 74.0112 29.5098V26.5098C72.5422 26.5098 71.0996 26.7278 69.6883 27.162L70.5705 30.0294ZM74.0112 29.5098C76.2306 29.5098 78.2958 29.9345 80.2224 30.776L81.4232 28.0268C79.1017 27.0128 76.6258 26.5098 74.0112 26.5098V29.5098ZM80.2357 30.7817C82.181 31.609 83.8564 32.7539 85.2757 34.2176L87.4294 32.1291C85.7237 30.3701 83.7125 29.0003 81.4098 28.021L80.2357 30.7817ZM85.2919 34.234C86.7361 35.6782 87.8742 37.3814 88.7051 39.3578L91.4706 38.195C90.495 35.8745 89.1428 33.8423 87.4132 32.1127L85.2919 34.234ZM88.7133 39.3768C89.5548 41.3033 89.9795 43.3685 89.9795 45.5879H92.9795C92.9795 42.9733 92.4765 40.4975 91.4625 38.176L88.7133 39.3768ZM89.9795 45.5879V68H92.9795V45.5879H89.9795ZM91.4795 66.5H81.4087V69.5H91.4795V66.5ZM82.9087 68V45.5879H79.9087V68H82.9087ZM81.4087 47.0879H81.4819V44.0879H81.4087V47.0879ZM82.9819 45.5879C82.9819 44.3665 82.7481 43.1986 82.2728 42.0995L79.5192 43.2902C79.8251 43.9977 79.9819 44.7585 79.9819 45.5879H82.9819ZM82.2784 42.1127C81.8157 41.0137 81.1718 40.0436 80.3453 39.2172L78.224 41.3385C78.7647 41.8792 79.1951 42.5205 79.5135 43.2769L82.2784 42.1127ZM80.3453 39.2172C79.5255 38.3974 78.5734 37.7541 77.4997 37.2897L76.3089 40.0433C77.0418 40.3602 77.6766 40.7911 78.224 41.3385L80.3453 39.2172ZM77.4997 37.2897C76.4005 36.8144 75.2326 36.5806 74.0112 36.5806V39.5806C74.8406 39.5806 75.6015 39.7374 76.3089 40.0433L77.4997 37.2897ZM74.0112 36.5806C72.7702 36.5806 71.5827 36.8125 70.4628 37.2841L71.627 40.049C72.3626 39.7392 73.1526 39.5806 74.0112 39.5806V36.5806ZM70.4628 37.2841C69.3638 37.7468 68.3937 38.3907 67.5673 39.2172L69.6886 41.3385C70.2293 40.7978 70.8706 40.3674 71.627 40.049L70.4628 37.2841ZM67.5673 39.2172C66.7408 40.0436 66.0969 41.0137 65.6341 42.1127L68.3991 43.2769C68.7175 42.5205 69.1479 41.8792 69.6886 41.3385L67.5673 39.2172ZM65.6398 42.0995C65.1645 43.1986 64.9307 44.3665 64.9307 45.5879H67.9307C67.9307 44.7585 68.0875 43.9977 68.3934 43.2902L65.6398 42.0995ZM64.9307 45.5879V68H67.9307V45.5879H64.9307ZM128.648 63.4224L129.866 62.5459L128.883 61.1816L127.639 62.3125L128.648 63.4224ZM126.048 65.5098L126.911 66.7371L126.917 66.7325L126.048 65.5098ZM123.192 67.1943L123.823 68.5553L123.836 68.549L123.85 68.5425L123.192 67.1943ZM120.079 68.293L119.715 66.8378L119.696 66.8427L119.676 66.8482L120.079 68.293ZM104.442 63.8252L103.381 64.8859L103.389 64.894L103.398 64.902L104.442 63.8252ZM100.67 58.0757L99.2762 58.6302L99.2798 58.6393L99.2835 58.6483L100.67 58.0757ZM99.3149 28.7788V27.2788H97.8149V28.7788H99.3149ZM109.276 28.7788H110.776V27.2788H109.276V28.7788ZM109.862 54.0107L108.456 54.5338L108.463 54.5538L108.471 54.5735L109.862 54.0107ZM113.89 58.2222L113.327 59.6123L113.339 59.6174L113.89 58.2222ZM119.75 58.0757L120.435 59.41L120.441 59.4066L120.448 59.4031L119.75 58.0757ZM123.778 53.5347L125.171 54.0918L125.175 54.08L123.778 53.5347ZM124.364 28.7788V27.2788H122.864V28.7788H124.364ZM134.361 28.7788H135.861V27.2788H134.361V28.7788ZM134.361 68V69.5H135.861V68H134.361ZM131.944 68L130.727 68.8765L131.176 69.5H131.944V68ZM127.639 62.3125C126.88 63.0027 126.061 63.661 125.18 64.287L126.917 66.7325C127.892 66.0401 128.805 65.3069 129.657 64.5323L127.639 62.3125ZM125.186 64.2825C124.348 64.8712 123.465 65.3924 122.534 65.8462L123.85 68.5425C124.921 68.0197 125.942 67.4179 126.911 66.7371L125.186 64.2825ZM122.561 65.8334C121.646 66.2573 120.698 66.592 119.715 66.8378L120.443 69.7482C121.609 69.4568 122.736 69.0591 123.823 68.5553L122.561 65.8334ZM119.676 66.8482C118.758 67.1042 117.82 67.2324 116.856 67.2324V70.2324C118.09 70.2324 119.3 70.0677 120.482 69.7378L119.676 66.8482ZM116.856 67.2324C114.62 67.2324 112.541 66.838 110.605 66.0591L109.485 68.8423C111.797 69.7723 114.258 70.2324 116.856 70.2324V67.2324ZM110.605 66.0591C108.657 65.2756 106.955 64.1728 105.486 62.7483L103.398 64.902C105.151 66.6026 107.184 67.9167 109.485 68.8423L110.605 66.0591ZM105.503 62.7645C104.066 61.3285 102.915 59.5819 102.056 57.503L99.2835 58.6483C100.28 61.0617 101.643 63.1481 103.381 64.8859L105.503 62.7645ZM102.064 57.5212C101.24 55.4514 100.815 53.1042 100.815 50.4585H97.8149C97.8149 53.428 98.293 56.159 99.2762 58.6302L102.064 57.5212ZM100.815 50.4585V28.7788H97.8149V50.4585H100.815ZM99.3149 30.2788H109.276V27.2788H99.3149V30.2788ZM107.776 28.7788V50.4585H110.776V28.7788H107.776ZM107.776 50.4585C107.776 51.9245 107.993 53.2899 108.456 54.5338L111.268 53.4876C110.949 52.6319 110.776 51.6292 110.776 50.4585H107.776ZM108.471 54.5735C108.95 55.7551 109.598 56.7903 110.431 57.6527L112.589 55.5689C112.054 55.0153 111.604 54.3172 111.252 53.448L108.471 54.5735ZM110.431 57.6527C111.258 58.5101 112.227 59.1665 113.327 59.6123L114.454 56.8321C113.747 56.5454 113.128 56.1276 112.589 55.5689L110.431 57.6527ZM113.339 59.6174C114.452 60.0564 115.628 60.2715 116.856 60.2715V57.2715C115.985 57.2715 115.184 57.1203 114.441 56.8269L113.339 59.6174ZM116.856 60.2715C118.118 60.2715 119.317 59.9839 120.435 59.41L119.064 56.7413C118.375 57.0952 117.646 57.2715 116.856 57.2715V60.2715ZM120.448 59.4031C121.537 58.8298 122.489 58.0805 123.295 57.1591L121.038 55.1836C120.477 55.8248 119.817 56.345 119.051 56.7483L120.448 59.4031ZM123.295 57.1591C124.092 56.2486 124.718 55.2236 125.171 54.0918L122.385 52.9776C122.057 53.7988 121.608 54.5317 121.038 55.1836L123.295 57.1591ZM125.175 54.08C125.632 52.9094 125.864 51.6993 125.864 50.4585H122.864C122.864 51.3173 122.705 52.158 122.38 52.9894L125.175 54.08ZM125.864 50.4585V28.7788H122.864V50.4585H125.864ZM124.364 30.2788H134.361V27.2788H124.364V30.2788ZM132.861 28.7788V68H135.861V28.7788H132.861ZM134.361 66.5H131.944V69.5H134.361V66.5ZM133.162 67.1235L129.866 62.5459L127.431 64.2988L130.727 68.8765L133.162 67.1235ZM142.197 68H140.697V69.5H142.197V68ZM142.197 58.0391V56.5391H140.697V58.0391H142.197ZM145.822 50.1655L144.75 51.2147L144.756 51.2205L144.762 51.2262L145.822 50.1655ZM143.149 46.1738L141.766 46.7539L141.77 46.7634L141.774 46.7727L143.149 46.1738ZM143.149 36.4326L141.774 35.8337L141.77 35.8431L141.766 35.8525L143.149 36.4326ZM149.777 29.8408L150.357 31.2241L150.367 31.2202L150.376 31.2161L149.777 29.8408ZM174.899 28.8521H176.399V27.3521H174.899V28.8521ZM174.899 38.813V40.313H176.399V38.813H174.899ZM152.89 43.1343L151.804 44.1688L151.817 44.182L151.829 44.1949L152.89 43.1343ZM169.882 44.7456L169.341 46.1445L169.351 46.1483L169.361 46.152L169.882 44.7456ZM176.511 60.4194L177.882 61.0266L177.886 61.0183L176.511 60.4194ZM173.837 64.3745L174.898 65.4352L174.904 65.4295L174.909 65.4237L173.837 64.3745ZM169.882 67.0479L170.462 68.4311L170.472 68.4272L170.481 68.4231L169.882 67.0479ZM165.048 66.5H142.197V69.5H165.048V66.5ZM143.697 68V58.0391H140.697V68H143.697ZM142.197 59.5391H165.048V56.5391H142.197V59.5391ZM165.048 59.5391C166.134 59.5391 167.1 59.1337 167.867 58.3673L165.745 56.246C165.535 56.4562 165.33 56.5391 165.048 56.5391V59.5391ZM167.867 58.3673C168.633 57.6009 169.039 56.6348 169.039 55.5488H166.039C166.039 55.8301 165.956 56.0358 165.745 56.246L167.867 58.3673ZM169.039 55.5488C169.039 54.4782 168.629 53.3326 167.422 52.7893L166.191 55.5251C166.173 55.5172 166.14 55.4986 166.103 55.4644C166.066 55.4299 166.042 55.3943 166.028 55.3685C166.016 55.3448 166.018 55.3409 166.024 55.3695C166.03 55.3991 166.039 55.4565 166.039 55.5488H169.039ZM167.422 52.7893C166.694 52.462 165.888 52.3276 165.048 52.3276V55.3276C165.576 55.3276 165.942 55.413 166.191 55.5251L167.422 52.7893ZM165.048 52.3276H154.648V55.3276H165.048V52.3276ZM154.648 52.3276C153.11 52.3276 151.692 52.0364 150.376 51.4636L149.178 54.2141C150.89 54.9597 152.719 55.3276 154.648 55.3276V52.3276ZM150.376 51.4636C149.028 50.8764 147.868 50.0898 146.883 49.1049L144.762 51.2262C146.023 52.4873 147.499 53.4829 149.178 54.2141L150.376 51.4636ZM146.894 49.1163C145.902 48.103 145.113 46.9261 144.524 45.5749L141.774 46.7727C142.504 48.4489 143.496 49.9332 144.75 51.2147L146.894 49.1163ZM144.532 45.5937C143.979 44.2739 143.697 42.8488 143.697 41.3032H140.697C140.697 43.2245 141.05 45.0464 141.766 46.7539L144.532 45.5937ZM143.697 41.3032C143.697 39.7577 143.979 38.3325 144.532 37.0127L141.766 35.8525C141.05 37.5601 140.697 39.382 140.697 41.3032H143.697ZM144.524 37.0315C145.111 35.6832 145.898 34.5232 146.883 33.5382L144.762 31.4169C143.5 32.678 142.505 34.1547 141.774 35.8337L144.524 37.0315ZM146.883 33.5382C147.864 32.5575 149.017 31.7861 150.357 31.2241L149.197 28.4575C147.51 29.165 146.027 30.1515 144.762 31.4169L146.883 33.5382ZM150.376 31.2161C151.692 30.6433 153.11 30.3521 154.648 30.3521V27.3521C152.719 27.3521 150.89 27.72 149.178 28.4656L150.376 31.2161ZM154.648 30.3521H174.899V27.3521H154.648V30.3521ZM173.399 28.8521V38.813H176.399V28.8521H173.399ZM174.899 37.313H154.648V40.313H174.899V37.313ZM154.648 37.313C153.562 37.313 152.596 37.7184 151.829 38.4847L153.951 40.6061C154.161 40.3959 154.367 40.313 154.648 40.313V37.313ZM151.829 38.4847C151.063 39.2511 150.658 40.2173 150.658 41.3032H153.658C153.658 41.022 153.741 40.8163 153.951 40.6061L151.829 38.4847ZM150.658 41.3032C150.658 42.3964 151.05 43.3772 151.804 44.1688L153.976 42.0998C153.754 41.866 153.658 41.6261 153.658 41.3032H150.658ZM151.829 44.1949C152.596 44.9613 153.562 45.3667 154.648 45.3667V42.3667C154.367 42.3667 154.161 42.2838 153.951 42.0736L151.829 44.1949ZM154.648 45.3667H165.048V42.3667H154.648V45.3667ZM165.048 45.3667C166.582 45.3667 168.009 45.6289 169.341 46.1445L170.424 43.3468C168.728 42.6905 166.933 42.3667 165.048 42.3667V45.3667ZM169.361 46.152C170.705 46.6506 171.854 47.3463 172.826 48.2337L174.849 46.0182C173.575 44.8549 172.087 43.9637 170.404 43.3393L169.361 46.152ZM172.826 48.2337C173.794 49.1176 174.568 50.1839 175.147 51.4489L177.875 50.2005C177.135 48.5847 176.127 47.1852 174.849 46.0182L172.826 48.2337ZM175.147 51.4489C175.709 52.6784 176 54.038 176 55.5488H179C179 53.6417 178.63 51.8519 177.875 50.2005L175.147 51.4489ZM176 55.5488C176 57.0866 175.708 58.5052 175.135 59.8205L177.886 61.0183C178.632 59.3063 179 57.4778 179 55.5488H176ZM175.139 59.8123C174.551 61.1399 173.761 62.308 172.765 63.3253L174.909 65.4237C176.16 64.1461 177.152 62.6775 177.882 61.0266L175.139 59.8123ZM172.777 63.3139C171.792 64.2988 170.632 65.0854 169.283 65.6726L170.481 68.4231C172.16 67.6919 173.637 66.6963 174.898 65.4352L172.777 63.3139ZM169.302 65.6646C167.98 66.2191 166.566 66.5 165.048 66.5V69.5C166.948 69.5 168.757 69.1461 170.462 68.4311L169.302 65.6646ZM194.344 68V69.5H195.844V68H194.344ZM184.346 68H182.846V69.5H184.346V68ZM184.346 13.1782V11.6782H182.846V13.1782H184.346ZM194.344 13.1782H195.844V11.6782H194.344V13.1782ZM194.344 30.5H192.844V33.5123L195.248 31.6971L194.344 30.5ZM198.042 28.5957L198.458 30.0369L198.471 30.0333L198.484 30.0294L198.042 28.5957ZM208.736 29.4014L208.135 30.776L208.142 30.7789L208.149 30.7817L208.736 29.4014ZM214.266 33.1733L213.189 34.2176L213.197 34.2258L213.205 34.234L214.266 33.1733ZM218.001 38.7764L216.618 39.3578L216.622 39.3673L216.626 39.3768L218.001 38.7764ZM219.393 68V69.5H220.893V68H219.393ZM209.322 68H207.822V69.5H209.322V68ZM209.322 45.5879V44.0879H207.822V45.5879H209.322ZM209.395 45.5879V47.0879H210.895V45.5879H209.395ZM208.809 42.6948L207.427 43.2769L207.429 43.2836L207.432 43.2902L208.809 42.6948ZM194.93 42.6948L196.306 43.2902L196.309 43.2836L196.312 43.2769L194.93 42.6948ZM194.344 66.5H184.346V69.5H194.344V66.5ZM185.846 68V13.1782H182.846V68H185.846ZM184.346 14.6782H194.344V11.6782H184.346V14.6782ZM192.844 13.1782V30.5H195.844V13.1782H192.844ZM195.248 31.6971C196.317 30.8896 197.387 30.3459 198.458 30.0369L197.627 27.1545C196.159 27.5779 194.763 28.3038 193.44 29.3029L195.248 31.6971ZM198.484 30.0294C199.611 29.6824 200.757 29.5098 201.924 29.5098V26.5098C200.455 26.5098 199.013 26.7278 197.601 27.162L198.484 30.0294ZM201.924 29.5098C204.144 29.5098 206.209 29.9345 208.135 30.776L209.336 28.0268C207.015 27.0128 204.539 26.5098 201.924 26.5098V29.5098ZM208.149 30.7817C210.094 31.609 211.769 32.7539 213.189 34.2176L215.342 32.1291C213.637 30.3701 211.626 29.0003 209.323 28.021L208.149 30.7817ZM213.205 34.234C214.649 35.6782 215.787 37.3814 216.618 39.3578L219.384 38.195C218.408 35.8745 217.056 33.8423 215.326 32.1127L213.205 34.234ZM216.626 39.3768C217.468 41.3033 217.893 43.3685 217.893 45.5879H220.893C220.893 42.9733 220.39 40.4975 219.376 38.176L216.626 39.3768ZM217.893 45.5879V68H220.893V45.5879H217.893ZM219.393 66.5H209.322V69.5H219.393V66.5ZM210.822 68V45.5879H207.822V68H210.822ZM209.322 47.0879H209.395V44.0879H209.322V47.0879ZM210.895 45.5879C210.895 44.3665 210.661 43.1986 210.186 42.0995L207.432 43.2902C207.738 43.9977 207.895 44.7585 207.895 45.5879H210.895ZM210.192 42.1127C209.729 41.0137 209.085 40.0436 208.258 39.2172L206.137 41.3385C206.678 41.8792 207.108 42.5205 207.427 43.2769L210.192 42.1127ZM208.258 39.2172C207.439 38.3974 206.487 37.7541 205.413 37.2897L204.222 40.0433C204.955 40.3602 205.59 40.7911 206.137 41.3385L208.258 39.2172ZM205.413 37.2897C204.314 36.8144 203.146 36.5806 201.924 36.5806V39.5806C202.754 39.5806 203.515 39.7374 204.222 40.0433L205.413 37.2897ZM201.924 36.5806C200.683 36.5806 199.496 36.8125 198.376 37.2841L199.54 40.049C200.276 39.7392 201.066 39.5806 201.924 39.5806V36.5806ZM198.376 37.2841C197.277 37.7468 196.307 38.3907 195.48 39.2172L197.602 41.3385C198.142 40.7978 198.784 40.3674 199.54 40.049L198.376 37.2841ZM195.48 39.2172C194.654 40.0436 194.01 41.0137 193.547 42.1127L196.312 43.2769C196.631 42.5205 197.061 41.8792 197.602 41.3385L195.48 39.2172ZM193.553 42.0995C193.078 43.1986 192.844 44.3665 192.844 45.5879H195.844C195.844 44.7585 196.001 43.9977 196.306 43.2902L193.553 42.0995ZM192.844 45.5879V68H195.844V45.5879H192.844Z" fill="url(#paint0_linear_5199_6821)" mask="url(#path-1-outside-1_5199_6821)"/>
</g>
<defs>
<linearGradient id="paint0_linear_5199_6821" x1="114" y1="-7.06002" x2="114" y2="90.1398" gradientUnits="userSpaceOnUse">
<stop stop-color="#979797"/>
<stop offset="0.01" stop-color="#AEAEAE"/>
<stop offset="0.03" stop-color="#CBCBCB"/>
<stop offset="0.06" stop-color="#E1E1E1"/>
<stop offset="0.08" stop-color="#F1F1F1"/>
<stop offset="0.11" stop-color="#FBFBFB"/>
<stop offset="0.15" stop-color="#FEFEFE"/>
<stop offset="0.29" stop-color="#DCDCDC"/>
<stop offset="0.48" stop-color="#7D7D7D"/>
<stop offset="0.62" stop-color="#5A5A5A"/>
<stop offset="0.76" stop-color="#7D7D7D"/>
<stop offset="0.9" stop-color="#C4C4C4"/>
<stop offset="0.95" stop-color="#E0E0E0"/>
<stop offset="1" stop-color="#F8F8F8"/>
</linearGradient>
<clipPath id="clip0_5199_6821">
<rect width="227" height="82" fill="white"/>
</clipPath>
</defs>
</svg>
