<svg width="16" height="16" viewBox="0 0 16 16" fill="none" xmlns="http://www.w3.org/2000/svg">
<g id="ph:signature">
<path id="Vector" d="M14.5057 10.5H3.99692C4.16317 10.1725 4.33005 9.83562 4.49692 9.49312C5.43005 9.59625 6.53567 8.94312 7.79317 7.54187C7.83067 7.64563 7.87255 7.7525 7.91817 7.86062C8.32505 8.81375 8.85005 9.35687 9.48067 9.47625C10.1269 9.60125 10.7669 9.27437 11.4232 8.4875C11.8494 8.99188 12.7244 9.5 14.5057 9.5C14.6383 9.5 14.7655 9.44732 14.8592 9.35355C14.953 9.25979 15.0057 9.13261 15.0057 9C15.0057 8.86739 14.953 8.74021 14.8592 8.64645C14.7655 8.55268 14.6383 8.5 14.5057 8.5C12.5913 8.5 12.0338 7.83812 12.0057 7.48625C12.0026 7.36994 11.9591 7.25833 11.8826 7.17065C11.8061 7.08297 11.7015 7.02471 11.5867 7.00591C11.4718 6.9871 11.354 7.00893 11.2536 7.06763C11.1531 7.12633 11.0763 7.21823 11.0363 7.3275C10.2757 8.46812 9.82505 8.52375 9.6613 8.49375C9.14067 8.39562 8.6563 7.18563 8.49317 6.39937C8.47183 6.30008 8.42075 6.20963 8.34673 6.14008C8.27271 6.07053 8.17927 6.02517 8.07884 6.01004C7.9784 5.9949 7.87574 6.01072 7.78452 6.05537C7.69329 6.10002 7.61783 6.1714 7.56817 6.26C6.33067 7.79875 5.50067 8.3225 4.98005 8.45625C5.51067 7.27625 5.90692 6.24062 6.16067 5.36875C6.58692 3.90375 6.61817 2.87937 6.25505 2.2375C6.06755 1.9025 5.67442 1.50313 4.88567 1.5H4.87005C3.87005 1.50687 3.08255 2.45625 2.7063 4.10625C2.48192 5.08812 2.44505 6.18062 2.60442 7.10625C2.7638 8.03187 3.09567 8.70062 3.5763 9.09937C3.3438 9.5825 3.10567 10.0544 2.87442 10.5013H1.50567C1.37307 10.5013 1.24589 10.5539 1.15212 10.6477C1.05835 10.7415 1.00567 10.8686 1.00567 11.0013C1.00567 11.1339 1.05835 11.261 1.15212 11.3548C1.24589 11.4486 1.37307 11.5013 1.50567 11.5013H2.3438C1.6363 12.8138 1.0863 13.7287 1.07755 13.7437C1.0419 13.8001 1.01787 13.8629 1.00687 13.9286C0.99586 13.9944 0.998104 14.0616 1.01347 14.1265C1.02883 14.1913 1.057 14.2524 1.09632 14.3062C1.13564 14.36 1.18531 14.4054 1.24243 14.4398C1.29955 14.4741 1.36295 14.4967 1.42891 14.5061C1.49487 14.5156 1.56206 14.5118 1.62653 14.4949C1.691 14.4781 1.75145 14.4485 1.80433 14.4079C1.8572 14.3674 1.90143 14.3166 1.93442 14.2587C1.9438 14.2425 2.6388 13.0844 3.47817 11.5013H14.5057C14.6383 11.5013 14.7655 11.4486 14.8592 11.3548C14.953 11.261 15.0057 11.1339 15.0057 11.0013C15.0057 10.8686 14.953 10.7415 14.8592 10.6477C14.7655 10.5539 14.6383 10.5013 14.5057 10.5013V10.5ZM12.0057 7.5V7.48688C12.0061 7.49124 12.0061 7.49564 12.0057 7.5ZM3.68005 4.32875C3.92942 3.23625 4.41067 2.5 4.88067 2.5C5.2088 2.5 5.31817 2.61625 5.38067 2.72937C5.56817 3.0625 5.78817 4.24125 4.02755 8.1275C3.51567 7.42187 3.3413 5.8125 3.68005 4.32875Z" fill="url(#paint0_linear_2123_2956)"/>
</g>
<defs>
<linearGradient id="paint0_linear_2123_2956" x1="8.00284" y1="1.3517" x2="8.00284" y2="14.9505" gradientUnits="userSpaceOnUse">
<stop stop-color="#979797"/>
<stop offset="0.01" stop-color="#AEAEAE"/>
<stop offset="0.03" stop-color="#CBCBCB"/>
<stop offset="0.06" stop-color="#E1E1E1"/>
<stop offset="0.08" stop-color="#F1F1F1"/>
<stop offset="0.11" stop-color="#FBFBFB"/>
<stop offset="0.15" stop-color="#FEFEFE"/>
<stop offset="0.29" stop-color="#DCDCDC"/>
<stop offset="0.48" stop-color="#7D7D7D"/>
<stop offset="0.62" stop-color="#5A5A5A"/>
<stop offset="0.76" stop-color="#7D7D7D"/>
<stop offset="0.9" stop-color="#C4C4C4"/>
<stop offset="0.95" stop-color="#E0E0E0"/>
<stop offset="1" stop-color="#F8F8F8"/>
</linearGradient>
</defs>
</svg>
