<svg width="24" height="24" viewBox="0 0 24 24" fill="none" xmlns="http://www.w3.org/2000/svg">
<g id="ion:analytics-sharp">
<path id="Vector" d="M21.0938 6C20.7586 6.00011 20.428 6.07836 20.1284 6.22853C19.8287 6.37871 19.5682 6.59667 19.3675 6.86512C19.1668 7.13358 19.0314 7.44512 18.9722 7.77503C18.9129 8.10493 18.9314 8.44411 19.0261 8.76563L15.6806 12.1106C15.2394 11.9637 14.7625 11.9637 14.3213 12.1106L11.8411 9.63047C11.9227 9.31201 11.9304 8.9791 11.8637 8.6572C11.7969 8.3353 11.6574 8.03293 11.4558 7.77321C11.2543 7.51349 10.996 7.3033 10.7008 7.1587C10.4055 7.0141 10.0811 6.93893 9.75236 6.93893C9.4236 6.93893 9.0992 7.0141 8.80396 7.1587C8.50871 7.3033 8.25044 7.51349 8.04889 7.77321C7.84733 8.03293 7.70783 8.3353 7.64106 8.6572C7.57428 8.9791 7.58199 9.31201 7.66361 9.63047L3.51564 13.7756C3.05512 13.6393 2.56231 13.6604 2.1151 13.8354C1.66788 14.0105 1.29178 14.3297 1.04622 14.7424C0.800672 15.1552 0.699682 15.638 0.759217 16.1145C0.818752 16.5911 1.03542 17.0342 1.37496 17.3739C1.71451 17.7136 2.15757 17.9304 2.63411 17.99C3.11065 18.0497 3.5935 17.9489 4.00633 17.7035C4.41915 17.4581 4.73842 17.0821 4.91365 16.6349C5.08888 16.1877 5.11009 15.6949 4.97392 15.2344L9.06939 11.1394C9.51058 11.2864 9.98757 11.2864 10.4288 11.1394L12.9094 13.62C12.8278 13.9385 12.8201 14.2714 12.8868 14.5933C12.9536 14.9152 13.0931 15.2175 13.2947 15.4773C13.4962 15.737 13.7545 15.9472 14.0497 16.0918C14.345 16.2364 14.6694 16.3115 14.9981 16.3115C15.3269 16.3115 15.6513 16.2364 15.9465 16.0918C16.2418 15.9472 16.5001 15.737 16.7016 15.4773C16.9032 15.2175 17.0427 14.9152 17.1094 14.5933C17.1762 14.2714 17.1685 13.9385 17.0869 13.62L20.4844 10.2244C20.781 10.3119 21.093 10.3346 21.3991 10.2909C21.7052 10.2472 21.9984 10.1382 22.2587 9.97122C22.519 9.80426 22.7403 9.58326 22.9077 9.32322C23.0751 9.06318 23.1845 8.77018 23.2287 8.46411C23.2728 8.15803 23.2506 7.84604 23.1636 7.5493C23.0765 7.25256 22.9267 6.97802 22.7242 6.7443C22.5217 6.51057 22.2713 6.32314 21.99 6.19472C21.7087 6.0663 21.403 5.99989 21.0938 6Z" fill="#3D50DF"/>
</g>
</svg>
