<svg width="25" height="24" viewBox="0 0 25 24" fill="none" xmlns="http://www.w3.org/2000/svg">
<g id="solar:inbox-bold">
<g id="Group">
<path id="Vector" d="M3.81258 20.4665C5.27369 21.9266 7.62183 21.9266 12.3201 21.9266C17.0184 21.9266 19.3676 21.9266 20.8267 20.4665C22.0934 19.2007 22.2619 17.2642 22.2838 13.7041H19.1373C18.1666 13.7041 17.9124 13.72 17.7001 13.8177C17.4868 13.9164 17.3094 14.0988 16.6775 14.8343L16.0746 15.539L15.9869 15.6406C15.4865 16.2257 15.0899 16.6891 14.5417 16.9413C13.9935 17.1934 13.3836 17.1934 12.6141 17.1924H12.0271C11.2567 17.1924 10.6467 17.1944 10.0986 16.9413C9.55038 16.6891 9.15371 16.2257 8.65339 15.6406L8.56568 15.539L7.9627 14.8353C7.33081 14.0978 7.1534 13.9164 6.94012 13.8187C6.72783 13.72 6.47368 13.7041 5.50292 13.7041H2.35645C2.37937 17.2642 2.54581 19.2007 3.81258 20.4665Z" fill="white"/>
<path id="Vector_2" d="M20.8267 3.45241C19.3686 1.99329 17.0185 1.99329 12.3202 1.99329C7.6219 1.99329 5.27275 1.99329 3.81264 3.45241C2.35352 4.91352 2.35352 7.26167 2.35352 11.96V12.2091H5.63753C6.40696 12.2091 7.01692 12.2071 7.56509 12.4603C8.11325 12.7124 8.50993 13.1759 9.01025 13.7609L9.09796 13.8626L9.70094 14.5662C10.3328 15.3038 10.5102 15.4852 10.7235 15.5828C10.9358 15.6815 11.19 15.6975 12.1607 15.6975H12.4796C13.4504 15.6975 13.7046 15.6815 13.9168 15.5838C14.1301 15.4852 14.3075 15.3028 14.9394 14.5672L15.5424 13.8626L15.6301 13.7609C16.1304 13.1759 16.5271 12.7124 17.0753 12.4603C17.6234 12.2071 18.2334 12.2081 19.0028 12.2091H22.2868V11.96C22.2868 7.26167 22.2868 4.91252 20.8267 3.45241Z" fill="white"/>
</g>
</g>
</svg>
