<svg width="25" height="24" viewBox="0 0 25 24" fill="none" xmlns="http://www.w3.org/2000/svg">
<g id="Iconly/Bold/Profile">
<g id="Profile">
<path id="Profile_2" fill-rule="evenodd" clip-rule="evenodd" d="M17.9965 7.37564C17.9965 10.3482 15.6533 12.758 12.7627 12.758C9.87216 12.758 7.5289 10.3482 7.5289 7.37564C7.5289 4.40305 9.87216 1.99329 12.7627 1.99329C15.6533 1.99329 17.9965 4.40305 17.9965 7.37564ZM17.255 15.7906C18.9191 16.1275 20.0055 16.6773 20.4712 17.564C20.8209 18.256 20.8209 19.0799 20.4712 19.7719C20.0055 20.6586 18.9622 21.2439 17.2377 21.5453C16.4693 21.7003 15.6915 21.801 14.9097 21.8468C14.1854 21.9266 13.4611 21.9266 12.7282 21.9266H11.409C11.1331 21.8912 10.8658 21.8734 10.6071 21.8734C9.82529 21.8332 9.04728 21.7354 8.27905 21.5808C6.61493 21.2616 5.5285 20.6941 5.06289 19.8074C4.88315 19.4639 4.78839 19.0802 4.78698 18.6901C4.78323 18.2977 4.87512 17.9105 5.05427 17.564C5.51126 16.6773 6.59768 16.1009 8.27905 15.7906C9.05066 15.6391 9.83133 15.5413 10.6157 15.4979C12.0506 15.3823 13.4921 15.3823 14.9269 15.4979C15.7083 15.5435 16.486 15.6412 17.255 15.7906Z" fill="#6E81A0"/>
</g>
</g>
</svg>
