<svg width="16" height="16" viewBox="0 0 16 16" fill="none" xmlns="http://www.w3.org/2000/svg">
<path d="M13.475 1.57813H11.165V0.394531C11.165 0.289895 11.1244 0.189545 11.0522 0.115556C10.98 0.0415666 10.8821 0 10.78 0C10.6779 0 10.58 0.0415666 10.5078 0.115556C10.4356 0.189545 10.395 0.289895 10.395 0.394531V1.57813H5.005V0.394531C5.005 0.289895 4.96444 0.189545 4.89224 0.115556C4.82003 0.0415666 4.72211 0 4.62 0C4.51789 0 4.41997 0.0415666 4.34776 0.115556C4.27556 0.189545 4.235 0.289895 4.235 0.394531V1.57813H1.925C1.41465 1.57875 0.92537 1.78679 0.564495 2.15659C0.20362 2.5264 0.000611325 3.02779 0 3.55078V13.8086C0.000611325 14.3316 0.20362 14.833 0.564495 15.2028C0.92537 15.5726 1.41465 15.7806 1.925 15.7813H13.475C13.9854 15.7808 14.4748 15.5729 14.8357 15.203C15.1966 14.8332 15.3996 14.3316 15.4 13.8086V3.55078C15.3996 3.02773 15.1966 2.52622 14.8357 2.15636C14.4748 1.78651 13.9854 1.57854 13.475 1.57813ZM14.63 13.8086C14.63 14.1225 14.5083 14.4236 14.2917 14.6455C14.0751 14.8675 13.7813 14.9922 13.475 14.9922H1.925C1.61867 14.9922 1.3249 14.8675 1.10829 14.6455C0.891687 14.4236 0.77 14.1225 0.77 13.8086V7.10156H14.63V13.8086ZM14.63 6.3125H0.77V3.55078C0.77 2.89744 1.2859 2.36719 1.925 2.36719H4.235V3.55078C4.235 3.65542 4.27556 3.75577 4.34776 3.82976C4.41997 3.90375 4.51789 3.94531 4.62 3.94531C4.72211 3.94531 4.82003 3.90375 4.89224 3.82976C4.96444 3.75577 5.005 3.65542 5.005 3.55078V2.36719H10.395V3.55078C10.395 3.65542 10.4356 3.75577 10.5078 3.82976C10.58 3.90375 10.6779 3.94531 10.78 3.94531C10.8821 3.94531 10.98 3.90375 11.0522 3.82976C11.1244 3.75577 11.165 3.65542 11.165 3.55078V2.36719H13.475C13.7813 2.36719 14.0751 2.49189 14.2917 2.71385C14.5083 2.93582 14.63 3.23687 14.63 3.55078V6.3125Z" fill="white"/>
</svg>
