<svg width="24" height="24" viewBox="0 0 24 24" fill="none" xmlns="http://www.w3.org/2000/svg">
<g id="ion:calendar-sharp">
<path id="Vector" d="M1.5 21.375C1.5 21.6734 1.61853 21.9595 1.8295 22.1705C2.04048 22.3815 2.32663 22.5 2.625 22.5H21.375C21.6734 22.5 21.9595 22.3815 22.1705 22.1705C22.3815 21.9595 22.5 21.6734 22.5 21.375V8.25H1.5V21.375ZM16.5 9.9375C16.5 9.88777 16.5198 9.84008 16.5549 9.80492C16.5901 9.76975 16.6378 9.75 16.6875 9.75H18.5625C18.6122 9.75 18.6599 9.76975 18.6951 9.80492C18.7302 9.84008 18.75 9.88777 18.75 9.9375V11.8125C18.75 11.8622 18.7302 11.9099 18.6951 11.9451C18.6599 11.9802 18.6122 12 18.5625 12H16.6875C16.6378 12 16.5901 11.9802 16.5549 11.9451C16.5198 11.9099 16.5 11.8622 16.5 11.8125V9.9375ZM16.5 13.6875C16.5 13.6378 16.5198 13.5901 16.5549 13.5549C16.5901 13.5198 16.6378 13.5 16.6875 13.5H18.5625C18.6122 13.5 18.6599 13.5198 18.6951 13.5549C18.7302 13.5901 18.75 13.6378 18.75 13.6875V15.5625C18.75 15.6122 18.7302 15.6599 18.6951 15.6951C18.6599 15.7302 18.6122 15.75 18.5625 15.75H16.6875C16.6378 15.75 16.5901 15.7302 16.5549 15.6951C16.5198 15.6599 16.5 15.6122 16.5 15.5625V13.6875ZM12.75 9.9375C12.75 9.88777 12.7698 9.84008 12.8049 9.80492C12.8401 9.76975 12.8878 9.75 12.9375 9.75H14.8125C14.8622 9.75 14.9099 9.76975 14.9451 9.80492C14.9802 9.84008 15 9.88777 15 9.9375V11.8125C15 11.8622 14.9802 11.9099 14.9451 11.9451C14.9099 11.9802 14.8622 12 14.8125 12H12.9375C12.8878 12 12.8401 11.9802 12.8049 11.9451C12.7698 11.9099 12.75 11.8622 12.75 11.8125V9.9375ZM12.75 13.6875C12.75 13.6378 12.7698 13.5901 12.8049 13.5549C12.8401 13.5198 12.8878 13.5 12.9375 13.5H14.8125C14.8622 13.5 14.9099 13.5198 14.9451 13.5549C14.9802 13.5901 15 13.6378 15 13.6875V15.5625C15 15.6122 14.9802 15.6599 14.9451 15.6951C14.9099 15.7302 14.8622 15.75 14.8125 15.75H12.9375C12.8878 15.75 12.8401 15.7302 12.8049 15.6951C12.7698 15.6599 12.75 15.6122 12.75 15.5625V13.6875ZM12.75 17.4375C12.75 17.3878 12.7698 17.3401 12.8049 17.3049C12.8401 17.2698 12.8878 17.25 12.9375 17.25H14.8125C14.8622 17.25 14.9099 17.2698 14.9451 17.3049C14.9802 17.3401 15 17.3878 15 17.4375V19.3125C15 19.3622 14.9802 19.4099 14.9451 19.4451C14.9099 19.4802 14.8622 19.5 14.8125 19.5H12.9375C12.8878 19.5 12.8401 19.4802 12.8049 19.4451C12.7698 19.4099 12.75 19.3622 12.75 19.3125V17.4375ZM9 13.6875C9 13.6378 9.01975 13.5901 9.05492 13.5549C9.09008 13.5198 9.13777 13.5 9.1875 13.5H11.0625C11.1122 13.5 11.1599 13.5198 11.1951 13.5549C11.2302 13.5901 11.25 13.6378 11.25 13.6875V15.5625C11.25 15.6122 11.2302 15.6599 11.1951 15.6951C11.1599 15.7302 11.1122 15.75 11.0625 15.75H9.1875C9.13777 15.75 9.09008 15.7302 9.05492 15.6951C9.01975 15.6599 9 15.6122 9 15.5625V13.6875ZM9 17.4375C9 17.3878 9.01975 17.3401 9.05492 17.3049C9.09008 17.2698 9.13777 17.25 9.1875 17.25H11.0625C11.1122 17.25 11.1599 17.2698 11.1951 17.3049C11.2302 17.3401 11.25 17.3878 11.25 17.4375V19.3125C11.25 19.3622 11.2302 19.4099 11.1951 19.4451C11.1599 19.4802 11.1122 19.5 11.0625 19.5H9.1875C9.13777 19.5 9.09008 19.4802 9.05492 19.4451C9.01975 19.4099 9 19.3622 9 19.3125V17.4375ZM5.25 13.6875C5.25 13.6378 5.26975 13.5901 5.30492 13.5549C5.34008 13.5198 5.38777 13.5 5.4375 13.5H7.3125C7.36223 13.5 7.40992 13.5198 7.44508 13.5549C7.48025 13.5901 7.5 13.6378 7.5 13.6875V15.5625C7.5 15.6122 7.48025 15.6599 7.44508 15.6951C7.40992 15.7302 7.36223 15.75 7.3125 15.75H5.4375C5.38777 15.75 5.34008 15.7302 5.30492 15.6951C5.26975 15.6599 5.25 15.6122 5.25 15.5625V13.6875ZM5.25 17.4375C5.25 17.3878 5.26975 17.3401 5.30492 17.3049C5.34008 17.2698 5.38777 17.25 5.4375 17.25H7.3125C7.36223 17.25 7.40992 17.2698 7.44508 17.3049C7.48025 17.3401 7.5 17.3878 7.5 17.4375V19.3125C7.5 19.3622 7.48025 19.4099 7.44508 19.4451C7.40992 19.4802 7.36223 19.5 7.3125 19.5H5.4375C5.38777 19.5 5.34008 19.4802 5.30492 19.4451C5.26975 19.4099 5.25 19.3622 5.25 19.3125V17.4375ZM21.375 3H18.7537V1.5H16.5037V3H7.49625V1.5H5.24625V3H2.625C2.47783 2.99876 2.33186 3.02666 2.19551 3.08208C2.05917 3.13751 1.93514 3.21936 1.83057 3.32293C1.72599 3.4265 1.64295 3.54974 1.58622 3.68554C1.52948 3.82135 1.50018 3.96704 1.5 4.11422V6.75H22.5V4.11422C22.4998 3.96704 22.4705 3.82135 22.4138 3.68554C22.357 3.54974 22.274 3.4265 22.1694 3.32293C22.0649 3.21936 21.9408 3.13751 21.8045 3.08208C21.6681 3.02666 21.5222 2.99876 21.375 3Z" fill="#6E81A0"/>
</g>
</svg>
