<svg width="17" height="16" viewBox="0 0 17 16" fill="none" xmlns="http://www.w3.org/2000/svg">
<g id="clarity:date-line" clip-path="url(#clip0_934_8539)">
<path id="Vector" d="M14.9333 2.66663H13.4889V3.55551H14.8222V13.3333H2.37777V3.55551H3.71111V2.66663H2.26666C2.16277 2.66836 2.06023 2.69055 1.96491 2.73192C1.86959 2.77329 1.78336 2.83303 1.71113 2.90773C1.63891 2.98244 1.5821 3.07063 1.54397 3.16729C1.50584 3.26395 1.48712 3.36718 1.48888 3.47107V13.4177C1.48712 13.5216 1.50584 13.6249 1.54397 13.7215C1.5821 13.8182 1.63891 13.9064 1.71113 13.9811C1.78336 14.0558 1.86959 14.1155 1.96491 14.1569C2.06023 14.1983 2.16277 14.2204 2.26666 14.2222H14.9333C15.0372 14.2204 15.1398 14.1983 15.2351 14.1569C15.3304 14.1155 15.4166 14.0558 15.4889 13.9811C15.5611 13.9064 15.6179 13.8182 15.656 13.7215C15.6942 13.6249 15.7129 13.5216 15.7111 13.4177V3.47107C15.7129 3.36718 15.6942 3.26395 15.656 3.16729C15.6179 3.07063 15.5611 2.98244 15.4889 2.90773C15.4166 2.83303 15.3304 2.77329 15.2351 2.73192C15.1398 2.69055 15.0372 2.66836 14.9333 2.66663Z" fill="white"/>
<path id="Vector_2" d="M4.15576 6.22217H5.04465V7.11106H4.15576V6.22217Z" fill="white"/>
<path id="Vector_3" d="M6.82227 6.22217H7.71115V7.11106H6.82227V6.22217Z" fill="white"/>
<path id="Vector_4" d="M9.48877 6.22217H10.3777V7.11106H9.48877V6.22217Z" fill="white"/>
<path id="Vector_5" d="M12.1558 6.22217H13.0447V7.11106H12.1558V6.22217Z" fill="white"/>
<path id="Vector_6" d="M4.15576 8.44434H5.04465V9.33322H4.15576V8.44434Z" fill="white"/>
<path id="Vector_7" d="M6.82227 8.44434H7.71115V9.33322H6.82227V8.44434Z" fill="white"/>
<path id="Vector_8" d="M9.48877 8.44434H10.3777V9.33322H9.48877V8.44434Z" fill="white"/>
<path id="Vector_9" d="M12.1558 8.44434H13.0447V9.33322H12.1558V8.44434Z" fill="white"/>
<path id="Vector_10" d="M4.15576 10.6667H5.04465V11.5556H4.15576V10.6667Z" fill="white"/>
<path id="Vector_11" d="M6.82227 10.6667H7.71115V11.5556H6.82227V10.6667Z" fill="white"/>
<path id="Vector_12" d="M9.48877 10.6667H10.3777V11.5556H9.48877V10.6667Z" fill="white"/>
<path id="Vector_13" d="M12.1558 10.6667H13.0447V11.5556H12.1558V10.6667Z" fill="white"/>
<path id="Vector_14" d="M5.04454 4.44447C5.16242 4.44447 5.27546 4.39765 5.35881 4.3143C5.44216 4.23095 5.48899 4.1179 5.48899 4.00003V1.33336C5.48899 1.21549 5.44216 1.10244 5.35881 1.01909C5.27546 0.935741 5.16242 0.888916 5.04454 0.888916C4.92667 0.888916 4.81362 0.935741 4.73027 1.01909C4.64692 1.10244 4.6001 1.21549 4.6001 1.33336V4.00003C4.6001 4.1179 4.64692 4.23095 4.73027 4.3143C4.81362 4.39765 4.92667 4.44447 5.04454 4.44447Z" fill="white"/>
<path id="Vector_15" d="M12.1559 4.44447C12.2737 4.44447 12.3868 4.39765 12.4701 4.3143C12.5535 4.23095 12.6003 4.1179 12.6003 4.00003V1.33336C12.6003 1.21549 12.5535 1.10244 12.4701 1.01909C12.3868 0.935741 12.2737 0.888916 12.1559 0.888916C12.038 0.888916 11.9249 0.935741 11.8416 1.01909C11.7583 1.10244 11.7114 1.21549 11.7114 1.33336V4.00003C11.7114 4.1179 11.7583 4.23095 11.8416 4.3143C11.9249 4.39765 12.038 4.44447 12.1559 4.44447Z" fill="white"/>
<path id="Vector_16" d="M6.37793 2.66663H10.8224V3.55551H6.37793V2.66663Z" fill="white"/>
</g>
<defs>
<clipPath id="clip0_934_8539">
<rect width="16" height="16" fill="white" transform="translate(0.600098)"/>
</clipPath>
</defs>
</svg>
