<svg width="10" height="10" viewBox="0 0 10 10" fill="none" xmlns="http://www.w3.org/2000/svg">
<path d="M0 7.91695V10H2.08305L8.22666 3.85639L6.14361 1.77334L0 7.91695ZM9.83755 2.2455C9.88905 2.19411 9.9299 2.13307 9.95778 2.06587C9.98565 1.99867 10 1.92663 10 1.85388C10 1.78113 9.98565 1.7091 9.95778 1.6419C9.9299 1.5747 9.88905 1.51366 9.83755 1.46227L8.53773 0.162447C8.48634 0.110952 8.4253 0.0700976 8.3581 0.0422228C8.2909 0.014348 8.21887 0 8.14612 0C8.07337 0 8.00133 0.014348 7.93413 0.0422228C7.86693 0.0700976 7.80589 0.110952 7.7545 0.162447L6.73797 1.17898L8.82102 3.26203L9.83755 2.2455Z" fill="#2463eb"/>
</svg>
