<svg width="20" height="20" viewBox="0 0 24 24" fill="none" xmlns="http://www.w3.org/2000/svg">
<g id="fluent:signature-24-regular">
<path id="Vector" d="M14.7501 16.5C16.0601 16.5 16.5691 17.083 16.9561 18.375L17.0241 18.612C17.2061 19.269 17.3161 19.466 17.5371 19.557C17.7961 19.664 17.9681 19.649 18.2401 19.509L18.3871 19.427C18.4401 19.395 18.4971 19.358 18.5631 19.315L19.2261 18.864C19.8421 18.459 20.3961 18.191 21.0691 18.023C21.1652 17.9974 21.2654 17.9912 21.3638 18.0048C21.4623 18.0183 21.5571 18.0513 21.6428 18.1018C21.7284 18.1523 21.8031 18.2194 21.8626 18.299C21.9221 18.3787 21.9652 18.4693 21.9893 18.5658C22.0134 18.6622 22.0181 18.7625 22.0031 18.8608C21.9882 18.959 21.9538 19.0534 21.9021 19.1382C21.8503 19.2231 21.7822 19.2969 21.7017 19.3552C21.6212 19.4135 21.5299 19.4552 21.4331 19.478C21.028 19.5809 20.6414 19.7462 20.2871 19.968L19.9891 20.158L19.5091 20.486C19.3224 20.617 19.1277 20.7363 18.9261 20.843C18.2831 21.173 17.6561 21.229 16.9651 20.943C16.2201 20.637 15.9201 20.164 15.6391 19.223L15.4831 18.68C15.3021 18.091 15.1781 18 14.7511 18C14.4411 18 14.1211 18.155 13.6821 18.523L13.4981 18.684L12.5771 19.559C11.1691 20.883 9.96809 21.526 8.24909 21.526C6.56309 21.526 5.10509 21.272 3.88109 20.757L6.82809 19.953C7.27509 20.001 7.74909 20.026 8.24909 20.026C9.43209 20.026 10.2811 19.611 11.3361 18.663L11.5941 18.424L12.1261 17.914C12.3621 17.687 12.5401 17.524 12.7181 17.374C13.4021 16.801 14.0231 16.5 14.7511 16.5H14.7501ZM19.0311 2.96995C19.7018 3.64109 20.0786 4.5511 20.0786 5.49995C20.0786 6.4488 19.7018 7.35882 19.0311 8.02995L18.7431 8.31995C19.8941 9.71995 19.8531 11.206 18.7821 12.28L16.7801 14.28C16.6393 14.4205 16.4484 14.4994 16.2494 14.4992C16.0504 14.499 15.8597 14.4198 15.7191 14.279C15.5785 14.1381 15.4997 13.9472 15.4998 13.7482C15.5 13.5493 15.5793 13.3585 15.7201 13.218L17.7191 11.22C18.2041 10.733 18.2591 10.13 17.6791 9.38095L9.06309 18C8.78596 18.2771 8.44125 18.477 8.06309 18.58L2.94809 19.975C2.82058 20.0095 2.68619 20.0098 2.55853 19.9758C2.43087 19.9418 2.31446 19.8746 2.22109 19.7812C2.12772 19.6877 2.0607 19.5712 2.0268 19.4435C1.99291 19.3158 1.99336 19.1814 2.02809 19.054L3.42209 13.938C3.52519 13.5602 3.72511 13.2158 4.00209 12.939L13.9701 2.96995C14.3024 2.63756 14.6968 2.37389 15.131 2.194C15.5652 2.0141 16.0306 1.92151 16.5006 1.92151C16.9706 1.92151 17.436 2.0141 17.8701 2.194C18.3043 2.37389 18.6988 2.63756 19.0311 2.96995ZM15.0311 4.02995L5.06309 14C4.97089 14.0923 4.90436 14.2071 4.87009 14.333L3.82009 18.183L7.67009 17.133C7.79573 17.0982 7.91016 17.0314 8.00209 16.939L17.9711 6.97095C18.1641 6.77791 18.3173 6.54873 18.4217 6.29651C18.5262 6.04429 18.58 5.77396 18.58 5.50095C18.58 5.22795 18.5262 4.95762 18.4217 4.70539C18.3173 4.45317 18.1641 4.224 17.9711 4.03095C17.778 3.83791 17.5489 3.68478 17.2966 3.58031C17.0444 3.47583 16.7741 3.42206 16.5011 3.42206C16.2281 3.42206 15.9578 3.47583 15.7055 3.58031C15.4533 3.68478 15.2241 3.83691 15.0311 4.02995Z" fill="white"/>
</g>
</svg>
