<svg width="50" height="50" viewBox="0 0 25 24" fill="none" xmlns="http://www.w3.org/2000/svg">
<g id="material-symbols:fingerprint-outline">
<path id="Vector" d="M3.36835 9.6499C3.25168 9.56657 3.18068 9.46224 3.15535 9.3369C3.13001 9.21157 3.16768 9.08257 3.26835 8.9499C4.30168 7.53324 5.59768 6.43324 7.15635 5.6499C8.71501 4.86657 10.3773 4.4749 12.1433 4.4749C13.91 4.4749 15.5767 4.85424 17.1433 5.6129C18.71 6.37157 20.0183 7.46724 21.0683 8.8999C21.185 9.0499 21.2227 9.18324 21.1813 9.2999C21.14 9.41657 21.069 9.51657 20.9683 9.5999C20.8683 9.68324 20.7517 9.7209 20.6183 9.7129C20.485 9.7049 20.3683 9.6339 20.2683 9.4999C19.3517 8.1999 18.1727 7.20424 16.7313 6.5129C15.29 5.82157 13.7607 5.47557 12.1433 5.4749C10.5267 5.4749 9.01001 5.8209 7.59335 6.5129C6.17668 7.2049 5.00168 8.20057 4.06835 9.4999C3.96835 9.6499 3.85168 9.73324 3.71835 9.7499C3.58501 9.76657 3.46835 9.73324 3.36835 9.6499ZM14.9683 21.9749C13.235 21.5416 11.8183 20.6789 10.7183 19.3869C9.61835 18.0949 9.06835 16.5159 9.06835 14.6499C9.06835 13.8166 9.36835 13.1166 9.96835 12.5499C10.5683 11.9832 11.2933 11.6999 12.1433 11.6999C12.9933 11.6999 13.7183 11.9832 14.3183 12.5499C14.9183 13.1166 15.2183 13.8166 15.2183 14.6499C15.2183 15.1999 15.4267 15.6626 15.8433 16.0379C16.26 16.4132 16.7517 16.6006 17.3183 16.5999C17.885 16.5999 18.3683 16.4122 18.7683 16.0369C19.1683 15.6616 19.3683 15.1992 19.3683 14.6499C19.3683 12.7166 18.66 11.0916 17.2433 9.7749C15.8267 8.45824 14.135 7.7999 12.1683 7.7999C10.2017 7.7999 8.51001 8.45824 7.09335 9.7749C5.67668 11.0916 4.96835 12.7082 4.96835 14.6249C4.96835 15.0249 5.00601 15.5249 5.08135 16.1249C5.15668 16.7249 5.33568 17.4249 5.61835 18.2249C5.66835 18.3749 5.66435 18.5082 5.60635 18.6249C5.54835 18.7416 5.45235 18.8249 5.31835 18.8749C5.18501 18.9249 5.05568 18.9206 4.93035 18.8619C4.80501 18.8032 4.71768 18.7076 4.66835 18.5749C4.41835 17.9249 4.23935 17.2789 4.13135 16.6369C4.02335 15.9949 3.96901 15.3326 3.96835 14.6499C3.96835 12.4332 4.77268 10.5749 6.38135 9.0749C7.99001 7.5749 9.91068 6.8249 12.1433 6.8249C14.3933 6.8249 16.3267 7.5749 17.9433 9.0749C19.56 10.5749 20.3683 12.4332 20.3683 14.6499C20.3683 15.4832 20.0727 16.1789 19.4813 16.7369C18.89 17.2949 18.169 17.5742 17.3183 17.5749C16.4683 17.5749 15.739 17.2956 15.1303 16.7369C14.5217 16.1782 14.2177 15.4826 14.2183 14.6499C14.2183 14.0999 14.0143 13.6372 13.6063 13.2619C13.1983 12.8866 12.7107 12.6992 12.1433 12.6999C11.5767 12.6999 11.089 12.8876 10.6803 13.2629C10.2717 13.6382 10.0677 14.1006 10.0683 14.6499C10.0683 16.2666 10.5477 17.6166 11.5063 18.6999C12.465 19.7832 13.7023 20.5416 15.2183 20.9749C15.3683 21.0249 15.4683 21.1082 15.5183 21.2249C15.5683 21.3416 15.5767 21.4666 15.5433 21.5999C15.51 21.7166 15.4433 21.8166 15.3433 21.8999C15.2433 21.9832 15.1183 22.0082 14.9683 21.9749ZM6.61835 4.4249C6.48501 4.50824 6.35168 4.52924 6.21835 4.4879C6.08501 4.44657 5.98501 4.3589 5.91835 4.2249C5.85168 4.09157 5.83501 3.9709 5.86835 3.8629C5.90168 3.7549 5.98501 3.6589 6.11835 3.5749C7.05168 3.0749 8.02668 2.69157 9.04335 2.4249C10.06 2.15824 11.0933 2.0249 12.1433 2.0249C13.21 2.0249 14.2517 2.15424 15.2683 2.4129C16.285 2.67157 17.2683 3.04224 18.2183 3.5249C18.3683 3.60824 18.456 3.70824 18.4813 3.8249C18.5067 3.94157 18.494 4.05824 18.4433 4.1749C18.3933 4.29157 18.31 4.38324 18.1933 4.4499C18.0767 4.51657 17.935 4.50824 17.7683 4.4249C16.885 3.9749 15.9723 3.6289 15.0303 3.3869C14.0883 3.1449 13.126 3.02424 12.1433 3.0249C11.1767 3.0249 10.2267 3.13757 9.29335 3.3629C8.36001 3.58824 7.46835 3.94224 6.61835 4.4249ZM9.56835 21.6249C8.58501 20.5916 7.83068 19.5372 7.30535 18.4619C6.78001 17.3866 6.51768 16.1159 6.51835 14.6499C6.51835 13.1332 7.06835 11.8539 8.16835 10.8119C9.26835 9.7699 10.5933 9.24924 12.1433 9.2499C13.6933 9.2499 15.0267 9.7709 16.1433 10.8129C17.26 11.8549 17.8183 13.1339 17.8183 14.6499C17.8183 14.7999 17.7723 14.9209 17.6803 15.0129C17.5883 15.1049 17.4677 15.1506 17.3183 15.1499C17.185 15.1499 17.0683 15.1039 16.9683 15.0119C16.8683 14.9199 16.8183 14.7992 16.8183 14.6499C16.8183 13.3999 16.3557 12.3539 15.4303 11.5119C14.505 10.6699 13.4093 10.2492 12.1433 10.2499C10.8767 10.2499 9.78901 10.6709 8.88035 11.5129C7.97168 12.3549 7.51768 13.4006 7.51835 14.6499C7.51835 15.9999 7.75168 17.1459 8.21835 18.0879C8.68501 19.0299 9.36834 19.9756 10.2683 20.9249C10.3683 21.0249 10.4183 21.1416 10.4183 21.2749C10.4183 21.4082 10.3683 21.5249 10.2683 21.6249C10.1683 21.7249 10.0517 21.7749 9.91835 21.7749C9.78501 21.7749 9.66834 21.7249 9.56835 21.6249ZM17.1183 19.9249C15.635 19.9249 14.3473 19.4249 13.2553 18.4249C12.1633 17.4249 11.6177 16.1666 11.6183 14.6499C11.6183 14.5166 11.6643 14.3999 11.7563 14.2999C11.8483 14.1999 11.969 14.1499 12.1183 14.1499C12.2683 14.1499 12.3893 14.1999 12.4813 14.2999C12.5733 14.3999 12.619 14.5166 12.6183 14.6499C12.6183 15.8999 13.0683 16.9249 13.9683 17.7249C14.8683 18.5249 15.9183 18.9249 17.1183 18.9249C17.2183 18.9249 17.36 18.9166 17.5433 18.8999C17.7267 18.8832 17.9183 18.8582 18.1183 18.8249C18.2683 18.7916 18.3977 18.8126 18.5063 18.8879C18.615 18.9632 18.6857 19.0756 18.7183 19.2249C18.7517 19.3582 18.7267 19.4749 18.6433 19.5749C18.56 19.6749 18.4517 19.7416 18.3183 19.7749C18.0183 19.8582 17.756 19.9042 17.5313 19.9129C17.3067 19.9216 17.169 19.9256 17.1183 19.9249Z" fill="#2E476E"/>
</g>
</svg>
