<svg width="24" height="25" viewBox="0 0 24 25" fill="none" xmlns="http://www.w3.org/2000/svg">
<path d="M8.54187 23.101V19.4062C8.54187 18.463 9.31205 17.6985 10.2621 17.6985H13.7351C14.1913 17.6985 14.6289 17.8784 14.9515 18.1986C15.2741 18.5189 15.4553 18.9533 15.4553 19.4062V23.101C15.4524 23.4931 15.6073 23.8701 15.8856 24.1484C16.1639 24.4267 16.5426 24.5832 16.9376 24.5832H19.307C20.4136 24.586 21.4758 24.1516 22.2593 23.3758C23.0428 22.6 23.4832 21.5466 23.4832 20.448V9.92229C23.4832 9.03489 23.0869 8.19315 22.4013 7.62381L14.341 1.23318C12.9388 0.112683 10.9299 0.148861 9.56969 1.3191L1.69331 7.62381C0.975236 8.17636 0.54605 9.02061 0.524841 9.92229V20.4373C0.524841 22.727 2.39459 24.5832 4.70105 24.5832H7.01636C7.83674 24.5832 8.50346 23.9261 8.50941 23.1117L8.54187 23.101Z" fill="url(#paint0_linear_165_1423)"/>
<defs>
<linearGradient id="paint0_linear_165_1423" x1="12.004" y1="0.416504" x2="12.004" y2="24.5832" gradientUnits="userSpaceOnUse">
<stop stop-color="#2463eb"/>
<stop offset="1" stop-color="#2463eb"/>
</linearGradient>
</defs>
</svg>
