<svg width="72" height="150" viewBox="0 0 390 844" fill="none" xmlns="http://www.w3.org/2000/svg">
<g clip-path="url(#clip0_934_6430)">
<rect width="390" height="844" fill="white"/>
<path d="M35.3636 97.2727V87.4545L41.9091 82.5454L48.4546 87.4545V97.2727H43.5455V91.5454H40.2727V97.2727H35.3636Z" fill="#6E81A0"/>
<path d="M106.08 81.152V98H101.976V91.064H95.592V98H91.488V81.152H95.592V87.752H101.976V81.152H106.08ZM115.139 98.192C113.827 98.192 112.643 97.912 111.587 97.352C110.547 96.792 109.723 95.992 109.115 94.952C108.523 93.912 108.227 92.696 108.227 91.304C108.227 89.928 108.531 88.72 109.139 87.68C109.747 86.624 110.579 85.816 111.635 85.256C112.691 84.696 113.875 84.416 115.187 84.416C116.499 84.416 117.683 84.696 118.739 85.256C119.795 85.816 120.627 86.624 121.235 87.68C121.843 88.72 122.147 89.928 122.147 91.304C122.147 92.68 121.835 93.896 121.211 94.952C120.603 95.992 119.763 96.792 118.691 97.352C117.635 97.912 116.451 98.192 115.139 98.192ZM115.139 94.64C115.923 94.64 116.587 94.352 117.131 93.776C117.691 93.2 117.971 92.376 117.971 91.304C117.971 90.232 117.699 89.408 117.155 88.832C116.627 88.256 115.971 87.968 115.187 87.968C114.387 87.968 113.723 88.256 113.195 88.832C112.667 89.392 112.403 90.216 112.403 91.304C112.403 92.376 112.659 93.2 113.171 93.776C113.699 94.352 114.355 94.64 115.139 94.64ZM141.412 84.464C143.076 84.464 144.396 84.968 145.372 85.976C146.364 86.984 146.86 88.384 146.86 90.176V98H142.78V90.728C142.78 89.864 142.548 89.2 142.084 88.736C141.636 88.256 141.012 88.016 140.212 88.016C139.412 88.016 138.78 88.256 138.316 88.736C137.868 89.2 137.644 89.864 137.644 90.728V98H133.564V90.728C133.564 89.864 133.332 89.2 132.868 88.736C132.42 88.256 131.796 88.016 130.996 88.016C130.196 88.016 129.564 88.256 129.1 88.736C128.652 89.2 128.428 89.864 128.428 90.728V98H124.324V84.608H128.428V86.288C128.844 85.728 129.388 85.288 130.06 84.968C130.732 84.632 131.492 84.464 132.34 84.464C133.348 84.464 134.244 84.68 135.028 85.112C135.828 85.544 136.452 86.16 136.9 86.96C137.364 86.224 137.996 85.624 138.796 85.16C139.596 84.696 140.468 84.464 141.412 84.464ZM162.354 91.088C162.354 91.472 162.33 91.872 162.282 92.288H152.994C153.058 93.12 153.322 93.76 153.786 94.208C154.266 94.64 154.85 94.856 155.538 94.856C156.562 94.856 157.274 94.424 157.674 93.56H162.042C161.818 94.44 161.41 95.232 160.818 95.936C160.242 96.64 159.514 97.192 158.634 97.592C157.754 97.992 156.77 98.192 155.682 98.192C154.37 98.192 153.202 97.912 152.178 97.352C151.154 96.792 150.354 95.992 149.778 94.952C149.202 93.912 148.914 92.696 148.914 91.304C148.914 89.912 149.194 88.696 149.754 87.656C150.33 86.616 151.13 85.816 152.154 85.256C153.178 84.696 154.354 84.416 155.682 84.416C156.978 84.416 158.13 84.688 159.138 85.232C160.146 85.776 160.93 86.552 161.49 87.56C162.066 88.568 162.354 89.744 162.354 91.088ZM158.154 90.008C158.154 89.304 157.914 88.744 157.434 88.328C156.954 87.912 156.354 87.704 155.634 87.704C154.946 87.704 154.362 87.904 153.882 88.304C153.418 88.704 153.13 89.272 153.018 90.008H158.154Z" fill="#2E476E"/>
<g filter="url(#filter0_dddd_934_6430)">
<rect x="168" y="613" width="55" height="55" rx="27.5" fill="#3D50DF"/>
</g>
<path d="M203.5 641.25H197.25V647.5C197.25 648.187 196.688 648.75 196 648.75C195.312 648.75 194.75 648.187 194.75 647.5V641.25H188.5C187.812 641.25 187.25 640.687 187.25 640C187.25 639.312 187.812 638.75 188.5 638.75H194.75V632.5C194.75 631.812 195.312 631.25 196 631.25C196.688 631.25 197.25 631.812 197.25 632.5V638.75H203.5C204.188 638.75 204.75 639.312 204.75 640C204.75 640.687 204.188 641.25 203.5 641.25Z" fill="white"/>
<g filter="url(#filter1_bd_934_6430)">
<path d="M374 762H16C7.16344 762 0 769.163 0 778V837.52C0 846.357 7.16344 853.52 16 853.52H374C382.837 853.52 390 846.357 390 837.52V778C390 769.163 382.837 762 374 762Z" fill="#3D50DF"/>
</g>
<path d="M41.4893 808.64V816.56H40.1933V808.64H41.4893ZM36.2813 808.64V816.56H34.9973V808.64H36.2813ZM40.8413 812V813.104H35.6453V812H40.8413ZM46.1752 810.44C46.7592 810.44 47.2752 810.564 47.7232 810.812C48.1712 811.06 48.5192 811.42 48.7672 811.892C49.0232 812.356 49.1512 812.912 49.1512 813.56C49.1512 814.208 49.0232 814.768 48.7672 815.24C48.5192 815.704 48.1712 816.06 47.7232 816.308C47.2752 816.556 46.7592 816.68 46.1752 816.68C45.5912 816.68 45.0752 816.556 44.6272 816.308C44.1792 816.06 43.8272 815.704 43.5712 815.24C43.3152 814.768 43.1872 814.208 43.1872 813.56C43.1872 812.912 43.3152 812.356 43.5712 811.892C43.8272 811.42 44.1792 811.06 44.6272 810.812C45.0752 810.564 45.5912 810.44 46.1752 810.44ZM46.1752 811.448C45.8152 811.448 45.5072 811.532 45.2512 811.7C45.0032 811.86 44.8112 812.096 44.6752 812.408C44.5392 812.72 44.4712 813.104 44.4712 813.56C44.4712 814.008 44.5392 814.392 44.6752 814.712C44.8112 815.024 45.0032 815.264 45.2512 815.432C45.5072 815.592 45.8152 815.672 46.1752 815.672C46.5352 815.672 46.8392 815.592 47.0872 815.432C47.3352 815.264 47.5272 815.024 47.6632 814.712C47.7992 814.392 47.8672 814.008 47.8672 813.56C47.8672 813.104 47.7992 812.72 47.6632 812.408C47.5272 812.096 47.3352 811.86 47.0872 811.7C46.8392 811.532 46.5352 811.448 46.1752 811.448ZM50.7665 816.56V810.56H51.9065L51.9665 811.568C52.1745 811.184 52.4505 810.9 52.7945 810.716C53.1465 810.532 53.5185 810.44 53.9105 810.44C54.3425 810.44 54.7385 810.54 55.0985 810.74C55.4665 810.932 55.7425 811.224 55.9265 811.616C56.0545 811.352 56.2305 811.132 56.4545 810.956C56.6785 810.78 56.9265 810.652 57.1985 810.572C57.4705 810.484 57.7385 810.44 58.0025 810.44C58.3865 810.44 58.7465 810.52 59.0825 810.68C59.4185 810.84 59.6905 811.084 59.8985 811.412C60.1065 811.74 60.2105 812.16 60.2105 812.672V816.56H58.9265V812.876C58.9265 812.388 58.8105 812.036 58.5785 811.82C58.3465 811.604 58.0505 811.496 57.6905 811.496C57.4105 811.496 57.1505 811.564 56.9105 811.7C56.6785 811.836 56.4905 812.04 56.3465 812.312C56.2025 812.576 56.1305 812.904 56.1305 813.296V816.56H54.8465V812.876C54.8465 812.388 54.7305 812.036 54.4985 811.82C54.2665 811.604 53.9705 811.496 53.6105 811.496C53.3705 811.496 53.1305 811.56 52.8905 811.688C52.6505 811.816 52.4505 812.016 52.2905 812.288C52.1305 812.56 52.0505 812.92 52.0505 813.368V816.56H50.7665ZM64.7972 816.68C64.1972 816.68 63.6692 816.556 63.2132 816.308C62.7572 816.06 62.4012 815.704 62.1452 815.24C61.8972 814.768 61.7732 814.208 61.7732 813.56C61.7732 812.912 61.8972 812.356 62.1452 811.892C62.4012 811.42 62.7532 811.06 63.2012 810.812C63.6492 810.564 64.1572 810.44 64.7252 810.44C65.3092 810.44 65.8052 810.56 66.2132 810.8C66.6212 811.04 66.9332 811.368 67.1492 811.784C67.3652 812.2 67.4732 812.672 67.4732 813.2C67.4732 813.344 67.4692 813.48 67.4612 813.608C67.4532 813.736 67.4412 813.848 67.4252 813.944H62.6012V812.96H66.8612L66.2252 813.152C66.2252 812.608 66.0892 812.192 65.8172 811.904C65.5452 811.608 65.1732 811.46 64.7012 811.46C64.3572 811.46 64.0572 811.54 63.8012 811.7C63.5452 811.86 63.3492 812.1 63.2132 812.42C63.0772 812.732 63.0092 813.116 63.0092 813.572C63.0092 814.02 63.0812 814.4 63.2252 814.712C63.3692 815.024 63.5732 815.26 63.8372 815.42C64.1012 815.58 64.4132 815.66 64.7732 815.66C65.1732 815.66 65.4972 815.584 65.7452 815.432C65.9932 815.28 66.1892 815.068 66.3332 814.796L67.3532 815.276C67.2092 815.564 67.0132 815.816 66.7652 816.032C66.5252 816.24 66.2372 816.4 65.9012 816.512C65.5652 816.624 65.1972 816.68 64.7972 816.68Z" fill="white"/>
<path d="M43.9867 799.93V787.97L51.96 781.99L59.9334 787.97V799.93H53.9534V792.953H49.9667V799.93H43.9867Z" fill="white"/>
<g opacity="0.5">
<path d="M135.812 799.466C137.274 800.927 139.622 800.927 144.32 800.927C149.018 800.927 151.367 800.927 152.827 799.466C154.093 798.201 154.262 796.264 154.284 792.704H151.137C150.166 792.704 149.912 792.72 149.7 792.818C149.487 792.916 149.309 793.099 148.677 793.834L148.074 794.539L147.987 794.641C147.486 795.226 147.09 795.689 146.542 795.941C145.993 796.193 145.383 796.193 144.614 796.192H144.027C143.257 796.192 142.647 796.194 142.098 795.941C141.55 795.689 141.154 795.226 140.653 794.641L140.566 794.539L139.963 793.835C139.331 793.098 139.153 792.916 138.94 792.819C138.728 792.72 138.474 792.704 137.503 792.704H134.356C134.379 796.264 134.546 798.201 135.812 799.466Z" fill="white"/>
<path d="M152.827 782.452C151.368 780.993 149.018 780.993 144.32 780.993C139.622 780.993 137.273 780.993 135.813 782.452C134.353 783.914 134.353 786.262 134.353 790.96V791.209H137.637C138.407 791.209 139.017 791.207 139.565 791.46C140.113 791.712 140.51 792.176 141.01 792.761L141.098 792.863L141.701 793.566C142.333 794.304 142.51 794.485 142.723 794.583C142.936 794.682 143.19 794.697 144.161 794.697H144.48C145.45 794.697 145.704 794.682 145.917 794.584C146.13 794.485 146.307 794.303 146.939 793.567L147.542 792.863L147.63 792.761C148.13 792.176 148.527 791.712 149.075 791.46C149.623 791.207 150.233 791.208 151.003 791.209H154.287V790.96C154.287 786.262 154.287 783.913 152.827 782.452Z" fill="white"/>
<path d="M131.235 809.52V817.44H129.951V809.52H131.235ZM133.357 817.44V811.44H134.497L134.581 813L134.413 812.832C134.525 812.488 134.685 812.204 134.893 811.98C135.109 811.748 135.361 811.58 135.649 811.476C135.945 811.372 136.257 811.32 136.585 811.32C137.009 811.32 137.389 811.404 137.725 811.572C138.069 811.732 138.341 811.976 138.541 812.304C138.741 812.632 138.841 813.048 138.841 813.552V817.44H137.557V813.948C137.557 813.356 137.433 812.948 137.185 812.724C136.945 812.492 136.641 812.376 136.273 812.376C136.009 812.376 135.753 812.44 135.505 812.568C135.257 812.688 135.049 812.884 134.881 813.156C134.721 813.428 134.641 813.792 134.641 814.248V817.44H133.357ZM144.002 817.56C143.65 817.56 143.326 817.492 143.03 817.356C142.742 817.22 142.498 817.032 142.298 816.792C142.098 816.544 141.95 816.268 141.854 815.964L142.01 815.76L141.914 817.44H140.786V808.74H142.07V812.952L141.926 812.748C142.078 812.332 142.338 811.992 142.706 811.728C143.074 811.456 143.518 811.32 144.038 811.32C144.518 811.32 144.958 811.444 145.358 811.692C145.766 811.94 146.086 812.296 146.318 812.76C146.55 813.224 146.666 813.788 146.666 814.452C146.666 815.1 146.546 815.656 146.306 816.12C146.074 816.584 145.754 816.94 145.346 817.188C144.946 817.436 144.498 817.56 144.002 817.56ZM143.726 816.528C144.246 816.528 144.65 816.344 144.938 815.976C145.234 815.6 145.382 815.088 145.382 814.44C145.382 813.792 145.238 813.284 144.95 812.916C144.662 812.548 144.258 812.364 143.738 812.364C143.402 812.364 143.11 812.452 142.862 812.628C142.614 812.796 142.418 813.036 142.274 813.348C142.138 813.66 142.07 814.032 142.07 814.464C142.07 814.888 142.138 815.256 142.274 815.568C142.41 815.872 142.602 816.108 142.85 816.276C143.106 816.444 143.398 816.528 143.726 816.528ZM150.914 811.32C151.498 811.32 152.014 811.444 152.462 811.692C152.91 811.94 153.258 812.3 153.506 812.772C153.762 813.236 153.89 813.792 153.89 814.44C153.89 815.088 153.762 815.648 153.506 816.12C153.258 816.584 152.91 816.94 152.462 817.188C152.014 817.436 151.498 817.56 150.914 817.56C150.33 817.56 149.814 817.436 149.366 817.188C148.918 816.94 148.566 816.584 148.31 816.12C148.054 815.648 147.926 815.088 147.926 814.44C147.926 813.792 148.054 813.236 148.31 812.772C148.566 812.3 148.918 811.94 149.366 811.692C149.814 811.444 150.33 811.32 150.914 811.32ZM150.914 812.328C150.554 812.328 150.246 812.412 149.99 812.58C149.742 812.74 149.55 812.976 149.414 813.288C149.278 813.6 149.21 813.984 149.21 814.44C149.21 814.888 149.278 815.272 149.414 815.592C149.55 815.904 149.742 816.144 149.99 816.312C150.246 816.472 150.554 816.552 150.914 816.552C151.274 816.552 151.578 816.472 151.826 816.312C152.074 816.144 152.266 815.904 152.402 815.592C152.538 815.272 152.606 814.888 152.606 814.44C152.606 813.984 152.538 813.6 152.402 813.288C152.266 812.976 152.074 812.74 151.826 812.58C151.578 812.412 151.274 812.328 150.914 812.328ZM156.16 811.44L157.852 814.008L158.092 814.044L160.528 817.44H159.004L157.24 814.8L156.964 814.704L154.612 811.44H156.16ZM160.492 811.44L158.14 814.656L157.876 814.644L155.956 817.44H154.492L157.048 814.02L157.3 814.044L159.016 811.44H160.492Z" fill="white"/>
</g>
<g opacity="0.5">
<path d="M221.905 809.4C222.617 809.4 223.233 809.536 223.753 809.808C224.273 810.072 224.713 810.464 225.073 810.984L224.209 811.812C223.905 811.348 223.561 811.016 223.177 810.816C222.801 810.608 222.353 810.504 221.833 810.504C221.449 810.504 221.133 810.556 220.885 810.66C220.637 810.764 220.453 810.904 220.333 811.08C220.221 811.248 220.165 811.44 220.165 811.656C220.165 811.904 220.249 812.12 220.417 812.304C220.593 812.488 220.917 812.632 221.389 812.736L222.997 813.096C223.765 813.264 224.309 813.52 224.629 813.864C224.949 814.208 225.109 814.644 225.109 815.172C225.109 815.66 224.977 816.084 224.713 816.444C224.449 816.804 224.081 817.08 223.609 817.272C223.145 817.464 222.597 817.56 221.965 817.56C221.405 817.56 220.901 817.488 220.453 817.344C220.005 817.2 219.613 817.004 219.277 816.756C218.941 816.508 218.665 816.224 218.449 815.904L219.337 815.016C219.505 815.296 219.717 815.548 219.973 815.772C220.229 815.988 220.525 816.156 220.861 816.276C221.205 816.396 221.585 816.456 222.001 816.456C222.369 816.456 222.685 816.412 222.949 816.324C223.221 816.236 223.425 816.108 223.561 815.94C223.705 815.764 223.777 815.556 223.777 815.316C223.777 815.084 223.697 814.88 223.537 814.704C223.385 814.528 223.097 814.392 222.673 814.296L220.933 813.9C220.453 813.796 220.057 813.648 219.745 813.456C219.433 813.264 219.201 813.032 219.049 812.76C218.897 812.48 218.821 812.168 218.821 811.824C218.821 811.376 218.941 810.972 219.181 810.612C219.429 810.244 219.785 809.952 220.249 809.736C220.713 809.512 221.265 809.4 221.905 809.4ZM229.364 817.56C228.764 817.56 228.236 817.436 227.78 817.188C227.324 816.94 226.968 816.584 226.712 816.12C226.464 815.648 226.34 815.088 226.34 814.44C226.34 813.792 226.464 813.236 226.712 812.772C226.968 812.3 227.32 811.94 227.768 811.692C228.216 811.444 228.724 811.32 229.292 811.32C229.876 811.32 230.372 811.44 230.78 811.68C231.188 811.92 231.5 812.248 231.716 812.664C231.932 813.08 232.04 813.552 232.04 814.08C232.04 814.224 232.036 814.36 232.028 814.488C232.02 814.616 232.008 814.728 231.992 814.824H227.168V813.84H231.428L230.792 814.032C230.792 813.488 230.656 813.072 230.384 812.784C230.112 812.488 229.74 812.34 229.268 812.34C228.924 812.34 228.624 812.42 228.368 812.58C228.112 812.74 227.916 812.98 227.78 813.3C227.644 813.612 227.576 813.996 227.576 814.452C227.576 814.9 227.648 815.28 227.792 815.592C227.936 815.904 228.14 816.14 228.404 816.3C228.668 816.46 228.98 816.54 229.34 816.54C229.74 816.54 230.064 816.464 230.312 816.312C230.56 816.16 230.756 815.948 230.9 815.676L231.92 816.156C231.776 816.444 231.58 816.696 231.332 816.912C231.092 817.12 230.804 817.28 230.468 817.392C230.132 817.504 229.764 817.56 229.364 817.56ZM235.273 809.676V815.64C235.273 815.936 235.349 816.152 235.501 816.288C235.661 816.424 235.873 816.492 236.137 816.492C236.353 816.492 236.541 816.46 236.701 816.396C236.861 816.324 237.009 816.228 237.145 816.108L237.433 817.044C237.249 817.204 237.021 817.332 236.749 817.428C236.485 817.516 236.189 817.56 235.861 817.56C235.517 817.56 235.201 817.504 234.913 817.392C234.625 817.28 234.401 817.1 234.241 816.852C234.081 816.596 233.997 816.264 233.989 815.856V810.036L235.273 809.676ZM237.337 811.44V812.448H232.837V811.44H237.337ZM239.679 809.676V815.64C239.679 815.936 239.755 816.152 239.907 816.288C240.067 816.424 240.279 816.492 240.543 816.492C240.759 816.492 240.947 816.46 241.107 816.396C241.267 816.324 241.415 816.228 241.551 816.108L241.839 817.044C241.655 817.204 241.427 817.332 241.155 817.428C240.891 817.516 240.595 817.56 240.267 817.56C239.923 817.56 239.607 817.504 239.319 817.392C239.031 817.28 238.807 817.1 238.647 816.852C238.487 816.596 238.403 816.264 238.395 815.856V810.036L239.679 809.676ZM241.743 811.44V812.448H237.243V811.44H241.743ZM243.661 810.432C243.381 810.432 243.165 810.364 243.013 810.228C242.869 810.084 242.797 809.884 242.797 809.628C242.797 809.372 242.869 809.176 243.013 809.04C243.165 808.904 243.381 808.836 243.661 808.836C243.933 808.836 244.141 808.904 244.285 809.04C244.437 809.176 244.513 809.372 244.513 809.628C244.513 809.884 244.437 810.084 244.285 810.228C244.141 810.364 243.933 810.432 243.661 810.432ZM244.297 811.44V817.44H243.013V811.44H244.297ZM246.306 817.44V811.44H247.446L247.53 813L247.362 812.832C247.474 812.488 247.634 812.204 247.842 811.98C248.058 811.748 248.31 811.58 248.598 811.476C248.894 811.372 249.206 811.32 249.534 811.32C249.958 811.32 250.338 811.404 250.674 811.572C251.018 811.732 251.29 811.976 251.49 812.304C251.69 812.632 251.79 813.048 251.79 813.552V817.44H250.506V813.948C250.506 813.356 250.382 812.948 250.134 812.724C249.894 812.492 249.59 812.376 249.222 812.376C248.958 812.376 248.702 812.44 248.454 812.568C248.206 812.688 247.998 812.884 247.83 813.156C247.67 813.428 247.59 813.792 247.59 814.248V817.44H246.306ZM259.016 810.18L259.22 811.188C259.196 811.188 259.172 811.188 259.148 811.188C259.124 811.18 259.1 811.176 259.076 811.176C258.692 811.176 258.4 811.26 258.2 811.428C258 811.588 257.9 811.824 257.9 812.136L257.276 811.848C257.276 811.528 257.344 811.244 257.48 810.996C257.616 810.74 257.808 810.54 258.056 810.396C258.312 810.252 258.6 810.18 258.92 810.18C258.936 810.18 258.952 810.18 258.968 810.18C258.984 810.18 259 810.18 259.016 810.18ZM257.12 816.504C257.728 816.504 258.2 816.64 258.536 816.912C258.872 817.176 259.04 817.544 259.04 818.016C259.04 818.432 258.908 818.788 258.644 819.084C258.38 819.388 258.02 819.62 257.564 819.78C257.116 819.94 256.6 820.02 256.016 820.02C255.032 820.02 254.304 819.868 253.832 819.564C253.36 819.26 253.124 818.88 253.124 818.424C253.124 818.104 253.236 817.824 253.46 817.584C253.692 817.344 254.08 817.208 254.624 817.176L254.552 817.368C254.216 817.296 253.944 817.168 253.736 816.984C253.536 816.792 253.436 816.524 253.436 816.18C253.436 815.836 253.568 815.544 253.832 815.304C254.096 815.064 254.468 814.924 254.948 814.884L255.62 815.208H255.476C255.108 815.24 254.848 815.324 254.696 815.46C254.544 815.596 254.468 815.748 254.468 815.916C254.468 816.116 254.54 816.264 254.684 816.36C254.836 816.456 255.048 816.504 255.32 816.504H257.12ZM256.016 819.06C256.456 819.06 256.816 819.016 257.096 818.928C257.384 818.848 257.596 818.74 257.732 818.604C257.876 818.476 257.948 818.332 257.948 818.172C257.948 817.988 257.872 817.84 257.72 817.728C257.576 817.616 257.312 817.56 256.928 817.56H254.996C254.772 817.56 254.584 817.616 254.432 817.728C254.28 817.848 254.204 818.008 254.204 818.208C254.204 818.472 254.364 818.68 254.684 818.832C255.004 818.984 255.448 819.06 256.016 819.06ZM255.968 811.32C256.496 811.32 256.952 811.404 257.336 811.572C257.728 811.74 258.028 811.976 258.236 812.28C258.452 812.584 258.56 812.94 258.56 813.348C258.56 813.756 258.452 814.112 258.236 814.416C258.028 814.72 257.728 814.956 257.336 815.124C256.952 815.292 256.496 815.376 255.968 815.376C255.136 815.376 254.496 815.192 254.048 814.824C253.608 814.448 253.388 813.956 253.388 813.348C253.388 812.94 253.496 812.584 253.712 812.28C253.928 811.976 254.228 811.74 254.612 811.572C255.004 811.404 255.456 811.32 255.968 811.32ZM255.968 812.22C255.6 812.22 255.292 812.324 255.044 812.532C254.804 812.732 254.684 813.004 254.684 813.348C254.684 813.692 254.804 813.968 255.044 814.176C255.292 814.384 255.6 814.488 255.968 814.488C256.344 814.488 256.652 814.384 256.892 814.176C257.14 813.968 257.264 813.692 257.264 813.348C257.264 813.004 257.14 812.732 256.892 812.532C256.652 812.324 256.344 812.22 255.968 812.22ZM262.496 817.56C261.896 817.56 261.348 817.444 260.852 817.212C260.356 816.98 259.964 816.652 259.676 816.228L260.564 815.46C260.74 815.788 260.992 816.052 261.32 816.252C261.656 816.444 262.056 816.54 262.52 816.54C262.888 816.54 263.18 816.476 263.396 816.348C263.612 816.22 263.72 816.04 263.72 815.808C263.72 815.656 263.668 815.524 263.564 815.412C263.468 815.292 263.28 815.2 263 815.136L261.74 814.872C261.1 814.744 260.644 814.54 260.372 814.26C260.1 813.972 259.964 813.608 259.964 813.168C259.964 812.84 260.06 812.536 260.252 812.256C260.444 811.976 260.724 811.752 261.092 811.584C261.468 811.408 261.916 811.32 262.436 811.32C263.036 811.32 263.548 811.428 263.972 811.644C264.396 811.852 264.72 812.152 264.944 812.544L264.056 813.288C263.904 812.968 263.68 812.732 263.384 812.58C263.088 812.42 262.78 812.34 262.46 812.34C262.204 812.34 261.984 812.372 261.8 812.436C261.616 812.5 261.476 812.588 261.38 812.7C261.284 812.812 261.236 812.944 261.236 813.096C261.236 813.256 261.296 813.396 261.416 813.516C261.536 813.636 261.752 813.728 262.064 813.792L263.432 814.08C264.008 814.192 264.412 814.384 264.644 814.656C264.884 814.92 265.004 815.244 265.004 815.628C265.004 816.012 264.904 816.352 264.704 816.648C264.504 816.936 264.216 817.16 263.84 817.32C263.464 817.48 263.016 817.56 262.496 817.56Z" fill="white"/>
<g clip-path="url(#clip1_934_6430)">
<path d="M239.329 790.96C239.329 789.641 240.382 788.568 241.678 788.568C242.975 788.568 244.027 789.641 244.027 790.96C244.027 792.279 242.975 793.352 241.678 793.352C240.382 793.352 239.329 792.279 239.329 790.96Z" fill="white"/>
<path fill-rule="evenodd" clip-rule="evenodd" d="M238.599 779H244.754L245.016 780.335V780.34L245.447 782.468C246.057 782.743 246.627 783.084 247.15 783.468L249.295 782.738L250.564 782.338L251.229 783.497L252.962 786.453L253.64 787.638L252.631 788.536L251.022 789.93C251.073 790.244 251.119 790.596 251.119 790.96C251.119 791.324 251.071 791.678 251.023 791.99L252.637 793.39L253.64 794.282L252.957 795.475L251.229 798.423L250.564 799.587L249.277 799.176L247.15 798.452C246.619 798.844 246.048 799.179 245.447 799.452L245.016 801.58V801.585L244.758 802.92H238.602L238.342 801.582L237.912 799.452C237.31 799.179 236.74 798.844 236.209 798.452L234.067 799.181L232.793 799.587L232.131 798.423L230.396 795.465L229.72 794.282L230.728 793.384L232.335 791.989C232.276 791.649 232.244 791.305 232.24 790.96C232.24 790.598 232.287 790.242 232.337 789.931L230.72 788.528L229.72 787.64L230.399 786.447L232.13 783.497L232.791 782.336L234.08 782.744L236.207 783.468C236.738 783.076 237.309 782.741 237.91 782.468L238.341 780.336L238.599 779ZM241.68 786.973C239.518 786.973 237.765 788.759 237.765 790.96C237.765 793.161 239.519 794.947 241.678 794.947C243.839 794.947 245.592 793.161 245.592 790.96C245.592 788.759 243.838 786.973 241.68 786.973Z" fill="white"/>
</g>
</g>
<g opacity="0.5">
<path d="M328.359 817H327.003L326.247 814.924H322.923L322.167 817H320.847L323.835 809.08H325.371L328.359 817ZM323.283 813.88H325.887L324.591 810.184L323.283 813.88ZM332.046 810.88C332.526 810.88 332.934 810.952 333.27 811.096C333.614 811.232 333.902 811.428 334.134 811.684C334.366 811.94 334.542 812.232 334.662 812.56L333.45 813.04C333.346 812.672 333.178 812.392 332.946 812.2C332.722 812 332.426 811.9 332.058 811.9C331.698 811.9 331.39 811.984 331.134 812.152C330.878 812.312 330.682 812.548 330.546 812.86C330.418 813.172 330.354 813.556 330.354 814.012C330.354 814.46 330.422 814.84 330.558 815.152C330.694 815.464 330.89 815.7 331.146 815.86C331.402 816.02 331.706 816.1 332.058 816.1C332.33 816.1 332.566 816.056 332.766 815.968C332.966 815.872 333.13 815.74 333.258 815.572C333.394 815.396 333.486 815.184 333.534 814.936L334.698 815.332C334.586 815.692 334.41 816.008 334.17 816.28C333.938 816.544 333.646 816.752 333.294 816.904C332.942 817.048 332.538 817.12 332.082 817.12C331.49 817.12 330.966 816.996 330.51 816.748C330.054 816.5 329.698 816.144 329.442 815.68C329.194 815.208 329.07 814.648 329.07 814C329.07 813.352 329.194 812.796 329.442 812.332C329.698 811.86 330.05 811.5 330.498 811.252C330.954 811.004 331.47 810.88 332.046 810.88ZM338.785 810.88C339.265 810.88 339.673 810.952 340.009 811.096C340.353 811.232 340.641 811.428 340.873 811.684C341.105 811.94 341.281 812.232 341.401 812.56L340.189 813.04C340.085 812.672 339.917 812.392 339.685 812.2C339.461 812 339.165 811.9 338.797 811.9C338.437 811.9 338.129 811.984 337.873 812.152C337.617 812.312 337.421 812.548 337.285 812.86C337.157 813.172 337.093 813.556 337.093 814.012C337.093 814.46 337.161 814.84 337.297 815.152C337.433 815.464 337.629 815.7 337.885 815.86C338.141 816.02 338.445 816.1 338.797 816.1C339.069 816.1 339.305 816.056 339.505 815.968C339.705 815.872 339.869 815.74 339.997 815.572C340.133 815.396 340.225 815.184 340.273 814.936L341.437 815.332C341.325 815.692 341.149 816.008 340.909 816.28C340.677 816.544 340.385 816.752 340.033 816.904C339.681 817.048 339.277 817.12 338.821 817.12C338.229 817.12 337.705 816.996 337.249 816.748C336.793 816.5 336.437 816.144 336.181 815.68C335.933 815.208 335.809 814.648 335.809 814C335.809 813.352 335.933 812.796 336.181 812.332C336.437 811.86 336.789 811.5 337.237 811.252C337.693 811.004 338.209 810.88 338.785 810.88ZM345.535 810.88C346.119 810.88 346.635 811.004 347.083 811.252C347.531 811.5 347.879 811.86 348.127 812.332C348.383 812.796 348.511 813.352 348.511 814C348.511 814.648 348.383 815.208 348.127 815.68C347.879 816.144 347.531 816.5 347.083 816.748C346.635 816.996 346.119 817.12 345.535 817.12C344.951 817.12 344.435 816.996 343.987 816.748C343.539 816.5 343.187 816.144 342.931 815.68C342.675 815.208 342.547 814.648 342.547 814C342.547 813.352 342.675 812.796 342.931 812.332C343.187 811.86 343.539 811.5 343.987 811.252C344.435 811.004 344.951 810.88 345.535 810.88ZM345.535 811.888C345.175 811.888 344.867 811.972 344.611 812.14C344.363 812.3 344.171 812.536 344.035 812.848C343.899 813.16 343.831 813.544 343.831 814C343.831 814.448 343.899 814.832 344.035 815.152C344.171 815.464 344.363 815.704 344.611 815.872C344.867 816.032 345.175 816.112 345.535 816.112C345.895 816.112 346.199 816.032 346.447 815.872C346.695 815.704 346.887 815.464 347.023 815.152C347.159 814.832 347.227 814.448 347.227 814C347.227 813.544 347.159 813.16 347.023 812.848C346.887 812.536 346.695 812.3 346.447 812.14C346.199 811.972 345.895 811.888 345.535 811.888ZM352.262 817.12C351.87 817.12 351.506 817.048 351.17 816.904C350.842 816.76 350.578 816.528 350.378 816.208C350.178 815.888 350.078 815.472 350.078 814.96V811H351.362V814.636C351.362 815.18 351.478 815.556 351.71 815.764C351.942 815.964 352.266 816.064 352.682 816.064C352.882 816.064 353.074 816.032 353.258 815.968C353.45 815.896 353.622 815.788 353.774 815.644C353.926 815.492 354.042 815.3 354.122 815.068C354.21 814.836 354.254 814.564 354.254 814.252V811H355.538V817H354.41L354.35 816.028C354.142 816.404 353.862 816.68 353.51 816.856C353.158 817.032 352.742 817.12 352.262 817.12ZM357.544 817V811H358.684L358.768 812.56L358.6 812.392C358.712 812.048 358.872 811.764 359.08 811.54C359.296 811.308 359.548 811.14 359.836 811.036C360.132 810.932 360.444 810.88 360.772 810.88C361.196 810.88 361.576 810.964 361.912 811.132C362.256 811.292 362.528 811.536 362.728 811.864C362.928 812.192 363.028 812.608 363.028 813.112V817H361.744V813.508C361.744 812.916 361.62 812.508 361.372 812.284C361.132 812.052 360.828 811.936 360.46 811.936C360.196 811.936 359.94 812 359.692 812.128C359.444 812.248 359.236 812.444 359.068 812.716C358.908 812.988 358.828 813.352 358.828 813.808V817H357.544ZM366.655 809.236V815.2C366.655 815.496 366.731 815.712 366.883 815.848C367.043 815.984 367.255 816.052 367.519 816.052C367.735 816.052 367.923 816.02 368.083 815.956C368.243 815.884 368.391 815.788 368.527 815.668L368.815 816.604C368.631 816.764 368.403 816.892 368.131 816.988C367.867 817.076 367.571 817.12 367.243 817.12C366.899 817.12 366.583 817.064 366.295 816.952C366.007 816.84 365.783 816.66 365.623 816.412C365.463 816.156 365.379 815.824 365.371 815.416V809.596L366.655 809.236ZM368.719 811V812.008H364.219V811H368.719Z" fill="white"/>
<path fill-rule="evenodd" clip-rule="evenodd" d="M349.997 786.376C349.997 789.348 347.653 791.758 344.763 791.758C341.872 791.758 339.529 789.348 339.529 786.376C339.529 783.403 341.872 780.993 344.763 780.993C347.653 780.993 349.997 783.403 349.997 786.376ZM349.255 794.791C350.919 795.128 352.006 795.677 352.471 796.564C352.821 797.256 352.821 798.08 352.471 798.772C352.006 799.659 350.962 800.244 349.238 800.545C348.469 800.7 347.691 800.801 346.91 800.847C346.185 800.927 345.461 800.927 344.728 800.927H343.409C343.133 800.891 342.866 800.873 342.607 800.873C341.825 800.833 341.047 800.735 340.279 800.581C338.615 800.262 337.529 799.694 337.063 798.807C336.883 798.464 336.788 798.08 336.787 797.69C336.783 797.298 336.875 796.911 337.054 796.564C337.511 795.677 338.598 795.101 340.279 794.791C341.051 794.639 341.831 794.541 342.616 794.498C344.051 794.382 345.492 794.382 346.927 794.498C347.708 794.543 348.486 794.641 349.255 794.791Z" fill="white"/>
</g>
<rect opacity="0.35" x="351.833" y="17.8333" width="21" height="10.3333" rx="2.16667" stroke="#120D26"/>
<path opacity="0.4" d="M374.333 21V25C375.138 24.6612 375.661 23.8731 375.661 23C375.661 22.1269 375.138 21.3388 374.333 21Z" fill="#120D26"/>
<rect x="353.333" y="19.3333" width="18" height="7.33333" rx="1.33333" fill="#120D26"/>
<path fill-rule="evenodd" clip-rule="evenodd" d="M336.614 19.6152C338.927 19.6153 341.153 20.4694 342.83 22.001C342.956 22.1192 343.158 22.1177 343.282 21.9976L344.489 20.8273C344.552 20.7664 344.587 20.6839 344.587 20.598C344.586 20.5122 344.55 20.4301 344.486 20.3699C340.085 16.3176 333.142 16.3176 328.741 20.3699C328.677 20.43 328.641 20.5121 328.64 20.598C328.639 20.6838 328.674 20.7663 328.737 20.8273L329.945 21.9976C330.069 22.1179 330.271 22.1194 330.397 22.001C332.074 20.4693 334.3 19.6152 336.614 19.6152ZM336.614 23.4227C337.885 23.4227 339.111 23.8766 340.053 24.6964C340.181 24.8127 340.381 24.8102 340.506 24.6907L341.711 23.5204C341.775 23.459 341.81 23.3757 341.809 23.2892C341.808 23.2027 341.771 23.1201 341.706 23.0599C338.837 20.4955 334.393 20.4955 331.524 23.0599C331.459 23.1201 331.422 23.2027 331.421 23.2893C331.42 23.3758 331.455 23.4591 331.519 23.5204L332.724 24.6907C332.849 24.8102 333.049 24.8127 333.177 24.6964C334.118 23.8772 335.343 23.4233 336.614 23.4227ZM339.029 25.9846C339.031 26.0714 338.995 26.155 338.931 26.2158L336.845 28.2378C336.784 28.2972 336.701 28.3307 336.614 28.3307C336.527 28.3307 336.443 28.2972 336.382 28.2378L334.296 26.2158C334.232 26.155 334.197 26.0713 334.198 25.9845C334.2 25.8977 334.239 25.8156 334.307 25.7574C335.638 24.6751 337.589 24.6751 338.921 25.7574C338.988 25.8156 339.027 25.8978 339.029 25.9846Z" fill="#120D26"/>
<path fill-rule="evenodd" clip-rule="evenodd" d="M322.4 17.6667H321.36C320.786 17.6667 320.32 18.1144 320.32 18.6667V27.3333C320.32 27.8856 320.786 28.3333 321.36 28.3333H322.4C322.974 28.3333 323.44 27.8856 323.44 27.3333V18.6667C323.44 18.1144 322.974 17.6667 322.4 17.6667ZM316.507 20H317.547C318.121 20 318.587 20.4477 318.587 21V27.3333C318.587 27.8856 318.121 28.3333 317.547 28.3333H316.507C315.932 28.3333 315.467 27.8856 315.467 27.3333V21C315.467 20.4477 315.932 20 316.507 20ZM312.693 22.3333H311.653C311.079 22.3333 310.613 22.781 310.613 23.3333V27.3333C310.613 27.8856 311.079 28.3333 311.653 28.3333H312.693C313.268 28.3333 313.733 27.8856 313.733 27.3333V23.3333C313.733 22.781 313.268 22.3333 312.693 22.3333ZM307.84 24.3333H306.8C306.226 24.3333 305.76 24.781 305.76 25.3333V27.3333C305.76 27.8856 306.226 28.3333 306.8 28.3333H307.84C308.414 28.3333 308.88 27.8856 308.88 27.3333V25.3333C308.88 24.781 308.414 24.3333 307.84 24.3333Z" fill="#120D26"/>
<path d="M37.5102 28.18C36.9302 28.18 36.4102 28.08 35.9502 27.88C35.4902 27.67 35.0702 27.38 34.6902 27.01L35.5752 26.005C36.1752 26.635 36.8452 26.95 37.5852 26.95C37.9952 26.95 38.3752 26.815 38.7252 26.545C39.0752 26.265 39.3552 25.83 39.5652 25.24C39.7852 24.65 39.8952 23.89 39.8952 22.96C39.5852 23.24 39.2402 23.475 38.8602 23.665C38.4802 23.855 38.0702 23.95 37.6302 23.95C37.1002 23.95 36.5952 23.83 36.1152 23.59C35.6452 23.34 35.2602 22.98 34.9602 22.51C34.6702 22.03 34.5252 21.44 34.5252 20.74C34.5252 20.11 34.6652 19.535 34.9452 19.015C35.2352 18.495 35.6352 18.085 36.1452 17.785C36.6552 17.475 37.2452 17.32 37.9152 17.32C38.4352 17.32 38.8802 17.4 39.2502 17.56C39.6202 17.72 39.9302 17.93 40.1802 18.19C40.4202 18.44 40.6202 18.735 40.7802 19.075C40.9502 19.405 41.0752 19.845 41.1552 20.395C41.2352 20.935 41.2752 21.64 41.2752 22.51C41.2752 23.84 41.1102 24.925 40.7802 25.765C40.4502 26.595 40.0002 27.205 39.4302 27.595C38.8702 27.985 38.2302 28.18 37.5102 28.18ZM37.8552 22.84C38.2352 22.84 38.6002 22.745 38.9502 22.555C39.3102 22.365 39.6252 22.135 39.8952 21.865V21.415C39.8952 20.465 39.7102 19.745 39.3402 19.255C38.9802 18.765 38.4902 18.52 37.8702 18.52C37.3002 18.52 36.8152 18.72 36.4152 19.12C36.0252 19.51 35.8302 20.03 35.8302 20.68C35.8302 21.13 35.9252 21.52 36.1152 21.85C36.3052 22.17 36.5502 22.415 36.8502 22.585C37.1602 22.755 37.4952 22.84 37.8552 22.84ZM44.4944 22.03C44.2244 22.03 43.9894 21.93 43.7894 21.73C43.5894 21.53 43.4894 21.295 43.4894 21.025C43.4894 20.715 43.5794 20.47 43.7594 20.29C43.9394 20.11 44.1844 20.02 44.4944 20.02C44.7544 20.02 44.9844 20.12 45.1844 20.32C45.3944 20.52 45.4994 20.755 45.4994 21.025C45.4994 21.325 45.4044 21.57 45.2144 21.76C45.0244 21.94 44.7844 22.03 44.4944 22.03ZM44.4944 28.18C44.2244 28.18 43.9894 28.08 43.7894 27.88C43.5894 27.68 43.4894 27.445 43.4894 27.175C43.4894 26.865 43.5794 26.62 43.7594 26.44C43.9394 26.26 44.1844 26.17 44.4944 26.17C44.7544 26.17 44.9844 26.27 45.1844 26.47C45.3944 26.67 45.4994 26.905 45.4994 27.175C45.4994 27.475 45.4044 27.72 45.2144 27.91C45.0244 28.09 44.7844 28.18 44.4944 28.18ZM51.8864 28V25.765H47.4014V24.685L50.5364 17.395L51.7064 17.89L48.8714 24.535H51.8864V21.55H53.2364V24.535H54.4814V25.765H53.2364V28H51.8864ZM57.2956 28V26.8H59.4406V19.225L57.4306 20.74L56.6956 19.735L59.8006 17.5H60.7906V26.8H62.5756V28H57.2956Z" fill="#120D26"/>
<g filter="url(#filter2_dddd_934_6430)">
<rect x="32" y="373" width="327" height="59.9804" rx="20" fill="#3D50DF"/>
</g>
<path d="M169.007 403.727C169.493 403.727 169.919 403.664 170.285 403.538C170.657 403.412 170.966 403.235 171.212 403.007C171.464 402.773 171.653 402.497 171.779 402.179C171.905 401.855 171.968 401.498 171.968 401.108C171.968 400.322 171.722 399.704 171.23 399.254C170.744 398.804 170.003 398.579 169.007 398.579H167.009V403.727H169.007ZM169.007 397.076C169.835 397.076 170.555 397.172 171.167 397.364C171.779 397.556 172.286 397.829 172.688 398.183C173.09 398.531 173.387 398.954 173.579 399.452C173.777 399.95 173.876 400.502 173.876 401.108C173.876 401.714 173.771 402.272 173.561 402.782C173.351 403.286 173.042 403.721 172.634 404.087C172.226 404.453 171.716 404.738 171.104 404.942C170.498 405.14 169.799 405.239 169.007 405.239H167.009V410H165.092V397.076H169.007ZM181.23 404.411C181.23 404.063 181.179 403.742 181.077 403.448C180.981 403.154 180.837 402.899 180.645 402.683C180.453 402.467 180.219 402.299 179.943 402.179C179.667 402.059 179.349 401.999 178.989 401.999C178.251 401.999 177.669 402.212 177.243 402.638C176.823 403.064 176.556 403.655 176.442 404.411H181.23ZM182.679 408.695C182.463 408.947 182.214 409.166 181.932 409.352C181.65 409.532 181.35 409.679 181.032 409.793C180.714 409.907 180.384 409.991 180.042 410.045C179.706 410.099 179.373 410.126 179.043 410.126C178.413 410.126 177.828 410.021 177.288 409.811C176.754 409.595 176.289 409.283 175.893 408.875C175.503 408.461 175.197 407.951 174.975 407.345C174.759 406.733 174.651 406.031 174.651 405.239C174.651 404.603 174.75 404.012 174.948 403.466C175.146 402.914 175.428 402.434 175.794 402.026C176.166 401.618 176.619 401.297 177.153 401.063C177.687 400.829 178.287 400.712 178.953 400.712C179.511 400.712 180.024 400.805 180.492 400.991C180.966 401.171 181.374 401.435 181.716 401.783C182.058 402.131 182.325 402.56 182.517 403.07C182.715 403.58 182.814 404.162 182.814 404.816C182.814 405.086 182.784 405.269 182.724 405.365C182.664 405.455 182.553 405.5 182.391 405.5H176.397C176.415 406.046 176.493 406.523 176.631 406.931C176.769 407.333 176.958 407.669 177.198 407.939C177.444 408.209 177.735 408.41 178.071 408.542C178.407 408.674 178.782 408.74 179.196 408.74C179.586 408.74 179.922 408.695 180.204 408.605C180.492 408.515 180.738 408.419 180.942 408.317C181.152 408.209 181.326 408.11 181.464 408.02C181.608 407.93 181.734 407.885 181.842 407.885C181.986 407.885 182.097 407.939 182.175 408.047L182.679 408.695ZM186.348 402.125C186.546 401.915 186.753 401.723 186.969 401.549C187.185 401.375 187.413 401.228 187.653 401.108C187.899 400.982 188.16 400.886 188.436 400.82C188.718 400.748 189.018 400.712 189.336 400.712C189.84 400.712 190.281 400.796 190.659 400.964C191.043 401.132 191.364 401.369 191.622 401.675C191.88 401.975 192.075 402.338 192.207 402.764C192.339 403.19 192.405 403.661 192.405 404.177V410H190.641V404.177C190.641 403.523 190.491 403.016 190.191 402.656C189.891 402.29 189.432 402.107 188.814 402.107C188.364 402.107 187.941 402.215 187.545 402.431C187.155 402.641 186.792 402.929 186.456 403.295V410H184.701V400.856H185.754C186 400.856 186.153 400.973 186.213 401.207L186.348 402.125ZM200.668 403.07C200.38 402.692 200.068 402.428 199.732 402.278C199.402 402.128 199.03 402.053 198.616 402.053C197.812 402.053 197.188 402.344 196.744 402.926C196.306 403.502 196.087 404.345 196.087 405.455C196.087 406.037 196.135 406.535 196.231 406.949C196.333 407.357 196.477 407.693 196.663 407.957C196.855 408.215 197.089 408.407 197.365 408.533C197.641 408.653 197.953 408.713 198.301 408.713C198.811 408.713 199.252 408.599 199.624 408.371C199.996 408.143 200.344 407.822 200.668 407.408V403.07ZM202.432 396.716V410H201.37C201.124 410 200.971 409.883 200.911 409.649L200.758 408.596C200.368 409.058 199.924 409.43 199.426 409.712C198.934 409.988 198.364 410.126 197.716 410.126C197.194 410.126 196.72 410.024 196.294 409.82C195.874 409.616 195.514 409.319 195.214 408.929C194.914 408.533 194.683 408.044 194.521 407.462C194.359 406.88 194.278 406.211 194.278 405.455C194.278 404.777 194.368 404.147 194.548 403.565C194.728 402.983 194.989 402.479 195.331 402.053C195.673 401.627 196.087 401.294 196.573 401.054C197.059 400.808 197.608 400.685 198.22 400.685C198.772 400.685 199.24 400.775 199.624 400.955C200.014 401.135 200.362 401.39 200.668 401.72V396.716H202.432ZM206.716 400.856V410H204.961V400.856H206.716ZM207.049 398.03C207.049 398.192 207.016 398.348 206.95 398.498C206.884 398.642 206.794 398.771 206.68 398.885C206.572 398.993 206.443 399.08 206.293 399.146C206.143 399.206 205.987 399.236 205.825 399.236C205.663 399.236 205.51 399.206 205.366 399.146C205.222 399.08 205.093 398.993 204.979 398.885C204.871 398.771 204.784 398.642 204.718 398.498C204.658 398.348 204.628 398.192 204.628 398.03C204.628 397.862 204.658 397.706 204.718 397.562C204.784 397.412 204.871 397.283 204.979 397.175C205.093 397.061 205.222 396.974 205.366 396.914C205.51 396.848 205.663 396.815 205.825 396.815C205.987 396.815 206.143 396.848 206.293 396.914C206.443 396.974 206.572 397.061 206.68 397.175C206.794 397.283 206.884 397.412 206.95 397.562C207.016 397.706 207.049 397.862 207.049 398.03ZM210.904 402.125C211.102 401.915 211.309 401.723 211.525 401.549C211.741 401.375 211.969 401.228 212.209 401.108C212.455 400.982 212.716 400.886 212.992 400.82C213.274 400.748 213.574 400.712 213.892 400.712C214.396 400.712 214.837 400.796 215.215 400.964C215.599 401.132 215.92 401.369 216.178 401.675C216.436 401.975 216.631 402.338 216.763 402.764C216.895 403.19 216.961 403.661 216.961 404.177V410H215.197V404.177C215.197 403.523 215.047 403.016 214.747 402.656C214.447 402.29 213.988 402.107 213.37 402.107C212.92 402.107 212.497 402.215 212.101 402.431C211.711 402.641 211.348 402.929 211.012 403.295V410H209.257V400.856H210.31C210.556 400.856 210.709 400.973 210.769 401.207L210.904 402.125ZM222.543 405.437C222.855 405.437 223.128 405.395 223.362 405.311C223.602 405.227 223.8 405.11 223.956 404.96C224.118 404.804 224.238 404.618 224.316 404.402C224.4 404.186 224.442 403.949 224.442 403.691C224.442 403.163 224.28 402.743 223.956 402.431C223.638 402.113 223.167 401.954 222.543 401.954C221.925 401.954 221.454 402.113 221.13 402.431C220.812 402.743 220.653 403.163 220.653 403.691C220.653 403.949 220.692 404.186 220.77 404.402C220.854 404.612 220.974 404.795 221.13 404.951C221.292 405.101 221.49 405.221 221.724 405.311C221.964 405.395 222.237 405.437 222.543 405.437ZM225.342 410.477C225.342 410.261 225.282 410.09 225.162 409.964C225.042 409.832 224.877 409.73 224.667 409.658C224.463 409.58 224.223 409.526 223.947 409.496C223.671 409.46 223.38 409.433 223.074 409.415C222.774 409.397 222.465 409.382 222.147 409.37C221.829 409.352 221.523 409.322 221.229 409.28C220.917 409.436 220.659 409.625 220.455 409.847C220.257 410.069 220.158 410.33 220.158 410.63C220.158 410.822 220.206 411.002 220.302 411.17C220.404 411.338 220.557 411.482 220.761 411.602C220.971 411.728 221.232 411.824 221.544 411.89C221.862 411.962 222.24 411.998 222.678 411.998C223.11 411.998 223.491 411.959 223.821 411.881C224.151 411.809 224.427 411.704 224.649 411.566C224.877 411.434 225.048 411.275 225.162 411.089C225.282 410.903 225.342 410.699 225.342 410.477ZM227.124 401.198V401.855C227.124 402.071 226.989 402.206 226.719 402.26L225.738 402.404C225.822 402.59 225.888 402.788 225.936 402.998C225.984 403.202 226.008 403.418 226.008 403.646C226.008 404.096 225.921 404.504 225.747 404.87C225.573 405.23 225.333 405.539 225.027 405.797C224.721 406.055 224.355 406.253 223.929 406.391C223.509 406.529 223.047 406.598 222.543 406.598C222.129 406.598 221.742 406.553 221.382 406.463C221.202 406.571 221.064 406.691 220.968 406.823C220.878 406.949 220.833 407.075 220.833 407.201C220.833 407.411 220.92 407.567 221.094 407.669C221.274 407.771 221.505 407.846 221.787 407.894C222.075 407.936 222.402 407.963 222.768 407.975C223.14 407.987 223.515 408.008 223.893 408.038C224.277 408.062 224.652 408.11 225.018 408.182C225.39 408.248 225.717 408.359 225.999 408.515C226.287 408.665 226.518 408.875 226.692 409.145C226.872 409.409 226.962 409.754 226.962 410.18C226.962 410.576 226.863 410.96 226.665 411.332C226.473 411.704 226.191 412.034 225.819 412.322C225.447 412.61 224.994 412.841 224.46 413.015C223.926 413.189 223.32 413.276 222.642 413.276C221.964 413.276 221.373 413.21 220.869 413.078C220.371 412.946 219.954 412.769 219.618 412.547C219.288 412.325 219.039 412.067 218.871 411.773C218.709 411.479 218.628 411.173 218.628 410.855C218.628 410.411 218.766 410.036 219.042 409.73C219.318 409.418 219.699 409.175 220.185 409.001C219.921 408.881 219.711 408.719 219.555 408.515C219.399 408.305 219.321 408.029 219.321 407.687C219.321 407.555 219.345 407.42 219.393 407.282C219.441 407.138 219.513 406.997 219.609 406.859C219.711 406.715 219.834 406.58 219.978 406.454C220.128 406.328 220.299 406.214 220.491 406.112C220.041 405.86 219.687 405.527 219.429 405.113C219.171 404.693 219.042 404.204 219.042 403.646C219.042 403.196 219.129 402.791 219.303 402.431C219.477 402.071 219.717 401.762 220.023 401.504C220.335 401.246 220.704 401.048 221.13 400.91C221.562 400.772 222.033 400.703 222.543 400.703C223.335 400.703 224.016 400.868 224.586 401.198H227.124Z" fill="white"/>
<g filter="url(#filter3_dddd_934_6430)">
<rect x="32" y="465" width="327" height="59.9804" rx="20" fill="#3D50DF"/>
</g>
<path d="M162.658 499.228C162.766 499.228 162.859 499.27 162.937 499.354L163.693 500.182C163.165 500.806 162.52 501.289 161.758 501.631C161.002 501.973 160.09 502.144 159.022 502.144C158.086 502.144 157.237 501.982 156.475 501.658C155.719 501.334 155.071 500.881 154.531 500.299C153.997 499.717 153.583 499.021 153.289 498.211C152.995 497.401 152.848 496.51 152.848 495.538C152.848 494.566 153.001 493.675 153.307 492.865C153.619 492.055 154.054 491.359 154.612 490.777C155.17 490.195 155.836 489.742 156.61 489.418C157.39 489.094 158.251 488.932 159.193 488.932C160.111 488.932 160.927 489.082 161.641 489.382C162.355 489.682 162.976 490.081 163.504 490.579L162.874 491.47C162.832 491.536 162.778 491.59 162.712 491.632C162.652 491.674 162.571 491.695 162.469 491.695C162.355 491.695 162.22 491.638 162.064 491.524C161.914 491.41 161.713 491.284 161.461 491.146C161.215 491.002 160.909 490.873 160.543 490.759C160.177 490.645 159.721 490.588 159.175 490.588C158.533 490.588 157.945 490.702 157.411 490.93C156.877 491.152 156.415 491.476 156.025 491.902C155.641 492.322 155.341 492.841 155.125 493.459C154.915 494.071 154.81 494.764 154.81 495.538C154.81 496.324 154.921 497.023 155.143 497.635C155.365 498.247 155.671 498.766 156.061 499.192C156.451 499.618 156.91 499.942 157.438 500.164C157.966 500.386 158.536 500.497 159.148 500.497C159.52 500.497 159.853 500.476 160.147 500.434C160.447 500.386 160.72 500.317 160.966 500.227C161.218 500.137 161.455 500.023 161.677 499.885C161.899 499.741 162.118 499.57 162.334 499.372C162.382 499.33 162.433 499.297 162.487 499.273C162.541 499.243 162.598 499.228 162.658 499.228ZM168.981 492.712C169.653 492.712 170.259 492.823 170.799 493.045C171.345 493.261 171.807 493.576 172.185 493.99C172.569 494.398 172.863 494.893 173.067 495.475C173.271 496.051 173.373 496.699 173.373 497.419C173.373 498.139 173.271 498.79 173.067 499.372C172.863 499.954 172.569 500.449 172.185 500.857C171.807 501.265 171.345 501.58 170.799 501.802C170.259 502.018 169.653 502.126 168.981 502.126C168.303 502.126 167.691 502.018 167.145 501.802C166.605 501.58 166.143 501.265 165.759 500.857C165.375 500.449 165.078 499.954 164.868 499.372C164.664 498.79 164.562 498.139 164.562 497.419C164.562 496.699 164.664 496.051 164.868 495.475C165.078 494.893 165.375 494.398 165.759 493.99C166.143 493.576 166.605 493.261 167.145 493.045C167.691 492.823 168.303 492.712 168.981 492.712ZM168.981 500.758C169.845 500.758 170.49 500.467 170.916 499.885C171.342 499.303 171.555 498.484 171.555 497.428C171.555 496.372 171.342 495.553 170.916 494.971C170.49 494.383 169.845 494.089 168.981 494.089C168.105 494.089 167.451 494.383 167.019 494.971C166.593 495.553 166.38 496.372 166.38 497.428C166.38 498.484 166.593 499.303 167.019 499.885C167.451 500.467 168.105 500.758 168.981 500.758ZM175.332 502V492.856H176.385C176.631 492.856 176.784 492.973 176.844 493.207L176.97 494.08C177.306 493.678 177.678 493.351 178.086 493.099C178.5 492.841 178.983 492.712 179.535 492.712C180.141 492.712 180.633 492.88 181.011 493.216C181.389 493.546 181.665 493.996 181.839 494.566C181.971 494.242 182.142 493.963 182.352 493.729C182.562 493.495 182.796 493.303 183.054 493.153C183.312 493.003 183.585 492.892 183.873 492.82C184.167 492.748 184.464 492.712 184.764 492.712C185.25 492.712 185.682 492.79 186.06 492.946C186.444 493.096 186.768 493.318 187.032 493.612C187.296 493.906 187.497 494.269 187.635 494.701C187.773 495.133 187.842 495.625 187.842 496.177V502H186.078V496.177C186.078 495.493 185.928 494.977 185.628 494.629C185.334 494.281 184.902 494.107 184.332 494.107C184.08 494.107 183.84 494.152 183.612 494.242C183.384 494.326 183.183 494.455 183.009 494.629C182.841 494.803 182.706 495.019 182.604 495.277C182.508 495.535 182.46 495.835 182.46 496.177V502H180.696V496.177C180.696 495.469 180.555 494.947 180.273 494.611C179.991 494.275 179.577 494.107 179.031 494.107C178.653 494.107 178.302 494.206 177.978 494.404C177.654 494.602 177.357 494.872 177.087 495.214V502H175.332ZM191.958 499.75C192.246 500.128 192.555 500.392 192.885 500.542C193.221 500.692 193.596 500.767 194.01 500.767C194.814 500.767 195.435 500.479 195.873 499.903C196.317 499.321 196.539 498.475 196.539 497.365C196.539 496.783 196.488 496.288 196.386 495.88C196.29 495.466 196.146 495.13 195.954 494.872C195.768 494.608 195.537 494.416 195.261 494.296C194.985 494.17 194.673 494.107 194.325 494.107C193.815 494.107 193.371 494.221 192.993 494.449C192.621 494.677 192.276 495.001 191.958 495.421V499.75ZM191.868 494.224C192.06 493.996 192.264 493.789 192.48 493.603C192.702 493.411 192.939 493.249 193.191 493.117C193.443 492.979 193.71 492.874 193.992 492.802C194.28 492.724 194.586 492.685 194.91 492.685C195.432 492.685 195.903 492.787 196.323 492.991C196.749 493.195 197.112 493.495 197.412 493.891C197.712 494.287 197.943 494.776 198.105 495.358C198.273 495.94 198.357 496.609 198.357 497.365C198.357 498.043 198.264 498.673 198.078 499.255C197.898 499.831 197.637 500.332 197.295 500.758C196.959 501.184 196.545 501.52 196.053 501.766C195.567 502.006 195.018 502.126 194.406 502.126C193.86 502.126 193.392 502.036 193.002 501.856C192.612 501.676 192.264 501.424 191.958 501.1V505.069H190.203V492.856H191.256C191.502 492.856 191.655 492.973 191.715 493.207L191.868 494.224ZM202.128 488.716V502H200.364V488.716H202.128ZM210.691 496.411C210.691 496.063 210.64 495.742 210.538 495.448C210.442 495.154 210.298 494.899 210.106 494.683C209.914 494.467 209.68 494.299 209.404 494.179C209.128 494.059 208.81 493.999 208.45 493.999C207.712 493.999 207.13 494.212 206.704 494.638C206.284 495.064 206.017 495.655 205.903 496.411H210.691ZM212.14 500.695C211.924 500.947 211.675 501.166 211.393 501.352C211.111 501.532 210.811 501.679 210.493 501.793C210.175 501.907 209.845 501.991 209.503 502.045C209.167 502.099 208.834 502.126 208.504 502.126C207.874 502.126 207.289 502.021 206.749 501.811C206.215 501.595 205.75 501.283 205.354 500.875C204.964 500.461 204.658 499.951 204.436 499.345C204.22 498.733 204.112 498.031 204.112 497.239C204.112 496.603 204.211 496.012 204.409 495.466C204.607 494.914 204.889 494.434 205.255 494.026C205.627 493.618 206.08 493.297 206.614 493.063C207.148 492.829 207.748 492.712 208.414 492.712C208.972 492.712 209.485 492.805 209.953 492.991C210.427 493.171 210.835 493.435 211.177 493.783C211.519 494.131 211.786 494.56 211.978 495.07C212.176 495.58 212.275 496.162 212.275 496.816C212.275 497.086 212.245 497.269 212.185 497.365C212.125 497.455 212.014 497.5 211.852 497.5H205.858C205.876 498.046 205.954 498.523 206.092 498.931C206.23 499.333 206.419 499.669 206.659 499.939C206.905 500.209 207.196 500.41 207.532 500.542C207.868 500.674 208.243 500.74 208.657 500.74C209.047 500.74 209.383 500.695 209.665 500.605C209.953 500.515 210.199 500.419 210.403 500.317C210.613 500.209 210.787 500.11 210.925 500.02C211.069 499.93 211.195 499.885 211.303 499.885C211.447 499.885 211.558 499.939 211.636 500.047L212.14 500.695ZM216.953 502.144C216.215 502.144 215.645 501.937 215.243 501.523C214.847 501.109 214.649 500.518 214.649 499.75V494.278H213.587C213.485 494.278 213.398 494.248 213.326 494.188C213.26 494.122 213.227 494.026 213.227 493.9V493.189L214.712 492.982L215.108 490.255C215.132 490.153 215.177 490.075 215.243 490.021C215.315 489.961 215.405 489.931 215.513 489.931H216.404V493H218.996V494.278H216.404V499.633C216.404 499.993 216.491 500.263 216.665 500.443C216.845 500.617 217.073 500.704 217.349 500.704C217.511 500.704 217.649 500.683 217.763 500.641C217.883 500.599 217.985 500.554 218.069 500.506C218.153 500.452 218.225 500.404 218.285 500.362C218.345 500.32 218.399 500.299 218.447 500.299C218.507 500.299 218.552 500.314 218.582 500.344C218.618 500.368 218.654 500.41 218.69 500.47L219.212 501.316C218.924 501.58 218.582 501.784 218.186 501.928C217.79 502.072 217.379 502.144 216.953 502.144ZM226.617 496.411C226.617 496.063 226.566 495.742 226.464 495.448C226.368 495.154 226.224 494.899 226.032 494.683C225.84 494.467 225.606 494.299 225.33 494.179C225.054 494.059 224.736 493.999 224.376 493.999C223.638 493.999 223.056 494.212 222.63 494.638C222.21 495.064 221.943 495.655 221.829 496.411H226.617ZM228.066 500.695C227.85 500.947 227.601 501.166 227.319 501.352C227.037 501.532 226.737 501.679 226.419 501.793C226.101 501.907 225.771 501.991 225.429 502.045C225.093 502.099 224.76 502.126 224.43 502.126C223.8 502.126 223.215 502.021 222.675 501.811C222.141 501.595 221.676 501.283 221.28 500.875C220.89 500.461 220.584 499.951 220.362 499.345C220.146 498.733 220.038 498.031 220.038 497.239C220.038 496.603 220.137 496.012 220.335 495.466C220.533 494.914 220.815 494.434 221.181 494.026C221.553 493.618 222.006 493.297 222.54 493.063C223.074 492.829 223.674 492.712 224.34 492.712C224.898 492.712 225.411 492.805 225.879 492.991C226.353 493.171 226.761 493.435 227.103 493.783C227.445 494.131 227.712 494.56 227.904 495.07C228.102 495.58 228.201 496.162 228.201 496.816C228.201 497.086 228.171 497.269 228.111 497.365C228.051 497.455 227.94 497.5 227.778 497.5H221.784C221.802 498.046 221.88 498.523 222.018 498.931C222.156 499.333 222.345 499.669 222.585 499.939C222.831 500.209 223.122 500.41 223.458 500.542C223.794 500.674 224.169 500.74 224.583 500.74C224.973 500.74 225.309 500.695 225.591 500.605C225.879 500.515 226.125 500.419 226.329 500.317C226.539 500.209 226.713 500.11 226.851 500.02C226.995 499.93 227.121 499.885 227.229 499.885C227.373 499.885 227.484 499.939 227.562 500.047L228.066 500.695ZM235.982 495.07C235.694 494.692 235.382 494.428 235.046 494.278C234.716 494.128 234.344 494.053 233.93 494.053C233.126 494.053 232.502 494.344 232.058 494.926C231.62 495.502 231.401 496.345 231.401 497.455C231.401 498.037 231.449 498.535 231.545 498.949C231.647 499.357 231.791 499.693 231.977 499.957C232.169 500.215 232.403 500.407 232.679 500.533C232.955 500.653 233.267 500.713 233.615 500.713C234.125 500.713 234.566 500.599 234.938 500.371C235.31 500.143 235.658 499.822 235.982 499.408V495.07ZM237.746 488.716V502H236.684C236.438 502 236.285 501.883 236.225 501.649L236.072 500.596C235.682 501.058 235.238 501.43 234.74 501.712C234.248 501.988 233.678 502.126 233.03 502.126C232.508 502.126 232.034 502.024 231.608 501.82C231.188 501.616 230.828 501.319 230.528 500.929C230.228 500.533 229.997 500.044 229.835 499.462C229.673 498.88 229.592 498.211 229.592 497.455C229.592 496.777 229.682 496.147 229.862 495.565C230.042 494.983 230.303 494.479 230.645 494.053C230.987 493.627 231.401 493.294 231.887 493.054C232.373 492.808 232.922 492.685 233.534 492.685C234.086 492.685 234.554 492.775 234.938 492.955C235.328 493.135 235.676 493.39 235.982 493.72V488.716H237.746Z" fill="white"/>
</g>
<defs>
<filter id="filter0_dddd_934_6430" x="140" y="591" width="115" height="116" filterUnits="userSpaceOnUse" color-interpolation-filters="sRGB">
<feFlood flood-opacity="0" result="BackgroundImageFix"/>
<feColorMatrix in="SourceAlpha" type="matrix" values="0 0 0 0 0 0 0 0 0 0 0 0 0 0 0 0 0 0 127 0" result="hardAlpha"/>
<feOffset dx="2" dy="9"/>
<feGaussianBlur stdDeviation="15"/>
<feColorMatrix type="matrix" values="0 0 0 0 0.666308 0 0 0 0 0.734237 0 0 0 0 0.78943 0 0 0 0.795345 0"/>
<feBlend mode="normal" in2="BackgroundImageFix" result="effect1_dropShadow_934_6430"/>
<feColorMatrix in="SourceAlpha" type="matrix" values="0 0 0 0 0 0 0 0 0 0 0 0 0 0 0 0 0 0 127 0" result="hardAlpha"/>
<feOffset dx="-8" dy="5"/>
<feGaussianBlur stdDeviation="6"/>
<feColorMatrix type="matrix" values="0 0 0 0 0.956863 0 0 0 0 0.972549 0 0 0 0 0.984314 0 0 0 0.345662 0"/>
<feBlend mode="normal" in2="effect1_dropShadow_934_6430" result="effect2_dropShadow_934_6430"/>
<feColorMatrix in="SourceAlpha" type="matrix" values="0 0 0 0 0 0 0 0 0 0 0 0 0 0 0 0 0 0 127 0" result="hardAlpha"/>
<feOffset dx="-13" dy="-7"/>
<feGaussianBlur stdDeviation="7.5"/>
<feColorMatrix type="matrix" values="0 0 0 0 0.966101 0 0 0 0 0.985472 0 0 0 0 1 0 0 0 0.741505 0"/>
<feBlend mode="normal" in2="effect2_dropShadow_934_6430" result="effect3_dropShadow_934_6430"/>
<feColorMatrix in="SourceAlpha" type="matrix" values="0 0 0 0 0 0 0 0 0 0 0 0 0 0 0 0 0 0 127 0" result="hardAlpha"/>
<feOffset dx="-7" dy="-7"/>
<feGaussianBlur stdDeviation="6"/>
<feColorMatrix type="matrix" values="0 0 0 0 1 0 0 0 0 1 0 0 0 0 1 0 0 0 0.0155704 0"/>
<feBlend mode="normal" in2="effect3_dropShadow_934_6430" result="effect4_dropShadow_934_6430"/>
<feBlend mode="normal" in="SourceGraphic" in2="effect4_dropShadow_934_6430" result="shape"/>
</filter>
<filter id="filter1_bd_934_6430" x="-40" y="722" width="470" height="171.52" filterUnits="userSpaceOnUse" color-interpolation-filters="sRGB">
<feFlood flood-opacity="0" result="BackgroundImageFix"/>
<feGaussianBlur in="BackgroundImageFix" stdDeviation="20"/>
<feComposite in2="SourceAlpha" operator="in" result="effect1_backgroundBlur_934_6430"/>
<feColorMatrix in="SourceAlpha" type="matrix" values="0 0 0 0 0 0 0 0 0 0 0 0 0 0 0 0 0 0 127 0" result="hardAlpha"/>
<feOffset dy="4"/>
<feGaussianBlur stdDeviation="2"/>
<feComposite in2="hardAlpha" operator="out"/>
<feColorMatrix type="matrix" values="0 0 0 0 0 0 0 0 0 0 0 0 0 0 0 0 0 0 0.25 0"/>
<feBlend mode="normal" in2="effect1_backgroundBlur_934_6430" result="effect2_dropShadow_934_6430"/>
<feBlend mode="normal" in="SourceGraphic" in2="effect2_dropShadow_934_6430" result="shape"/>
</filter>
<filter id="filter2_dddd_934_6430" x="1" y="311" width="427" height="192.98" filterUnits="userSpaceOnUse" color-interpolation-filters="sRGB">
<feFlood flood-opacity="0" result="BackgroundImageFix"/>
<feColorMatrix in="SourceAlpha" type="matrix" values="0 0 0 0 0 0 0 0 0 0 0 0 0 0 0 0 0 0 127 0" result="hardAlpha"/>
<feOffset dx="19" dy="21"/>
<feGaussianBlur stdDeviation="25"/>
<feColorMatrix type="matrix" values="0 0 0 0 0.691633 0 0 0 0 0.764753 0 0 0 0 0.824162 0 0 0 0.727846 0"/>
<feBlend mode="normal" in2="BackgroundImageFix" result="effect1_dropShadow_934_6430"/>
<feColorMatrix in="SourceAlpha" type="matrix" values="0 0 0 0 0 0 0 0 0 0 0 0 0 0 0 0 0 0 127 0" result="hardAlpha"/>
<feOffset dx="-8"/>
<feGaussianBlur stdDeviation="4"/>
<feColorMatrix type="matrix" values="0 0 0 0 0.956863 0 0 0 0 0.972549 0 0 0 0 0.984314 0 0 0 0.50254 0"/>
<feBlend mode="normal" in2="effect1_dropShadow_934_6430" result="effect2_dropShadow_934_6430"/>
<feColorMatrix in="SourceAlpha" type="matrix" values="0 0 0 0 0 0 0 0 0 0 0 0 0 0 0 0 0 0 127 0" result="hardAlpha"/>
<feOffset dx="-8" dy="-40"/>
<feGaussianBlur stdDeviation="11"/>
<feColorMatrix type="matrix" values="0 0 0 0 0.966101 0 0 0 0 0.985472 0 0 0 0 1 0 0 0 0.384288 0"/>
<feBlend mode="normal" in2="effect2_dropShadow_934_6430" result="effect3_dropShadow_934_6430"/>
<feColorMatrix in="SourceAlpha" type="matrix" values="0 0 0 0 0 0 0 0 0 0 0 0 0 0 0 0 0 0 127 0" result="hardAlpha"/>
<feOffset dx="-11" dy="-11"/>
<feGaussianBlur stdDeviation="10"/>
<feColorMatrix type="matrix" values="0 0 0 0 1 0 0 0 0 1 0 0 0 0 1 0 0 0 0.272044 0"/>
<feBlend mode="normal" in2="effect3_dropShadow_934_6430" result="effect4_dropShadow_934_6430"/>
<feBlend mode="normal" in="SourceGraphic" in2="effect4_dropShadow_934_6430" result="shape"/>
</filter>
<filter id="filter3_dddd_934_6430" x="1" y="403" width="427" height="192.98" filterUnits="userSpaceOnUse" color-interpolation-filters="sRGB">
<feFlood flood-opacity="0" result="BackgroundImageFix"/>
<feColorMatrix in="SourceAlpha" type="matrix" values="0 0 0 0 0 0 0 0 0 0 0 0 0 0 0 0 0 0 127 0" result="hardAlpha"/>
<feOffset dx="19" dy="21"/>
<feGaussianBlur stdDeviation="25"/>
<feColorMatrix type="matrix" values="0 0 0 0 0.691633 0 0 0 0 0.764753 0 0 0 0 0.824162 0 0 0 0.727846 0"/>
<feBlend mode="normal" in2="BackgroundImageFix" result="effect1_dropShadow_934_6430"/>
<feColorMatrix in="SourceAlpha" type="matrix" values="0 0 0 0 0 0 0 0 0 0 0 0 0 0 0 0 0 0 127 0" result="hardAlpha"/>
<feOffset dx="-8"/>
<feGaussianBlur stdDeviation="4"/>
<feColorMatrix type="matrix" values="0 0 0 0 0.956863 0 0 0 0 0.972549 0 0 0 0 0.984314 0 0 0 0.50254 0"/>
<feBlend mode="normal" in2="effect1_dropShadow_934_6430" result="effect2_dropShadow_934_6430"/>
<feColorMatrix in="SourceAlpha" type="matrix" values="0 0 0 0 0 0 0 0 0 0 0 0 0 0 0 0 0 0 127 0" result="hardAlpha"/>
<feOffset dx="-8" dy="-40"/>
<feGaussianBlur stdDeviation="11"/>
<feColorMatrix type="matrix" values="0 0 0 0 0.966101 0 0 0 0 0.985472 0 0 0 0 1 0 0 0 0.384288 0"/>
<feBlend mode="normal" in2="effect2_dropShadow_934_6430" result="effect3_dropShadow_934_6430"/>
<feColorMatrix in="SourceAlpha" type="matrix" values="0 0 0 0 0 0 0 0 0 0 0 0 0 0 0 0 0 0 127 0" result="hardAlpha"/>
<feOffset dx="-11" dy="-11"/>
<feGaussianBlur stdDeviation="10"/>
<feColorMatrix type="matrix" values="0 0 0 0 1 0 0 0 0 1 0 0 0 0 1 0 0 0 0.272044 0"/>
<feBlend mode="normal" in2="effect3_dropShadow_934_6430" result="effect4_dropShadow_934_6430"/>
<feBlend mode="normal" in="SourceGraphic" in2="effect4_dropShadow_934_6430" result="shape"/>
</filter>
<clipPath id="clip0_934_6430">
<rect width="390" height="844" fill="white"/>
</clipPath>
<clipPath id="clip1_934_6430">
<rect width="23.92" height="23.92" fill="white" transform="translate(229.72 779)"/>
</clipPath>
</defs>
</svg>
