<svg width="10" height="11" viewBox="0 0 10 11" fill="none" xmlns="http://www.w3.org/2000/svg">
<path d="M5.0392 0.00390625C2.78882 0.00390625 0.96875 1.60471 0.96875 3.58398C0.96875 4.47388 1.2595 5.30753 1.78866 6.05935C2.34107 6.84696 3.06794 7.52206 3.62618 8.30968C3.89948 8.69326 4.09718 9.05126 4.30652 9.46553C4.45771 9.74682 4.57982 10.2327 5.0392 10.2327C5.49858 10.2327 5.6207 9.74682 5.76607 9.46553C5.98122 9.05126 6.17312 8.69326 6.44642 8.30968C7.00465 7.52718 7.73152 6.85208 8.28394 6.05935C8.81891 5.30753 9.10966 4.47388 9.10966 3.58398C9.10966 1.60471 7.28958 0.00390625 5.0392 0.00390625ZM5.0392 4.99044C4.65365 4.99044 4.28389 4.85573 4.01126 4.61595C3.73863 4.37616 3.58547 4.05095 3.58547 3.71184C3.58547 3.37273 3.73863 3.04752 4.01126 2.80773C4.28389 2.56795 4.65365 2.43324 5.0392 2.43324C5.42476 2.43324 5.79452 2.56795 6.06715 2.80773C6.33978 3.04752 6.49294 3.37273 6.49294 3.71184C6.49294 4.05095 6.33978 4.37616 6.06715 4.61595C5.79452 4.85573 5.42476 4.99044 5.0392 4.99044Z" fill="#CE0078"/>
</svg>
