<svg width="27" height="27" viewBox="0 0 27 27" fill="none" xmlns="http://www.w3.org/2000/svg">
<path fill-rule="evenodd" clip-rule="evenodd" d="M26.834 21.8726C26.834 26.2821 19.2484 26.7918 13.544 26.7918L13.1358 26.7915C9.50151 26.7845 0.250702 26.6016 0.250702 21.8458C0.250702 17.5263 7.5315 16.9491 13.1924 16.9273L13.9522 16.9269C17.5863 16.9339 26.834 17.1169 26.834 21.8726ZM13.544 18.9334C6.39306 18.9334 2.76806 19.9127 2.76806 21.8458C2.76806 23.7964 6.39306 24.7851 13.544 24.7851C20.6934 24.7851 24.3167 23.8058 24.3167 21.8726C24.3167 19.922 20.6934 18.9334 13.544 18.9334ZM13.544 0.208496C18.4579 0.208496 22.4538 3.39522 22.4538 7.3124C22.4538 11.2296 18.4579 14.415 13.544 14.415H13.4903C8.58652 14.4029 4.61413 11.2149 4.63086 7.30839C4.63086 3.39522 8.62848 0.208496 13.544 0.208496ZM13.544 2.11893C9.95093 2.11893 7.0274 4.4481 7.0274 7.3124C7.01569 10.1673 9.91737 12.4952 13.4954 12.5059L13.544 13.4611V12.5059C17.1355 12.5059 20.0573 10.1754 20.0573 7.3124C20.0573 4.4481 17.1355 2.11893 13.544 2.11893Z" fill="#2463eb"/>
</svg>
