<svg width="19" height="20" viewBox="0 0 19 20" fill="none" xmlns="http://www.w3.org/2000/svg">
<path d="M12.0309 8.58744e-07C10.6889 -0.000662727 9.3753 0.383271 8.24803 1.10563C7.12077 1.82799 6.22787 2.85801 5.67671 4.07182C5.12556 5.28563 4.93961 6.63155 5.14125 7.94771C5.34289 9.26386 5.92351 10.4942 6.8133 11.4908L0 19.1625L0.945588 20L7.74201 12.3618C8.61623 13.0402 9.64119 13.5015 10.7315 13.7073C11.8218 13.9131 12.946 13.8576 14.0102 13.5452C15.0745 13.2328 16.0482 12.6727 16.8501 11.9115C17.652 11.1503 18.2589 10.21 18.6203 9.16902C18.9817 8.12802 19.0872 7.01642 18.9279 5.92681C18.7685 4.8372 18.3491 3.80112 17.7044 2.90488C17.0597 2.00865 16.2085 1.27819 15.2216 0.774359C14.2348 0.270528 13.1408 0.00790879 12.0309 0.00837607V8.58744e-07ZM12.0309 12.5628C10.5195 12.5628 9.06997 11.9672 8.00122 10.907C6.93248 9.84682 6.33207 8.40889 6.33207 6.90955C6.33207 5.41021 6.93248 3.97228 8.00122 2.91209C9.06997 1.85189 10.5195 1.25628 12.0309 1.25628C13.5424 1.25628 14.9919 1.85189 16.0606 2.91209C17.1294 3.97228 17.7298 5.41021 17.7298 6.90955C17.7298 8.40889 17.1294 9.84682 16.0606 10.907C14.9919 11.9672 13.5424 12.5628 12.0309 12.5628Z" fill="#2463eb"/>
</svg>
