<svg width="30" height="30" viewBox="0 0 30 30" fill="none" xmlns="http://www.w3.org/2000/svg">
<path d="M15 11.25C16.0355 11.25 16.875 10.4105 16.875 9.375C16.875 8.33947 16.0355 7.5 15 7.5C13.9645 7.5 13.125 8.33947 13.125 9.375C13.125 10.4105 13.9645 11.25 15 11.25Z" fill="#3D50DF"/>
<path d="M15 2.5C12.5277 2.5 10.111 3.23311 8.05538 4.60663C5.99976 5.98015 4.39761 7.93238 3.45151 10.2165C2.50542 12.5005 2.25787 15.0139 2.74019 17.4386C3.2225 19.8634 4.41301 22.0907 6.16117 23.8388C7.90933 25.587 10.1366 26.7775 12.5614 27.2598C14.9861 27.7421 17.4995 27.4946 19.7836 26.5485C22.0676 25.6024 24.0199 24.0002 25.3934 21.9446C26.7669 19.889 27.5 17.4723 27.5 15C27.5 13.3585 27.1767 11.733 26.5485 10.2165C25.9203 8.69989 24.9996 7.3219 23.8388 6.16117C22.6781 5.00043 21.3001 4.07969 19.7836 3.45151C18.267 2.82332 16.6415 2.5 15 2.5ZM15 25C13.0222 25 11.0888 24.4135 9.4443 23.3147C7.79981 22.2159 6.51809 20.6541 5.76121 18.8268C5.00433 16.9996 4.8063 14.9889 5.19215 13.0491C5.57801 11.1093 6.53041 9.32746 7.92894 7.92893C9.32746 6.53041 11.1093 5.578 13.0491 5.19215C14.9889 4.8063 16.9996 5.00433 18.8268 5.7612C20.6541 6.51808 22.2159 7.79981 23.3147 9.4443C24.4135 11.0888 25 13.0222 25 15C25 17.6522 23.9464 20.1957 22.0711 22.0711C20.1957 23.9464 17.6522 25 15 25Z" fill="#3D50DF"/>
<path d="M20.625 13.125L20 11.25L16.25 12.5H13.75L10 11.25L9.375 13.125L13.125 14.375V16.25L11.25 21.5625L13.125 22.5L14.6875 18.125H15.3125L16.875 22.5L18.75 21.5625L16.875 16.25V14.375L20.625 13.125Z" fill="#3D50DF"/>
</svg>
